<svg width="10" height="44" viewBox="0 0 10 44" fill="none" xmlns="http://www.w3.org/2000/svg">
<path d="M9.16631 5.83572C9.07261 8.93307 8.48138 11.9953 7.41522 14.9052C7.34922 15.0046 7.29811 15.1131 7.26351 15.2273L5.93597 18.0062L7.47212 17.3115C7.63545 21.7896 7.35168 26.2728 6.62502 30.6947C6.45415 31.04 6.25319 31.3697 6.02447 31.6799C5.59289 32.2898 5.11075 32.8623 4.58315 33.3915C5.20411 33.2611 5.81637 33.0924 6.41641 32.8862C6.34688 34.0105 6.27102 35.3747 6.2078 36.7515L4.58315 43.5H0.828125V36.2399C0.887054 35.061 1.01369 33.8864 1.20742 32.722C1.74594 33.1305 2.30737 33.508 2.88897 33.8526C2.36405 32.7922 1.98348 31.6664 1.7574 30.5052C1.76995 30.4151 1.76995 30.3237 1.7574 30.2336L1.7005 29.8926C1.69425 29.7958 1.69425 29.6988 1.7005 29.602C1.11892 25.541 1.53614 19.2378 2.33266 16.6294L4.10271 17.1789C3.69197 16.415 3.28754 15.6511 2.88312 14.8871L2.88264 14.8862C2.87562 14.8138 2.86294 14.742 2.84472 14.6715C2.17908 11.8506 1.84807 8.96128 1.85854 6.06309C1.85854 3.42309 2.44645 1.54731 3.55273 0.650465C3.95977 0.355671 4.42686 0.154159 4.92074 0.0602772C5.41461 -0.0336043 5.92313 -0.0175463 6.41009 0.107306C8.59104 0.568359 9.16631 3.94099 9.16631 5.83572Z" fill="white"/>
</svg>
