<svg width="32" height="47" viewBox="0 0 32 47" fill="none" xmlns="http://www.w3.org/2000/svg">
<path d="M31.1659 5.83572C31.0722 8.93307 30.4809 11.9953 29.4148 14.9052C29.3488 15.0046 29.2977 15.1131 29.2631 15.2273L27.9355 18.0062L29.4717 17.3115C29.635 21.7896 29.3512 26.2728 28.6246 30.6947C28.4537 31.04 28.2528 31.3697 28.024 31.6799C27.5925 32.2898 27.1103 32.8623 26.5827 33.3915C27.2037 33.2611 27.8159 33.0924 28.416 32.8862C28.3464 34.0105 28.2706 35.3747 28.2074 36.7515C28.1125 38.6905 27.9735 42.0378 27.9355 44.8104C27.316 44.822 26.6976 44.8683 26.0833 44.9494C24.4371 45.1758 22.8115 45.5327 21.222 46.0168C20.887 46.1178 20.5456 46.2252 20.2106 46.3389C19.9352 46.4586 19.6523 46.5599 19.3635 46.642C19.0947 46.646 18.8274 46.6032 18.5733 46.5157C18.3267 46.4652 18.0802 46.402 17.8273 46.402C17.2853 46.3493 16.5444 46.3914 16 46.402L15.0395 44.1284L12.947 41.7663C12.9066 41.6664 12.8558 41.5712 12.7953 41.482C12.2327 40.7052 10.3109 36.0757 9.40695 32.9178L11.6258 33.5494L8.80008 30.4357C8.78111 30.3978 8.74951 30.3599 8.74951 30.3283C7.12319 27.5399 5.92557 24.523 5.19677 21.3789L6.70131 21.2968L4.74794 19.5726C4.68342 19.4433 4.60037 19.3242 4.5014 19.2189C4.48243 19.1999 2.79457 17.4441 1.15095 13.4336C-0.49266 9.42309 -0.347262 5.24836 1.40382 4.37046C1.72235 4.21873 2.06914 4.13528 2.42189 4.12549C2.77464 4.1157 3.12554 4.17979 3.45201 4.31362C4.80483 4.83152 6.15133 6.25257 6.88464 7.98941C7.85816 10.301 9.25523 15.9852 9.25523 17.6463C9.25586 17.8144 9.2858 17.9811 9.34374 18.1389V20.9936L10.4247 19.8063C11.8724 22.3263 13.9206 27.2273 13.9206 29.5389C13.9227 29.6981 13.9504 29.8559 14.0027 30.0062C13.9459 30.7452 13.8637 31.4778 13.7436 32.2105C14.1481 31.9515 14.5337 31.68 14.9193 31.4084L14.9194 31.4084C16.0779 33.4357 16.9602 35.6086 17.5428 37.8694L17.5479 37.8861C18.2021 40.0608 18.5635 41.2619 19.6859 41.6273C19.9597 41.716 20.2512 41.7359 20.5346 41.6853C20.818 41.6346 21.0845 41.5149 21.3105 41.3368C22.5306 40.421 22.6633 38.5768 22.8277 36.2399C22.8866 35.061 23.0133 33.8864 23.207 32.722C23.7455 33.1305 24.3069 33.508 24.8885 33.8526C24.3636 32.7922 23.983 31.6664 23.757 30.5052C23.7695 30.4151 23.7695 30.3237 23.757 30.2336L23.7001 29.8926C23.6938 29.7958 23.6938 29.6988 23.7001 29.602C23.1185 25.541 23.5357 19.2378 24.3322 16.6294L26.1023 17.1789C25.6915 16.4149 25.287 15.6508 24.8825 14.8868L24.8822 14.8862C24.8752 14.8138 24.8625 14.742 24.8443 14.6715C24.1786 11.8506 23.8476 8.96128 23.8581 6.06309C23.8581 3.42309 24.446 1.54731 25.5523 0.650465C25.9593 0.355671 26.4264 0.154159 26.9203 0.0602772C27.4142 -0.0336043 27.9227 -0.0175463 28.4097 0.107306C30.5906 0.568359 31.1659 3.94099 31.1659 5.83572Z" fill="white"/>
</svg>
