<svg width="20" height="42" viewBox="0 0 20 42" fill="none" xmlns="http://www.w3.org/2000/svg">
<path d="M14.9194 27.4083C16.0779 29.4357 16.9602 31.6086 17.5428 33.8694C17.5428 33.8694 17.8565 36.4743 18.5 38C19.2364 39.746 20 41 20 41L16 41.5L15.0395 40.1283L12.947 37.7663C12.9066 37.6664 12.8558 37.5712 12.7953 37.482C12.2327 36.7052 10.3109 32.0757 9.40695 28.9178L11.6258 29.5494L8.80008 26.4357C8.78111 26.3978 8.74951 26.3599 8.74951 26.3283C7.12319 23.5399 5.92557 20.523 5.19677 17.3789L6.70131 17.2968L4.74794 15.5726C4.68342 15.4433 4.60037 15.3242 4.5014 15.2189C4.48243 15.1999 2.79457 13.4441 1.15095 9.43361C-0.49266 5.42309 -0.347262 1.24836 1.40382 0.370462C1.72235 0.218724 2.06914 0.135275 2.42189 0.125486C2.77464 0.115696 3.12554 0.179784 3.45201 0.313622C4.80483 0.831517 6.15133 2.25256 6.88464 3.98941C7.85816 6.30098 9.25523 11.9852 9.25523 13.6463C9.25586 13.8144 9.2858 13.9811 9.34374 14.1389V16.9936L10.4247 15.8063C11.8724 18.3263 13.9206 23.2273 13.9206 25.5389C13.9227 25.6981 13.9504 25.8559 14.0027 26.0062C13.9459 26.7452 13.8637 27.4778 13.7436 28.2105C14.1481 27.9515 14.5337 27.68 14.9193 27.4084L14.9194 27.4083Z" fill="white"/>
</svg>
