<svg width="283" height="300" viewBox="0 0 283 300" fill="none" xmlns="http://www.w3.org/2000/svg">
<g clip-path="url(#clip0)">
<path d="M13.3336 161.092C8.41966 156.034 8.43433 147.98 13.3667 142.94L132.588 21.1169C137.733 15.8601 146.21 15.9147 151.287 21.2373L267.411 142.994C272.214 148.03 272.2 155.956 267.378 160.974L150.323 282.798C145.227 288.101 136.75 288.125 131.625 282.849L13.3336 161.092Z" fill="#090126"/>
<path d="M8.32513 165.373C4.90947 161.762 3.00637 156.983 3.00637 152.015C3.00637 147.047 4.90947 142.267 8.32513 138.657L78.2546 64.8C78.0017 63.6127 77.791 62.3853 77.6224 61.1179L6.14418 136.585C2.19852 140.754 0 146.274 0 152.012C0 157.749 2.19852 163.269 6.14418 167.438V167.438L68.2981 233.122C67.9504 231.354 67.5964 229.51 67.2423 227.634L8.32513 165.373Z" fill="white"/>
<path d="M276.506 136.585L203.018 58.9768C202.891 60.2905 202.714 61.5663 202.5 62.7979L274.319 138.657C277.735 142.267 279.638 147.047 279.638 152.015C279.638 156.983 277.735 161.762 274.319 165.373L155.473 290.912C153.654 292.832 151.462 294.362 149.031 295.408C146.6 296.453 143.982 296.992 141.335 296.992C138.688 296.992 136.07 296.453 133.639 295.408C131.208 294.362 129.016 292.832 127.197 290.912L99.3818 261.505C98.9182 262.604 98.4778 263.596 98.0605 264.48L125.041 292.977C127.141 295.195 129.671 296.961 132.478 298.169C135.284 299.376 138.308 299.999 141.363 299.999C144.419 299.999 147.443 299.376 150.249 298.169C153.056 296.961 155.586 295.195 157.686 292.977L276.532 167.438C280.471 163.264 282.663 157.743 282.658 152.007C282.654 146.27 280.453 140.752 276.506 136.585V136.585Z" fill="white"/>
<path d="M16.2523 157.895C14.7476 156.309 13.909 154.206 13.909 152.021C13.909 149.836 14.7476 147.734 16.2523 146.147L82.1296 76.5601C81.2747 74.6624 80.5213 72.7207 79.8727 70.7432L12.1495 142.27C9.65723 144.903 8.26855 148.39 8.26855 152.015C8.26855 155.639 9.65723 159.126 12.1495 161.76L65.3521 217.971C64.616 214.088 63.5998 210.263 62.3114 206.526L16.2523 157.895Z" fill="#55038C"/>
<path d="M266.392 146.141C267.897 147.727 268.735 149.829 268.735 152.015C268.735 154.2 267.897 156.302 266.392 157.888L203.277 224.552L147.54 283.427C146.74 284.271 145.776 284.943 144.708 285.402C143.64 285.861 142.489 286.098 141.326 286.098C140.163 286.098 139.012 285.861 137.943 285.402C136.875 284.943 135.911 284.271 135.112 283.427L103.908 250.465C103.017 252.568 102.246 254.438 101.544 256.15L131.009 287.28C132.336 288.68 133.935 289.796 135.709 290.558C137.482 291.32 139.392 291.713 141.323 291.713C143.253 291.713 145.163 291.32 146.936 290.558C148.71 289.796 150.309 288.68 151.636 287.28L270.482 161.741C272.973 159.107 274.361 155.62 274.361 151.996C274.361 148.372 272.973 144.885 270.482 142.251L201.027 68.9243C200.433 70.9521 199.73 72.9465 198.922 74.899L266.392 146.141Z" fill="#55038C"/>
<path d="M103.801 236.874L103.042 238.623C102.233 240.518 101.443 242.413 100.653 244.27C99.0786 248.059 97.4919 251.817 95.8356 255.537C95.1339 257.091 94.4133 258.625 93.6294 260.135C93.0795 261.263 92.4455 262.348 91.7329 263.381C92.1164 262.206 92.4725 261.021 92.8013 259.825C93.6599 256.73 94.2937 253.576 94.6977 250.39C95.205 246.893 95.1388 243.337 94.5018 239.861C95.5575 241.124 96.0822 242.88 96.3982 244.446C97.3528 242.4 98.2441 240.329 99.0217 238.206C100.558 233.988 101.803 229.257 100.286 224.849C101.222 225.053 102.191 225.062 103.131 224.876C104.071 224.69 104.963 224.313 105.751 223.768C106.539 223.223 107.207 222.522 107.712 221.708C108.217 220.894 108.549 219.986 108.687 219.038C109.953 220.061 111.095 221.229 112.088 222.518C112.999 223.648 113.797 224.865 114.472 226.15C115.221 227.478 115.739 228.924 116.001 230.425C115.151 228.736 113.909 227.275 112.379 226.162C112.961 228.752 113.972 232.604 115.3 234.916C115.342 234.993 115.378 235.073 115.407 235.156C116.033 236.325 116.808 237.408 117.715 238.377C118.693 239.495 119.798 240.495 121.008 241.358C119.473 240.853 118.006 240.162 116.64 239.299C116.172 239.021 115.723 238.724 115.281 238.409C115.283 240.287 115.615 242.151 116.261 243.916C116.261 243.96 116.261 243.998 116.261 244.036C117.171 246.011 118.404 247.821 119.908 249.392C118.42 248.708 117.012 247.86 115.711 246.865C115.642 248.215 115.82 249.565 116.235 250.851C116.258 250.914 116.275 250.98 116.286 251.046C117.048 252.792 118.048 254.425 119.257 255.897C118.483 255.475 117.733 255.009 117.013 254.501L140.005 278.785C140.172 278.961 140.373 279.101 140.595 279.196C140.818 279.291 141.058 279.341 141.3 279.341C141.543 279.341 141.783 279.291 142.006 279.196C142.228 279.101 142.429 278.961 142.596 278.785L164.874 255.253C164.874 255.171 164.874 255.076 164.874 254.988C164.867 254.912 164.867 254.836 164.874 254.76C164.871 254.482 164.842 254.205 164.785 253.933C163.557 254.655 162.291 255.311 160.992 255.897C162.162 254.457 163.439 253.074 164.197 251.375C164.215 251.274 164.247 251.176 164.292 251.084C164.855 249.859 164.716 248.286 164.513 246.891C163.219 247.882 161.82 248.729 160.341 249.417C161.921 247.781 163.204 245.883 164.134 243.809C164.158 243.752 164.185 243.697 164.216 243.644C164.288 243.06 164.42 242.484 164.608 241.926C164.732 241.564 164.828 241.192 164.893 240.815C164.959 240.208 164.959 239.596 164.893 238.99C163.149 240.048 161.263 240.854 159.292 241.383C161.454 239.937 163.717 238.093 164.943 235.699C165.948 232.686 166.979 228.966 167.769 225.556C167.453 225.878 167.137 226.188 166.871 226.535C165.859 227.727 164.995 229.038 164.298 230.438C164.638 228.621 165.225 226.86 166.043 225.202C166.432 224.428 166.895 223.694 167.428 223.011C168.786 221.041 170.557 219.39 172.618 218.173C172.618 220.453 173.989 222.752 175.545 224.35C172.946 223.718 172.757 227.249 172.656 229.295C172.672 229.733 172.655 230.173 172.605 230.609C171.846 236.823 171.846 242.084 172.605 246.682L172.731 247.004L186.816 232.131C186.839 229.11 186.693 226.091 186.38 223.086C185.663 223.957 184.897 224.786 184.085 225.569C184.912 223.631 185.548 221.617 185.982 219.556C185.978 219.499 185.978 219.442 185.982 219.385C186.917 212.545 188.074 204.032 182.599 198.834C177.751 194.223 170.664 194.413 167.769 194.931C166.08 195.615 164.435 196.404 162.844 197.293C163.559 196.194 164.349 195.145 165.164 194.135C164.171 193.657 163.122 193.302 162.042 193.08C160.662 192.787 159.325 192.318 158.065 191.684L154.007 190.737L155.96 189.954C155.073 188.969 154.267 187.912 153.552 186.796C153.065 186.07 152.597 185.369 152.072 184.712L151.541 185.766C150.998 186.882 150.45 188 149.898 189.12C150.062 186.777 150.22 184.44 150.391 182.103C150.391 182.065 150.391 182.034 150.391 181.996C150.358 181.639 150.343 181.281 150.347 180.922C150.344 180.872 150.344 180.821 150.347 180.771C150.745 177.183 151.156 173.52 151.75 169.819C150.592 172.762 149.65 175.784 148.931 178.863C148.6 180.258 148.389 181.677 148.298 183.108C148.072 182.021 147.766 180.953 147.382 179.912C147.156 179.22 146.802 178.578 146.339 178.017C146.217 177.851 146.048 177.726 145.855 177.656C145.661 177.586 145.451 177.575 145.251 177.625C144.761 177.905 144.39 178.354 144.208 178.889C143.81 177.246 143.134 175.44 141.775 174.341C141.434 174.05 141.035 173.835 140.605 173.71C140.536 173.71 140.213 173.71 140.182 173.646C140.15 173.583 140.182 173.179 140.182 173.097V172.731H140.118V173.091C140.118 173.173 140.182 173.577 140.118 173.64C140.055 173.703 139.764 173.684 139.695 173.703C139.265 173.829 138.866 174.044 138.525 174.335C137.16 175.434 136.49 177.24 136.091 178.882C135.91 178.348 135.539 177.899 135.048 177.619C134.849 177.569 134.639 177.58 134.445 177.649C134.251 177.719 134.083 177.845 133.961 178.011C133.497 178.571 133.144 179.214 132.918 179.905C132.531 180.946 132.225 182.014 132.001 183.101C131.901 181.67 131.679 180.25 131.338 178.857C130.578 175.609 129.572 172.423 128.329 169.326C129.085 173.589 129.621 177.887 129.934 182.204C129.937 182.259 129.937 182.314 129.934 182.369C130.023 183.373 130.067 184.377 130.143 185.381C130.223 186.619 130.309 187.861 130.402 189.108C129.675 187.63 128.948 186.158 128.227 184.686C126.805 186.31 125.117 188.476 124.043 189.853L126.293 190.75L122.563 191.602C122.479 191.655 122.387 191.695 122.291 191.722C120.25 192.354 117.095 193.409 115.211 194.179C116.022 195.176 116.781 196.213 117.487 197.286C115.985 196.446 114.434 195.697 112.841 195.044C112.715 195.026 112.594 194.987 112.48 194.931C109.56 193.548 100.356 193.446 95.9747 201.423C91.5053 209.552 94.4891 218.476 94.5207 218.596C94.5509 218.708 94.5721 218.822 94.5839 218.937C95.0833 220.541 95.6207 222.139 96.2339 223.705C95.3741 222.973 94.546 222.202 93.7052 221.425L90.0008 230.526C90.791 232.971 91.4611 235.465 92.049 237.966C92.3714 239.331 92.6811 240.701 92.8834 242.084C93.1559 243.482 93.262 244.906 93.1995 246.329C93.0393 245 92.7254 243.694 92.2639 242.438C91.8277 241.112 91.3157 239.811 90.7783 238.516C89.7163 235.99 88.5721 233.463 87.2888 231.038C86.998 230.406 80.2023 214.813 78.6915 208.731C77.9467 205.839 77.5227 202.873 77.4271 199.889C76.7507 200.432 76.0364 200.931 75.3537 201.468C75.8215 200.558 76.3462 199.693 76.7697 198.758C77.1089 198.016 77.3921 197.25 77.6168 196.465C77.6168 196.326 77.661 196.2 77.6863 196.093L77.7243 195.954C78.7041 192.979 80.6891 181.39 80.1138 179.084C79.6018 177.038 75.5623 173.905 73.4762 172.901C73.1912 172.859 72.9042 172.831 72.6164 172.819C71.1446 172.856 69.6824 173.068 68.2608 173.451C66.9665 173.746 65.6981 174.146 64.4679 174.644C63.9702 174.799 63.4333 174.767 62.957 174.556C62.5007 174.447 62.035 174.381 61.5663 174.36C60.6244 174.316 59.6698 174.404 58.7279 174.455C57.786 174.505 56.8314 174.524 55.9211 174.493C55.1309 174.493 54.0942 174.158 53.639 175.011C53.0068 176.192 53.9045 177.575 54.7895 178.326C55.6139 178.944 56.5403 179.412 57.5268 179.71C58.3714 180.016 59.2541 180.205 60.1502 180.272C61.2314 180.355 62.3166 180.173 63.311 179.741C63.5007 179.653 63.6714 179.545 63.8547 179.438L63.9179 179.4C65.0177 178.622 65.9186 177.597 66.5477 176.406C66.2773 177.171 66.293 178.008 66.5919 178.762C66.8984 179.394 67.399 179.912 68.0206 180.24C69.3846 180.938 70.9206 181.23 72.4457 181.08C71.5961 181.512 70.8365 182.101 70.2079 182.817C69.0056 184.229 68.3347 186.016 68.3114 187.87C67.6739 186.734 67.3184 185.463 67.2747 184.162C66.1976 185.235 65.3162 186.488 64.6702 187.863C64.8131 189.223 64.4158 190.583 63.5639 191.653C62.9981 192.299 62.3001 192.816 61.517 193.169C60.7339 193.522 59.8841 193.703 59.025 193.699C58.7353 193.702 58.4458 193.683 58.1589 193.642C59.0882 196.219 60.6876 199.579 64.4805 201.67L64.6259 201.777C65.9454 202.337 67.312 202.779 68.7097 203.097C67.782 203.411 66.8363 203.668 65.8776 203.868C67.439 207.385 68.9878 213.531 70.8717 223.617C73.1474 235.781 75.2272 245.836 76.9025 252.708C78.053 257.438 82.5034 262.036 86.0435 264.897L85.7843 263.369C85.7337 263.116 85.6895 262.87 85.6452 262.617L88.806 266.905L88.9135 267.044L88.9767 267.095C89.4887 267.606 90.241 268.175 90.9048 267.992C91.5685 267.809 92.2829 266.817 92.6179 265.497C92.6553 265.347 92.7173 265.204 92.8013 265.074C93.9518 263.324 95.2161 260.204 96.9735 255.891C97.8522 253.731 98.87 251.286 100.027 248.514C101.585 244.738 102.847 240.846 103.801 236.874V236.874ZM184.983 214.225C184.821 215.877 184.425 217.498 183.807 219.038C184.205 213.6 183.959 207.916 181.91 202.8C181.345 201.422 180.657 200.096 179.856 198.84C184.243 202.415 185.59 208.838 184.983 214.225ZM172.131 206.015C171.599 207.565 171.234 209.168 171.044 210.796C170.937 212.416 171.112 214.042 171.562 215.602C168.603 213.329 169.248 208.112 172.131 206.04V206.015ZM154.563 260.009C153.512 260.413 152.396 260.627 151.27 260.64C152.235 260.135 153.242 259.712 154.279 259.377C155.311 259.009 156.367 258.712 157.44 258.486C156.585 259.17 155.609 259.687 154.563 260.009V260.009ZM151.036 252.922C151.818 252.494 152.645 252.153 153.501 251.905C154.342 251.616 155.207 251.405 156.087 251.274C155.409 251.854 154.616 252.285 153.76 252.537C152.887 252.847 151.961 252.979 151.036 252.922ZM150.814 192.335C151.858 194.293 152.926 196.339 154.93 197.482C156.567 198.32 158.37 198.784 160.208 198.84C159.445 199.42 158.551 199.801 157.604 199.95C156.657 200.098 155.689 200.01 154.784 199.693C153.884 199.393 153.065 198.888 152.393 198.219C151.72 197.549 151.213 196.733 150.909 195.834C150.528 194.703 150.495 193.484 150.814 192.335V192.335ZM154.342 242.526C153.727 242.988 153.019 243.311 152.267 243.473C151.515 243.635 150.737 243.634 149.986 243.468C151.338 242.798 152.834 242.475 154.342 242.526V242.526ZM141.067 256.977C141.023 256.927 140.983 256.874 140.946 256.819C140.81 258.371 140.767 259.93 140.82 261.486C140.82 262.061 140.902 262.623 140.959 263.198C140.6 261.823 140.357 260.42 140.232 259.004C140.095 256.933 140.085 254.856 140.201 252.783C139.689 253.324 139.029 253.701 138.304 253.87C138.874 253.443 139.362 252.916 139.745 252.316C139.997 251.871 140.176 251.39 140.276 250.889V250.257C140.349 248.617 140.23 246.975 139.922 245.362C141.288 247.958 141.446 250.882 141.187 253.75C141.187 254.11 141.123 254.47 141.086 254.83C141.106 255.075 141.14 255.32 141.187 255.562C141.414 256.699 142.23 257.457 143.033 258.24C142.294 257.993 141.627 257.568 141.092 257.002L141.067 256.977ZM141.49 237.234C140.954 236.845 140.481 236.376 140.087 235.844C139.813 236.327 139.47 236.767 139.069 237.152C138.089 238.05 136.942 238.748 135.693 239.204C136.336 238.193 137.041 237.223 137.805 236.299C138.531 235.362 139.005 234.256 139.183 233.084C139.467 231.095 139.625 229.093 139.815 227.097C139.979 225.512 140.163 223.939 140.447 222.354C140.882 224.941 141.081 227.562 141.041 230.185C141.043 231.194 140.988 232.202 140.877 233.204C140.944 233.462 140.993 233.723 141.022 233.988C141.214 234.648 141.539 235.263 141.977 235.794C142.489 236.414 143.054 236.989 143.665 237.512C144.29 238.014 144.86 238.582 145.365 239.204C144.095 238.56 142.71 238.137 141.515 237.259L141.49 237.234ZM135.693 207.682C136.806 207.449 137.969 208.011 138.854 208.63C139.481 209.074 140.046 209.598 140.536 210.19C141.828 208.931 143.445 208.056 145.207 207.663C143.665 209.444 141.952 211.08 140.371 212.836C139.878 212.141 139.391 211.453 138.867 210.783C138.024 209.566 136.955 208.522 135.719 207.708L135.693 207.682ZM135.82 187.649C136.38 189.84 137.192 191.96 138.241 193.964C138.607 194.596 139.24 195.758 140.068 195.821C140.7 195.872 141.244 195.12 141.566 194.665C142.83 192.859 143.526 190.604 144.164 188.514C144.948 185.95 145.561 183.341 146.225 180.745C146.32 183.496 146.119 186.249 145.624 188.956C145.163 191.482 144.474 194.192 142.913 196.263C142.613 196.718 142.216 197.101 141.75 197.384C141.284 197.667 140.762 197.843 140.219 197.899C139.782 197.896 139.349 197.805 138.947 197.631C138.545 197.458 138.183 197.205 137.881 196.889C137.026 195.98 136.367 194.905 135.946 193.731C135.462 192.502 135.083 191.234 134.815 189.941C134.17 186.921 133.904 183.832 134.024 180.745C134.65 183.089 135.188 185.4 135.845 187.674L135.82 187.649ZM125.553 260.009C124.517 259.683 123.55 259.166 122.702 258.486C123.775 258.712 124.831 259.009 125.863 259.377C126.9 259.712 127.907 260.135 128.872 260.64C127.737 260.63 126.613 260.416 125.553 260.009ZM126.356 252.55C125.501 252.295 124.709 251.864 124.03 251.286C124.911 251.418 125.779 251.629 126.622 251.918C127.476 252.167 128.3 252.508 129.081 252.935C128.156 252.991 127.229 252.86 126.356 252.55V252.55ZM125.8 242.526C127.307 242.475 128.804 242.798 130.156 243.468C129.405 243.634 128.626 243.635 127.875 243.473C127.123 243.311 126.415 242.988 125.8 242.526V242.526ZM125.636 196.788C127.298 195.625 128.329 193.92 129.498 192.31C129.651 193.334 129.559 194.379 129.229 195.361C128.9 196.342 128.342 197.232 127.602 197.956C126.478 199.009 125.007 199.615 123.467 199.661C122.296 199.71 121.136 199.416 120.129 198.815C122.007 198.411 123.96 197.962 125.61 196.813L125.636 196.788ZM108.732 215.628C109.181 214.067 109.357 212.441 109.25 210.821C109.059 209.193 108.695 207.591 108.163 206.04C111.039 208.112 111.684 213.329 108.732 215.628ZM95.2224 210.316C95.3791 207.478 96.1881 204.714 97.5867 202.238C98.333 200.944 99.3025 199.791 100.45 198.834C97.4982 203.489 96.4109 208.87 96.3287 214.326C96.3287 215.899 96.3666 217.484 96.4804 219.032C95.4019 216.26 94.9717 213.279 95.2224 210.316V210.316ZM74.0008 202.996C73.8207 203.988 73.8207 205.004 74.0008 205.996C74.0767 206.356 74.1715 206.716 74.26 207.076C75.006 210.089 75.7772 213.101 76.5358 216.108L78.1288 222.373C77.8633 221.558 77.5978 220.75 77.3386 219.941C76.2513 216.606 75.183 213.268 74.1336 209.924C73.7417 208.661 73.3371 207.398 72.9894 206.135C72.7912 205.589 72.7453 205 72.8566 204.43C72.9408 204.127 73.0857 203.844 73.2823 203.599C73.479 203.353 73.7234 203.151 74.0008 203.002V202.996ZM67.9574 199.105C67.1987 198.5 66.6207 197.698 66.2863 196.787C65.9519 195.876 65.874 194.891 66.0609 193.939C66.8443 195.385 67.8707 196.687 69.0953 197.785C70.3482 198.762 71.8006 199.452 73.3497 199.806C71.6239 200.842 69.4114 200.312 67.9574 199.112V199.105ZM73.1917 215.034C72.4268 212.722 71.6745 210.411 70.878 208.086C70.4629 206.941 69.8175 205.892 68.9815 205.004C69.5198 204.953 70.0592 205.091 70.5068 205.394C70.9545 205.697 71.2824 206.147 71.4343 206.665C71.7693 207.619 72.0159 208.617 72.275 209.596C72.9894 212.331 73.6532 215.084 74.3106 217.844C74.475 218.526 74.633 219.202 74.791 219.884C74.2642 218.28 73.7311 216.665 73.1917 215.04V215.034ZM84.2418 259.668C82.2568 257.735 80.4046 255.531 79.3995 252.91C77.503 248.002 76.4915 242.804 75.4422 237.67C76.3272 240.253 77.2375 242.83 78.23 245.375C79.2085 248.074 80.4183 250.684 81.8459 253.175C82.9264 254.893 84.3076 256.404 85.9234 257.634C86.8716 258.36 87.902 258.897 89.1221 258.619C90.0868 258.321 90.9695 257.805 91.7013 257.11C91.5407 258.009 91.2995 258.893 90.9806 259.75C90.7108 260.594 90.1932 261.338 89.4951 261.884C87.6049 263.135 85.4745 260.874 84.2418 259.674V259.668ZM90.5634 266.653C90.0703 266.653 89.691 265.977 89.4761 265.611C89.2741 265.274 89.0966 264.924 88.9451 264.562C89.7163 265.156 90.8858 264.929 91.7076 264.562C91.6065 265.131 91.3346 266.691 90.5571 266.659L90.5634 266.653Z" fill="white"/>
<path d="M57.1064 168.667L60.0396 169.128L70.5 166.5L73 170C73 170 67 170.5 64.5 172.006C63.5 171.484 62.4466 171.75 61.1965 171.339C60.2356 171.364 59.3632 171.453 58.3391 171.484C57.315 171.516 56.2973 171.472 55.2732 171.415C54.4794 171.376 53.6929 171.582 53.0209 172.006C52.3489 172.43 51.8241 173.05 51.5181 173.783C51.0235 175.028 51.044 176.418 51.575 177.648C52.2531 179.152 53.4146 180.385 54.8749 181.154C56.3908 182.016 58.062 182.572 59.7931 182.789C59.9891 183.105 60.2735 183.427 60.4948 183.737C61.3642 184.837 61.9891 186.109 62.3281 187.469C62.4544 187.973 62.4544 188.5 62.3281 189.004C62.2153 189.329 62.0347 189.626 61.7981 189.875C61.5616 190.124 61.2746 190.321 60.9563 190.45C60.3184 190.759 59.5987 190.856 58.9017 190.728C58.4853 190.649 58.0842 190.504 57.7133 190.299C57.4857 190.173 57.2708 190.002 57.0432 189.882C55.899 189.288 54.0657 187.678 51.8721 183.408C51.829 183.328 51.7782 183.252 51.7204 183.181C51.5118 182.657 51.3348 182.12 51.1704 181.583C50.9026 180.825 50.6914 180.048 50.5383 179.259C50.2796 179.914 50.0683 180.588 49.9061 181.274C48.1108 179.24 46.8907 177.124 46.8465 175.962C46.758 173.827 48.8504 171.661 49.5711 171.301C50.1337 171.074 52.8393 170.922 55.014 170.922C55.1903 170.922 55.3647 170.886 55.526 170.815L57.315 170.947C57.0243 170.486 56.7272 170.025 56.4301 169.564L56.43 169.564C56.6 169.227 56.8291 168.923 57.1064 168.667Z" fill="white"/>
<path d="M85.8532 74.0779C86.0102 72.5776 86.0313 71.0663 85.9164 69.5622C85.6323 66.1815 85.0441 62.8332 84.159 59.5579C85.2988 62.2248 86.2494 64.9684 87.0037 67.7685C87.8017 70.5191 88.1266 73.385 87.9646 76.2443C87.899 76.9681 87.7786 77.686 87.6043 78.3916L87.5664 78.5179C87.5693 78.5495 87.5693 78.5812 87.5664 78.6127C86.5735 81.4289 86.5735 84.4996 87.5664 87.3158C87.6916 85.0598 88.0174 82.8194 88.5399 80.6211C88.9634 78.9095 89.4692 77.2106 89.8042 75.4737C90.1375 73.7305 90.2417 71.9513 90.114 70.1811C89.9269 68.3985 89.6313 66.6289 89.2289 64.8822C88.8749 63.1201 88.5336 61.3579 88.2744 59.5769C87.6897 56.079 87.6897 52.5085 88.2744 49.0106C88.6372 47.1231 89.2762 45.2994 90.1709 43.5979C91.1301 41.881 92.1853 40.2194 93.3316 38.6211C91.8461 41.2611 90.3226 43.9327 89.6082 46.9011C88.9445 50.1731 88.9445 53.5449 89.6082 56.8169C90.2523 60.0602 91.0689 63.2668 92.0547 66.4232C92.5109 67.9798 92.8303 69.5732 93.0093 71.1853C93.1738 72.8987 93.1483 74.6249 92.9334 76.3327C92.8828 76.7622 92.8196 77.1853 92.7564 77.5958C92.7367 78.4108 92.9805 79.2103 93.4518 79.8758C94.8299 81.7074 97.3459 81.0885 99.2739 80.8043C100.11 80.6617 100.955 80.5836 101.803 80.5706C103.624 80.4175 105.458 80.5025 107.258 80.8232C100.406 80.4127 93.2684 83.4758 89.7347 89.5201C89.5324 89.8674 89.3427 90.2211 89.1594 90.5811C89.0582 90.7895 88.9698 91.0232 88.856 91.2443C87.1681 95.0337 86.5676 101.76 89.2353 107.754C92.061 114.114 94.9753 118.857 102.239 125.684L102.327 125.741C104.379 127.225 106.297 128.883 108.061 130.699C110.06 132.701 111.782 134.961 113.181 137.419C110.616 134.347 107.531 131.75 104.066 129.745C106.462 135.303 111.392 145.194 120.432 153.272C119.206 151.775 117.998 150.272 116.861 148.699C114.853 145.939 113.053 143.034 111.475 140.008C110.552 138.221 109.711 136.39 108.946 134.539C110.752 137.713 112.747 140.775 114.92 143.71C116.014 145.162 117.164 146.571 118.397 147.91C119.029 148.598 119.661 149.261 120.35 149.918C120.413 149.987 120.483 150.051 120.546 150.114C119.577 148.851 118.662 147.537 117.803 146.173C116.771 144.603 115.87 142.951 115.11 141.234C116.514 143.352 118.151 145.307 119.99 147.063V147.063C119.775 145.842 119.564 144.619 119.358 143.394V143.286C120.028 145.03 120.694 146.773 121.355 148.516C122.316 151.042 123.275 153.552 124.232 156.044C124.314 156.265 124.415 156.499 124.497 156.739C127.323 162.928 130.111 166.686 131.906 168.31C130.845 166.61 129.903 164.84 129.087 163.011C127.548 159.726 126.257 156.331 125.224 152.855C126.43 155.828 127.83 158.718 129.415 161.507C130.827 164.279 132.586 166.86 134.65 169.187C134.896 169.44 135.155 169.68 135.421 169.914H135.56C135.103 169.306 134.681 168.674 134.296 168.019C133.105 166.01 132.116 163.888 131.343 161.684C132.342 163.498 133.492 165.224 134.782 166.844C135.406 167.632 136.093 168.367 136.837 169.042C137.183 169.353 137.56 169.628 137.962 169.863C138.145 169.972 138.343 170.052 138.55 170.103C139.119 170.103 139.606 170.046 139.941 170.008C139.997 170.002 140.055 170.002 140.111 170.008H140.402C140.878 170.067 141.357 170.101 141.837 170.11C142.223 169.988 142.582 169.793 142.893 169.535C143.699 168.925 144.429 168.221 145.068 167.438C146.57 165.661 147.888 163.735 149 161.691C148.307 163.673 147.444 165.591 146.42 167.425C145.931 168.289 145.378 169.115 144.764 169.895V169.926H144.954C147.248 167.912 148.974 165.183 150.504 162.568C152.332 159.464 153.929 156.23 155.283 152.893C154.36 155.984 153.234 159.012 151.914 161.956C150.957 164.197 149.822 166.357 148.519 168.417C150.314 166.838 153.14 163.061 156.01 156.777L156.08 156.587C156.973 154.263 157.86 151.947 158.741 149.64C159.533 147.581 160.319 145.52 161.099 143.457L161.143 143.356C160.916 144.619 160.695 145.882 160.473 147.145C162.312 145.39 163.949 143.434 165.354 141.316C164.593 143.033 163.692 144.685 162.661 146.255C161.818 147.606 160.903 148.92 159.917 150.196C159.98 150.133 160.05 150.07 160.113 150C160.777 149.368 161.434 148.68 162.066 147.992C163.299 146.653 164.45 145.244 165.543 143.792C167.728 140.827 169.732 137.733 171.542 134.526C170.758 136.377 169.918 138.208 169.014 139.996C167.436 143.022 165.635 145.926 163.628 148.686C162.49 150.259 161.282 151.762 160.056 153.259C169.071 145.2 174.008 135.341 176.404 129.777C175.411 130.377 174.438 131.008 173.496 131.672C171.182 133.292 169.1 135.219 167.307 137.4C169.766 133.017 173.395 129.347 177.371 126.31C177.649 126.095 177.959 125.836 178.287 125.627C185.526 118.825 188.434 114.082 191.253 107.735C193.94 101.71 193.314 94.9137 191.607 91.1558C191.604 91.1349 191.604 91.1136 191.607 91.0927C191.525 90.9411 191.449 90.7769 191.373 90.6127C189.897 87.6272 187.573 85.1427 184.691 83.4695C181.203 81.4932 177.213 80.5799 173.211 80.8422C175.005 80.5217 176.832 80.4368 178.648 80.5895C179.495 80.6038 180.341 80.6819 181.176 80.8232C183.105 81.1074 185.602 81.7264 186.999 79.8948C187.47 79.2293 187.714 78.4297 187.694 77.6148C187.631 77.1916 187.568 76.7685 187.517 76.3516C187.302 74.6439 187.277 72.9176 187.441 71.2043C187.62 69.5922 187.94 67.9988 188.396 66.4422C189.379 63.2877 190.194 60.0832 190.836 56.8422C191.386 53.5958 191.594 50.16 190.836 46.9264C190.122 43.9579 188.598 41.2864 187.112 38.6464C188.259 40.2447 189.314 41.9063 190.273 43.6232C191.168 45.3246 191.807 47.1484 192.17 49.0358C192.754 52.5337 192.754 56.1043 192.17 59.6022C191.911 61.3832 191.538 63.1453 191.215 64.9074C190.813 66.6542 190.517 68.4237 190.33 70.2064C190.201 71.9768 190.308 73.7564 190.646 75.499C190.969 77.2358 191.474 78.9348 191.911 80.6464C192.433 82.8447 192.759 85.0851 192.884 87.3411C193.843 84.5753 193.843 81.5679 192.884 78.8022C192.718 78.3412 192.607 77.862 192.555 77.3748C192.186 74.5078 192.382 71.5964 193.131 68.8043C193.9 65.6494 194.934 62.5649 196.222 59.5832C195.441 62.5092 194.885 65.4905 194.559 68.5011C194.344 70.4193 194.344 72.3555 194.559 74.2737C196.342 70.1874 198.984 62.6906 198.984 54.2906C198.984 36.6064 187.707 24.7516 178.25 17.8927C166.978 9.72636 152.413 4.54109 140.206 4.32635H140.111C127.93 4.54109 113.365 9.72636 102.131 17.8674C92.6489 24.7264 81.3965 36.6064 81.3965 54.2653C81.3965 62.64 84.0516 70.1243 85.8216 74.2169L85.8532 74.0779ZM106.923 40.2253C106.74 39.3979 107.094 38.1979 108.055 38.0274C107.906 38.2592 107.813 38.5224 107.784 38.7961C107.755 39.0698 107.79 39.3466 107.886 39.6045C107.982 39.8624 108.137 40.0945 108.339 40.2822C108.54 40.47 108.783 40.6083 109.047 40.6864C109.583 40.8804 110.164 40.909 110.716 40.7685C110.851 40.7457 110.978 40.6894 111.085 40.6047C111.193 40.52 111.277 40.4096 111.331 40.2838C111.384 40.158 111.405 40.0207 111.392 39.8847C111.378 39.7486 111.331 39.6182 111.253 39.5053C111.721 39.5558 111.955 40.0864 111.955 40.5032C111.944 40.7155 111.888 40.923 111.79 41.1116C111.692 41.3001 111.554 41.4653 111.386 41.5958C111.011 41.8762 110.574 42.0617 110.111 42.1365C109.649 42.2113 109.175 42.1731 108.731 42.0253C108.298 41.9095 107.904 41.6823 107.587 41.3665C107.269 41.0506 107.041 40.6571 106.923 40.2253V40.2253ZM93.7046 91.2885C94.9387 90.4518 96.2891 89.8007 97.7125 89.3558C100.737 88.416 103.897 87.9891 107.062 88.0927C113.006 88.1491 118.772 90.1254 123.498 93.7264C125.949 95.6249 128.02 97.9666 129.605 100.63C126.007 96.4414 121.334 93.3124 116.089 91.579C110.659 89.8358 104.799 89.8358 99.217 90.84C97.649 91.1076 96.1116 91.5308 94.6276 92.1032C93.263 92.5728 92.0508 93.402 91.1191 94.5032C91.5988 93.174 92.5087 92.0427 93.7046 91.2885V91.2885ZM137.273 71.3243C138.98 71.6146 140.721 71.6466 142.438 71.419C144.258 71.1664 146.041 70.6927 147.855 70.3706C149.901 69.974 151.989 69.8382 154.069 69.9664C152.249 70.3832 150.454 70.8695 148.671 71.4127C146.888 71.9558 145.15 72.5811 143.335 72.96C141.51 73.3492 139.628 73.3984 137.785 73.1053C135.946 72.7477 134.135 72.2559 132.367 71.6337C130.357 70.9937 128.328 70.4379 126.28 69.9664C128.137 69.844 130.003 69.9437 131.836 70.2632C133.663 70.5474 135.452 71.0211 137.273 71.3243V71.3243ZM134.258 47.4C134.2 47.6042 134.187 47.8182 134.219 48.0279C134.25 48.2375 134.326 48.4382 134.44 48.6166C134.555 48.7951 134.706 48.9473 134.884 49.0633C135.061 49.1792 135.261 49.2563 135.471 49.2895C135.681 49.3227 135.895 49.3112 136.1 49.2558C136.305 49.2004 136.495 49.1023 136.66 48.968C136.824 48.8337 136.958 48.6662 137.053 48.4765C137.147 48.2868 137.201 48.0793 137.21 47.8674C137.375 48.1406 137.453 48.4582 137.431 48.7769C137.41 49.0956 137.291 49.3999 137.09 49.6485C136.878 49.9167 136.598 50.1229 136.279 50.2451C135.96 50.3674 135.613 50.4012 135.277 50.3429C134.94 50.2847 134.625 50.1366 134.365 49.9143C134.106 49.692 133.911 49.4037 133.802 49.08C133.701 48.7867 133.69 48.4696 133.771 48.1701C133.852 47.8705 134.022 47.6022 134.258 47.4V47.4ZM145.984 56.5958C146.06 56.8318 146.221 57.0311 146.436 57.1549C146.651 57.2787 146.905 57.318 147.147 57.2653C147.408 57.2324 147.659 57.1458 147.884 57.011C148.109 56.8762 148.304 56.6961 148.456 56.4822C148.6 56.2796 148.681 56.0392 148.689 55.7909C148.697 55.5427 148.631 55.2976 148.5 55.0864C148.911 55.1432 149.132 55.6611 149.183 56.0085C149.256 56.3972 149.191 56.7992 149 57.1453C148.792 57.4932 148.501 57.7832 148.152 57.9886C147.802 58.1939 147.407 58.3079 147.002 58.32C146.632 58.3354 146.267 58.2305 145.961 58.021C145.656 57.8115 145.426 57.5086 145.308 57.1579C145.112 56.5264 145.181 55.1748 146.022 55.0611C145.883 55.2915 145.806 55.5543 145.799 55.8234C145.793 56.0926 145.856 56.3588 145.984 56.5958V56.5958ZM155.903 23.4885C156.737 23.3179 157.047 24.4421 156.838 25.0358C156.719 25.3518 156.522 25.6329 156.266 25.8535C156.009 26.0741 155.702 26.2272 155.372 26.299C155.006 26.3848 154.624 26.3714 154.265 26.2604C153.906 26.1494 153.583 25.9447 153.33 25.6674C153.055 25.3809 152.895 25.0045 152.877 24.6084C152.86 24.2122 152.987 23.8232 153.235 23.5137C153.212 23.7457 153.239 23.98 153.315 24.2005C153.391 24.421 153.513 24.6226 153.674 24.7916C153.835 24.9606 154.03 25.0931 154.247 25.1799C154.463 25.2667 154.696 25.3059 154.929 25.2948C155.168 25.2825 155.402 25.2165 155.612 25.1017C155.822 24.9869 156.004 24.8262 156.143 24.6316C156.262 24.4481 156.304 24.2247 156.259 24.0105C156.214 23.7962 156.086 23.6085 155.903 23.4885V23.4885ZM134.315 76.5411C135.49 76.8695 136.666 77.1727 137.855 77.4758C138.765 77.7171 139.707 77.8214 140.649 77.7853C141.646 77.6764 142.631 77.482 143.595 77.2043C146.534 76.4464 149.436 75.5243 152.413 74.9116C156.718 74.0337 161.434 73.5285 165.689 74.9874C158.551 74.3558 151.901 77.1853 145.226 79.2001C143.598 79.7832 141.895 80.1278 140.168 80.2232C138.442 80.1279 136.738 79.7833 135.111 79.2001C131.988 78.259 128.922 77.1537 125.774 76.2822C122.17 75.2052 118.402 74.7774 114.648 75.019C117.383 74.1778 120.262 73.9069 123.106 74.2232C126.937 74.4822 130.642 75.4864 134.315 76.5222V76.5411ZM162.212 45.4737C163.04 45.2969 163.356 46.4211 163.147 47.0148C163.027 47.3301 162.829 47.6106 162.573 47.8311C162.317 48.0516 162.011 48.2051 161.681 48.2779C161.314 48.3649 160.931 48.3522 160.57 48.2411C160.21 48.1301 159.886 47.9247 159.632 47.6464C159.36 47.3584 159.201 46.9818 159.185 46.5861C159.169 46.1903 159.296 45.802 159.544 45.4927C159.521 45.7241 159.548 45.9578 159.624 46.1779C159.699 46.3979 159.821 46.5992 159.981 46.7681C160.141 46.937 160.336 47.0696 160.551 47.1568C160.767 47.244 160.999 47.2839 161.232 47.2737C161.473 47.267 161.709 47.2054 161.923 47.0938C162.136 46.9822 162.322 46.8234 162.465 46.6295C162.525 46.5374 162.567 46.4342 162.587 46.3258C162.607 46.2174 162.605 46.1061 162.581 45.9985C162.558 45.8908 162.513 45.7889 162.45 45.6988C162.386 45.6087 162.305 45.5322 162.212 45.4737V45.4737ZM147.767 132.758C148.367 133.642 149.031 134.482 149.663 135.373C150.89 137.086 151.607 139.112 151.73 141.215C151.275 140.236 150.833 139.257 150.302 138.316C149.771 137.375 149.214 136.554 148.633 135.701C147.482 134.008 146.3 132.177 146.319 130.055C146.712 131.005 147.197 131.915 147.767 132.771V132.758ZM147.71 129.31C148.905 131.166 150.378 132.79 151.705 134.539C150.677 134.042 149.783 133.308 149.094 132.398C148.339 131.532 147.857 130.462 147.71 129.322V129.31ZM147.034 136.648C146.978 136.898 146.865 137.13 146.702 137.327C146.539 137.524 146.333 137.679 146.098 137.781C145.864 137.883 145.609 137.928 145.354 137.912C145.099 137.896 144.851 137.82 144.631 137.691C143.727 137.156 143.023 136.339 142.627 135.366C142.425 134.931 141.831 133.674 142.375 133.276C142.579 133.17 142.807 133.118 143.038 133.126C143.268 133.133 143.493 133.2 143.689 133.32C144.318 133.613 144.93 133.939 145.523 134.299C146.338 134.773 147.293 135.619 147.034 136.661V136.648ZM162.736 82.7369C160.816 83.3364 158.954 84.1079 157.173 85.0422C155.49 85.9708 153.948 87.1364 152.597 88.5032C150.874 90.2684 149.427 92.2825 148.304 94.4779C148.096 94.8948 147.887 95.3116 147.672 95.7411C147.204 96.6443 146.838 97.5979 146.408 98.5137C146.795 95.8261 147.697 93.2381 149.063 90.8906C150.601 88.2561 152.831 86.0918 155.511 84.6316C157.75 83.4748 160.217 82.8277 162.736 82.7369V82.7369ZM130.705 135.385C131.337 134.495 131.969 133.655 132.601 132.771C133.182 131.921 133.675 131.015 134.074 130.067C134.074 132.19 132.911 134.021 131.761 135.714C131.179 136.566 130.597 137.425 130.092 138.328C129.586 139.232 129.118 140.223 128.663 141.227C128.778 139.127 129.486 137.101 130.705 135.385V135.385ZM128.638 134.526C129.965 132.777 131.438 131.154 132.633 129.297C132.488 130.441 132.006 131.516 131.249 132.385C130.56 133.296 129.665 134.029 128.638 134.526V134.526ZM134.827 134.286C135.416 133.925 136.026 133.599 136.653 133.307C136.85 133.188 137.075 133.121 137.305 133.113C137.535 133.105 137.764 133.157 137.968 133.263C138.512 133.661 137.918 134.918 137.716 135.354C137.32 136.327 136.616 137.143 135.712 137.678C135.492 137.808 135.244 137.883 134.989 137.899C134.734 137.915 134.479 137.87 134.245 137.768C134.01 137.667 133.803 137.511 133.641 137.314C133.478 137.117 133.365 136.885 133.309 136.636C133.082 135.619 134.017 134.773 134.827 134.312V134.286ZM133.954 98.5264C133.322 97.2632 132.778 96 132.146 94.7369C131.59 93.6407 130.956 92.5855 130.25 91.579C128.544 89.098 126.334 87.004 123.764 85.4337C121.806 84.3161 119.733 83.4119 117.581 82.7369C121.841 82.8729 125.883 84.6521 128.859 87.7011C130.49 89.4464 131.786 91.4758 132.684 93.6885C133.294 95.2463 133.72 96.8699 133.954 98.5264ZM96.5367 118.282C93.9115 115.253 91.8652 111.768 90.4996 108C89.9115 106.259 89.5275 104.455 89.3554 102.625C89.8922 104.354 90.5253 106.051 91.2518 107.71C91.9998 109.315 92.8442 110.873 93.7805 112.377C95.6707 115.371 97.7973 118.21 100.14 120.865C101.474 122.406 102.896 123.853 104.35 125.286C101.41 123.342 98.777 120.971 96.5367 118.251V118.282ZM121.905 126.777C118.024 127.133 114.112 126.598 110.469 125.211C114.91 126.265 119.561 126.029 123.871 124.528C120.448 125.01 116.962 124.8 113.622 123.909C110.281 123.018 107.154 121.466 104.426 119.343C94.3115 111.581 93.3633 101.792 94.2167 97.6295C94.0011 97.7218 93.8041 97.8523 93.6351 98.0148C92.1495 99.4358 92.1369 101.968 92.5478 103.825C92.711 104.563 92.9482 105.282 93.2558 105.973C91.8316 104.121 91.0783 101.841 91.1191 99.5053C91.1191 97.7558 91.5363 95.7158 93.0914 94.7179C94.6465 93.72 96.6252 93.2337 98.4268 92.8232C100.368 92.4044 102.337 92.1299 104.319 92.0022C104.673 92.0022 105.027 92.0022 105.374 92.0022C105.538 91.9833 105.704 91.9833 105.867 92.0022C111.157 91.7929 116.4 93.0684 121.001 95.6843C124.019 97.3379 126.632 99.6404 128.651 102.426C130.671 105.211 132.046 108.409 132.677 111.79C132.772 112.194 132.848 112.604 132.917 113.008C133.163 114.325 133.317 115.656 133.379 116.994C133.531 120.6 132.924 124.63 130.414 127.402C130.452 127.307 130.484 127.213 130.515 127.118C130.992 125.99 131.221 124.773 131.185 123.55V123.55C128.401 125.36 125.214 126.457 121.905 126.745V126.777ZM129.548 150.227C129.313 151.063 129.177 151.924 129.143 152.792C127.582 151.295 128.644 148.288 130.692 147.897C130.231 148.621 129.848 149.392 129.548 150.196V150.227ZM140.175 159.872C139.151 159.872 138.152 160.219 137.128 160.257C137.5 159.812 137.966 159.455 138.492 159.209C139.018 158.964 139.591 158.837 140.171 158.837C140.752 158.837 141.325 158.964 141.851 159.209C142.377 159.455 142.843 159.812 143.215 160.257C142.191 160.181 141.192 159.84 140.175 159.84V159.872ZM140.175 156.139C137.975 156.139 134.978 156.808 133.935 154.244C134.349 154.589 134.828 154.847 135.344 155.001C135.861 155.155 136.403 155.203 136.938 155.141C138.01 154.964 139.09 154.844 140.175 154.781C141.262 154.781 142.324 155.027 143.405 155.141C143.94 155.204 144.483 155.157 144.999 155.003C145.516 154.849 145.995 154.59 146.408 154.244C145.358 156.777 142.375 156.107 140.175 156.107V156.139ZM149.025 152.248C148.993 151.886 148.912 151.529 148.785 151.187C148.589 150.758 148.304 150.808 147.919 150.998C147.592 151.183 147.238 151.313 146.869 151.383C146.421 151.414 145.97 151.371 145.535 151.257C144.814 151.115 144.07 151.128 143.354 151.295C142.773 151.434 142.267 151.75 141.704 151.926C140.572 152.286 139.35 152.242 138.247 151.8C137.618 151.486 136.944 151.273 136.249 151.168C135.566 151.135 134.881 151.195 134.213 151.345C133.772 151.426 133.317 151.391 132.892 151.244C132.608 151.137 132.355 150.947 132.064 150.859C131.394 150.657 131.312 151.794 131.255 152.236C130.927 151.644 130.805 150.96 130.907 150.291C130.97 149.766 131.128 148.926 131.659 148.667C131.72 148.95 131.838 149.217 132.007 149.451C132.176 149.686 132.391 149.883 132.641 150.029C132.89 150.176 133.166 150.269 133.454 150.303C133.741 150.338 134.032 150.312 134.308 150.227C135.048 150.057 135.718 149.684 136.451 149.501C137.107 149.338 137.799 149.412 138.405 149.71C139 150.075 139.684 150.27 140.383 150.272C141.056 150.085 141.71 149.836 142.337 149.526C143.847 149.053 145.03 150.265 146.484 150.303C146.979 150.344 147.473 150.199 147.868 149.897C148.263 149.595 148.531 149.156 148.62 148.667C148.786 148.779 148.927 148.922 149.036 149.089C149.144 149.256 149.218 149.444 149.252 149.64C149.385 150.064 149.43 150.509 149.387 150.951C149.343 151.392 149.212 151.821 149 152.211L149.025 152.248ZM151.225 152.792C151.192 151.924 151.056 151.063 150.82 150.227C150.522 149.412 150.139 148.631 149.676 147.897C151.718 148.257 152.761 151.263 151.199 152.76L151.225 152.792ZM156.579 124.541C157.154 124.75 157.736 124.939 158.337 125.097C162.127 126.05 166.09 126.089 169.899 125.211C163.653 127.611 156.124 127.598 150.232 124.244C149.878 124.036 149.531 123.827 149.189 123.613C149.138 124.834 149.354 126.052 149.821 127.181C149.853 127.276 149.885 127.371 149.923 127.465C147.394 124.693 146.806 120.663 146.958 117.057C147.019 115.719 147.174 114.388 147.419 113.072C147.489 112.667 147.565 112.257 147.659 111.853C148.288 108.468 149.661 105.264 151.68 102.475C153.7 99.6848 156.314 97.3784 159.335 95.7222C163.934 93.0901 169.179 91.7991 174.476 91.9958C174.637 91.9768 174.801 91.9768 174.962 91.9958C175.31 91.9958 175.664 91.9958 176.018 91.9958C178 92.1236 179.969 92.3981 181.91 92.8169C183.711 93.2022 185.703 93.6632 187.245 94.7116C188.788 95.7601 189.211 97.7495 189.218 99.499C189.263 101.821 188.524 104.091 187.119 105.941C187.426 105.251 187.663 104.531 187.827 103.794C188.238 101.937 188.225 99.3727 186.739 97.9832C186.57 97.8207 186.373 97.6902 186.158 97.5979C187.011 101.76 186.069 111.55 175.948 119.312C173.228 121.43 170.11 122.982 166.779 123.875C163.447 124.768 159.97 124.983 156.554 124.51L156.579 124.541ZM191.013 102.644C190.793 104.507 190.359 106.338 189.717 108.101C189.09 109.801 188.307 111.44 187.378 112.996C185.553 116.072 183.327 118.892 180.759 121.383C179.301 122.831 177.714 124.144 176.018 125.305C178.59 122.656 181.009 119.862 183.263 116.937C185.627 113.883 187.651 110.582 189.3 107.091C189.945 105.606 190.463 104.116 190.988 102.613L191.013 102.644ZM181.543 89.0527C183.162 89.468 184.71 90.1191 186.139 90.9853C187.447 91.8064 188.769 92.9622 189.224 94.4906C187.631 92.3937 184.679 91.5916 182.232 91.0611C179.366 90.4535 176.444 90.1529 173.515 90.1643C167.955 90.1502 162.501 91.6809 157.761 94.5853C155.124 96.2558 152.747 98.3051 150.706 100.667C153.627 95.8265 158.074 92.092 163.35 90.0506C166.159 88.9493 169.129 88.3095 172.143 88.1558C175.304 87.9536 178.477 88.2564 181.543 89.0527V89.0527ZM182.175 25.6232C181.957 25.9071 181.83 26.2508 181.812 26.6085C181.794 26.9662 181.885 27.3209 182.074 27.6253C182.485 28.1937 183.13 27.9411 183.338 27.3348C183.458 27.5388 183.499 27.7791 183.455 28.0113C183.411 28.2434 183.284 28.4518 183.098 28.5979C182.861 28.7791 182.566 28.8703 182.268 28.8553C181.969 28.8402 181.685 28.72 181.467 28.5158C180.582 27.6632 180.759 25.6737 182.194 25.5979L182.175 25.6232ZM174.254 33.3916C174.412 33.1957 174.628 33.0543 174.871 32.9874C175.113 32.9205 175.371 32.9316 175.607 33.019C175.451 33.0586 175.306 33.1316 175.182 33.2329C175.057 33.3343 174.956 33.4615 174.886 33.6057C174.815 33.75 174.777 33.9078 174.774 34.0682C174.771 34.2287 174.803 34.3879 174.868 34.5348C175.146 35.1664 175.923 35.5264 176.486 35.8548C176.779 36.0617 177.111 36.2061 177.463 36.2789C177.814 36.3517 178.177 36.3514 178.528 36.2779C178.692 36.2402 178.847 36.1701 178.983 36.0718C179.12 35.9734 179.235 35.8489 179.323 35.7053C179.411 35.5618 179.469 35.4022 179.494 35.2359C179.519 35.0696 179.511 34.8999 179.47 34.7369C179.982 34.9895 180.013 35.7095 179.862 36.1832C179.774 36.4399 179.635 36.6763 179.454 36.8782C179.272 37.08 179.052 37.2432 178.806 37.3579C178.311 37.5691 177.77 37.6503 177.234 37.5939C176.699 37.5375 176.187 37.3454 175.746 37.0358C174.893 36.5116 173.938 35.7727 173.85 34.7053C173.821 34.4702 173.843 34.2319 173.913 34.0056C173.982 33.7793 174.099 33.5701 174.254 33.3916V33.3916ZM163.969 19.0927C164.076 18.743 164.268 18.4254 164.529 18.1685C164.789 17.9116 165.11 17.7235 165.461 17.6211C165.647 17.5668 165.842 17.5505 166.034 17.5732C166.227 17.596 166.413 17.6572 166.581 17.7533C166.749 17.8494 166.896 17.9784 167.013 18.1326C167.13 18.2867 167.215 18.4629 167.263 18.6506C166.675 17.6021 165.259 18.019 164.936 19.0485C164.582 20.1537 165.335 21.3158 165.986 22.1432C166.746 23.1291 167.665 23.9827 168.704 24.6695C169.671 25.3011 170.885 25.9327 172.086 25.7432C172.338 25.735 172.578 25.6311 172.756 25.4527C172.876 25.157 172.876 24.8262 172.756 24.5306C172.543 23.863 172.243 23.2261 171.865 22.6358C172.769 23.3432 174.362 25.08 173.256 26.2358C172.956 26.4807 172.61 26.6628 172.239 26.7713C171.867 26.8798 171.478 26.9125 171.094 26.8674C170.32 26.8195 169.563 26.6177 168.868 26.2737C167.456 25.5975 166.221 24.603 165.259 23.3685C164.361 22.2127 163.47 20.6021 163.969 19.0927ZM164.469 34.3137C165.226 33.8748 165.925 33.3422 166.548 32.7285C166.776 32.4906 166.939 32.199 167.023 31.8809C167.107 31.5628 167.109 31.2286 167.029 30.9095C166.953 30.5759 166.787 30.2696 166.548 30.0244C166.309 29.7792 166.008 29.6047 165.676 29.52C167.168 29.2674 168.091 31.1243 167.806 32.3622C167.471 33.8085 166.024 34.7811 164.911 35.6148C163.714 36.6053 162.285 37.2767 160.758 37.5664C159.348 37.7558 157.698 37.4716 156.737 36.3032C155.776 35.1348 155.732 33.1074 157.104 32.2358C156.738 32.7324 156.563 33.3442 156.612 33.959C156.661 34.5738 156.93 35.1504 157.369 35.5832C158.374 36.5116 160.018 36.4422 161.238 36.0506C162.393 35.6289 163.48 35.044 164.469 34.3137ZM152.799 11.9243C153.317 10.8064 154.657 11.0464 155.536 11.5137C155.021 11.4398 154.496 11.4918 154.006 11.6653C153.741 11.7979 153.425 12.1264 153.551 12.4485C153.678 12.7706 154.329 13.0232 154.676 13.1811L155.233 13.4337C156.024 13.886 156.848 14.2787 157.698 14.6085C157.89 14.6834 158.098 14.7088 158.302 14.6823C158.507 14.6558 158.701 14.5783 158.868 14.4569C159.007 14.3259 159.09 14.1462 159.099 13.9555C159.109 13.7647 159.044 13.5777 158.918 13.4337C159.108 13.5281 159.258 13.6885 159.338 13.8851C159.418 14.0816 159.424 14.3006 159.354 14.5011C159.281 14.7093 159.157 14.896 158.994 15.0448C158.83 15.1935 158.633 15.2997 158.419 15.3537C157.508 15.6316 156.56 15.1643 155.745 14.8043C155.163 14.5453 154.575 14.2737 154.006 13.9832C153.248 13.5979 152.35 12.8779 152.799 11.9243ZM151.149 39.259C151.336 39.88 151.32 40.5445 151.103 41.1558C150.886 41.767 150.479 42.2929 149.941 42.6569C148.738 43.5023 147.297 43.9445 145.826 43.92C144.505 43.92 142.937 43.6927 141.995 42.6569C141.754 42.4092 141.571 42.11 141.462 41.7819C141.352 41.4538 141.319 41.1052 141.363 40.7622C141.407 40.4174 141.569 40.0985 141.821 39.8591C142.073 39.6198 142.401 39.4747 142.748 39.4485C142.568 39.5317 142.409 39.6523 142.28 39.8021C142.151 39.952 142.056 40.1277 142.001 40.3174C141.946 40.5071 141.932 40.7064 141.961 40.9018C141.989 41.0973 142.059 41.2844 142.166 41.4506C142.798 42.4421 144.107 42.5748 145.156 42.5874C146.882 42.5874 150.264 42.1264 150.302 39.8211C150.286 39.2619 150.064 38.7283 149.677 38.3236C149.291 37.9188 148.768 37.6715 148.209 37.6295C148.815 37.4822 149.453 37.5681 149.998 37.8701C150.543 38.1721 150.954 38.668 151.149 39.259V39.259ZM138.563 9.5053C137.93 9.5053 137.893 10.3011 138.335 10.6169C138.778 10.9327 139.726 10.8443 140.314 10.7432C140.977 10.7025 141.605 10.4323 142.09 9.97899C142.174 9.8691 142.219 9.73489 142.219 9.59688C142.219 9.45887 142.174 9.32466 142.09 9.21478C142.047 9.16425 141.996 9.12151 141.938 9.08846C141.73 9.08846 141.458 9.05688 141.578 8.85478C141.698 8.65267 141.983 8.70951 142.109 8.73478C142.33 8.78814 142.529 8.90735 142.68 9.07657C142.832 9.24579 142.928 9.457 142.956 9.68214C143.108 10.7432 141.938 11.3874 141.06 11.6337C140.181 11.88 138.79 12.0064 137.994 11.3243C137.816 11.1876 137.678 11.0063 137.593 10.7987C137.509 10.5912 137.481 10.3649 137.513 10.1432C137.589 9.72004 138.114 9.22109 138.563 9.5053ZM135.497 22.3264C134.59 22.6556 133.78 23.2049 133.139 23.9249C132.498 24.6448 132.046 25.5128 131.824 26.4506C131.719 26.8054 131.686 27.1776 131.727 27.5454C131.769 27.9131 131.883 28.2688 132.064 28.5916C132.57 29.3369 133.663 29.4443 134.479 29.4632C135.551 29.4888 136.62 29.3307 137.64 28.9958C138.559 28.6261 139.514 28.3551 140.491 28.1874C142.387 27.9664 144.631 29.0085 146.073 27.2969C147.381 25.7306 146.667 22.9832 144.669 22.3769C147.027 22.5032 148.02 25.5348 147.135 27.3853C146.905 27.8472 146.585 28.2581 146.193 28.5935C145.801 28.9288 145.345 29.1817 144.853 29.3369C143.734 29.7095 142.545 29.4821 141.395 29.4758C140.244 29.4695 139.119 29.9748 137.975 30.3348C136.815 30.6993 135.598 30.847 134.384 30.7706C133.254 30.7809 132.164 30.3478 131.35 29.5643C130.896 28.987 130.671 28.263 130.718 27.5306C130.783 26.2657 131.301 25.0665 132.178 24.1516C133.012 23.1447 134.199 22.4922 135.497 22.3264V22.3264ZM124.491 16.2443C124.774 15.7703 125.205 15.4021 125.717 15.1958C125.319 15.6632 124.314 16.9516 125.395 17.3053C125.846 17.4127 126.316 17.4127 126.767 17.3053C127.348 17.2043 127.923 17.1095 128.492 16.9769C129.377 16.7748 130.572 16.4274 131.097 15.619C131.22 15.4457 131.287 15.2381 131.287 15.0253C131.287 14.8125 131.22 14.605 131.097 14.4316C130.962 14.2804 130.773 14.1884 130.571 14.1754C130.368 14.1624 130.169 14.2295 130.016 14.3621C130.119 14.1735 130.288 14.029 130.491 13.9557C130.693 13.8825 130.915 13.8855 131.116 13.9643C131.327 14.0428 131.513 14.1782 131.652 14.3553C131.792 14.5325 131.879 14.7447 131.906 14.9685C132.089 15.979 131.274 16.7937 130.509 17.28C129.583 17.7912 128.56 18.1031 127.506 18.1958C126.596 18.3095 125.376 18.5053 124.668 17.7664C124.482 17.5635 124.364 17.3072 124.333 17.0339C124.301 16.7606 124.356 16.4843 124.491 16.2443ZM122.221 25.2064C122.164 25.4102 122.151 25.6238 122.183 25.8331C122.214 26.0424 122.29 26.2427 122.404 26.421C122.518 26.5992 122.669 26.7513 122.846 26.8673C123.023 26.9833 123.223 27.0606 123.432 27.0941C123.641 27.1277 123.855 27.1168 124.06 27.062C124.264 27.0073 124.455 26.91 124.62 26.7765C124.784 26.643 124.918 26.4763 125.014 26.2874C125.109 26.0984 125.164 25.8915 125.173 25.68C125.337 25.9544 125.412 26.272 125.389 26.5903C125.367 26.9086 125.247 27.2124 125.047 27.4611C124.835 27.7276 124.554 27.9319 124.236 28.0527C123.917 28.1735 123.572 28.2062 123.236 28.1474C122.9 28.0885 122.586 27.9404 122.328 27.7185C122.069 27.4966 121.875 27.2091 121.766 26.8864C121.665 26.593 121.654 26.276 121.735 25.9764C121.816 25.6768 121.986 25.4085 122.221 25.2064V25.2064ZM119.256 36.6632C119.535 36.259 120.123 35.7664 120.647 36.0316C119.825 36.1958 119.737 37.4022 119.927 38.04C120.032 38.4067 120.226 38.7413 120.494 39.0137C120.761 39.2861 121.092 39.4876 121.456 39.6C122.056 39.7503 122.671 39.8287 123.29 39.8337C123.589 39.8867 123.898 39.821 124.149 39.6506C124.301 39.5128 124.407 39.3315 124.452 39.1315C124.498 38.9315 124.48 38.7224 124.402 38.5327C124.902 38.7285 124.933 39.499 124.794 39.9222C124.696 40.1669 124.537 40.3828 124.332 40.5496C124.128 40.7164 123.884 40.8286 123.625 40.8758C122.507 41.212 121.302 41.1034 120.262 40.5727C119.854 40.3187 119.513 39.9714 119.267 39.5595C119.021 39.1476 118.876 38.683 118.846 38.2043C118.805 37.659 118.95 37.1159 119.256 36.6632V36.6632ZM117.771 47.6148C118.036 48.96 116.437 49.8379 115.337 49.219C115.074 49.0817 114.859 48.8668 114.723 48.6036C114.586 48.3404 114.533 48.0415 114.572 47.7474C114.673 47.2169 115.204 46.56 115.837 46.7811C115.696 46.8616 115.581 46.9789 115.503 47.1204C115.424 47.2618 115.387 47.422 115.393 47.5834C115.4 47.7448 115.45 47.9014 115.54 48.0361C115.629 48.1708 115.753 48.2785 115.9 48.3474C116.62 48.6695 117.328 48.1516 117.771 47.6148ZM111.203 16.2569C111.124 16.3793 111.082 16.5218 111.082 16.6674C111.082 16.813 111.124 16.9555 111.203 17.0779C111.316 17.2025 111.462 17.2937 111.623 17.3415C111.785 17.3894 111.956 17.3922 112.119 17.3495C112.86 17.2403 113.566 16.9662 114.187 16.5474C114.795 16.2003 115.309 15.7103 115.685 15.12C115.818 14.8611 115.887 14.4885 115.596 14.3243C115.459 14.2593 115.306 14.2344 115.155 14.2522C115.004 14.2701 114.861 14.3301 114.743 14.4253C114.843 14.2042 115.028 14.0321 115.255 13.9468C115.483 13.8615 115.735 13.8701 115.957 13.9706C116.154 14.0777 116.313 14.2435 116.411 14.445C116.51 14.6464 116.543 14.8735 116.507 15.0948C116.405 16.0611 115.508 16.9011 114.737 17.3937C113.888 17.9861 112.849 18.2427 111.822 18.1137C111.624 18.0851 111.434 18.0138 111.266 17.9048C111.098 17.7958 110.956 17.6515 110.849 17.4821C110.791 17.3786 110.754 17.2647 110.74 17.1468C110.727 17.029 110.737 16.9096 110.77 16.7957C110.803 16.6817 110.858 16.5754 110.932 16.483C111.007 16.3905 111.099 16.3136 111.203 16.2569V16.2569ZM106.569 28.08C106.468 28.3133 106.421 28.5667 106.433 28.8208C106.445 29.0748 106.515 29.3227 106.639 29.5453C106.781 29.7416 106.973 29.8968 107.195 29.9955C107.417 30.0942 107.661 30.1328 107.903 30.1074C108.995 30.0522 110.061 29.7498 111.019 29.2232C111.917 28.7778 112.699 28.129 113.302 27.3285C113.573 26.9558 113.984 26.419 113.814 25.9327C113.55 25.4733 113.229 25.0489 112.859 24.6695C113.801 25.0421 114.92 25.5348 114.718 26.76C114.484 27.7699 113.938 28.6805 113.156 29.3622C112.39 30.1003 111.458 30.6439 110.438 30.9474C109.345 31.3517 108.143 31.3517 107.049 30.9474C106.785 30.8315 106.554 30.6516 106.376 30.424C106.199 30.1964 106.081 29.9281 106.033 29.6435C105.985 29.359 106.009 29.067 106.103 28.794C106.197 28.521 106.357 28.2757 106.569 28.08ZM96.2269 27.3853C96.1131 28.0927 96.6442 28.5727 97.289 28.2127C97.5753 28.0274 97.8029 27.7645 97.9451 27.4546C98.0873 27.1448 98.1382 26.8009 98.0918 26.4632C99.2866 27.2148 98.509 28.9895 97.3585 29.2927C97.0769 29.3753 96.7753 29.3575 96.5054 29.2422C96.2355 29.127 96.0141 28.9216 95.8792 28.6611C95.7728 28.4424 95.7493 28.1926 95.8133 27.958C95.8772 27.7233 96.0242 27.5199 96.2269 27.3853Z" fill="white"/>
<path d="M107.55 103.503C110.926 103.686 113.593 102.177 113.511 100.118C113.429 98.059 110.628 96.2464 107.259 96.0632C103.89 95.8801 101.216 97.3895 101.298 99.4421C101.38 101.495 104.174 103.314 107.55 103.503Z" fill="white"/>
<path d="M118.018 102.448C118.315 102.437 118.603 102.338 118.844 102.163C119.085 101.988 119.268 101.746 119.371 101.467C119.474 101.188 119.492 100.884 119.422 100.595C119.353 100.306 119.199 100.044 118.98 99.8419C118.761 99.6401 118.488 99.5077 118.193 99.4615C117.899 99.4153 117.598 99.4573 117.328 99.5822C117.058 99.7071 116.831 99.9093 116.675 100.163C116.52 100.417 116.444 100.711 116.456 101.008C116.464 101.206 116.51 101.399 116.592 101.579C116.675 101.758 116.792 101.919 116.937 102.053C117.082 102.187 117.253 102.291 117.438 102.358C117.623 102.426 117.82 102.457 118.018 102.448V102.448Z" fill="white"/>
<path d="M106.481 115.263C103.813 113.282 101.417 110.959 99.3564 108.354C100.139 110.079 101.162 111.685 102.397 113.122C104.716 115.797 107.578 117.948 110.794 119.431C114.009 120.914 117.504 121.696 121.046 121.724C119.149 121.206 117.253 120.657 115.407 119.981C112.227 118.831 109.222 117.243 106.481 115.263V115.263Z" fill="white"/>
<path d="M129.22 119.47C128.379 120.133 127.266 120.284 126.28 120.625C126.856 120.881 127.487 120.984 128.114 120.924C128.741 120.864 129.342 120.644 129.858 120.284C130.345 119.872 130.699 119.325 130.876 118.713C131.054 118.101 131.047 117.451 130.857 116.842C130.383 117.758 130.061 118.8 129.22 119.47Z" fill="white"/>
<path d="M163.855 106.206C167.016 105.006 169.134 102.417 168.584 100.446C168.034 98.4758 165.037 97.8316 161.876 99.0316C158.716 100.232 156.604 102.821 157.148 104.798C157.691 106.775 160.701 107.406 163.855 106.206Z" fill="white"/>
<path d="M149.519 116.842C149.322 117.449 149.309 118.101 149.481 118.715C149.653 119.33 150.003 119.88 150.486 120.297C151.004 120.657 151.606 120.877 152.233 120.937C152.861 120.997 153.494 120.894 154.07 120.638C153.078 120.297 151.965 120.145 151.125 119.482C150.284 118.819 149.961 117.758 149.519 116.842Z" fill="white"/>
<path d="M177.276 112.421C174.982 114.602 172.402 116.461 169.608 117.947C166.676 119.438 163.611 120.654 160.454 121.579C162.421 121.51 164.371 121.192 166.257 120.632C172.528 118.825 178.357 114.429 181.018 108.36C179.859 109.792 178.609 111.148 177.276 112.421V112.421Z" fill="white"/>
<path d="M172.996 99.3916C173.283 99.3122 173.54 99.1496 173.734 98.9245C173.928 98.6993 174.051 98.4217 174.088 98.1267C174.124 97.8317 174.072 97.5326 173.938 97.2671C173.804 97.0016 173.595 96.7817 173.336 96.6352C173.077 96.4887 172.781 96.4221 172.484 96.4439C172.187 96.4657 171.904 96.575 171.669 96.7577C171.435 96.9405 171.259 97.1887 171.166 97.4709C171.073 97.7531 171.065 98.0566 171.144 98.3431C171.197 98.5336 171.286 98.7117 171.408 98.8675C171.53 99.0232 171.681 99.1535 171.853 99.2509C172.025 99.3483 172.214 99.4108 172.411 99.4349C172.607 99.4591 172.806 99.4443 172.996 99.3916Z" fill="white"/>
<path d="M73.3305 199.813C71.7814 199.458 70.329 198.768 69.0761 197.792C67.8515 196.693 66.8251 195.392 66.0417 193.945C65.8548 194.897 65.9327 195.882 66.2671 196.793C66.6015 197.704 67.1795 198.506 67.9382 199.112C69.4111 200.312 71.6237 200.842 73.3305 199.813Z" fill="black"/>
<path d="M72.2818 209.634C72.0227 208.655 71.7761 207.657 71.4411 206.703C71.2892 206.185 70.9613 205.735 70.5136 205.432C70.066 205.129 69.5266 204.991 68.9883 205.042C69.8243 205.929 70.4697 206.978 70.8848 208.124C71.6813 210.417 72.4336 212.728 73.1985 215.072C73.7337 216.697 74.2689 218.324 74.8042 219.954C74.6461 219.272 74.4881 218.596 74.3237 217.914C73.6599 215.122 72.9962 212.368 72.2818 209.634Z" fill="black"/>
<path d="M72.8435 204.417C72.7322 204.987 72.7781 205.576 72.9763 206.122C73.324 207.385 73.7286 208.648 74.1205 209.912C75.1657 213.28 76.234 216.619 77.3256 219.928C77.5847 220.737 77.8503 221.545 78.1158 222.36L76.5227 216.095C75.7641 213.088 74.9929 210.076 74.2469 207.063C74.1584 206.703 74.0636 206.343 73.9877 205.983C73.8076 204.991 73.8076 203.975 73.9877 202.983C73.7097 203.132 73.4648 203.336 73.2681 203.582C73.0714 203.829 72.927 204.113 72.8435 204.417Z" fill="black"/>
<path d="M90.9799 259.756C91.2988 258.899 91.54 258.015 91.7005 257.116C90.9688 257.811 90.086 258.327 89.1213 258.625C87.9013 258.909 86.8708 258.366 85.9226 257.64C84.3068 256.41 82.9257 254.9 81.8452 253.181C80.4175 250.69 79.2077 248.08 78.2292 245.381C77.2367 242.855 76.3328 240.259 75.4414 237.676C76.4908 242.81 77.5149 248.008 79.3987 252.916C80.4039 255.537 82.2561 257.741 84.2411 259.674C85.5054 260.874 87.6042 263.135 89.4943 261.89C90.1925 261.344 90.7101 260.6 90.9799 259.756V259.756Z" fill="black"/>
<path d="M96.3289 214.333C96.4111 208.876 97.4984 203.495 100.451 198.84C99.3027 199.797 98.3332 200.95 97.5869 202.244C96.1892 204.718 95.3802 207.48 95.2226 210.316C94.9739 213.279 95.4063 216.261 96.487 219.032C96.3668 217.472 96.3036 215.905 96.3289 214.333Z" fill="black"/>
<path d="M108.731 215.627C111.69 213.328 111.045 208.112 108.162 206.04C108.694 207.59 109.059 209.193 109.249 210.821C109.356 212.441 109.181 214.067 108.731 215.627Z" fill="black"/>
<path d="M127.551 197.981C128.291 197.257 128.849 196.367 129.179 195.386C129.509 194.404 129.601 193.359 129.448 192.335C128.278 193.945 127.248 195.65 125.585 196.813C123.923 197.975 121.988 198.41 120.054 198.84C121.06 199.441 122.22 199.735 123.392 199.686C124.94 199.646 126.421 199.04 127.551 197.981V197.981Z" fill="black"/>
<path d="M88.9385 264.568C89.09 264.93 89.2675 265.281 89.4695 265.617C89.6844 265.983 90.0637 266.64 90.5568 266.659C91.3344 266.691 91.6062 265.13 91.701 264.568C90.8792 264.935 89.7097 265.162 88.9385 264.568Z" fill="black"/>
<path d="M183.807 219.038C184.425 217.498 184.821 215.877 184.983 214.225C185.615 208.838 184.243 202.415 179.837 198.84C180.638 200.096 181.326 201.422 181.891 202.8C183.959 207.916 184.205 213.6 183.807 219.038Z" fill="black"/>
<path d="M171.043 210.821C171.234 209.193 171.598 207.59 172.13 206.04C169.248 208.112 168.603 213.328 171.561 215.627C171.112 214.067 170.936 212.441 171.043 210.821V210.821Z" fill="black"/>
<path d="M154.785 199.693C155.689 200.01 156.657 200.098 157.604 199.949C158.551 199.801 159.446 199.419 160.208 198.84C158.37 198.784 156.567 198.32 154.93 197.482C152.926 196.339 151.858 194.293 150.815 192.335C150.495 193.484 150.528 194.703 150.909 195.834C151.213 196.732 151.72 197.549 152.393 198.218C153.065 198.888 153.884 199.393 154.785 199.693V199.693Z" fill="black"/>
<path d="M135.971 193.775C136.392 194.949 137.051 196.024 137.906 196.933C138.208 197.249 138.57 197.502 138.972 197.676C139.374 197.849 139.807 197.94 140.245 197.943C140.787 197.887 141.31 197.711 141.775 197.428C142.241 197.145 142.638 196.762 142.938 196.307C144.499 194.236 145.188 191.52 145.65 189C146.144 186.293 146.345 183.54 146.25 180.789C145.618 183.385 144.986 185.994 144.189 188.558C143.557 190.648 142.862 192.903 141.591 194.709C141.269 195.164 140.738 195.916 140.093 195.865C139.265 195.802 138.633 194.64 138.266 194.008C137.217 192.004 136.405 189.884 135.845 187.693C135.213 185.419 134.637 183.107 134.05 180.815C133.93 183.901 134.195 186.99 134.84 190.011C135.11 191.295 135.488 192.554 135.971 193.775V193.775Z" fill="black"/>
<path d="M140.397 212.88C141.977 211.124 143.69 209.488 145.233 207.707C143.471 208.1 141.853 208.975 140.561 210.234C140.072 209.642 139.506 209.118 138.88 208.674C137.995 208.042 136.831 207.493 135.719 207.726C136.964 208.552 138.038 209.612 138.88 210.846C139.417 211.497 139.904 212.211 140.397 212.88Z" fill="black"/>
<path d="M143.696 237.537C143.085 237.014 142.52 236.439 142.008 235.819C141.57 235.288 141.246 234.673 141.054 234.013C141.024 233.749 140.976 233.487 140.908 233.23C141.02 232.227 141.075 231.219 141.073 230.211C141.112 227.587 140.913 224.966 140.478 222.379C140.207 223.952 140.023 225.537 139.846 227.122C139.638 229.118 139.48 231.12 139.214 233.11C139.037 234.281 138.562 235.388 137.836 236.324C137.073 237.248 136.367 238.218 135.725 239.23C136.973 238.773 138.12 238.075 139.1 237.177C139.501 236.793 139.844 236.352 140.118 235.87C140.512 236.401 140.986 236.87 141.522 237.259C142.716 238.137 144.101 238.56 145.403 239.23C144.896 238.607 144.324 238.039 143.696 237.537V237.537Z" fill="black"/>
<path d="M130.13 243.493C128.789 242.818 127.301 242.486 125.8 242.526C126.41 242.988 127.112 243.314 127.86 243.481C128.607 243.647 129.381 243.651 130.13 243.493V243.493Z" fill="black"/>
<path d="M124.029 251.305C124.709 251.883 125.501 252.313 126.356 252.568C127.229 252.875 128.156 253.001 129.08 252.941C128.3 252.514 127.475 252.173 126.621 251.924C125.778 251.64 124.91 251.433 124.029 251.305V251.305Z" fill="black"/>
<path d="M122.702 258.486C123.55 259.166 124.516 259.682 125.553 260.008C126.605 260.413 127.72 260.627 128.847 260.64C127.881 260.134 126.875 259.712 125.838 259.377C124.814 259.01 123.766 258.713 122.702 258.486Z" fill="black"/>
<path d="M154.342 242.526C152.834 242.474 151.338 242.798 149.986 243.467C150.737 243.633 151.515 243.635 152.267 243.473C153.019 243.31 153.727 242.988 154.342 242.526V242.526Z" fill="black"/>
<path d="M156.086 251.305C155.207 251.436 154.341 251.647 153.501 251.937C152.644 252.185 151.817 252.526 151.035 252.954C151.959 253.014 152.886 252.887 153.76 252.581C154.617 252.325 155.41 251.89 156.086 251.305V251.305Z" fill="black"/>
<path d="M151.27 260.627C152.396 260.614 153.512 260.4 154.563 259.996C155.6 259.671 156.567 259.155 157.414 258.474C156.342 258.699 155.286 258.997 154.253 259.364C153.225 259.701 152.227 260.123 151.27 260.627V260.627Z" fill="black"/>
<path d="M141.136 254.855C141.174 254.495 141.206 254.135 141.237 253.775C141.49 250.907 141.332 247.983 139.973 245.387C140.28 247 140.399 248.642 140.327 250.282V250.914C140.227 251.415 140.048 251.896 139.796 252.341C139.413 252.941 138.925 253.468 138.354 253.895C139.08 253.726 139.739 253.349 140.251 252.808C140.135 254.881 140.146 256.958 140.283 259.029C140.407 260.445 140.65 261.848 141.01 263.223C140.953 262.648 140.896 262.086 140.87 261.512C140.818 259.955 140.86 258.396 140.997 256.844C141.033 256.899 141.073 256.952 141.117 257.002C141.664 257.584 142.349 258.018 143.108 258.265C142.305 257.488 141.49 256.724 141.262 255.587C141.207 255.345 141.165 255.101 141.136 254.855V254.855Z" fill="black"/>
<path d="M99.249 90.8148C104.831 89.8106 110.691 89.8106 116.121 91.5537C121.38 93.2873 126.064 96.4233 129.668 100.623C128.084 97.9603 126.012 95.6186 123.562 93.72C118.835 90.1191 113.069 88.1427 107.126 88.0864C103.96 87.9828 100.8 88.4097 97.776 89.3495C96.3526 89.7943 95.0023 90.4455 93.7681 91.2821C92.582 92.0218 91.6731 93.1318 91.1826 94.44C92.1143 93.3388 93.3265 92.5096 94.6911 92.04C96.1662 91.4825 97.693 91.0721 99.249 90.8148V90.8148Z" fill="black"/>
<path d="M117.581 82.7368C119.718 83.3982 121.777 84.2854 123.726 85.3831C126.3 86.952 128.515 89.0461 130.224 91.5284C130.93 92.5348 131.564 93.5901 132.121 94.6863C132.753 95.9494 133.309 97.2126 133.929 98.4758C133.694 96.8303 133.27 95.2174 132.664 93.6694C131.767 91.4567 130.471 89.4273 128.84 87.6821C125.866 84.6445 121.832 82.8727 117.581 82.7368Z" fill="black"/>
<path d="M130.067 138.316C130.573 137.413 131.155 136.554 131.736 135.701C132.887 134.008 134.069 132.177 134.05 130.055C133.651 131.003 133.157 131.908 132.577 132.758C131.976 133.642 131.313 134.482 130.68 135.373C129.453 137.086 128.736 139.111 128.613 141.215C129.094 140.248 129.536 139.27 130.067 138.316Z" fill="black"/>
<path d="M132.633 129.322C131.438 131.179 129.965 132.802 128.638 134.552C129.665 134.055 130.56 133.321 131.249 132.411C132.006 131.541 132.488 130.466 132.633 129.322Z" fill="black"/>
<path d="M135.712 137.684C136.616 137.149 137.32 136.333 137.716 135.36C137.918 134.924 138.512 133.667 137.969 133.27C137.764 133.163 137.536 133.112 137.305 133.119C137.075 133.127 136.851 133.194 136.654 133.314C136.026 133.605 135.416 133.932 134.827 134.293C134.005 134.754 133.082 135.6 133.309 136.642C133.365 136.891 133.478 137.124 133.641 137.321C133.804 137.518 134.01 137.673 134.245 137.775C134.479 137.876 134.734 137.921 134.989 137.906C135.244 137.89 135.492 137.814 135.712 137.684Z" fill="black"/>
<path d="M129.144 152.76C129.177 151.892 129.313 151.032 129.549 150.196C129.847 149.381 130.23 148.6 130.693 147.865C128.645 148.257 127.583 151.263 129.144 152.76Z" fill="black"/>
<path d="M114.667 74.9684C118.421 74.7268 122.189 75.1545 125.793 76.2315C128.954 77.1031 132.007 78.2084 135.13 79.1494C136.757 79.7327 138.461 80.0773 140.187 80.1726C141.914 80.0772 143.617 79.7326 145.244 79.1494C151.92 77.1347 158.57 74.3178 165.707 74.9368C161.466 73.4778 156.75 73.9831 152.432 74.861C149.455 75.4926 146.553 76.3957 143.614 77.1536C142.65 77.4314 141.664 77.6258 140.668 77.7347C139.726 77.7708 138.784 77.6665 137.874 77.4252C136.685 77.1536 135.509 76.7936 134.333 76.4905C130.661 75.4547 126.956 74.4505 123.144 74.141C120.292 73.8323 117.406 74.1139 114.667 74.9684V74.9684Z" fill="black"/>
<path d="M126.28 69.9663C128.328 70.4421 130.358 70.9979 132.368 71.6337C134.135 72.2559 135.946 72.7477 137.786 73.1053C139.629 73.3984 141.51 73.3491 143.336 72.96C145.15 72.5811 146.901 71.9558 148.671 71.4126C150.441 70.8695 152.249 70.3832 154.07 69.9663C151.99 69.8381 149.902 69.9739 147.856 70.3705C146.042 70.6926 144.259 71.1663 142.438 71.419C140.722 71.6465 138.981 71.6146 137.274 71.3242C135.453 71.0211 133.664 70.5474 131.837 70.2632C130.003 69.9436 128.138 69.844 126.28 69.9663V69.9663Z" fill="black"/>
<path d="M163.35 90.0063C158.075 92.0478 153.627 95.7823 150.707 100.623C152.747 98.2609 155.124 96.2115 157.762 94.5411C162.501 91.6366 167.955 90.106 173.515 90.12C176.445 90.1087 179.367 90.4093 182.233 91.0169C184.679 91.5474 187.631 92.3495 189.224 94.4463C188.769 92.9179 187.448 91.7621 186.14 90.9411C184.711 90.0749 183.162 89.4237 181.544 89.0084C178.478 88.2121 175.305 87.9094 172.144 88.1116C169.129 88.2652 166.16 88.9051 163.35 90.0063V90.0063Z" fill="black"/>
<path d="M149.044 90.8717C147.678 93.2192 146.776 95.8072 146.389 98.4948C146.838 97.579 147.204 96.6001 147.653 95.7222C147.868 95.3117 148.077 94.8948 148.285 94.4591C149.408 92.2636 150.855 90.2495 152.577 88.4843C153.929 87.1175 155.471 85.9519 157.154 85.0233C158.935 84.089 160.797 83.3175 162.717 82.718C160.203 82.8175 157.742 83.4709 155.511 84.6317C152.826 86.0839 150.59 88.2416 149.044 90.8717V90.8717Z" fill="black"/>
<path d="M148.609 135.714C149.19 136.567 149.772 137.425 150.277 138.329C150.783 139.232 151.251 140.223 151.706 141.228C151.582 139.124 150.865 137.099 149.639 135.385C149.007 134.495 148.375 133.655 147.742 132.771C147.165 131.92 146.671 131.014 146.27 130.068C146.276 132.19 147.458 134.021 148.609 135.714Z" fill="black"/>
<path d="M151.718 134.526C150.39 132.777 148.917 131.154 147.723 129.297C147.868 130.441 148.349 131.516 149.107 132.385C149.795 133.296 150.69 134.029 151.718 134.526V134.526Z" fill="black"/>
<path d="M145.523 134.312C144.93 133.952 144.318 133.625 143.69 133.333C143.493 133.213 143.268 133.146 143.038 133.138C142.808 133.131 142.579 133.182 142.375 133.288C141.831 133.686 142.425 134.943 142.628 135.379C143.023 136.352 143.727 137.168 144.632 137.703C144.852 137.833 145.099 137.909 145.354 137.924C145.609 137.94 145.864 137.895 146.098 137.794C146.333 137.692 146.54 137.537 146.702 137.34C146.865 137.143 146.978 136.91 147.034 136.661C147.293 135.619 146.338 134.773 145.523 134.312Z" fill="black"/>
<path d="M148.595 148.648C148.506 149.138 148.238 149.576 147.843 149.878C147.448 150.181 146.955 150.325 146.459 150.284C145.005 150.246 143.823 149.021 142.312 149.507C141.679 149.818 141.019 150.067 140.339 150.253C139.641 150.251 138.956 150.056 138.361 149.691C137.755 149.393 137.063 149.319 136.407 149.482C135.674 149.665 135.004 150.038 134.264 150.209C133.988 150.293 133.697 150.319 133.41 150.284C133.123 150.25 132.846 150.157 132.597 150.01C132.348 149.864 132.132 149.667 131.963 149.432C131.794 149.198 131.676 148.931 131.616 148.648C131.085 148.907 130.927 149.747 130.863 150.272C130.761 150.941 130.883 151.625 131.211 152.217C131.268 151.775 131.35 150.638 132.02 150.84C132.311 150.929 132.564 151.118 132.848 151.225C133.273 151.372 133.728 151.407 134.17 151.326C134.837 151.176 135.522 151.117 136.205 151.15C136.9 151.254 137.574 151.467 138.203 151.781C139.306 152.223 140.528 152.268 141.661 151.907C142.223 151.718 142.729 151.402 143.311 151.276C144.027 151.109 144.77 151.096 145.491 151.238C145.926 151.352 146.377 151.395 146.825 151.364C147.213 151.289 147.585 151.148 147.925 150.947C148.311 150.758 148.595 150.707 148.791 151.137C148.919 151.478 149 151.835 149.032 152.198C149.241 151.802 149.368 151.368 149.405 150.922C149.442 150.476 149.388 150.027 149.246 149.602C149.208 149.408 149.13 149.223 149.018 149.059C148.906 148.895 148.762 148.756 148.595 148.648V148.648Z" fill="black"/>
<path d="M140.175 154.737C139.09 154.8 138.01 154.92 136.938 155.097C136.403 155.158 135.861 155.111 135.345 154.956C134.829 154.802 134.349 154.545 133.936 154.2C134.979 156.79 137.975 156.095 140.175 156.095C142.375 156.095 145.359 156.764 146.408 154.2C145.995 154.546 145.516 154.804 144.999 154.959C144.483 155.113 143.941 155.16 143.405 155.097C142.324 154.971 141.262 154.737 140.175 154.737Z" fill="black"/>
<path d="M137.128 160.225C138.152 160.187 139.151 159.84 140.175 159.84C141.199 159.84 142.192 160.181 143.216 160.225C142.843 159.781 142.377 159.423 141.851 159.178C141.326 158.933 140.752 158.805 140.172 158.805C139.591 158.805 139.018 158.933 138.492 159.178C137.966 159.423 137.501 159.781 137.128 160.225V160.225Z" fill="black"/>
<path d="M149.651 147.865C150.114 148.6 150.498 149.381 150.796 150.196C151.032 151.032 151.167 151.892 151.2 152.76C152.762 151.263 151.719 148.257 149.651 147.865Z" fill="black"/>
<path d="M175.993 125.274C177.689 124.112 179.276 122.8 180.734 121.352C183.302 118.861 185.528 116.04 187.353 112.964C188.282 111.408 189.065 109.769 189.692 108.07C190.334 106.307 190.769 104.476 190.988 102.613C190.463 104.116 189.945 105.606 189.275 107.034C187.626 110.525 185.602 113.827 183.238 116.88C180.985 119.814 178.566 122.616 175.993 125.274V125.274Z" fill="black"/>
<path d="M93.7806 112.364C92.8443 110.861 91.9999 109.302 91.2519 107.697C90.5254 106.039 89.8923 104.341 89.3555 102.613C89.5276 104.442 89.9116 106.246 90.4997 107.987C91.8674 111.748 93.9136 115.227 96.5368 118.251C98.778 120.966 101.411 123.333 104.35 125.274C102.896 123.84 101.474 122.394 100.14 120.853C97.7974 118.197 95.6708 115.358 93.7806 112.364V112.364Z" fill="black"/>
<path d="M131.35 29.5642C132.164 30.3477 133.254 30.7808 134.384 30.7705C135.598 30.8469 136.815 30.6992 137.975 30.3347C139.119 29.9747 140.169 29.4694 141.395 29.4758C142.621 29.4821 143.734 29.7094 144.853 29.3368C145.345 29.1816 145.801 28.9287 146.193 28.5934C146.585 28.2581 146.906 27.8472 147.135 27.3852C148.02 25.4905 147.028 22.5031 144.67 22.3768C146.667 23.0084 147.382 25.7305 146.073 27.2968C144.632 29.0084 142.369 27.9663 140.491 28.1873C139.515 28.3551 138.559 28.6261 137.64 28.9958C136.621 29.3306 135.552 29.4887 134.479 29.4631C133.664 29.4631 132.583 29.3368 132.064 28.5915C131.883 28.2687 131.769 27.913 131.728 27.5453C131.686 27.1776 131.719 26.8053 131.824 26.4505C132.046 25.5127 132.498 24.6447 133.139 23.9248C133.78 23.2049 134.591 22.6555 135.497 22.3263C134.195 22.4891 133.003 23.1418 132.166 24.1516C131.289 25.0664 130.771 26.2657 130.705 27.5305C130.662 28.2646 130.892 28.9887 131.35 29.5642V29.5642Z" fill="black"/>
<path d="M168.869 26.2864C169.564 26.6303 170.32 26.8322 171.094 26.88C171.479 26.9251 171.868 26.8925 172.24 26.784C172.611 26.6755 172.957 26.4933 173.256 26.2485C174.363 25.0927 172.769 23.3558 171.865 22.6485C172.244 23.2387 172.543 23.8756 172.757 24.5432C172.877 24.8388 172.877 25.1697 172.757 25.4653C172.579 25.6437 172.339 25.7476 172.087 25.7558C170.886 25.939 169.672 25.32 168.705 24.6821C167.666 23.9953 166.747 23.1417 165.986 22.1558C165.354 21.3285 164.583 20.1664 164.937 19.0611C165.259 18.0569 166.675 17.6148 167.263 18.6632C167.216 18.4755 167.131 18.2993 167.014 18.1452C166.897 17.991 166.75 17.862 166.582 17.7659C166.413 17.6698 166.228 17.6086 166.035 17.5859C165.843 17.5632 165.648 17.5794 165.462 17.6337C165.11 17.7361 164.79 17.9243 164.53 18.1812C164.269 18.438 164.077 18.7556 163.97 19.1053C163.47 20.6148 164.355 22.2253 165.234 23.3811C166.203 24.6187 167.448 25.6134 168.869 26.2864V26.2864Z" fill="black"/>
<path d="M111.842 18.1138C112.869 18.2427 113.908 17.9862 114.756 17.3938C115.528 16.9012 116.425 16.0612 116.526 15.0948C116.563 14.8736 116.529 14.6465 116.431 14.445C116.332 14.2436 116.174 14.0778 115.976 13.9706C115.755 13.8701 115.503 13.8616 115.275 13.9469C115.048 14.0321 114.863 14.2043 114.763 14.4254C114.881 14.3301 115.024 14.2702 115.175 14.2523C115.326 14.2344 115.479 14.2594 115.616 14.3243C115.907 14.5012 115.837 14.8612 115.705 15.1201C115.314 15.7165 114.782 16.207 114.156 16.5475C113.536 16.9662 112.829 17.2404 112.089 17.3496C111.926 17.3922 111.754 17.3895 111.592 17.3416C111.431 17.2937 111.285 17.2026 111.172 17.078C111.093 16.9556 111.051 16.8131 111.051 16.6675C111.051 16.5219 111.093 16.3793 111.172 16.2569C111.064 16.3152 110.969 16.3948 110.894 16.491C110.818 16.5872 110.763 16.6978 110.731 16.8162C110.7 16.9345 110.693 17.058 110.711 17.1791C110.729 17.3001 110.772 17.4162 110.837 17.5201C110.951 17.6862 111.1 17.8254 111.274 17.928C111.447 18.0305 111.641 18.0939 111.842 18.1138V18.1138Z" fill="black"/>
<path d="M127.519 18.1643C128.573 18.0715 129.596 17.7596 130.522 17.2485C131.319 16.7621 132.102 15.9474 131.919 14.9369C131.893 14.7131 131.805 14.5009 131.665 14.3238C131.526 14.1466 131.34 14.0113 131.129 13.9327C130.929 13.8539 130.706 13.8509 130.504 13.9242C130.301 13.9974 130.132 14.1419 130.029 14.3306C130.182 14.1979 130.381 14.1308 130.584 14.1438C130.786 14.1568 130.975 14.2488 131.11 14.4C131.234 14.5734 131.3 14.7809 131.3 14.9937C131.3 15.2065 131.234 15.4141 131.11 15.5874C130.585 16.3958 129.39 16.7432 128.505 16.9453C127.937 17.0779 127.361 17.1727 126.78 17.2737C126.329 17.3811 125.859 17.3811 125.408 17.2737C124.327 16.92 125.332 15.6316 125.73 15.1642C125.218 15.3705 124.787 15.7387 124.504 16.2127C124.378 16.4504 124.329 16.7211 124.363 16.9879C124.397 17.2546 124.512 17.5044 124.694 17.7032C125.389 18.4737 126.609 18.2779 127.519 18.1643Z" fill="black"/>
<path d="M141.06 11.6337C141.914 11.3874 143.083 10.7432 142.957 9.68217C142.929 9.45703 142.832 9.24581 142.681 9.07659C142.53 8.90737 142.33 8.78816 142.11 8.7348C141.983 8.7348 141.661 8.7348 141.579 8.8548C141.497 8.9748 141.73 9.08217 141.939 9.08849C141.997 9.12154 142.048 9.16427 142.091 9.2148C142.174 9.32469 142.22 9.4589 142.22 9.59691C142.22 9.73492 142.174 9.86913 142.091 9.97901C141.611 10.4247 140.993 10.6922 140.34 10.7369C139.752 10.838 138.886 10.9832 138.361 10.6106C137.836 10.238 137.95 9.53059 138.589 9.49901C138.14 9.2148 137.615 9.71375 137.539 10.1306C137.507 10.3523 137.535 10.5786 137.619 10.7861C137.704 10.9937 137.842 11.175 138.02 11.3116C138.791 12.0001 140.125 11.9053 141.06 11.6337Z" fill="black"/>
<path d="M154.006 13.9831C154.575 14.2736 155.163 14.5452 155.745 14.8042C156.56 15.1642 157.509 15.6315 158.419 15.3536C158.63 15.302 158.826 15.1997 158.989 15.0555C159.152 14.9114 159.278 14.7297 159.354 14.5263C159.424 14.3258 159.419 14.1068 159.338 13.9102C159.258 13.7137 159.109 13.5532 158.918 13.4589C159.044 13.6029 159.109 13.7899 159.099 13.9807C159.09 14.1714 159.007 14.3511 158.868 14.4821C158.701 14.6035 158.507 14.681 158.302 14.7075C158.098 14.734 157.89 14.7086 157.698 14.6336C156.848 14.3039 156.024 13.9112 155.233 13.4589L154.676 13.2063C154.329 13.0484 153.703 12.8715 153.551 12.4736C153.4 12.0757 153.741 11.8421 154.006 11.6905C154.497 11.517 155.022 11.4649 155.536 11.5389C154.658 11.0715 153.317 10.8315 152.799 11.9494C152.35 12.8778 153.248 13.5978 154.006 13.9831Z" fill="black"/>
<path d="M107.05 30.9473C108.143 31.3516 109.345 31.3516 110.438 30.9473C111.458 30.6438 112.391 30.1001 113.157 29.362C113.929 28.6725 114.464 27.7577 114.686 26.7473C114.889 25.522 113.77 25.0294 112.828 24.6567C113.198 25.0279 113.521 25.4438 113.789 25.8946C113.959 26.3809 113.549 26.9178 113.277 27.2904C112.674 28.091 111.893 28.7398 110.995 29.1852C110.036 29.7118 108.971 30.0141 107.878 30.0694C107.637 30.0947 107.393 30.0561 107.171 29.9575C106.949 29.8588 106.757 29.7035 106.614 29.5073C106.491 29.2846 106.42 29.0368 106.408 28.7827C106.396 28.5287 106.443 28.2753 106.544 28.042C106.324 28.2386 106.157 28.488 106.06 28.7667C105.963 29.0454 105.939 29.3442 105.99 29.6349C106.04 29.9257 106.164 30.1987 106.35 30.4283C106.535 30.6579 106.776 30.8365 107.05 30.9473V30.9473Z" fill="black"/>
<path d="M123.624 40.8884C123.884 40.8412 124.128 40.7289 124.332 40.5621C124.537 40.3954 124.696 40.1795 124.794 39.9347C124.933 39.5116 124.901 38.741 124.402 38.5452C124.48 38.735 124.497 38.9441 124.452 39.1441C124.407 39.3441 124.301 39.5253 124.149 39.6631C123.897 39.8336 123.589 39.8993 123.289 39.8463C122.671 39.8413 122.056 39.7629 121.456 39.6126C121.091 39.5002 120.76 39.2987 120.493 39.0263C120.226 38.7539 120.031 38.4192 119.926 38.0526C119.737 37.421 119.825 36.2084 120.647 36.0442C120.122 35.7663 119.534 36.2589 119.256 36.6758C118.943 37.1261 118.791 37.6693 118.826 38.2168C118.857 38.6995 119.004 39.1678 119.253 39.5821C119.503 39.9965 119.849 40.3449 120.261 40.5979C121.303 41.1244 122.508 41.2284 123.624 40.8884Z" fill="black"/>
<path d="M150.296 39.7894C150.258 42.0947 146.876 42.5747 145.15 42.5557C144.101 42.5557 142.773 42.4105 142.16 41.4189C142.053 41.2527 141.983 41.0656 141.954 40.8702C141.926 40.6747 141.94 40.4754 141.995 40.2857C142.05 40.096 142.145 39.9203 142.274 39.7705C142.403 39.6206 142.562 39.5 142.741 39.4168C142.395 39.4431 142.067 39.5881 141.815 39.8274C141.563 40.0668 141.401 40.3857 141.357 40.7305C141.312 41.0735 141.346 41.4221 141.456 41.7502C141.565 42.0784 141.747 42.3775 141.989 42.6252C142.931 43.6484 144.518 43.8884 145.82 43.8884C147.291 43.9128 148.732 43.4706 149.935 42.6252C150.473 42.2612 150.88 41.7353 151.097 41.1241C151.314 40.5129 151.33 39.8483 151.143 39.2273C150.951 38.6314 150.541 38.1301 149.994 37.8243C149.448 37.5184 148.806 37.4308 148.197 37.5789C148.76 37.6197 149.287 37.869 149.675 38.2779C150.063 38.6869 150.285 39.2259 150.296 39.7894V39.7894Z" fill="black"/>
<path d="M157.369 35.6084C156.93 35.1756 156.661 34.5989 156.612 33.9841C156.563 33.3693 156.738 32.7576 157.104 32.261C155.732 33.1326 155.77 35.1789 156.737 36.3284C157.704 37.4778 159.348 37.7557 160.758 37.5915C162.285 37.3018 163.714 36.6304 164.911 35.6399C166.024 34.8063 167.471 33.8336 167.806 32.3873C168.091 31.1241 167.174 29.2926 165.676 29.5452C166.008 29.6298 166.31 29.8044 166.548 30.0496C166.787 30.2948 166.953 30.6011 167.029 30.9347C167.109 31.2537 167.107 31.5879 167.023 31.906C166.939 32.2241 166.776 32.5158 166.548 32.7536C165.925 33.3674 165.226 33.9 164.469 34.3389C163.482 35.0781 162.394 35.6715 161.238 36.101C160.018 36.4673 158.374 36.5368 157.369 35.6084Z" fill="black"/>
<path d="M175.74 37.0169C176.181 37.3265 176.693 37.5186 177.228 37.575C177.764 37.6313 178.305 37.5501 178.8 37.339C179.046 37.2243 179.266 37.0611 179.448 36.8592C179.629 36.6574 179.768 36.421 179.856 36.1642C180.007 35.6906 179.976 34.9706 179.464 34.7179C179.508 34.8822 179.519 35.0538 179.495 35.2223C179.471 35.3907 179.413 35.5527 179.325 35.6984C179.237 35.8441 179.121 35.9705 178.983 36.0701C178.845 36.1697 178.688 36.2404 178.522 36.2779C178.171 36.3514 177.808 36.3517 177.457 36.2789C177.106 36.2061 176.773 36.0617 176.48 35.8548C175.917 35.5263 175.14 35.16 174.862 34.5348C174.797 34.3879 174.765 34.2286 174.768 34.0682C174.772 33.9078 174.81 33.7499 174.88 33.6057C174.95 33.4614 175.051 33.3342 175.176 33.2329C175.301 33.1316 175.446 33.0586 175.601 33.019C175.365 32.9316 175.108 32.9205 174.865 32.9874C174.622 33.0542 174.406 33.1956 174.249 33.3916C174.094 33.5674 173.978 33.7732 173.907 33.996C173.837 34.2188 173.813 34.4539 173.838 34.6863C173.939 35.7727 174.893 36.4927 175.74 37.0169Z" fill="black"/>
<path d="M108.732 42.0317C109.176 42.1795 109.649 42.2176 110.112 42.1428C110.574 42.068 111.012 41.8825 111.387 41.6022C111.554 41.4716 111.692 41.3065 111.79 41.1179C111.889 40.9293 111.945 40.7218 111.956 40.5095C111.956 40.0927 111.722 39.5622 111.254 39.5116C111.331 39.6245 111.379 39.755 111.392 39.891C111.406 40.0271 111.385 40.1643 111.331 40.2901C111.278 40.416 111.193 40.5263 111.086 40.611C110.978 40.6957 110.851 40.752 110.716 40.7748C110.165 40.9154 109.583 40.8867 109.048 40.6927C108.783 40.6147 108.541 40.4763 108.339 40.2886C108.138 40.1008 107.983 39.8688 107.887 39.6109C107.79 39.3529 107.755 39.0762 107.785 38.8025C107.814 38.5287 107.907 38.2656 108.055 38.0338C107.094 38.2043 106.74 39.4043 106.924 40.2316C107.041 40.6635 107.27 41.0569 107.587 41.3728C107.904 41.6886 108.299 41.9158 108.732 42.0317V42.0317Z" fill="black"/>
<path d="M115.894 48.3473C115.747 48.2784 115.623 48.1707 115.534 48.036C115.444 47.9013 115.394 47.7447 115.387 47.5833C115.381 47.4219 115.419 47.2617 115.497 47.1203C115.575 46.9788 115.69 46.8615 115.831 46.781C115.198 46.56 114.674 47.2168 114.566 47.7473C114.527 48.0414 114.58 48.3403 114.717 48.6035C114.853 48.8667 115.068 49.0816 115.331 49.2189C116.431 49.8505 118.03 48.96 117.765 47.6147C117.329 48.1515 116.621 48.6694 115.894 48.3473Z" fill="black"/>
<path d="M97.3527 29.2926C98.5033 29.0021 99.2808 27.2147 98.086 26.4631C98.1324 26.8008 98.0815 27.1447 97.9394 27.4546C97.7972 27.7644 97.5696 28.0273 97.2832 28.2126C96.651 28.5726 96.1074 28.0926 96.2212 27.3852C96.0122 27.5205 95.8609 27.7285 95.7967 27.9689C95.7325 28.2093 95.7598 28.4649 95.8735 28.6863C96.0124 28.9422 96.2355 29.1423 96.505 29.2527C96.7745 29.3632 97.074 29.3773 97.3527 29.2926V29.2926Z" fill="black"/>
<path d="M183.124 28.5474C183.31 28.4012 183.436 28.1929 183.481 27.9607C183.525 27.7285 183.483 27.4883 183.364 27.2842C183.149 27.9158 182.504 28.1432 182.1 27.5747C181.911 27.2703 181.819 26.9156 181.838 26.5579C181.856 26.2002 181.982 25.8565 182.201 25.5726C180.766 25.6484 180.589 27.6379 181.499 28.44C181.714 28.6462 181.995 28.7701 182.292 28.7897C182.589 28.8094 182.884 28.7235 183.124 28.5474Z" fill="black"/>
<path d="M135.244 50.3241C135.584 50.3907 135.936 50.363 136.262 50.2438C136.587 50.1247 136.874 49.9187 137.09 49.6483C137.291 49.3998 137.41 49.0955 137.432 48.7767C137.453 48.458 137.376 48.1405 137.21 47.8673C137.201 48.0791 137.148 48.2867 137.053 48.4764C136.958 48.666 136.824 48.8335 136.66 48.9678C136.496 49.1021 136.305 49.2002 136.1 49.2556C135.895 49.3111 135.681 49.3225 135.471 49.2894C135.262 49.2562 135.062 49.1791 134.884 49.0631C134.706 48.9471 134.555 48.7949 134.441 48.6165C134.326 48.438 134.251 48.2374 134.219 48.0277C134.188 47.818 134.201 47.6041 134.258 47.3999C134.022 47.602 133.853 47.8703 133.772 48.1699C133.69 48.4695 133.701 48.7866 133.803 49.0799C133.912 49.3959 134.103 49.6774 134.356 49.8959C134.609 50.1144 134.915 50.2622 135.244 50.3241V50.3241Z" fill="black"/>
<path d="M123.208 28.1368C123.547 28.2022 123.898 28.1739 124.222 28.0548C124.546 27.9357 124.832 27.7304 125.048 27.461C125.248 27.2124 125.367 26.9086 125.39 26.5903C125.412 26.272 125.337 25.9544 125.174 25.68C125.164 25.8914 125.11 26.0984 125.014 26.2873C124.919 26.4763 124.784 26.6429 124.62 26.7764C124.456 26.9099 124.265 27.0072 124.06 27.062C123.856 27.1167 123.642 27.1276 123.433 27.0941C123.223 27.0605 123.024 26.9832 122.846 26.8672C122.669 26.7512 122.519 26.5991 122.404 26.4209C122.29 26.2427 122.215 26.0424 122.183 25.8331C122.152 25.6238 122.165 25.4102 122.222 25.2063C121.986 25.4084 121.817 25.6767 121.735 25.9763C121.654 26.2759 121.665 26.593 121.767 26.8863C121.875 27.2034 122.065 27.4863 122.318 27.706C122.572 27.9256 122.879 28.0743 123.208 28.1368V28.1368Z" fill="black"/>
<path d="M161.232 47.2989C160.999 47.3091 160.767 47.2692 160.551 47.1819C160.336 47.0947 160.141 46.9621 159.981 46.7932C159.821 46.6243 159.699 46.4231 159.624 46.203C159.548 45.983 159.521 45.7493 159.544 45.5178C159.296 45.8271 159.169 46.2154 159.185 46.6112C159.201 47.007 159.36 47.3836 159.632 47.6715C159.886 47.9499 160.21 48.1552 160.57 48.2663C160.93 48.3774 161.314 48.3901 161.681 48.3031C162.011 48.2303 162.317 48.0767 162.573 47.8562C162.829 47.6358 163.026 47.3553 163.147 47.0399C163.356 46.4462 163.04 45.322 162.212 45.4989C162.303 45.5573 162.383 45.6332 162.445 45.7223C162.507 45.8114 162.552 45.9119 162.575 46.0181C162.599 46.1243 162.601 46.234 162.582 46.3411C162.563 46.4481 162.523 46.5504 162.464 46.642C162.323 46.8382 162.138 46.9994 161.924 47.1133C161.711 47.2271 161.474 47.2906 161.232 47.2989Z" fill="black"/>
<path d="M154.93 25.3072C154.697 25.3184 154.464 25.2792 154.247 25.1923C154.031 25.1055 153.835 24.9731 153.675 24.8041C153.514 24.6351 153.391 24.4335 153.316 24.213C153.24 23.9924 153.213 23.7582 153.235 23.5262C152.987 23.8357 152.86 24.2247 152.878 24.6208C152.895 25.017 153.056 25.3934 153.33 25.6799C153.584 25.9571 153.906 26.1619 154.265 26.2729C154.624 26.3839 155.006 26.3972 155.372 26.3115C155.703 26.2397 156.01 26.0865 156.266 25.8659C156.522 25.6453 156.719 25.3643 156.839 25.0483C157.047 24.4546 156.738 23.3304 155.903 23.5009C156.083 23.6208 156.209 23.8061 156.254 24.0173C156.298 24.2286 156.259 24.449 156.143 24.6315C156.005 24.8284 155.824 24.9915 155.614 25.1085C155.404 25.2256 155.17 25.2935 154.93 25.3072V25.3072Z" fill="black"/>
<path d="M145.308 57.1579C145.427 57.5086 145.656 57.8114 145.961 58.0209C146.267 58.2304 146.632 58.3354 147.002 58.32C147.407 58.3078 147.803 58.1938 148.152 57.9885C148.501 57.7832 148.793 57.4931 149 57.1452C149.191 56.7992 149.256 56.3971 149.183 56.0084C149.12 55.661 148.911 55.1431 148.5 55.0863C148.631 55.2975 148.697 55.5426 148.689 55.7909C148.681 56.0391 148.6 56.2796 148.456 56.4821C148.304 56.696 148.109 56.8761 147.884 57.0109C147.659 57.1457 147.408 57.2323 147.148 57.2652C146.905 57.318 146.652 57.2786 146.437 57.1548C146.222 57.0311 146.06 56.8318 145.984 56.5958C145.857 56.3588 145.793 56.0925 145.799 55.8234C145.806 55.5542 145.883 55.2914 146.022 55.061C145.182 55.1747 145.112 56.5579 145.308 57.1579Z" fill="black"/>
</g>
<defs>
<clipPath id="clip0">
<rect width="282.645" height="300" fill="white"/>
</clipPath>
</defs>
</svg>
