<svg width="961" height="1080" viewBox="0 0 961 1080" fill="none" xmlns="http://www.w3.org/2000/svg">
<g clip-path="url(#clip0)">
<mask id="path-1-inside-1" fill="white">
<path d="M272.165 471.684H311.531H470.553H535.301H626.467H665.315L666.033 520.892L667.053 590.82L668.941 720.317H634.236H599.531H553.949H485.057H463.56H452.812H442.064H430.15H393.373H375.762H358.15H322.927H286.668H269.057L269.244 705.295L269.743 665.41L270.144 633.295L270.494 605.324L270.785 582.014L271.077 558.705L272.165 471.684Z"/>
</mask>
<path d="M272.165 471.684H311.531H470.553H535.301H626.467H665.315L666.033 520.892L667.053 590.82L668.941 720.317H634.236H599.531H553.949H485.057H463.56H452.812H442.064H430.15H393.373H375.762H358.15H322.927H286.668H269.057L269.244 705.295L269.743 665.41L270.144 633.295L270.494 605.324L270.785 582.014L271.077 558.705L272.165 471.684Z" fill="#150140"/>
<path d="M530.639 534.36L532.575 533.857L532.242 532.576L530.933 532.382L530.639 534.36ZM505.258 567.511L507.23 567.179L507.16 566.764L506.929 566.411L505.258 567.511ZM515.618 629.151L513.645 629.483L513.668 629.619L513.71 629.75L515.618 629.151ZM535.301 691.827L533.393 692.427L533.476 692.691L533.628 692.923L535.301 691.827ZM442.642 641.065L440.766 640.371L440.477 641.153L440.829 641.909L442.642 641.065ZM421.344 542.648L420.802 540.723L420.124 540.914L419.715 541.487L421.344 542.648ZM396.999 576.835L397.961 578.588L398.363 578.368L398.628 577.995L396.999 576.835ZM322.927 648.835L323.522 650.744L324.212 650.529L324.605 649.923L322.927 648.835ZM269.743 665.41L269.148 663.501L265.209 664.728L268.613 667.06L269.743 665.41ZM361.258 534.36L361.034 532.372L360.434 532.44L359.972 532.828L361.258 534.36ZM393.373 530.734L393.598 532.721L393.746 532.705L393.89 532.666L393.373 530.734ZM430.15 520.892L430.385 518.906L430.004 518.861L429.633 518.96L430.15 520.892ZM421.344 486.705L422.491 485.067L421.428 484.323L420.315 484.99L421.344 486.705ZM332.251 515.194L330.445 516.054L331.035 517.293L332.403 517.189L332.251 515.194ZM480.395 500.35L482.388 500.507L482.421 500.093L482.286 499.7L480.395 500.35ZM505.258 511.568L506.232 513.315L506.601 513.109L506.855 512.772L505.258 511.568ZM607.301 542.648L606.615 544.526L607.306 544.779L607.996 544.523L607.301 542.648ZM621.805 572.173L622.567 570.324L621.568 569.912L620.676 570.522L621.805 572.173ZM542.035 629.151L540.072 628.766L539.873 629.781L540.587 630.531L542.035 629.151ZM626.467 697.007L628.364 696.375L628.072 695.498L627.214 695.152L626.467 697.007ZM480.395 665.41L478.946 664.031L478.326 664.683L478.402 665.579L480.395 665.41ZM485.057 605.324L484.017 607.032L484.496 607.324H485.057V605.324ZM430.15 567.511L429.121 565.796L428.84 565.964L428.628 566.214L430.15 567.511ZM421.344 614.13L423.119 615.051L423.255 614.79L423.31 614.501L421.344 614.13ZM384.567 679.396L382.848 678.374L382.447 679.049L382.612 679.816L384.567 679.396ZM367.474 641.065L365.952 639.768L365.942 639.779L365.932 639.791L367.474 641.065ZM320.034 649.736L320.629 651.646L320.629 651.646L320.034 649.736ZM303.762 530.734L305.163 529.307L303.854 528.022L302.461 529.214L303.762 530.734ZM291.848 614.13H293.848V613.205L293.143 612.606L291.848 614.13ZM338.726 593.561L339.495 591.715L339.495 591.715L338.726 593.561ZM453.977 665.41H455.977V664.967L455.791 664.566L453.977 665.41ZM453.977 691.827L455.823 692.599L455.977 692.229V691.827H453.977ZM425.488 684.058L427.472 683.803L427.437 683.532L427.331 683.28L425.488 684.058ZM364.366 694.935L366.19 694.116L366.157 694.041L366.117 693.969L364.366 694.935ZM302.208 596.151L301.398 594.322L301.398 594.322L302.208 596.151ZM379.906 511.568L380.057 513.563L380.529 513.527L380.934 513.283L379.906 511.568ZM594.351 505.353L594.984 507.25L595.456 507.093L595.799 506.733L594.351 505.353ZM670.555 719.134L582.497 598.962L579.271 601.326L667.328 721.499L670.555 719.134ZM580.884 598.144H547.733V602.144H580.884V598.144ZM549.668 599.641L532.575 533.857L528.704 534.863L545.797 600.647L549.668 599.641ZM530.933 532.382L478.617 524.612L478.029 528.568L530.345 536.338L530.933 532.382ZM476.652 527.69L503.587 568.611L506.929 566.411L479.993 525.49L476.652 527.69ZM513.71 629.75L533.393 692.427L537.209 691.228L517.526 628.552L513.71 629.75ZM533.628 692.923L552.275 721.412L555.622 719.221L536.975 690.732L533.628 692.923ZM444.518 641.759L463.105 591.514L459.353 590.126L440.766 640.371L444.518 641.759ZM463.229 590.82V548.863H459.229V590.82H463.229ZM462.816 550.081L479.909 527.808L476.736 525.372L459.643 547.646L462.816 550.081ZM477.78 524.665L420.802 540.723L421.887 544.573L478.865 528.515L477.78 524.665ZM419.715 541.487L395.37 575.674L398.628 577.995L422.973 543.808L419.715 541.487ZM396.037 575.081L353.562 598.391L355.486 601.897L397.961 578.588L396.037 575.081ZM333.537 560.237L362.544 535.892L359.972 532.828L330.965 557.173L333.537 560.237ZM361.482 536.347L393.598 532.721L393.149 528.747L361.034 532.372L361.482 536.347ZM393.89 532.666L430.667 522.824L429.633 518.96L392.856 528.802L393.89 532.666ZM429.915 522.878L478.088 528.576L478.558 524.604L430.385 518.906L429.915 522.878ZM479.47 524.952L422.491 485.067L420.197 488.344L477.176 528.229L479.47 524.952ZM334.057 514.334L313.337 470.824L309.726 472.543L330.445 516.054L334.057 514.334ZM468.661 472.333L478.503 500.999L482.286 499.7L472.445 471.034L468.661 472.333ZM478.401 500.192L476.329 526.433L480.317 526.747L482.388 500.507L478.401 500.192ZM479.297 528.337L506.232 513.315L504.284 509.822L477.349 524.843L479.297 528.337ZM506.855 512.772L536.899 472.887L533.704 470.48L503.66 510.365L506.855 512.772ZM547.569 518.899L478.159 524.597L478.486 528.583L547.896 522.885L547.569 518.899ZM547.047 522.771L606.615 544.526L607.987 540.769L548.419 519.014L547.047 522.771ZM607.996 544.523L666.728 522.768L665.338 519.017L606.606 540.772L607.996 544.523ZM582.012 601.795L622.933 573.824L620.676 570.522L579.755 598.493L582.012 601.795ZM621.043 574.022L666.291 592.669L667.815 588.971L622.567 570.324L621.043 574.022ZM545.77 599.758L540.072 628.766L543.997 629.537L549.695 600.529L545.77 599.758ZM540.587 630.531L592.903 685.437L595.799 682.678L543.483 627.771L540.587 630.531ZM592.372 684.34L597.551 720.599L601.511 720.034L596.331 683.775L592.372 684.34ZM593.603 685.912L625.719 698.862L627.214 695.152L595.099 682.203L593.603 685.912ZM624.569 697.64L632.339 720.949L636.134 719.684L628.364 696.375L624.569 697.64ZM513.538 628.843L513.645 629.483L517.59 628.82L517.482 628.18L513.538 628.843ZM514.061 627.132L478.946 664.031L481.843 666.789L516.959 629.89L514.061 627.132ZM478.402 665.579L483.064 720.486L487.049 720.147L482.387 665.241L478.402 665.579ZM503.494 566.568L483.292 604.381L486.821 606.266L507.022 568.453L503.494 566.568ZM460.189 592.529L484.017 607.032L486.096 603.615L462.269 589.112L460.189 592.529ZM460.2 547.148L429.121 565.796L431.179 569.226L462.258 550.578L460.2 547.148ZM428.185 567.14L419.379 613.758L423.31 614.501L432.115 567.882L428.185 567.14ZM382.612 679.816L391.418 720.737L395.328 719.896L386.523 678.975L382.612 679.816ZM326.133 688.396L320.953 719.993L324.901 720.64L330.081 689.043L326.133 688.396ZM328.107 686.719H303.762V690.719H328.107V686.719ZM304.892 687.07L270.873 663.76L268.613 667.06L302.631 690.369L304.892 687.07ZM302.568 687.115L280.294 703.691L282.682 706.899L304.956 690.324L302.568 687.115ZM281.488 703.295H269.244V707.295H281.488V703.295ZM279.598 705.947L284.777 720.969L288.559 719.665L283.379 704.643L279.598 705.947ZM322.332 646.925L319.439 647.827L320.629 651.646L323.522 650.744L322.332 646.925ZM319.439 647.827L269.148 663.501L270.338 667.32L320.629 651.646L319.439 647.827ZM321.042 648.009L292.856 631.567L290.84 635.023L319.026 651.464L321.042 648.009ZM291.848 631.295H270.144V635.295H291.848V631.295ZM281.488 603.324H270.494V607.324H281.488V603.324ZM272.377 560.225L305.062 532.253L302.461 529.214L269.776 557.186L272.377 560.225ZM302.36 532.161L330.85 560.132L333.652 557.278L305.163 529.307L302.36 532.161ZM330.351 558.079L321.028 586.352L324.827 587.605L334.15 559.331L330.351 558.079ZM293.848 633.295V614.13H289.848V633.295H293.848ZM293.143 612.606L282.784 603.8L280.193 606.848L290.553 615.653L293.143 612.606ZM355.293 598.298L339.495 591.715L337.956 595.407L353.755 601.99L355.293 598.298ZM339.495 591.715L323.696 585.132L322.158 588.825L337.956 595.407L339.495 591.715ZM419.569 613.208L405.584 640.143L409.134 641.986L423.119 615.051L419.569 613.208ZM405.64 640.043L382.848 678.374L386.286 680.418L409.078 642.087L405.64 640.043ZM455.791 664.566L444.455 640.221L440.829 641.909L452.164 666.254L455.791 664.566ZM443.909 721.088L455.823 692.599L452.132 691.056L440.219 719.545L443.909 721.088ZM455.977 691.827V665.41H451.977V691.827H455.977ZM503.286 567.842L509.641 605.655L513.585 604.992L507.23 567.179L503.286 567.842ZM509.641 605.655L513.538 628.843L517.482 628.18L513.585 604.992L509.641 605.655ZM485.057 607.324H511.613V603.324H485.057V607.324ZM368.996 642.362L431.672 568.808L428.628 566.214L365.952 639.768L368.996 642.362ZM405.516 641.842L423.645 684.835L427.331 683.28L409.202 640.288L405.516 641.842ZM423.505 684.313L428.166 720.572L432.134 720.062L427.472 683.803L423.505 684.313ZM365.932 639.791L346.248 663.618L349.332 666.166L369.016 642.339L365.932 639.791ZM346.248 663.618L326.565 687.446L329.649 689.993L349.332 666.166L346.248 663.618ZM346.039 665.858L362.615 695.901L366.117 693.969L349.542 663.926L346.039 665.858ZM362.541 695.754L373.937 721.136L377.586 719.497L366.19 694.116L362.541 695.754ZM282.298 607.153L303.017 597.98L301.398 594.322L280.679 603.495L282.298 607.153ZM303.017 597.98L323.737 588.807L322.117 585.15L301.398 594.322L303.017 597.98ZM324.605 649.923L356.202 601.233L352.847 599.055L321.249 647.746L324.605 649.923ZM420.315 484.99L378.877 509.853L380.934 513.283L422.373 488.42L420.315 484.99ZM379.754 509.574L332.099 513.2L332.403 517.189L380.057 513.563L379.754 509.574ZM625.019 470.303L592.904 503.972L595.799 506.733L627.914 473.064L625.019 470.303ZM593.719 503.455L547.1 518.995L548.365 522.79L594.984 507.25L593.719 503.455ZM272.165 471.684V467.684H268.214L268.165 471.634L272.165 471.684ZM665.315 471.684L669.315 471.625L669.258 467.684H665.315V471.684ZM668.941 720.317V724.317H673L672.941 720.258L668.941 720.317ZM269.057 720.317L265.057 720.267L265.006 724.317H269.057V720.317ZM269.743 665.41L265.743 665.36L269.743 665.41ZM271.077 558.705L275.076 558.755L271.077 558.705ZM666.033 520.892L670.033 520.834L670.033 520.834L666.033 520.892ZM667.053 590.82L671.052 590.762L671.052 590.762L667.053 590.82ZM269.244 705.295L265.245 705.245L269.244 705.295ZM270.144 633.295L274.144 633.345L270.144 633.295ZM270.494 605.324L266.494 605.274L270.494 605.324ZM275.076 558.755L276.164 471.734L268.165 471.634L267.077 558.655L275.076 558.755ZM272.165 475.684H311.531V467.684H272.165V475.684ZM311.531 475.684H470.553V467.684H311.531V475.684ZM470.553 475.684H535.301V467.684H470.553V475.684ZM535.301 475.684H626.467V467.684H535.301V475.684ZM626.467 475.684H665.315V467.684H626.467V475.684ZM661.316 471.742L662.033 520.951L670.033 520.834L669.315 471.625L661.316 471.742ZM662.033 520.951L663.053 590.879L671.052 590.762L670.033 520.834L662.033 520.951ZM663.053 590.879L664.942 720.375L672.941 720.258L671.052 590.762L663.053 590.879ZM599.531 716.317H553.949V724.317H599.531V716.317ZM668.941 716.317H634.236V724.317H668.941V716.317ZM634.236 716.317H599.531V724.317H634.236V716.317ZM553.949 716.317H485.057V724.317H553.949V716.317ZM485.057 716.317H463.56V724.317H485.057V716.317ZM273.056 720.367L273.244 705.345L265.245 705.245L265.057 720.267L273.056 720.367ZM273.244 705.345L273.743 665.46L265.743 665.36L265.245 705.245L273.244 705.345ZM322.927 716.317H286.668V724.317H322.927V716.317ZM286.668 716.317H269.057V724.317H286.668V716.317ZM273.743 665.46L274.144 633.345L266.145 633.245L265.743 665.36L273.743 665.46ZM274.144 633.345L274.494 605.374L266.494 605.274L266.145 633.245L274.144 633.345ZM274.494 605.374L274.785 582.064L266.786 581.964L266.494 605.274L274.494 605.374ZM274.785 582.064L275.076 558.755L267.077 558.655L266.786 581.964L274.785 582.064ZM358.15 716.317H322.927V724.317H358.15V716.317ZM393.373 716.317H375.762V724.317H393.373V716.317ZM375.762 716.317H358.15V724.317H375.762V716.317ZM463.56 716.317H452.812V724.317H463.56V716.317ZM452.812 716.317H442.064V724.317H452.812V716.317ZM442.064 716.317H430.15V724.317H442.064V716.317ZM430.15 716.317H393.373V724.317H430.15V716.317Z" fill="white" mask="url(#path-1-inside-1)"/>
<path d="M277.102 476.684H660.388L663.868 715.317H274.12L277.102 476.684Z" stroke="#DFE1E9" stroke-width="10"/>
</g>
<defs>
<clipPath id="clip0">
<rect width="961" height="1080" fill="white"/>
</clipPath>
</defs>
</svg>
