<svg width="961" height="1080" viewBox="0 0 961 1080" fill="none" xmlns="http://www.w3.org/2000/svg">
<g clip-path="url(#clip0)">
<path d="M523 599H439L449.5 694.5L456.704 662.038L464 687.5L470.679 665.19L482.5 719.5L490.644 658.361L503.5 702.5L506.616 618.437L513 694.5L523 599Z" fill="#A6089B"/>
<path d="M451 703C451.55 669.244 452.95 603.635 453 599H448C448 603.62 450.383 669.12 451 703Z" fill="white"/>
<path d="M465.047 612.458H459.978C459.978 615.23 464 691 464 691C464 691 464.979 615.23 465.047 612.458Z" fill="white"/>
<path d="M501 612H496C496 613.956 498.483 665 498.483 665C498.483 665 500.933 613.956 501 612Z" fill="white"/>
<path d="M484 656H479C479 657.982 482.04 706 482.04 706C482.04 706 483.933 657.982 484 656Z" fill="white"/>
<path d="M516 599H511C511 601.749 513.727 671 513.727 671C513.727 671 515.95 601.749 516 599Z" fill="white"/>
<g clip-path="url(#clip1)">
<path d="M431 536.49C431 536.49 431.13 538.17 431.34 540.96L429.91 541.88C417.62 549.88 410.84 562.61 412.23 575.22L418.62 633.8C419.48 641.59 424.8 648.31 432.84 651.8L436.35 653.31C437.263 653.702 438.246 653.902 439.24 653.9C441.256 653.902 443.191 653.112 444.63 651.7C445.181 651.159 445.619 650.513 445.918 649.8C446.217 649.088 446.37 648.323 446.37 647.55L445.76 600.2H446.62L436 525.26C434.299 526.569 432.95 528.281 432.077 530.242C431.204 532.203 430.834 534.35 431 536.49V536.49Z" fill="#0528F3"/>
<path d="M512.47 424.64H450.17C440.83 451.31 440.1 484.53 442.24 522.73C439.985 523.006 437.844 523.879 436.04 525.26L446.62 600.18H449.14V600.12L449.49 600.19C450.61 600.43 451.74 600.66 452.87 600.87L453.93 604.39L508.21 606.1L509.78 600.85L512.16 600.39L520.82 522.8L520.41 522.73C522.55 484.53 521.82 451.31 512.47 424.64Z" fill="#F7F0E8"/>
<path d="M484.13 383.26C483.253 382.435 482.314 381.679 481.32 381C480.31 381.653 479.371 382.41 478.52 383.26C464.91 394.32 455.92 408.26 450.17 424.64C468.75 429.54 489.88 428.73 512.47 424.64C506.73 408.24 497.73 394.32 484.13 383.26Z" fill="#0528F3"/>
<path d="M455.76 610.5V625.57L457.29 625.8C463.036 626.679 468.824 627.253 474.63 627.52L475.11 647.86C475.147 649.469 475.814 651 476.968 652.122C478.122 653.244 479.671 653.868 481.28 653.86H481.37C482.974 653.85 484.511 653.22 485.659 652.101C486.808 650.983 487.478 649.462 487.53 647.86L488 627.57C493.814 627.332 499.608 626.741 505.35 625.8L506.87 625.55V610.5L508.19 606.1L453.91 604.39L455.76 610.5Z" fill="#0528F3"/>
<path d="M532.79 541.88L531.36 540.96C531.57 538.17 531.7 536.49 531.7 536.49C531.935 533.259 530.946 530.058 528.931 527.522C526.916 524.987 524.02 523.301 520.82 522.8L512.16 600.39L513.16 600.19L513.53 600.12V600.18H516.9L516.3 647.53C516.3 648.303 516.453 649.068 516.752 649.78C517.051 650.493 517.489 651.139 518.04 651.68C519.476 653.09 521.408 653.88 523.42 653.88C524.417 653.882 525.404 653.682 526.32 653.29L529.83 651.78C537.83 648.31 543.19 641.59 544.04 633.78L550.49 575.2C551.86 562.61 545.08 549.84 532.79 541.88Z" fill="#F7F0E8"/>
<path d="M481.79 627.71C473.587 627.693 465.396 627.055 457.29 625.8L455.76 625.57V606.27H506.89V625.55L505.37 625.8C497.575 627.079 489.689 627.718 481.79 627.71V627.71ZM459.38 622.45C473.929 624.621 488.72 624.621 503.27 622.45V609.89H459.38V622.45Z" fill="#090126"/>
<path d="M504.52 622.73C493.96 626.29 475.82 625.78 457.93 622.73C470.02 620.61 474.93 613.65 480.29 607.46L504.52 612.61V622.73Z" fill="#090126"/>
<path d="M456.21 612L452.13 598.41C471.338 602.84 491.302 602.84 510.51 598.41L506.44 612C489.85 615.201 472.8 615.201 456.21 612V612Z" fill="#090126"/>
<path d="M481 603.55C470.394 603.546 459.819 602.419 449.45 600.19L448.13 599.91L448.02 598.56C447.353 590.44 446.686 582.473 446.02 574.66C438.74 487.31 433.02 418.32 480.12 381.86L481.32 381L482.43 381.86C529.57 418.32 523.82 487.32 516.54 574.66C515.873 582.473 515.206 590.44 514.54 598.56L514.44 599.92L513.1 600.19C502.542 602.4 491.786 603.526 481 603.55V603.55ZM451.53 596.93C471.166 600.92 491.404 600.92 511.04 596.93C511.653 589.27 512.27 581.75 512.89 574.37C520.06 488.82 525.7 421.1 481.32 385.6C437 421.1 442.59 488.81 449.72 574.36C450.333 581.74 450.95 589.263 451.57 596.93H451.53Z" fill="#090126"/>
<path d="M451.34 574.32C451.907 581.06 452.473 587.923 453.04 594.91C450.77 516 437.48 434.8 480.9 388.26C438.78 423.47 444.34 490.22 451.34 574.32Z" fill="#090126"/>
<path d="M481.87 388.42L481.57 388.15C497.71 441.2 493.57 546.88 479.85 594.8H495.68C501.78 511.76 508.75 444.75 481.87 388.42Z" fill="#090126"/>
<path d="M481.87 388.42C510.51 439.3 505.78 512.09 499 594.8H509.43C509.99 587.82 510.553 580.957 511.12 574.21C518.11 490.32 523.65 423.7 481.87 388.42Z" fill="#090126"/>
<path d="M435.94 600.18H449.14L444 522.63H443.86C442.085 522.63 440.33 522.997 438.703 523.707C437.077 524.417 435.614 525.455 434.407 526.756C433.2 528.057 432.275 529.593 431.688 531.267C431.102 532.942 430.868 534.72 431 536.49C431 536.49 435.65 599.15 435.94 600.18Z" fill="#090126"/>
<path d="M526.7 600.18H513.51L518.7 522.63H518.84C520.614 522.632 522.369 523 523.994 523.71C525.62 524.42 527.082 525.458 528.289 526.759C529.495 528.059 530.421 529.595 531.008 531.269C531.595 532.943 531.83 534.721 531.7 536.49C531.7 536.49 527 599.15 526.7 600.18Z" fill="#090126"/>
<path d="M470.66 600.18L467.5 536.31C467.13 528.92 473.25 522.63 481.18 522.63H481.47C489.4 522.63 495.47 528.92 495.15 536.31L492 600.18H470.66Z" fill="#090126"/>
<path d="M470.42 595.4L467.5 536.31C467.13 528.92 473.25 522.63 481.18 522.63H481.47C489.4 522.63 495.47 528.92 495.15 536.31L492.23 595.4H494L496.92 536.4C497.023 534.428 496.721 532.457 496.033 530.606C495.345 528.756 494.286 527.066 492.92 525.64C491.443 524.097 489.664 522.872 487.695 522.043C485.725 521.214 483.607 520.798 481.47 520.82H481.18C479.044 520.798 476.925 521.214 474.956 522.043C472.987 522.872 471.208 524.097 469.73 525.64C468.363 527.064 467.302 528.754 466.614 530.605C465.926 532.456 465.625 534.428 465.73 536.4L468.65 595.4H470.42Z" fill="white"/>
<path d="M439.25 653.88C438.253 653.883 437.266 653.682 436.35 653.29L432.84 651.78C424.84 648.31 419.48 641.59 418.62 633.78L412.18 575.22C410.79 562.61 417.57 549.84 429.86 541.88L442.19 533.88L445.74 598.45L446.37 647.45C446.371 648.223 446.217 648.988 445.918 649.7C445.619 650.413 445.181 651.059 444.63 651.6C443.207 653.039 441.274 653.858 439.25 653.88ZM438.91 540.34L431.83 544.93C420.69 552.13 414.54 563.58 415.83 574.82L422.28 633.41C422.99 639.88 427.49 645.51 434.28 648.41L437.78 650C438.243 650.192 438.739 650.29 439.24 650.29C440.285 650.295 441.291 649.898 442.05 649.18C442.263 648.976 442.433 648.733 442.551 648.464C442.67 648.194 442.734 647.904 442.74 647.61L442.12 598.61L438.91 540.34Z" fill="#090126"/>
<path d="M442.09 559.33C439.95 581.8 442.4 627.33 421.75 635.51C423.09 641.41 428.22 646.51 435.81 649.26L440.4 650.94C440.722 651.048 441.06 651.102 441.4 651.1C442.12 651.117 442.824 650.892 443.4 650.46C443.506 650.386 443.586 650.281 443.63 650.16L442.82 596.1L442.09 559.33Z" fill="#090126"/>
<path d="M522.1 537.13L531.8 543.41C543.56 551 550 563.06 548.67 575L542.22 633.58C541.43 640.73 536.54 646.88 529.09 650.09L525.58 651.6C522.23 653.05 518.05 650.77 518.09 647.53L518.71 598.53L522.1 537.13Z" fill="#090126"/>
<path d="M523.4 653.88C521.388 653.88 519.456 653.09 518.02 651.68C517.469 651.139 517.031 650.493 516.732 649.78C516.433 649.068 516.28 648.303 516.28 647.53L516.9 598.53L520.46 533.88L532.79 541.88C545.08 549.88 551.86 562.61 550.47 575.22L544 633.8C543.15 641.59 537.83 648.31 529.79 651.8L526.28 653.31C525.368 653.692 524.389 653.886 523.4 653.88V653.88ZM523.73 540.34L520.52 598.68L519.9 647.57C519.905 647.864 519.969 648.154 520.089 648.422C520.21 648.69 520.384 648.931 520.6 649.13C521.162 649.656 521.86 650.013 522.616 650.16C523.371 650.306 524.153 650.237 524.87 649.96L528.37 648.45C535.2 645.51 539.71 639.88 540.37 633.45L546.82 574.86C548.05 563.62 541.9 552.17 530.77 544.97L523.73 540.34Z" fill="#090126"/>
<path d="M524.15 648.3L527.66 646.78C533.88 644.1 537.98 639.03 538.66 633.21L545 575.68C537.73 620.73 535.67 640.6 524.15 648.3Z" fill="#0528F3"/>
<path d="M481.28 652.07C480.143 652.07 479.052 651.626 478.239 650.832C477.426 650.037 476.956 648.956 476.93 647.82L474.45 544.1C474.425 543.191 474.582 542.286 474.912 541.438C475.242 540.59 475.739 539.817 476.373 539.165C477.006 538.512 477.765 537.994 478.602 537.639C479.44 537.284 480.34 537.101 481.25 537.1H481.39C482.3 537.1 483.202 537.282 484.041 537.636C484.879 537.99 485.639 538.509 486.274 539.161C486.909 539.814 487.406 540.587 487.737 541.436C488.068 542.284 488.225 543.19 488.2 544.1L485.72 647.82C485.691 648.956 485.221 650.035 484.408 650.829C483.596 651.622 482.506 652.068 481.37 652.07H481.28Z" fill="#0528F3"/>
<path d="M481.37 653.88H481.28C479.671 653.888 478.122 653.264 476.968 652.142C475.814 651.02 475.147 649.489 475.11 647.88L472.64 544.14C472.612 542.992 472.814 541.85 473.234 540.781C473.655 539.712 474.284 538.738 475.087 537.916C475.889 537.094 476.848 536.441 477.906 535.995C478.965 535.549 480.102 535.32 481.25 535.32C482.423 535.303 483.586 535.523 484.671 535.968C485.755 536.414 486.738 537.074 487.56 537.91C488.366 538.73 488.997 539.705 489.417 540.776C489.836 541.846 490.034 542.991 490 544.14L487.53 647.86C487.484 649.466 486.815 650.991 485.666 652.114C484.517 653.237 482.977 653.87 481.37 653.88V653.88ZM481.37 538.94C480.682 538.921 479.997 539.045 479.359 539.303C478.72 539.561 478.142 539.948 477.66 540.44C477.195 540.917 476.83 541.482 476.586 542.102C476.342 542.722 476.225 543.384 476.24 544.05L478.72 647.77C478.731 648.436 479.003 649.071 479.479 649.537C479.954 650.003 480.594 650.263 481.26 650.26H481.35C482.014 650.255 482.649 649.993 483.123 649.528C483.597 649.064 483.872 648.433 483.89 647.77L486.37 544.05C486.385 543.384 486.266 542.722 486.022 542.103C485.777 541.483 485.411 540.919 484.945 540.443C484.479 539.967 483.923 539.589 483.309 539.331C482.696 539.073 482.036 538.94 481.37 538.94V538.94Z" fill="#090126"/>
<path d="M501.189 479.132C510.391 468.159 508.954 451.804 497.98 442.603C487.007 433.401 470.652 434.838 461.451 445.811C452.249 456.785 453.686 473.14 464.659 482.341C475.633 491.543 491.988 490.106 501.189 479.132Z" fill="#3665F3"/>
<path d="M481.32 489.75C475.923 489.75 470.647 488.149 466.159 485.151C461.671 482.152 458.173 477.89 456.108 472.903C454.042 467.917 453.502 462.43 454.555 457.136C455.608 451.842 458.207 446.98 462.023 443.163C465.84 439.346 470.703 436.747 475.996 435.694C481.29 434.641 486.777 435.182 491.764 437.247C496.75 439.313 501.012 442.811 504.011 447.298C507.01 451.786 508.61 457.062 508.61 462.46C508.602 469.695 505.725 476.632 500.608 481.748C495.492 486.864 488.556 489.742 481.32 489.75V489.75ZM481.32 437.9C476.46 437.9 471.71 439.341 467.669 442.041C463.628 444.742 460.479 448.58 458.62 453.07C456.76 457.56 456.274 462.501 457.223 467.267C458.172 472.033 460.513 476.411 463.95 479.847C467.387 483.283 471.766 485.622 476.533 486.569C481.3 487.516 486.24 487.028 490.73 485.167C495.219 483.306 499.056 480.155 501.754 476.113C504.453 472.071 505.892 467.32 505.89 462.46C505.882 455.947 503.291 449.703 498.685 445.099C494.078 440.494 487.833 437.905 481.32 437.9V437.9Z" fill="#F7F0E8"/>
<path d="M489.543 478.604C498.46 474.063 502.007 463.152 497.466 454.234C492.924 445.317 482.013 441.77 473.096 446.311C464.178 450.853 460.631 461.764 465.173 470.681C469.714 479.599 480.625 483.146 489.543 478.604Z" fill="#090126"/>
<path d="M483.14 446.36L467 470C468.374 472.598 470.422 474.778 472.93 476.31L490.72 449.31C488.49 447.69 485.879 446.674 483.14 446.36V446.36Z" fill="#4BE3F1"/>
<path d="M491.79 450.15L474.15 477C474.906 477.367 475.688 477.678 476.49 477.93L493.64 452C493.074 451.335 492.456 450.716 491.79 450.15Z" fill="#4BE3F1"/>
<path d="M481.32 488.72C476.126 488.72 471.049 487.18 466.73 484.294C462.412 481.409 459.046 477.308 457.059 472.509C455.071 467.711 454.551 462.431 455.564 457.337C456.577 452.243 459.078 447.564 462.751 443.891C466.423 440.219 471.103 437.718 476.197 436.705C481.29 435.691 486.57 436.211 491.369 438.199C496.167 440.186 500.268 443.552 503.154 447.871C506.039 452.189 507.58 457.266 507.58 462.46C507.572 469.422 504.802 476.097 499.879 481.02C494.956 485.943 488.282 488.712 481.32 488.72V488.72ZM481.32 438.93C476.663 438.93 472.112 440.311 468.24 442.898C464.369 445.485 461.352 449.162 459.571 453.464C457.789 457.766 457.324 462.499 458.233 467.066C459.142 471.633 461.385 475.827 464.678 479.119C467.971 482.411 472.166 484.652 476.733 485.559C481.3 486.466 486.034 485.998 490.335 484.215C494.636 482.432 498.312 479.413 500.897 475.541C503.483 471.668 504.862 467.116 504.86 462.46C504.852 456.22 502.369 450.238 497.955 445.827C493.542 441.416 487.559 438.935 481.32 438.93V438.93Z" fill="#090126"/>
<path d="M483.35 441.63C483.35 442.025 483.232 442.412 483.013 442.741C482.793 443.07 482.48 443.326 482.115 443.478C481.75 443.629 481.347 443.669 480.959 443.591C480.571 443.514 480.215 443.324 479.935 443.044C479.656 442.764 479.465 442.408 479.388 442.02C479.311 441.632 479.35 441.23 479.502 440.865C479.653 440.499 479.91 440.187 480.238 439.967C480.567 439.747 480.954 439.63 481.35 439.63C481.88 439.63 482.389 439.841 482.764 440.216C483.139 440.591 483.35 441.099 483.35 441.63Z" fill="#090126"/>
<path d="M480.55 442C480.55 441.655 480.687 441.325 480.931 441.081C481.175 440.837 481.505 440.7 481.85 440.7C481.987 440.704 482.122 440.731 482.25 440.78C482.128 440.635 481.975 440.518 481.802 440.441C481.628 440.363 481.44 440.325 481.25 440.33C480.916 440.345 480.601 440.487 480.369 440.727C480.137 440.967 480.005 441.286 480 441.62C480.003 441.894 480.092 442.159 480.256 442.379C480.419 442.598 480.649 442.759 480.91 442.84C480.688 442.616 480.56 442.315 480.55 442V442Z" fill="#F7F0E8"/>
<path d="M483.35 483.29C483.35 483.686 483.232 484.072 483.013 484.401C482.793 484.73 482.48 484.986 482.115 485.138C481.75 485.289 481.347 485.329 480.959 485.252C480.571 485.174 480.215 484.984 479.935 484.704C479.656 484.425 479.465 484.068 479.388 483.68C479.311 483.292 479.35 482.89 479.502 482.525C479.653 482.159 479.91 481.847 480.238 481.627C480.567 481.407 480.954 481.29 481.35 481.29C481.88 481.29 482.389 481.501 482.764 481.876C483.139 482.251 483.35 482.76 483.35 483.29Z" fill="#090126"/>
<path d="M480.55 483.65C480.55 483.305 480.687 482.975 480.931 482.731C481.175 482.487 481.505 482.35 481.85 482.35C481.987 482.354 482.122 482.381 482.25 482.43C482.128 482.284 481.975 482.168 481.802 482.09C481.628 482.013 481.44 481.975 481.25 481.98C480.913 481.995 480.595 482.14 480.362 482.384C480.129 482.628 480 482.953 480 483.29C480.004 483.563 480.094 483.828 480.258 484.047C480.421 484.266 480.649 484.428 480.91 484.51C480.685 484.279 480.557 483.972 480.55 483.65V483.65Z" fill="white"/>
<path d="M462.52 462.46C462.52 462.856 462.402 463.242 462.182 463.571C461.963 463.9 461.65 464.156 461.285 464.308C460.919 464.459 460.517 464.499 460.129 464.422C459.741 464.344 459.385 464.154 459.105 463.874C458.826 463.594 458.635 463.238 458.558 462.85C458.481 462.462 458.52 462.06 458.672 461.695C458.823 461.329 459.079 461.017 459.408 460.797C459.737 460.577 460.124 460.46 460.52 460.46C461.05 460.46 461.559 460.671 461.934 461.046C462.309 461.421 462.52 461.93 462.52 462.46Z" fill="#090126"/>
<path d="M459.72 462.82C459.72 462.475 459.857 462.145 460.101 461.901C460.345 461.657 460.676 461.52 461.02 461.52C461.157 461.526 461.292 461.553 461.42 461.6C461.298 461.455 461.144 461.339 460.971 461.262C460.798 461.184 460.61 461.146 460.42 461.15C460.075 461.15 459.743 461.287 459.498 461.53C459.252 461.774 459.113 462.104 459.11 462.45C459.111 462.725 459.2 462.993 459.363 463.214C459.527 463.436 459.757 463.599 460.02 463.68C459.817 463.44 459.711 463.134 459.72 462.82V462.82Z" fill="#F7F0E8"/>
<path d="M504.18 462.46C504.18 462.856 504.062 463.242 503.843 463.571C503.623 463.9 503.311 464.156 502.945 464.308C502.58 464.459 502.177 464.499 501.79 464.422C501.402 464.344 501.045 464.154 500.765 463.874C500.486 463.594 500.295 463.238 500.218 462.85C500.141 462.462 500.181 462.06 500.332 461.695C500.483 461.329 500.74 461.017 501.069 460.797C501.397 460.577 501.784 460.46 502.18 460.46C502.71 460.46 503.219 460.671 503.594 461.046C503.969 461.421 504.18 461.93 504.18 462.46Z" fill="#090126"/>
<path d="M501.38 462.82C501.383 462.474 501.522 462.144 501.767 461.9C502.013 461.657 502.344 461.52 502.69 461.52C502.827 461.526 502.962 461.553 503.09 461.6C502.959 461.452 502.795 461.335 502.612 461.261C502.428 461.186 502.23 461.154 502.032 461.168C501.835 461.182 501.643 461.241 501.472 461.342C501.301 461.442 501.156 461.58 501.047 461.745C500.938 461.911 500.868 462.099 500.844 462.296C500.819 462.492 500.841 462.692 500.906 462.879C500.971 463.066 501.078 463.236 501.219 463.374C501.361 463.513 501.532 463.618 501.72 463.68C501.507 463.444 501.386 463.138 501.38 462.82V462.82Z" fill="white"/>
<path d="M498.08 447.73C498.08 448.126 497.963 448.512 497.743 448.841C497.523 449.17 497.211 449.426 496.845 449.578C496.48 449.729 496.078 449.769 495.69 449.692C495.302 449.614 494.946 449.424 494.666 449.144C494.386 448.864 494.196 448.508 494.119 448.12C494.041 447.732 494.081 447.33 494.232 446.965C494.384 446.599 494.64 446.287 494.969 446.067C495.298 445.847 495.685 445.73 496.08 445.73C496.611 445.73 497.119 445.941 497.494 446.316C497.869 446.691 498.08 447.2 498.08 447.73Z" fill="#090126"/>
<path d="M495.28 448.09C495.28 447.745 495.417 447.415 495.661 447.171C495.905 446.927 496.235 446.79 496.58 446.79C496.717 446.794 496.852 446.821 496.98 446.87C496.858 446.725 496.705 446.608 496.531 446.531C496.358 446.453 496.17 446.415 495.98 446.42C495.665 446.408 495.356 446.513 495.113 446.713C494.869 446.914 494.708 447.196 494.658 447.508C494.609 447.819 494.676 448.138 494.846 448.404C495.015 448.67 495.277 448.864 495.58 448.95C495.377 448.71 495.27 448.404 495.28 448.09Z" fill="white"/>
<path d="M466.59 479.22C467.711 479.22 468.62 478.311 468.62 477.19C468.62 476.069 467.711 475.16 466.59 475.16C465.468 475.16 464.56 476.069 464.56 477.19C464.56 478.311 465.468 479.22 466.59 479.22Z" fill="#090126"/>
<path d="M465.82 477.55C465.82 477.205 465.957 476.875 466.201 476.631C466.445 476.387 466.775 476.25 467.12 476.25C467.257 476.254 467.392 476.281 467.52 476.33C467.398 476.185 467.245 476.068 467.072 475.991C466.898 475.913 466.71 475.875 466.52 475.88C466.205 475.868 465.896 475.973 465.653 476.173C465.409 476.374 465.248 476.656 465.198 476.968C465.149 477.279 465.216 477.598 465.386 477.864C465.555 478.129 465.817 478.324 466.12 478.41C465.917 478.17 465.81 477.864 465.82 477.55V477.55Z" fill="#F7F0E8"/>
<path d="M468.62 447.73C468.62 448.126 468.503 448.512 468.283 448.841C468.063 449.17 467.751 449.426 467.385 449.578C467.02 449.729 466.618 449.769 466.23 449.692C465.842 449.614 465.486 449.424 465.206 449.144C464.926 448.864 464.736 448.508 464.659 448.12C464.581 447.732 464.621 447.33 464.772 446.965C464.924 446.599 465.18 446.287 465.509 446.067C465.838 445.847 466.225 445.73 466.62 445.73C467.151 445.73 467.659 445.941 468.034 446.316C468.409 446.691 468.62 447.2 468.62 447.73Z" fill="#090126"/>
<path d="M465.82 448.09C465.82 447.745 465.957 447.415 466.201 447.171C466.445 446.927 466.775 446.79 467.12 446.79C467.257 446.794 467.392 446.821 467.52 446.87C467.398 446.725 467.245 446.608 467.072 446.531C466.898 446.453 466.71 446.415 466.52 446.42C466.205 446.408 465.896 446.513 465.653 446.713C465.409 446.914 465.248 447.196 465.198 447.508C465.149 447.819 465.216 448.138 465.386 448.404C465.555 448.67 465.817 448.864 466.12 448.95C465.917 448.71 465.81 448.404 465.82 448.09Z" fill="#F7F0E8"/>
<path d="M498.08 477.19C498.08 477.586 497.963 477.972 497.743 478.301C497.523 478.63 497.211 478.886 496.845 479.038C496.48 479.189 496.078 479.229 495.69 479.152C495.302 479.074 494.946 478.884 494.666 478.604C494.386 478.324 494.196 477.968 494.119 477.58C494.041 477.192 494.081 476.79 494.232 476.425C494.384 476.059 494.64 475.747 494.969 475.527C495.298 475.307 495.685 475.19 496.08 475.19C496.611 475.19 497.119 475.401 497.494 475.776C497.869 476.151 498.08 476.66 498.08 477.19Z" fill="#090126"/>
<path d="M495.28 477.55C495.28 477.205 495.417 476.875 495.661 476.631C495.905 476.387 496.235 476.25 496.58 476.25C496.717 476.254 496.852 476.281 496.98 476.33C496.858 476.185 496.705 476.068 496.531 475.991C496.358 475.913 496.17 475.875 495.98 475.88C495.665 475.868 495.356 475.973 495.113 476.173C494.869 476.374 494.708 476.656 494.658 476.968C494.609 477.279 494.676 477.598 494.846 477.864C495.015 478.129 495.277 478.324 495.58 478.41C495.377 478.17 495.27 477.864 495.28 477.55V477.55Z" fill="white"/>
<path d="M481.32 488.72C476.126 488.72 471.049 487.18 466.73 484.294C462.412 481.409 459.046 477.308 457.059 472.509C455.071 467.711 454.551 462.431 455.564 457.337C456.577 452.243 459.078 447.564 462.751 443.891C466.423 440.219 471.103 437.718 476.197 436.705C481.29 435.691 486.57 436.211 491.369 438.199C496.167 440.186 500.268 443.552 503.154 447.871C506.039 452.189 507.58 457.266 507.58 462.46C507.572 469.422 504.802 476.097 499.879 481.02C494.956 485.943 488.282 488.712 481.32 488.72V488.72ZM481.32 438.93C476.663 438.93 472.112 440.311 468.24 442.898C464.369 445.485 461.352 449.162 459.571 453.464C457.789 457.766 457.324 462.499 458.233 467.066C459.142 471.633 461.385 475.827 464.678 479.119C467.971 482.411 472.166 484.652 476.733 485.559C481.3 486.466 486.034 485.998 490.335 484.215C494.636 482.432 498.312 479.413 500.897 475.541C503.483 471.668 504.862 467.116 504.86 462.46C504.852 456.22 502.369 450.238 497.955 445.827C493.542 441.416 487.559 438.935 481.32 438.93V438.93Z" fill="#090126"/>
<path d="M464.88 479.48L465.54 479.93C466.142 480.38 466.769 480.794 467.42 481.17C469.724 482.582 472.249 483.597 474.89 484.17C478.677 484.959 482.598 484.839 486.33 483.82C490.773 482.574 494.747 480.039 497.751 476.537C500.755 473.034 502.655 468.721 503.21 464.14C503.66 460.299 503.18 456.406 501.81 452.79C500.828 450.26 499.458 447.898 497.75 445.79C497.13 445.03 496.57 444.52 496.23 444.13L495.68 443.54L496.35 443.98C496.77 444.27 497.46 444.66 498.24 445.28C500.491 447.078 502.392 449.275 503.85 451.76C506.322 456.081 507.394 461.062 506.918 466.018C506.442 470.973 504.44 475.659 501.19 479.43C497.952 483.226 493.616 485.924 488.78 487.151C483.944 488.378 478.846 488.074 474.19 486.28C471.5 485.234 469.04 483.671 466.95 481.68C466.383 481.167 465.855 480.612 465.37 480.02L464.88 479.48Z" fill="#090126"/>
<path d="M476.79 642C476.26 652.74 479.98 653.66 485.65 650L486.4 545.08C484.07 581.24 481 614.3 476.79 642Z" fill="#090126"/>
<path d="M494.8 509L494.63 505.63C493.86 505.63 483.29 506.55 472.83 506.57C467.62 506.45 462.43 506.45 458.57 506.12L452.13 505.72L458.52 506.63C462.36 507.27 467.52 507.69 472.77 508.22C483.25 509.05 494 509 494.8 509Z" fill="#090126"/>
<path d="M494.81 428.86L494.62 425.5C493.98 425.5 485.43 426.5 477.01 426.93C472.8 426.93 468.6 427.15 465.49 426.84L460.28 426.53L465.44 427.35C468.54 427.97 472.74 428.2 476.99 428.58C485.5 429 494.18 428.86 494.81 428.86Z" fill="#090126"/>
<path d="M471.77 555.91C467.33 555.83 463.02 555.81 459.72 555.51L453.49 555.1L459.67 556.02C463.04 556.61 467.48 557.02 472.07 557.46C472 556.94 471.86 556.43 471.77 555.91Z" fill="#090126"/>
<path d="M463.93 422.41C463.847 422.4 463.763 422.4 463.68 422.41C463.929 422.432 464.161 422.548 464.329 422.733C464.498 422.918 464.591 423.16 464.59 423.41C464.606 423.682 464.513 423.949 464.332 424.152C464.151 424.356 463.897 424.479 463.625 424.495C463.353 424.511 463.086 424.418 462.882 424.237C462.679 424.056 462.556 423.802 462.54 423.53C462.535 423.617 462.535 423.703 462.54 423.79C462.54 424.071 462.623 424.346 462.78 424.58C462.936 424.814 463.159 424.996 463.419 425.103C463.679 425.21 463.965 425.237 464.241 425.182C464.516 425.126 464.769 424.99 464.967 424.79C465.166 424.591 465.3 424.337 465.354 424.061C465.407 423.785 465.378 423.499 465.269 423.24C465.16 422.98 464.976 422.759 464.741 422.604C464.507 422.45 464.231 422.368 463.95 422.37L463.93 422.41Z" fill="#090126"/>
<path d="M472.43 422.81C472.347 422.8 472.263 422.8 472.18 422.81C472.429 422.833 472.661 422.948 472.829 423.133C472.998 423.318 473.091 423.56 473.09 423.81C473.09 424.075 472.984 424.33 472.797 424.517C472.609 424.705 472.355 424.81 472.09 424.81C471.84 424.837 471.588 424.769 471.386 424.618C471.184 424.468 471.046 424.248 471 424C470.995 424.087 470.995 424.173 471 424.26C471 424.541 471.083 424.816 471.24 425.05C471.396 425.284 471.619 425.466 471.879 425.573C472.139 425.68 472.425 425.708 472.701 425.652C472.976 425.596 473.229 425.46 473.427 425.261C473.626 425.061 473.76 424.807 473.814 424.531C473.867 424.255 473.838 423.969 473.729 423.71C473.62 423.45 473.436 423.229 473.201 423.075C472.967 422.92 472.691 422.838 472.41 422.84L472.43 422.81Z" fill="#090126"/>
<path d="M481.32 422.81C481.237 422.8 481.153 422.8 481.07 422.81C481.32 422.833 481.551 422.948 481.72 423.133C481.888 423.318 481.981 423.56 481.98 423.81C481.996 424.075 481.906 424.336 481.73 424.535C481.554 424.734 481.305 424.854 481.04 424.87C480.775 424.886 480.514 424.796 480.316 424.62C480.117 424.443 479.996 424.195 479.98 423.93C479.975 424.017 479.975 424.103 479.98 424.19C479.98 424.471 480.064 424.746 480.22 424.98C480.377 425.214 480.599 425.396 480.859 425.503C481.119 425.61 481.405 425.638 481.681 425.582C481.957 425.526 482.21 425.39 482.408 425.191C482.606 424.991 482.741 424.737 482.794 424.461C482.848 424.185 482.818 423.899 482.709 423.64C482.6 423.38 482.417 423.159 482.182 423.004C481.947 422.85 481.672 422.768 481.39 422.77L481.32 422.81Z" fill="#090126"/>
<path d="M463.2 501.89C463.117 501.88 463.033 501.88 462.95 501.89C463.199 501.912 463.431 502.028 463.6 502.213C463.768 502.398 463.861 502.64 463.86 502.89C463.876 503.155 463.786 503.416 463.61 503.615C463.433 503.813 463.185 503.934 462.92 503.95C462.655 503.966 462.394 503.876 462.195 503.699C461.997 503.523 461.876 503.275 461.86 503.01C461.855 503.096 461.855 503.183 461.86 503.27C461.86 503.551 461.944 503.826 462.1 504.06C462.257 504.294 462.479 504.476 462.739 504.583C462.999 504.69 463.285 504.717 463.561 504.662C463.837 504.606 464.09 504.47 464.288 504.27C464.486 504.071 464.62 503.817 464.674 503.541C464.728 503.265 464.698 502.979 464.589 502.72C464.48 502.46 464.297 502.239 464.062 502.084C463.827 501.93 463.551 501.848 463.27 501.85L463.2 501.89Z" fill="#090126"/>
<path d="M453.55 501.38C453.467 501.37 453.383 501.37 453.3 501.38C453.549 501.403 453.781 501.518 453.95 501.703C454.118 501.888 454.211 502.13 454.21 502.38C454.21 502.645 454.105 502.9 453.917 503.087C453.73 503.275 453.475 503.38 453.21 503.38C452.96 503.381 452.718 503.288 452.533 503.12C452.348 502.951 452.233 502.719 452.21 502.47C452.2 502.553 452.2 502.637 452.21 502.72C452.21 503.001 452.293 503.275 452.449 503.509C452.605 503.742 452.827 503.924 453.087 504.032C453.346 504.139 453.632 504.168 453.907 504.113C454.182 504.058 454.435 503.923 454.634 503.724C454.833 503.526 454.968 503.273 455.023 502.997C455.078 502.722 455.049 502.436 454.942 502.177C454.834 501.917 454.652 501.695 454.419 501.539C454.185 501.383 453.911 501.3 453.63 501.3L453.55 501.38Z" fill="#090126"/>
<path d="M465.12 551.19C465.034 551.18 464.947 551.18 464.86 551.19C465.111 551.21 465.346 551.324 465.516 551.51C465.687 551.695 465.781 551.938 465.78 552.19C465.78 552.455 465.675 552.71 465.487 552.897C465.3 553.085 465.046 553.19 464.78 553.19C464.53 553.191 464.288 553.098 464.103 552.93C463.918 552.761 463.803 552.529 463.78 552.28C463.77 552.363 463.77 552.447 463.78 552.53C463.78 552.811 463.864 553.085 464.02 553.319C464.176 553.553 464.397 553.735 464.657 553.842C464.916 553.949 465.202 553.978 465.477 553.923C465.753 553.868 466.006 553.733 466.204 553.534C466.403 553.336 466.538 553.083 466.593 552.807C466.648 552.532 466.62 552.246 466.512 551.987C466.405 551.727 466.223 551.505 465.989 551.349C465.756 551.193 465.481 551.11 465.2 551.11L465.12 551.19Z" fill="#090126"/>
<path d="M455.46 550.68C455.377 550.67 455.293 550.67 455.21 550.68C455.46 550.703 455.691 550.818 455.86 551.003C456.028 551.188 456.121 551.43 456.12 551.68C456.12 551.945 456.015 552.2 455.827 552.387C455.64 552.575 455.386 552.68 455.12 552.68C454.87 552.681 454.628 552.588 454.443 552.42C454.258 552.251 454.143 552.019 454.12 551.77C454.115 551.853 454.115 551.937 454.12 552.02C454.12 552.301 454.204 552.575 454.36 552.809C454.516 553.043 454.737 553.225 454.997 553.332C455.256 553.439 455.542 553.468 455.817 553.413C456.093 553.358 456.346 553.223 456.544 553.024C456.743 552.826 456.878 552.573 456.933 552.297C456.988 552.022 456.96 551.736 456.852 551.477C456.745 551.217 456.563 550.995 456.329 550.839C456.096 550.683 455.821 550.6 455.54 550.6L455.46 550.68Z" fill="#090126"/>
<path d="M466.53 592.93H466.28C466.463 592.958 466.635 593.036 466.775 593.156C466.916 593.275 467.022 593.431 467.079 593.607C467.137 593.783 467.144 593.971 467.102 594.151C467.059 594.33 466.967 594.495 466.836 594.625C466.705 594.756 466.541 594.848 466.361 594.891C466.181 594.934 465.993 594.926 465.818 594.869C465.642 594.811 465.486 594.706 465.366 594.565C465.247 594.424 465.168 594.253 465.14 594.07C465.135 594.153 465.135 594.237 465.14 594.32C465.138 594.602 465.22 594.878 465.376 595.113C465.531 595.348 465.753 595.531 466.012 595.64C466.272 595.749 466.559 595.778 466.835 595.723C467.111 595.669 467.365 595.533 467.564 595.334C467.764 595.135 467.899 594.881 467.954 594.604C468.008 594.328 467.979 594.042 467.87 593.782C467.762 593.522 467.578 593.3 467.343 593.145C467.108 592.99 466.832 592.908 466.55 592.91L466.53 592.93Z" fill="#090126"/>
<path d="M456.88 592.42H456.62C456.891 592.436 457.146 592.559 457.327 592.763C457.508 592.966 457.6 593.233 457.585 593.505C457.569 593.777 457.445 594.031 457.242 594.212C457.038 594.393 456.771 594.486 456.5 594.47C456.249 594.471 456.008 594.378 455.822 594.21C455.637 594.041 455.522 593.809 455.5 593.56C455.49 593.643 455.49 593.727 455.5 593.81C455.498 594.091 455.579 594.367 455.734 594.602C455.889 594.836 456.11 595.02 456.369 595.129C456.628 595.238 456.914 595.267 457.19 595.214C457.466 595.16 457.72 595.026 457.92 594.828C458.12 594.629 458.256 594.376 458.311 594.101C458.367 593.825 458.34 593.539 458.232 593.279C458.125 593.019 457.943 592.796 457.709 592.64C457.476 592.483 457.201 592.4 456.92 592.4L456.88 592.42Z" fill="#090126"/>
<path d="M472.43 502.12C472.347 502.109 472.263 502.109 472.18 502.12C472.429 502.142 472.661 502.258 472.829 502.443C472.998 502.628 473.091 502.87 473.09 503.12C473.09 503.385 472.984 503.639 472.797 503.827C472.609 504.015 472.355 504.12 472.09 504.12C471.84 504.121 471.598 504.028 471.413 503.86C471.228 503.691 471.112 503.459 471.09 503.21C471.085 503.293 471.085 503.377 471.09 503.46C471.12 503.815 471.282 504.145 471.544 504.386C471.806 504.627 472.149 504.761 472.505 504.761C472.861 504.761 473.204 504.627 473.466 504.386C473.728 504.145 473.89 503.815 473.92 503.46C473.897 503.086 473.727 502.736 473.449 502.485C473.17 502.235 472.804 502.103 472.43 502.12Z" fill="#090126"/>
<path d="M481.87 502.12C481.787 502.11 481.703 502.11 481.62 502.12C481.87 502.143 482.101 502.258 482.27 502.443C482.438 502.628 482.531 502.87 482.53 503.12C482.53 503.385 482.425 503.64 482.237 503.827C482.05 504.015 481.796 504.12 481.53 504.12C481.28 504.121 481.038 504.028 480.853 503.86C480.668 503.691 480.553 503.459 480.53 503.21C480.52 503.293 480.52 503.377 480.53 503.46C480.53 503.741 480.614 504.015 480.77 504.249C480.926 504.482 481.147 504.664 481.407 504.772C481.666 504.879 481.952 504.908 482.227 504.853C482.503 504.798 482.756 504.663 482.954 504.464C483.153 504.266 483.288 504.013 483.343 503.737C483.398 503.462 483.37 503.176 483.262 502.917C483.155 502.657 482.973 502.435 482.739 502.279C482.506 502.123 482.231 502.04 481.95 502.04L481.87 502.12Z" fill="#090126"/>
<path d="M491.3 502.12C491.217 502.11 491.133 502.11 491.05 502.12C491.299 502.143 491.531 502.258 491.7 502.443C491.868 502.628 491.961 502.87 491.96 503.12C491.969 503.251 491.951 503.383 491.909 503.508C491.866 503.632 491.8 503.747 491.713 503.846C491.538 504.046 491.29 504.168 491.025 504.185C490.894 504.194 490.762 504.176 490.637 504.134C490.513 504.091 490.398 504.025 490.299 503.938C490.099 503.763 489.977 503.515 489.96 503.25C489.955 503.333 489.955 503.417 489.96 503.5C489.96 503.781 490.044 504.056 490.2 504.29C490.356 504.524 490.579 504.706 490.839 504.813C491.099 504.92 491.385 504.948 491.661 504.892C491.936 504.836 492.189 504.7 492.388 504.501C492.586 504.301 492.72 504.047 492.774 503.771C492.828 503.495 492.798 503.209 492.689 502.95C492.58 502.69 492.396 502.469 492.162 502.315C491.927 502.16 491.651 502.078 491.37 502.08L491.3 502.12Z" fill="#090126"/>
<path d="M430.91 546.79L424.62 554.87C422.468 557.775 420.914 561.079 420.05 564.59C419.136 568.913 419.034 573.369 419.75 577.73C422 596.92 422.69 612.61 422.69 612.61C422.69 612.61 419.75 597.18 417.5 578C416.755 573.372 416.997 568.638 418.21 564.11C419.303 560.432 421.195 557.042 423.75 554.18C425.89 551.81 427.75 550.04 428.97 548.76L430.91 546.79Z" fill="#090126"/>
</g>
</g>
<defs>
<clipPath id="clip0">
<rect width="961" height="1080" fill="white"/>
</clipPath>
<clipPath id="clip1">
<rect width="138.65" height="272.88" fill="white" transform="translate(412 381)"/>
</clipPath>
</defs>
</svg>
