<svg width="961" height="1080" viewBox="0 0 961 1080" fill="none" xmlns="http://www.w3.org/2000/svg">
<g clip-path="url(#clip0)">
<path d="M721.642 569.457C721.648 560.025 719.74 550.69 716.031 542.017C712.323 533.345 706.893 525.517 700.07 519.007C700.31 517.036 700.435 515.052 700.444 513.066C700.462 506.407 699.114 499.814 696.484 493.696C693.854 487.578 689.997 482.065 685.152 477.498C680.307 472.93 674.577 469.406 668.316 467.142C662.055 464.878 655.397 463.922 648.752 464.335C642.108 464.748 635.618 466.519 629.685 469.541C623.752 472.562 618.502 476.769 614.259 481.9C610.016 487.032 606.871 492.98 605.017 499.377C603.163 505.773 602.641 512.482 603.482 519.088C595.643 526.616 589.662 535.865 586.01 546.103C578.346 542.836 569.876 541.957 561.705 543.581C553.535 545.205 546.044 549.257 540.211 555.208C534.379 561.158 530.477 568.73 529.014 576.934C527.552 585.138 528.597 593.592 532.014 601.192C529.169 603.187 526.618 605.57 524.433 608.272C514.744 604.009 504.147 602.224 493.597 603.076C483.047 603.929 472.874 607.392 463.994 613.154C457.401 607.167 449.358 603.009 440.663 601.09C431.968 599.172 422.922 599.561 414.424 602.217C411.039 591.059 404.161 581.283 394.803 574.33C385.445 567.378 374.102 563.616 362.445 563.598C360.981 563.598 359.549 563.598 358.134 563.794C355.646 556.322 351.004 549.754 344.793 544.915C347.423 536.965 348.002 528.479 346.476 520.245C344.949 512.012 341.367 504.297 336.062 497.819C330.757 491.341 323.902 486.31 316.132 483.192C308.363 480.074 299.932 478.971 291.622 479.986C283.313 481 275.394 484.099 268.603 488.995C261.811 493.891 256.366 500.424 252.775 507.989C249.183 515.553 247.561 523.903 248.06 532.262C248.558 540.621 251.16 548.719 255.624 555.803C248.572 559.904 242.437 565.411 237.6 571.983C232.763 578.554 229.328 586.05 227.507 594.005C225.686 601.96 225.519 610.204 227.015 618.226C228.512 626.248 231.64 633.877 236.207 640.64C240.773 647.402 246.68 653.154 253.56 657.538C260.441 661.922 268.149 664.845 276.206 666.125C284.263 667.406 292.496 667.016 300.396 664.981C308.297 662.946 315.694 659.309 322.131 654.295C329.441 662.43 339.041 668.162 349.668 670.739C360.295 673.315 371.452 672.615 381.675 668.731C386.156 680.872 395.073 690.863 406.627 696.689C418.18 702.514 431.512 703.742 443.935 700.124C451.169 712.081 462.113 721.345 475.098 726.504C488.083 731.662 502.399 732.433 515.862 728.699C529.326 724.965 541.201 716.93 549.676 705.818C558.152 694.707 562.764 681.129 562.811 667.152C566.921 666.04 570.807 664.223 574.296 661.782C580.661 673.005 590.557 681.807 602.443 686.819C614.329 691.831 627.538 692.77 640.014 689.49C652.489 686.211 663.53 678.896 671.417 668.686C679.305 658.477 683.596 645.944 683.622 633.041C683.622 632.553 683.622 632.081 683.622 631.593C695.052 625.726 704.646 616.825 711.352 605.864C718.059 594.904 721.619 582.308 721.642 569.457V569.457Z" fill="white"/>
<path d="M297.63 574.242C288.745 574.242 280.06 571.606 272.673 566.668C265.286 561.73 259.529 554.711 256.13 546.5C252.73 538.288 251.842 529.253 253.576 520.536C255.311 511.819 259.59 503.813 265.874 497.53C272.157 491.246 280.163 486.968 288.877 485.236C297.591 483.504 306.623 484.396 314.831 487.8C323.038 491.203 330.052 496.965 334.986 504.356C339.919 511.748 342.551 520.437 342.548 529.325C342.531 541.235 337.792 552.652 329.372 561.073C320.951 569.493 309.536 574.229 297.63 574.242V574.242Z" fill="#150140"/>
<path d="M325.734 560.213C342.784 544.688 344.024 518.276 328.505 501.22C312.985 484.164 286.582 482.923 269.533 498.448C252.483 513.973 251.242 540.385 266.762 557.441C282.281 574.497 308.684 575.738 325.734 560.213Z" fill="#150140"/>
<path d="M324.356 646.041C345.76 624.629 345.76 589.914 324.356 568.502C302.952 547.09 268.248 547.09 246.844 568.502C225.44 589.914 225.44 624.629 246.844 646.041C268.248 667.453 302.952 667.453 324.356 646.041Z" fill="#150140"/>
<path d="M322.113 643.797C342.278 623.624 342.278 590.918 322.113 570.746C301.947 550.573 269.253 550.573 249.087 570.746C228.922 590.918 228.922 623.624 249.087 643.797C269.253 663.969 301.947 663.969 322.113 643.797Z" fill="#150140"/>
<path d="M320.308 611.413C313.372 611.409 306.592 609.349 300.826 605.491C295.06 601.634 290.567 596.153 287.914 589.741C285.262 583.33 284.57 576.275 285.925 569.47C287.28 562.665 290.622 556.414 295.528 551.509C300.434 546.603 306.684 543.263 313.488 541.911C320.291 540.558 327.343 541.254 333.751 543.91C340.159 546.566 345.636 551.063 349.49 556.833C353.343 562.603 355.4 569.386 355.4 576.325C355.391 585.631 351.691 594.553 345.111 601.132C338.532 607.711 329.611 611.408 320.308 611.413V611.413Z" fill="#150140"/>
<path d="M320.325 608.239C337.944 608.239 352.228 593.951 352.228 576.325C352.228 558.699 337.944 544.411 320.325 544.411C302.705 544.411 288.422 558.699 288.422 576.325C288.422 593.951 302.705 608.239 320.325 608.239Z" fill="#150140"/>
<path d="M362.445 667.575C352.644 667.588 343.059 664.693 334.903 659.257C326.747 653.821 320.385 646.087 316.622 637.034C312.86 627.981 311.865 618.015 313.765 608.396C315.664 598.778 320.372 589.939 327.293 582.997C334.215 576.055 343.038 571.323 352.648 569.397C362.258 567.472 372.223 568.44 381.283 572.18C390.343 575.92 398.091 582.264 403.547 590.409C409.002 598.554 411.921 608.134 411.934 617.938C411.939 631.082 406.73 643.69 397.452 652.996C388.174 662.302 375.583 667.545 362.445 667.575V667.575Z" fill="#150140"/>
<path d="M362.445 664.337C388.061 664.337 408.827 643.564 408.827 617.938C408.827 592.313 388.061 571.54 362.445 571.54C336.828 571.54 316.062 592.313 316.062 617.938C316.062 643.564 336.828 664.337 362.445 664.337Z" fill="#150140"/>
<path d="M553.147 663.751C546.773 663.751 540.542 661.86 535.242 658.318C529.942 654.775 525.811 649.74 523.372 643.849C520.933 637.958 520.295 631.476 521.538 625.222C522.782 618.968 525.851 613.223 530.358 608.715C534.866 604.206 540.608 601.135 546.86 599.891C553.112 598.647 559.592 599.286 565.481 601.726C571.37 604.166 576.403 608.298 579.944 613.6C583.486 618.902 585.376 625.135 585.376 631.511C585.367 640.059 581.969 648.255 575.927 654.299C569.885 660.343 561.692 663.742 553.147 663.751V663.751Z" fill="#150140"/>
<path d="M553.163 660.577C569.201 660.577 582.202 647.571 582.202 631.528C582.202 615.484 569.201 602.478 553.163 602.478C537.125 602.478 524.123 615.484 524.123 631.528C524.123 647.571 537.125 660.577 553.163 660.577Z" fill="#150140"/>
<path d="M569.741 620.884C562.492 620.884 555.405 618.734 549.378 614.705C543.35 610.676 538.652 604.949 535.878 598.249C533.104 591.55 532.378 584.177 533.792 577.065C535.206 569.952 538.697 563.419 543.823 558.291C548.95 553.163 555.481 549.671 562.591 548.256C569.701 546.842 577.07 547.568 583.768 550.343C590.466 553.118 596.19 557.818 600.218 563.847C604.245 569.877 606.395 576.966 606.395 584.218C606.382 593.938 602.516 603.257 595.645 610.13C588.774 617.004 579.459 620.871 569.741 620.884V620.884Z" fill="#150140"/>
<path d="M569.773 617.711C588.264 617.711 603.254 602.716 603.254 584.218C603.254 565.721 588.264 550.726 569.773 550.726C551.282 550.726 536.292 565.721 536.292 584.218C536.292 602.716 551.282 617.711 569.773 617.711Z" fill="#150140"/>
<path d="M625.185 686.795C614.567 686.795 604.187 683.646 595.358 677.744C586.529 671.843 579.648 663.456 575.585 653.642C571.521 643.829 570.458 633.03 572.53 622.613C574.601 612.195 579.714 602.625 587.223 595.114C594.731 587.604 604.297 582.489 614.711 580.416C625.125 578.344 635.92 579.408 645.73 583.473C655.54 587.537 663.925 594.421 669.824 603.253C675.723 612.085 678.872 622.468 678.872 633.09C678.846 647.326 673.181 660.971 663.119 671.037C653.056 681.103 639.416 686.77 625.185 686.795V686.795Z" fill="#150140"/>
<path d="M625.184 683.622C653.11 683.622 675.748 660.976 675.748 633.041C675.748 605.106 653.11 582.46 625.184 582.46C597.259 582.46 574.621 605.106 574.621 633.041C574.621 660.976 597.259 683.622 625.184 683.622Z" fill="#150140"/>
<path d="M651.817 634.538C687.748 634.538 716.876 605.4 716.876 569.457C716.876 533.514 687.748 504.376 651.817 504.376C615.887 504.376 586.759 533.514 586.759 569.457C586.759 605.4 615.887 634.538 651.817 634.538Z" fill="#150140"/>
<path d="M651.817 631.365C685.996 631.365 713.703 603.648 713.703 569.457C713.703 535.266 685.996 507.549 651.817 507.549C617.638 507.549 589.931 535.266 589.931 569.457C589.931 603.648 617.638 631.365 651.817 631.365Z" fill="#150140"/>
<path d="M651.768 557.024C676.018 557.024 695.677 537.358 695.677 513.099C695.677 488.84 676.018 469.175 651.768 469.175C627.517 469.175 607.858 488.84 607.858 513.099C607.858 537.358 627.517 557.024 651.768 557.024Z" fill="#150140"/>
<path d="M651.767 553.85C674.265 553.85 692.504 535.605 692.504 513.099C692.504 490.593 674.265 472.348 651.767 472.348C629.269 472.348 611.03 490.593 611.03 513.099C611.03 535.605 629.269 553.85 651.767 553.85Z" fill="#150140"/>
<path d="M429.683 697.471C420.506 697.475 411.534 694.755 403.901 689.657C396.269 684.559 390.319 677.311 386.805 668.83C383.291 660.349 382.37 651.016 384.158 642.012C385.947 633.007 390.364 624.735 396.853 618.243C403.341 611.75 411.608 607.328 420.609 605.535C429.61 603.743 438.94 604.661 447.419 608.174C455.898 611.686 463.146 617.635 468.245 625.269C473.344 632.902 476.065 641.876 476.065 651.057C476.052 663.36 471.162 675.156 462.467 683.857C453.772 692.558 441.982 697.454 429.683 697.471V697.471Z" fill="#150140"/>
<path d="M429.683 694.298C453.547 694.298 472.893 674.945 472.893 651.073C472.893 627.201 453.547 607.848 429.683 607.848C405.819 607.848 386.474 627.201 386.474 651.073C386.474 674.945 405.819 694.298 429.683 694.298Z" fill="#150140"/>
<path d="M498.728 726.326C486.993 726.326 475.522 722.845 465.764 716.323C456.007 709.801 448.403 700.532 443.912 689.686C439.421 678.841 438.246 666.907 440.536 655.394C442.825 643.881 448.476 633.305 456.773 625.005C465.071 616.704 475.643 611.051 487.152 608.761C498.662 606.471 510.591 607.646 521.433 612.139C532.274 616.631 541.541 624.238 548.06 633.999C554.58 643.759 558.06 655.234 558.06 666.973C558.042 682.709 551.786 697.796 540.663 708.923C529.539 720.05 514.458 726.309 498.728 726.326V726.326Z" fill="#150140"/>
<path d="M538.439 706.711C560.371 684.772 560.371 649.201 538.439 627.262C516.508 605.322 480.949 605.322 459.018 627.262C437.086 649.201 437.086 684.772 459.018 706.711C480.949 728.65 516.508 728.65 538.439 706.711Z" fill="#150140"/>
<path d="M325.734 560.213C342.784 544.688 344.024 518.276 328.505 501.22C312.985 484.164 286.582 482.923 269.533 498.448C252.483 513.973 251.242 540.385 266.762 557.441C282.281 574.497 308.684 575.738 325.734 560.213Z" fill="#150140"/>
<path d="M320.325 608.239C337.944 608.239 352.228 593.951 352.228 576.325C352.228 558.7 337.944 544.411 320.325 544.411C302.705 544.411 288.422 558.7 288.422 576.325C288.422 593.951 302.705 608.239 320.325 608.239Z" fill="#150140"/>
<path d="M310.006 585.659C315.171 564.069 301.862 542.377 280.279 537.209C258.696 532.042 237.011 545.355 231.846 566.946C226.68 588.537 239.989 610.229 261.572 615.396C283.156 620.564 304.84 607.25 310.006 585.659Z" fill="#150140"/>
<path d="M318.186 638.859C322.296 622.136 312.075 605.247 295.357 601.136C278.639 597.025 261.756 607.25 257.647 623.973C253.537 640.696 263.758 657.586 280.476 661.697C297.193 665.807 314.077 655.583 318.186 638.859Z" fill="#150140"/>
<path d="M224.208 590.348C226.763 579.519 220.058 568.667 209.232 566.111C198.406 563.555 187.559 570.262 185.003 581.092C182.448 591.922 189.153 602.773 199.979 605.329C210.805 607.885 221.653 601.178 224.208 590.348Z" fill="#150140"/>
<path d="M354.148 662.547C362.18 662.547 368.692 656.033 368.692 647.997C368.692 639.962 362.18 633.448 354.148 633.448C346.115 633.448 339.604 639.962 339.604 647.997C339.604 656.033 346.115 662.547 354.148 662.547Z" fill="#150140"/>
<path d="M191.683 635.94C196.74 630.881 196.74 622.679 191.683 617.62C186.626 612.561 178.426 612.561 173.369 617.62C168.312 622.679 168.312 630.881 173.369 635.94C178.426 640.999 186.626 640.999 191.683 635.94Z" fill="#150140"/>
<path d="M255.962 643.33C267.401 638.59 272.833 625.472 268.095 614.029C263.356 602.586 250.242 597.152 238.804 601.892C227.365 606.632 221.933 619.75 226.671 631.193C231.409 642.636 244.523 648.07 255.962 643.33Z" fill="#150140"/>
<path d="M569.773 617.711C588.264 617.711 603.254 602.716 603.254 584.218C603.254 565.721 588.264 550.726 569.773 550.726C551.282 550.726 536.292 565.721 536.292 584.218C536.292 602.716 551.282 617.711 569.773 617.711Z" fill="#150140"/>
<path d="M651.817 631.365C685.996 631.365 713.703 603.648 713.703 569.457C713.703 535.267 685.996 507.55 651.817 507.55C617.638 507.55 589.931 535.267 589.931 569.457C589.931 603.648 617.638 631.365 651.817 631.365Z" fill="#150140"/>
<path d="M651.767 553.85C674.266 553.85 692.504 535.605 692.504 513.099C692.504 490.593 674.266 472.348 651.767 472.348C629.269 472.348 611.03 490.593 611.03 513.099C611.03 535.605 629.269 553.85 651.767 553.85Z" fill="#150140"/>
<path d="M780.389 572.615C782.223 577.726 782.501 583.266 781.187 588.536C779.874 593.805 777.027 598.566 773.008 602.217C768.989 605.868 763.978 608.244 758.609 609.046C753.24 609.848 747.753 609.038 742.844 606.721C737.934 604.403 733.822 600.68 731.028 596.025C728.233 591.369 726.882 585.988 727.144 580.564C727.407 575.14 729.272 569.915 732.503 565.551C735.734 561.187 740.187 557.88 745.297 556.047C748.688 554.829 752.287 554.291 755.886 554.464C759.485 554.638 763.016 555.519 766.274 557.057C769.533 558.596 772.457 560.762 774.879 563.431C777.301 566.101 779.173 569.221 780.389 572.615Z" fill="#150140"/>
<path d="M658.99 663.181C676.547 663.181 690.779 648.944 690.779 631.381C690.779 613.818 676.547 599.581 658.99 599.581C641.434 599.581 627.201 613.818 627.201 631.381C627.201 648.944 641.434 663.181 658.99 663.181Z" fill="#150140"/>
<path d="M726.817 622.766C729.604 610.524 721.942 598.338 709.704 595.55C697.465 592.762 685.284 600.426 682.497 612.669C679.71 624.912 687.372 637.097 699.61 639.885C711.849 642.674 724.03 635.009 726.817 622.766Z" fill="#150140"/>
<path d="M796.185 616.962C797.111 619.543 797.252 622.341 796.588 625.001C795.925 627.662 794.488 630.066 792.459 631.91C790.429 633.754 787.899 634.954 785.188 635.36C782.477 635.765 779.707 635.357 777.227 634.187C774.748 633.018 772.671 631.139 771.259 628.789C769.847 626.438 769.163 623.722 769.294 620.983C769.425 618.244 770.365 615.605 771.996 613.401C773.626 611.196 775.873 609.524 778.452 608.597C781.913 607.358 785.724 607.543 789.048 609.111C792.373 610.679 794.94 613.503 796.185 616.962Z" fill="#150140"/>
<path d="M615.018 507.094C615.513 502.759 616.81 498.554 618.841 494.693C621.977 488.841 626.678 483.977 632.419 480.644C638.16 477.312 644.714 475.641 651.349 475.82C657.984 475.999 664.439 478.02 669.991 481.658C675.544 485.295 679.977 490.406 682.793 496.418C684.613 500.385 685.678 504.657 685.933 509.014C684.875 500.417 680.798 492.475 674.431 486.605C668.103 480.802 659.895 477.48 651.314 477.246C642.733 477.013 634.357 479.885 627.723 485.335C621.046 490.854 616.543 498.565 615.018 507.094V507.094Z" fill="white"/>
<path d="M624.176 498.908C626.569 493.544 630.603 489.078 635.696 486.153C640.789 483.228 646.678 481.996 652.516 482.634C646.853 482.959 641.344 484.599 636.425 487.423C631.506 490.248 627.312 494.18 624.176 498.908V498.908Z" fill="white"/>
<path d="M684.891 619.338C684.627 617.013 684.815 614.659 685.444 612.405C686.106 610.129 687.182 607.994 688.617 606.107C690.433 603.73 692.782 601.815 695.475 600.514C698.168 599.213 701.129 598.565 704.118 598.62C707.108 598.675 710.043 599.434 712.686 600.833C715.329 602.233 717.605 604.234 719.332 606.677C720.661 608.6 721.611 610.76 722.13 613.04C720.593 608.732 717.609 605.091 713.687 602.738C709.824 600.448 705.275 599.599 700.847 600.344C696.418 601.089 692.397 603.379 689.495 606.807C686.551 610.322 684.923 614.753 684.891 619.338V619.338Z" fill="white"/>
<path d="M772.417 622.772C772.211 621.422 772.277 620.045 772.609 618.72C772.942 617.396 773.534 616.151 774.353 615.058C776.044 612.783 778.548 611.249 781.343 610.776C784.138 610.303 787.007 610.927 789.353 612.519C790.487 613.281 791.457 614.263 792.206 615.406C792.954 616.549 793.467 617.831 793.713 619.176C792.734 616.784 790.988 614.786 788.751 613.496C786.583 612.259 784.054 611.811 781.593 612.226C779.132 612.641 776.89 613.895 775.248 615.774C773.554 617.728 772.558 620.19 772.417 622.772V622.772Z" fill="white"/>
<path d="M731.778 586.773C731.198 583.903 731.17 580.948 731.696 578.066C732.262 575.149 733.365 572.362 734.95 569.848C736.926 566.702 739.606 564.059 742.779 562.128C745.952 560.197 749.531 559.032 753.232 558.724C756.934 558.416 760.656 558.974 764.104 560.354C767.553 561.734 770.633 563.898 773.1 566.674C775.02 568.888 776.505 571.444 777.477 574.209C775.059 568.967 770.879 564.74 765.666 562.264C760.52 559.843 754.68 559.341 749.197 560.848C743.714 562.355 738.95 565.772 735.764 570.483C732.574 575.281 731.164 581.044 731.778 586.773V586.773Z" fill="white"/>
<path d="M737.585 586.773C736.818 583.542 736.964 580.161 738.008 577.009C739.06 573.819 740.945 570.968 743.468 568.75C745.99 566.533 749.059 565.03 752.357 564.396C755.599 563.766 758.953 564.059 762.037 565.242C758.909 564.64 755.688 564.735 752.601 565.519C749.594 566.32 746.811 567.801 744.467 569.848C742.117 571.918 740.284 574.51 739.114 577.415C737.912 580.381 737.39 583.579 737.585 586.773V586.773Z" fill="white"/>
<path d="M633.465 629.51C633.354 627.071 633.579 624.629 634.132 622.251C634.777 619.873 635.735 617.591 636.979 615.465C638.25 613.33 639.847 611.408 641.713 609.769C643.55 608.097 645.622 606.704 647.863 605.635C650.116 604.569 652.519 603.855 654.989 603.52C657.434 603.121 659.929 603.121 662.375 603.52C664.813 603.889 667.185 604.607 669.419 605.652C671.62 606.708 673.649 608.091 675.438 609.753C671.566 606.918 667.015 605.156 662.244 604.643C659.891 604.39 657.514 604.472 655.184 604.887C652.862 605.254 650.608 605.967 648.497 607.002C644.198 608.997 640.541 612.154 637.939 616.116C635.3 620.111 633.757 624.73 633.465 629.51V629.51Z" fill="white"/>
<path d="M640.656 622.772C641.67 619.175 643.784 615.985 646.701 613.65C649.619 611.315 653.194 609.952 656.925 609.753C653.549 610.9 650.391 612.612 647.587 614.814C644.839 617.051 642.495 619.743 640.656 622.772V622.772Z" fill="white"/>
<path d="M595.38 608.988C594.864 604.563 595.184 600.08 596.324 595.773C598.09 589.23 601.641 583.308 606.58 578.669C611.519 574.031 617.651 570.858 624.29 569.507C630.929 568.156 637.812 568.679 644.171 571.019C650.529 573.358 656.111 577.421 660.293 582.753C663.019 586.278 665.065 590.279 666.328 594.552C663.311 586.202 657.416 579.203 649.702 574.812C642.068 570.509 633.138 569.105 624.553 570.856C615.967 572.608 608.301 577.399 602.962 584.348C597.586 591.398 594.898 600.134 595.38 608.988V608.988Z" fill="white"/>
<path d="M601.904 599.646C602.51 594.748 604.505 590.125 607.653 586.324C610.801 582.523 614.971 579.703 619.67 578.197C611.286 582.886 604.951 590.534 601.904 599.646V599.646Z" fill="white"/>
<path d="M596.73 580.882C593.382 567.791 595.018 553.923 601.319 541.971C607.621 530.019 618.138 520.836 630.828 516.207C643.519 511.578 657.476 511.832 669.989 516.921C682.503 522.01 692.678 531.57 698.54 543.744C693.923 534.99 687.028 527.647 678.583 522.49C670.138 517.334 660.457 514.556 650.564 514.45C637.375 514.343 624.591 519 614.561 527.567C607.048 534.023 601.418 542.39 598.268 551.784C595.118 561.178 594.564 571.248 596.665 580.931L596.73 580.882Z" fill="white"/>
<path d="M603.222 580.101C601.586 574.344 601.094 568.323 601.774 562.378C603.134 550.304 609.11 539.224 618.45 531.456C623.035 527.618 628.331 524.721 634.035 522.929C628.601 525.212 623.582 528.379 619.182 532.303C610.429 540.199 604.68 550.884 602.913 562.541C602.05 568.371 602.154 574.304 603.222 580.101V580.101Z" fill="white"/>
<path d="M609.6 567.081C609.547 563.648 610.002 560.226 610.95 556.926C612.816 550.244 616.439 544.186 621.444 539.382C623.909 536.992 626.709 534.974 629.757 533.393C627.049 535.421 624.533 537.692 622.241 540.18C619.993 542.652 617.993 545.34 616.27 548.203C614.555 551.075 613.133 554.112 612.024 557.268C610.911 560.456 610.1 563.742 609.6 567.081V567.081Z" fill="white"/>
<path d="M323.709 601.03C325.38 596.868 327.697 592.996 330.574 589.556C333.49 586.11 336.939 583.153 340.791 580.801C348.593 576.043 357.727 573.947 366.822 574.828C375.916 575.708 384.479 579.517 391.224 585.683C394.556 588.731 397.374 592.298 399.57 596.245C401.724 600.175 403.245 604.421 404.077 608.825C401.913 600.183 397.169 592.406 390.476 586.529C387.166 583.634 383.429 581.268 379.397 579.515C375.351 577.809 371.075 576.712 366.707 576.26C357.914 575.42 349.077 577.324 341.409 581.712C333.682 586.2 327.508 592.939 323.709 601.03Z" fill="white"/>
<path d="M356.799 581.321C359.068 580.801 361.385 580.523 363.713 580.491C366.055 580.476 368.392 580.688 370.692 581.126C375.322 582.043 379.72 583.88 383.626 586.529C387.531 589.181 390.853 592.604 393.387 596.587C394.635 598.565 395.692 600.657 396.543 602.836C397.356 605.018 397.95 607.275 398.317 609.574C397.05 605.171 395.054 601.012 392.411 597.27C389.794 593.556 386.525 590.346 382.764 587.798C379.007 585.243 374.826 583.375 370.416 582.281C365.965 581.183 361.359 580.858 356.799 581.321V581.321Z" fill="white"/>
<path d="M267.371 509.275C272.049 502.668 278.755 497.771 286.471 495.328C294.256 492.858 302.633 492.99 310.337 495.703C318.041 498.416 324.653 503.562 329.176 510.365C333.676 517.077 335.842 525.083 335.342 533.149C335.291 525.2 332.816 517.456 328.249 510.951C325.993 507.739 323.248 504.9 320.114 502.537C316.985 500.189 313.519 498.329 309.832 497.02C302.402 494.421 294.351 494.182 286.78 496.337C279.156 498.598 272.392 503.107 267.371 509.275V509.275Z" fill="white"/>
<path d="M290.895 501.723C293.204 501.058 295.586 500.676 297.988 500.584C300.407 500.524 302.825 500.743 305.195 501.235C309.979 502.263 314.446 504.425 318.22 507.541C321.994 510.656 324.964 514.633 326.881 519.137C328.784 523.588 329.571 528.438 329.175 533.263C329.09 530.892 328.762 528.537 328.199 526.232C327.675 523.936 326.889 521.708 325.856 519.593C323.819 515.381 320.894 511.661 317.282 508.689C313.671 505.717 309.458 503.562 304.934 502.374C300.352 501.173 295.568 500.951 290.895 501.723V501.723Z" fill="white"/>
<path d="M539.026 591.476C537.113 584.334 537.841 576.741 541.076 570.092C544.35 563.369 549.96 558.069 556.856 555.185C563.707 552.275 571.379 551.945 578.455 554.254C585.53 556.564 591.531 561.357 595.348 567.748L595.153 567.879C591.141 561.911 585.182 557.522 578.293 555.463C571.405 553.403 564.016 553.801 557.388 556.587C550.761 559.374 545.306 564.376 541.957 570.74C538.608 577.104 537.572 584.433 539.026 591.476V591.476Z" fill="white"/>
<path d="M543.368 590.695C542.257 587.022 542.017 583.14 542.666 579.358C543.316 575.575 544.837 571.996 547.11 568.904C549.337 565.742 552.302 563.172 555.749 561.418C559.129 559.635 562.877 558.661 566.698 558.57V558.798C564.861 559.066 563.053 559.502 561.296 560.1C560.422 560.4 559.569 560.759 558.742 561.174C557.906 561.547 557.096 561.977 556.318 562.459C553.156 564.31 550.414 566.798 548.265 569.767C546.089 572.732 544.539 576.11 543.71 579.694C542.886 583.305 542.77 587.041 543.368 590.695V590.695Z" fill="white"/>
<path d="M399.862 625.409C402.934 620.773 407.021 616.898 411.813 614.078C416.605 611.259 421.976 609.568 427.519 609.134C431.229 608.883 434.956 609.174 438.582 609.997C445.853 611.668 452.437 615.528 457.449 621.056C462.461 626.585 465.659 633.516 466.613 640.918H466.385C465.052 633.803 461.685 627.228 456.693 621.988C451.701 616.749 445.297 613.07 438.257 611.396C431.197 609.758 423.814 610.201 417.001 612.67C410.188 615.139 404.235 619.53 399.862 625.311V625.409Z" fill="white"/>
<path d="M420.947 616.051C424.203 615.026 427.606 614.547 431.018 614.635C434.463 614.724 437.871 615.379 441.104 616.572C442.717 617.165 444.283 617.878 445.79 618.703C447.283 619.557 448.708 620.526 450.052 621.6C452.726 623.741 455.034 626.302 456.885 629.184L456.69 629.314C454.529 626.766 452.059 624.497 449.336 622.561C446.637 620.647 443.7 619.093 440.6 617.939C434.322 615.62 427.551 614.97 420.947 616.051V616.051Z" fill="white"/>
<path d="M469.428 623.309C477.673 616.351 488.092 612.499 498.879 612.422C509.666 612.345 520.139 616.047 528.483 622.886L528.353 623.065C524.027 620.087 519.278 617.777 514.264 616.213C506.744 613.9 498.795 613.337 491.024 614.566C483.254 615.796 475.867 618.786 469.428 623.309V623.309Z" fill="white"/>
<path d="M489.487 619.42C490.953 618.814 492.473 618.351 494.026 618.036C495.585 617.717 497.17 617.543 498.76 617.515C501.947 617.403 505.128 617.871 508.148 618.899V619.127C506.521 619.127 505.024 618.996 503.478 618.98C501.933 618.964 500.387 618.98 498.842 618.98C497.296 618.98 495.767 619.094 494.222 619.143C492.676 619.192 491.065 619.322 489.487 619.42Z" fill="white"/>
<path d="M527.442 640.43C525.538 633.292 526.265 625.707 529.492 619.061C531.124 615.741 533.327 612.733 535.999 610.176C539.356 606.994 543.384 604.606 547.786 603.189C552.188 601.771 556.851 601.359 561.433 601.984C566.015 602.609 570.399 604.254 574.261 606.798C578.123 609.342 581.365 612.721 583.748 616.685L583.553 616.816C579.537 610.855 573.577 606.475 566.691 604.421C559.805 602.368 552.42 602.769 545.797 605.556C539.173 608.343 533.723 613.344 530.375 619.704C527.028 626.065 525.991 633.39 527.442 640.43V640.43Z" fill="white"/>
<path d="M532.616 627.817C533.096 625.195 534.02 622.674 535.349 620.363C536.694 618.035 538.421 615.95 540.458 614.195C542.513 612.445 544.844 611.049 547.356 610.062C549.839 609.069 552.476 608.519 555.148 608.434V608.678C552.612 609.189 550.148 610.009 547.811 611.12C543.177 613.32 539.192 616.684 536.244 620.884C534.761 623.041 533.543 625.369 532.616 627.817V627.817Z" fill="white"/>
<path d="M302.934 553.655C307.167 550.722 312.079 548.919 317.204 548.418C322.328 547.916 327.496 548.733 332.217 550.79C334.575 551.861 336.802 553.199 338.855 554.778C340.884 556.397 342.698 558.267 344.256 560.343C347.345 564.478 349.322 569.336 349.999 574.453H349.771C348.712 569.562 346.516 564.989 343.362 561.105C340.208 557.22 336.184 554.132 331.615 552.092C329.35 551.09 326.975 550.358 324.538 549.912C322.101 549.44 319.614 549.276 317.136 549.423C312.137 549.707 307.273 551.156 302.934 553.655V553.655Z" fill="white"/>
<path d="M313.932 554.517C317.334 553.668 320.879 553.557 324.327 554.192C327.834 554.836 331.162 556.223 334.089 558.261C337.014 560.283 339.467 562.914 341.279 565.975C343.048 569.013 344.157 572.39 344.533 575.886H344.305C343.136 570.932 340.633 566.393 337.069 562.761C333.504 559.129 329.013 556.543 324.083 555.282C320.77 554.434 317.334 554.175 313.932 554.517V554.517Z" fill="white"/>
<path d="M313.963 559.839C315.916 559.239 317.958 558.985 319.999 559.09C322.07 559.173 324.112 559.614 326.034 560.392C329.895 561.923 333.124 564.716 335.194 568.318L334.998 568.465C333.674 566.996 332.19 565.68 330.573 564.542C328.977 563.437 327.27 562.498 325.481 561.743C323.679 561.002 321.803 560.456 319.885 560.116C317.927 559.81 315.941 559.718 313.963 559.839V559.839Z" fill="white"/>
<path d="M346.859 637.598C348.593 636.196 350.683 635.306 352.895 635.027C355.164 634.74 357.469 635.072 359.565 635.987C360.603 636.46 361.58 637.056 362.477 637.761C363.337 638.486 364.103 639.318 364.755 640.235C366.055 642.064 366.831 644.213 367 646.451H366.756C366.183 644.422 365.179 642.54 363.811 640.934C362.471 639.366 360.8 638.114 358.918 637.27C357.036 636.426 354.99 636.01 352.928 636.052C350.818 636.132 348.75 636.659 346.859 637.598Z" fill="white"/>
<path d="M194.21 572.68C196.641 570.871 199.511 569.747 202.523 569.425C205.596 569.068 208.707 569.54 211.536 570.792C212.947 571.423 214.275 572.227 215.489 573.184C216.709 574.126 217.802 575.22 218.743 576.439C220.568 578.898 221.693 581.806 221.997 584.853H221.769C221.072 582.046 219.748 579.435 217.897 577.213C216.045 574.992 213.715 573.22 211.081 572.029C208.457 570.863 205.604 570.306 202.735 570.401C199.757 570.5 196.841 571.279 194.21 572.68V572.68Z" fill="white"/>
<path d="M176.038 618.28C177.502 617.063 179.277 616.279 181.163 616.018C183.098 615.752 185.069 616.028 186.857 616.816C188.648 617.601 190.189 618.861 191.314 620.461C192.418 622.025 193.055 623.871 193.153 625.783H192.925C192.407 624.08 191.536 622.506 190.371 621.161C189.229 619.867 187.826 618.83 186.255 618.118C184.674 617.429 182.968 617.074 181.244 617.076C179.444 617.109 177.67 617.519 176.038 618.28V618.28Z" fill="white"/>
<path d="M247.783 552.857C249.868 550.643 252.243 548.722 254.844 547.145C257.495 545.586 260.332 544.367 263.287 543.516C266.292 542.759 269.38 542.382 272.479 542.393C275.579 542.499 278.653 543.008 281.622 543.907C284.581 544.855 287.398 546.196 290.001 547.894C292.582 549.61 294.914 551.674 296.931 554.029C300.915 558.759 303.481 564.519 304.333 570.645H304.106C302.878 564.76 300.109 559.308 296.08 554.847C292.052 550.385 286.911 547.076 281.183 545.257C278.343 544.374 275.401 543.86 272.43 543.728C269.448 543.635 266.466 543.903 263.548 544.525C260.625 545.204 257.799 546.249 255.137 547.633C252.499 549.097 250.033 550.849 247.783 552.857Z" fill="white"/>
<path d="M262.782 549.847C266.431 548.435 270.354 547.879 274.252 548.219C280.188 548.739 285.765 551.288 290.043 555.437C294.322 559.587 297.041 565.084 297.744 571.003H297.516C296.669 567.282 295.075 563.772 292.831 560.685C290.629 557.634 287.84 555.054 284.627 553.098C281.414 551.141 277.842 549.848 274.122 549.293C270.341 548.746 266.491 548.934 262.782 549.847Z" fill="white"/>
<path d="M266.297 614.277C268.104 612.317 270.167 610.609 272.43 609.199C277.048 606.345 282.393 604.887 287.82 605C290.535 605.088 293.226 605.531 295.825 606.319C298.409 607.149 300.871 608.32 303.146 609.801C305.402 611.309 307.439 613.121 309.198 615.188C312.669 619.326 314.892 624.367 315.607 629.721H315.38C314.281 624.578 311.832 619.82 308.286 615.937C304.774 612.11 300.329 609.261 295.385 607.669C292.918 606.915 290.365 606.472 287.788 606.351C285.195 606.264 282.6 606.488 280.06 607.018C277.518 607.606 275.059 608.508 272.739 609.704C270.431 610.987 268.27 612.52 266.297 614.277V614.277Z" fill="white"/>
<path d="M280.157 612.243C283.278 611.106 286.616 610.694 289.918 611.038C293.281 611.406 296.518 612.53 299.386 614.325C302.253 616.12 304.679 618.541 306.48 621.405C308.264 624.235 309.377 627.436 309.734 630.763H309.49C308.726 627.621 307.367 624.654 305.488 622.023C303.63 619.434 301.294 617.224 298.606 615.514C295.957 613.823 293.007 612.657 289.918 612.08C286.684 611.509 283.371 611.564 280.157 612.243V612.243Z" fill="white"/>
<path d="M234.491 610.924C235.656 609.598 236.997 608.437 238.477 607.474C240.001 606.532 241.642 605.793 243.358 605.277C245.1 604.824 246.893 604.588 248.694 604.577C250.503 604.629 252.297 604.919 254.03 605.44C257.501 606.524 260.585 608.586 262.913 611.38C265.2 614.168 266.629 617.56 267.029 621.145H266.785C266.005 617.796 264.361 614.71 262.018 612.194C259.719 609.711 256.814 607.869 253.588 606.847C250.362 605.826 246.927 605.66 243.618 606.368C241.932 606.712 240.293 607.258 238.737 607.995C237.22 608.814 235.796 609.796 234.491 610.924Z" fill="white"/>
</g>
<defs>
<clipPath id="clip0">
<rect width="961" height="1080" fill="white"/>
</clipPath>
</defs>
</svg>
