<svg width="961" height="1080" viewBox="0 0 961 1080" fill="none" xmlns="http://www.w3.org/2000/svg">
<g clip-path="url(#clip0)">
<path d="M398.692 568.801C401.584 550.898 389.42 534.039 371.523 531.145C353.626 528.252 336.773 540.42 333.881 558.323C330.988 576.226 343.152 593.085 361.049 595.979C378.946 598.872 395.799 586.704 398.692 568.801Z" fill="#55038C"/>
<path d="M423.639 597.761C426.803 584.258 418.425 570.746 404.927 567.582C391.429 564.417 377.922 572.798 374.758 586.301C371.595 599.803 379.973 613.315 393.471 616.479C406.969 619.644 420.476 611.263 423.639 597.761Z" fill="#55038C"/>
<path d="M444.943 611.023C461.691 611.023 475.268 597.442 475.268 580.688C475.268 563.934 461.691 550.353 444.943 550.353C428.195 550.353 414.618 563.934 414.618 580.688C414.618 597.442 428.195 611.023 444.943 611.023Z" fill="#55038C"/>
<path d="M429.665 643.719C443.996 643.719 455.614 632.097 455.614 617.761C455.614 603.425 443.996 591.803 429.665 591.803C415.334 591.803 403.717 603.425 403.717 617.761C403.717 632.097 415.334 643.719 429.665 643.719Z" fill="#55038C"/>
<path d="M504.481 621.286C507.397 603.193 495.099 586.16 477.012 583.243C458.926 580.325 441.899 592.627 438.983 610.72C436.066 628.813 448.364 645.846 466.451 648.763C484.538 651.681 501.564 639.379 504.481 621.286Z" fill="#55038C"/>
<path d="M503.867 608.208C523.364 608.208 539.17 592.397 539.17 572.893C539.17 553.389 523.364 537.577 503.867 537.577C484.369 537.577 468.563 553.389 468.563 572.893C468.563 592.397 484.369 608.208 503.867 608.208Z" fill="#55038C"/>
<path d="M542.388 651.008C555.686 637.706 555.686 616.139 542.388 602.836C529.091 589.534 507.531 589.534 494.234 602.836C480.936 616.139 480.936 637.706 494.234 651.008C507.531 664.31 529.091 664.31 542.388 651.008Z" fill="#55038C"/>
<path d="M564.686 579.521C572.247 571.958 572.247 559.696 564.686 552.133C557.126 544.57 544.868 544.57 537.308 552.133C529.747 559.696 529.747 571.958 537.308 579.521C544.868 587.084 557.126 587.084 564.686 579.521Z" fill="#55038C"/>
<path d="M599.268 598.15C620.535 598.15 637.776 580.904 637.776 559.629C637.776 538.354 620.535 521.108 599.268 521.108C578 521.108 560.76 538.354 560.76 559.629C560.76 580.904 578 598.15 599.268 598.15Z" fill="#55038C"/>
<path d="M340.97 547.635C351.886 547.635 360.736 538.782 360.736 527.861C360.736 516.941 351.886 508.088 340.97 508.088C330.053 508.088 321.203 516.941 321.203 527.861C321.203 538.782 330.053 547.635 340.97 547.635Z" fill="#55038C"/>
<path d="M619.539 502.376C628.011 502.376 634.88 495.505 634.88 487.029C634.88 478.553 628.011 471.682 619.539 471.682C611.066 471.682 604.197 478.553 604.197 487.029C604.197 495.505 611.066 502.376 619.539 502.376Z" fill="#55038C"/>
<path d="M640.72 466.377C644.234 466.377 647.081 463.528 647.081 460.014C647.081 456.499 644.234 453.65 640.72 453.65C637.207 453.65 634.359 456.499 634.359 460.014C634.359 463.528 637.207 466.377 640.72 466.377Z" fill="#55038C"/>
<path d="M410.778 556.895C414.291 556.895 417.139 554.046 417.139 550.532C417.139 547.017 414.291 544.168 410.778 544.168C407.265 544.168 404.417 547.017 404.417 550.532C404.417 554.046 407.265 556.895 410.778 556.895Z" fill="#55038C"/>
<path d="M379.087 529.18C379.087 531.455 378.412 533.68 377.149 535.572C375.885 537.464 374.088 538.939 371.987 539.81C369.885 540.681 367.572 540.908 365.341 540.464C363.11 540.021 361.06 538.925 359.452 537.316C357.843 535.706 356.748 533.656 356.304 531.424C355.86 529.192 356.088 526.879 356.959 524.776C357.829 522.674 359.303 520.877 361.195 519.613C363.086 518.348 365.31 517.674 367.585 517.674C369.096 517.671 370.593 517.968 371.989 518.545C373.386 519.123 374.654 519.97 375.723 521.039C376.791 522.108 377.639 523.377 378.216 524.774C378.793 526.171 379.089 527.668 379.087 529.18V529.18Z" fill="#55038C"/>
<path d="M614.479 519.659C614.479 521.935 613.804 524.16 612.54 526.052C611.276 527.944 609.48 529.419 607.378 530.289C605.276 531.16 602.964 531.388 600.733 530.944C598.502 530.5 596.452 529.404 594.843 527.795C593.235 526.186 592.139 524.136 591.696 521.904C591.252 519.672 591.48 517.359 592.35 515.256C593.221 513.154 594.695 511.357 596.586 510.092C598.478 508.828 600.702 508.153 602.977 508.153C606.027 508.153 608.953 509.366 611.11 511.523C613.267 513.681 614.479 516.608 614.479 519.659V519.659Z" fill="#55038C"/>
<path d="M344.564 479.934C344.564 481.25 344.173 482.537 343.442 483.632C342.711 484.726 341.672 485.579 340.456 486.083C339.24 486.587 337.902 486.719 336.612 486.462C335.321 486.205 334.135 485.571 333.205 484.64C332.274 483.709 331.64 482.523 331.384 481.232C331.127 479.941 331.259 478.603 331.762 477.386C332.266 476.17 333.119 475.131 334.213 474.399C335.307 473.668 336.594 473.277 337.91 473.277C339.675 473.277 341.367 473.979 342.615 475.227C343.863 476.475 344.564 478.168 344.564 479.934Z" fill="#55038C"/>
<path d="M311.929 481.366C311.932 481.917 311.771 482.458 311.467 482.918C311.163 483.378 310.728 483.737 310.219 483.95C309.71 484.162 309.15 484.219 308.608 484.112C308.067 484.005 307.57 483.74 307.18 483.35C306.79 482.959 306.525 482.462 306.418 481.921C306.311 481.379 306.368 480.818 306.58 480.309C306.793 479.8 307.152 479.366 307.612 479.061C308.072 478.757 308.612 478.596 309.163 478.599C309.897 478.599 310.6 478.89 311.119 479.409C311.638 479.928 311.929 480.632 311.929 481.366Z" fill="#55038C"/>
<path d="M555.114 538.749C556.642 538.749 557.88 537.51 557.88 535.982C557.88 534.454 556.642 533.216 555.114 533.216C553.587 533.216 552.349 534.454 552.349 535.982C552.349 537.51 553.587 538.749 555.114 538.749Z" fill="#55038C"/>
</g>
<defs>
<clipPath id="clip0">
<rect width="961" height="1080" fill="white"/>
</clipPath>
</defs>
</svg>
