<svg width="1000" height="1000" viewBox="0 0 1000 1000" fill="none" xmlns="http://www.w3.org/2000/svg">
<mask id="mask0" mask-type="alpha" maskUnits="userSpaceOnUse" x="0" y="0" width="1000" height="1000">
<rect width="1000" height="1000" fill="#C4C4C4"/>
</mask>
<g mask="url(#mask0)">
<path d="M527.026 930.98C525.974 930.976 524.964 930.566 524.209 929.835C523.815 929.445 523.505 928.979 523.298 928.466C523.09 927.953 522.989 927.402 523.001 926.849L523.187 919.902C523.4 913.94 524.922 908.098 527.645 902.789C531.067 895.718 539.628 891.865 547.184 888.461C550.251 887.225 553.196 885.702 555.977 883.913C560.405 880.632 566.582 869.353 569.385 863.535C569.787 861.524 571.32 853.169 572.295 842.214C573.224 831.677 571.97 800.902 571.567 791.712C569.783 791.243 568.132 790.366 566.746 789.149C565.359 787.933 564.275 786.41 563.579 784.703C562.031 780.432 563.486 775.976 565.127 772.804C563.194 770.988 561.975 768.54 561.69 765.904C561.528 762.039 562.839 758.256 565.359 755.32C563.784 753.211 562.966 750.633 563.037 748.002C563.304 744.559 564.76 741.316 567.155 738.827C565.873 735.764 565.22 732.476 565.235 729.156C565.344 724.669 566.071 711.317 566.412 705.251C564.771 700.625 563.598 695.846 562.913 690.986C561.907 683.435 566.582 663.429 567.79 658.493C567.682 654.842 567.387 648.312 566.985 645.11C566.087 637.915 564.136 619.626 565.437 605.036C566.35 594.654 569.493 575.731 571.382 564.807L567.743 555.338C567.556 554.841 567.469 554.311 567.488 553.78C567.506 553.249 567.63 552.727 567.852 552.244L578.581 529.035L579.061 516.1C578.674 511.851 578.54 507.584 578.658 503.319C578.906 498.198 577.931 486.919 576.274 475.887C575.151 469.633 575.214 463.225 576.46 456.995C576.46 456.871 576.46 456.778 576.46 456.701C575.844 454.906 575.11 453.153 574.261 451.456C569.453 442.898 565.976 433.658 563.95 424.054C557.51 415.451 557.03 405.363 557.866 398.06C556.782 395.507 555.931 393.882 555.915 393.867C555.751 393.559 555.627 393.231 555.544 392.892C553.067 383.346 557.417 373.923 562.774 369.946C566.304 367.331 571.893 366.45 575.159 366.156L578.581 362.164L577.838 358.218C577.807 357.941 577.807 357.66 577.838 357.383C566.555 353.473 556.568 346.533 548.971 337.325C541.374 328.117 536.461 316.995 534.771 305.181C533.081 293.367 534.68 281.315 539.391 270.349C544.101 259.382 551.743 249.924 561.478 243.011C571.212 236.098 582.664 231.998 594.576 231.16C606.488 230.323 618.401 232.779 629.009 238.261C639.616 243.743 648.508 252.039 654.709 262.238C660.911 272.437 664.182 284.146 664.164 296.081C664.144 301.112 663.531 306.123 662.338 311.012C665.941 311.173 669.519 311.691 673.02 312.559C675.424 310.394 677.963 308.384 680.622 306.54C686.691 302.502 697.141 300.722 700.082 300.722C700.428 300.702 700.774 300.702 701.12 300.722H701.476C704.944 301.171 706.941 302.811 709.666 307.453C712.607 312.466 713.877 328.387 714.217 333.911C715.251 336.726 716.541 339.44 718.072 342.018C719.079 343.442 720.549 345.887 722.098 348.47C723.646 351.054 725.844 354.66 726.742 355.774C728.538 357.955 740.18 370.596 742.224 372.793C743.795 374.56 745.18 376.484 746.358 378.534C750.77 379.323 753.293 383.175 754.099 387.291C757.195 389.844 758.093 394.207 758.356 397.023C759.451 398.083 760.237 399.42 760.632 400.891C761.223 403.759 760.825 406.743 759.502 409.355C760.071 417.837 760.19 426.343 759.858 434.838C759.3 441.924 757.087 456.5 756.235 462.101C757.286 463.287 757.931 464.778 758.077 466.356C758.189 468.683 757.495 470.978 756.111 472.854C756.331 473.597 756.44 474.369 756.436 475.144C756.18 478.216 754.912 481.117 752.829 483.391C753.232 494.222 753.665 505.64 753.727 506.491C753.684 508.554 753.204 510.585 752.318 512.448C752.055 513.145 751.792 513.887 751.513 514.692C750.489 518.358 749.662 522.077 749.036 525.832C748.91 526.485 748.635 527.099 748.231 527.627C746.317 530.114 744.159 532.405 741.79 534.466C740.724 535.329 739.4 535.813 738.028 535.843C737.58 535.847 737.133 535.795 736.697 535.688L736.062 536.26C735.71 536.59 735.301 536.852 734.855 537.034L730.458 538.798C729.497 539.283 728.438 539.543 727.361 539.556C726.159 539.563 724.987 539.183 724.017 538.473C722.872 539.015 722.082 539.34 721.509 539.556C725.333 547.633 731.201 561.218 739.623 581.084C743.462 590.136 746.776 597.965 747.658 599.651C750.414 604.989 753.448 622.597 754.486 628.956C756.916 632.422 769.023 649.643 773.234 654.625C775.464 657.271 778.188 660.721 780.82 664.048C784.474 668.69 788.174 673.332 791.658 677.354C796.705 683.219 796.875 690.986 796.302 695.921C798.251 696.666 799.962 697.922 801.256 699.557C804.182 703.255 804.585 708.299 804.43 711.734C806.349 712.554 808.015 713.867 809.26 715.541C810.931 717.898 811.864 720.698 811.939 723.586C813.988 724.826 815.563 726.716 816.413 728.955C818.07 733.411 816.568 738.239 815.391 740.869C818.937 750.771 831.74 786.652 833.969 796.199C836.199 805.745 846.572 830.749 847.98 834.153L858.818 848.651C859.357 849.379 859.635 850.267 859.607 851.173C859.607 851.312 859.22 864.974 859.762 870.544C860.041 873.422 864.004 881.066 866.915 886.636C869.222 891.092 871.389 895.254 872.597 898.395C874.664 904.454 875.884 910.77 876.219 917.163C876.256 917.998 876.031 918.824 875.576 919.526C875.121 920.227 874.458 920.77 873.68 921.078C864.391 924.714 809.013 926.601 798.005 926.942C797.047 926.96 796.113 926.642 795.366 926.043C794.619 925.443 794.106 924.6 793.918 923.661C791.704 911.825 799.739 890.102 801.365 885.862C802.126 884.16 802.582 882.338 802.712 880.478C802.053 880.092 801.517 879.529 801.163 878.853C799.655 875.771 798.397 872.574 797.401 869.291C796.395 865.872 797.092 860.998 797.757 856.279C798.272 853.608 798.49 850.889 798.408 848.171C797.649 844.612 786.425 823.987 777.337 810.155C770.076 799.139 761.452 781.423 758.356 774.955C756.525 774.984 754.711 774.596 753.053 773.818C751.395 773.04 749.936 771.895 748.788 770.468C747.252 768.338 746.433 765.775 746.451 763.15C744.874 762.95 743.353 762.436 741.978 761.639C740.603 760.842 739.402 759.777 738.446 758.508C736.919 756.316 736.143 753.689 736.232 751.019C733.442 750.263 730.995 748.576 729.297 746.238C725.565 741.07 726.34 733.86 727.083 730.224C723.243 725.505 721.06 722.116 720.565 720.136C719.961 717.66 719.094 702.141 718.753 695.906C717.468 694.436 715.069 691.651 713.025 689.237C710.796 686.591 707.916 678.407 704.092 667.05C702.807 663.228 701.491 659.313 700.918 658.045C700.222 656.497 697.311 653.96 694.23 651.221C690.478 648.001 686.902 644.582 683.517 640.978C677.324 634.31 660.681 608.146 651.268 593.153C649.813 606.072 647.552 624.423 645.695 631.587C644.146 637.482 640.617 645.729 637.474 653.016C635.229 658.246 632.427 664.713 632.179 666.586C632.04 667.653 631.823 668.984 631.575 670.5C630.708 675.9 629.392 684.069 629.795 690.785C630.12 696.262 635.136 711.409 638.449 721.436C640.415 727.362 641.824 731.632 642.258 733.643C643.094 737.604 641.824 741.983 640.431 745.248C641.923 746.025 643.225 747.121 644.244 748.458C645.264 749.795 645.976 751.34 646.329 752.984C647.212 757.502 644.781 761.742 642.676 764.403C643.754 766.152 644.327 768.166 644.332 770.22C644.244 772.522 643.509 774.753 642.211 776.657C644.456 782.057 642.041 787.488 638.124 791.155L623.261 868.873C623.896 870.916 624.98 874.552 625.429 876.857C625.971 879.673 624.825 886.032 623.679 891.169C625.057 895.246 625.931 899.475 626.28 903.764C626.358 907.044 627.054 915.322 627.674 921.975C627.729 922.529 627.672 923.088 627.507 923.619C627.343 924.151 627.073 924.644 626.714 925.069C626.356 925.483 625.917 925.82 625.425 926.06C624.933 926.299 624.397 926.436 623.85 926.462L527.026 930.98ZM694.23 480.73C696.645 485.511 699.138 491.313 700.531 494.779L701.987 488.11C702.122 487.483 702.409 486.898 702.823 486.408L710.285 477.372C710.078 476.944 709.907 476.499 709.774 476.041C709.24 473.816 709.435 471.479 710.331 469.373C710.006 468.786 709.766 468.155 709.619 467.501C706.987 472.467 702.219 478.409 694.292 480.699L694.23 480.73ZM706.786 429.299C708.179 436.757 709.449 443.224 710.455 448.144C710.532 444.833 710.397 441.521 710.053 438.227C709.5 435.572 708.6 433.002 707.374 430.583L706.786 429.299ZM702.141 402.268C703.272 409.277 704.433 415.993 705.547 422.197C705.547 420.17 705.733 417.695 706.058 414.786C705.65 414.108 705.382 413.356 705.269 412.573C705.138 411.639 705.217 410.688 705.501 409.788C705.328 409.421 705.193 409.038 705.098 408.643C704.81 407.281 704.956 405.864 705.516 404.589L705.424 404.264L704.789 404.094C704.137 403.923 703.54 403.587 703.055 403.119L702.141 402.268Z" fill="#3665F3"/>
<path d="M687.403 478.563C681.412 478.563 674.584 476.351 667.106 471.988C666.991 471.92 666.891 471.828 666.814 471.719C666.736 471.609 666.683 471.485 666.657 471.353L640.091 331.25C640.052 331.097 640.052 330.938 640.091 330.785C640.091 330.615 646.128 312.76 661.533 314.044H662.09C676.813 315.282 688.409 316.257 693.503 362.55C698.504 408.102 709.496 458.573 709.604 459.084C709.635 459.221 709.635 459.364 709.604 459.501C709.589 459.733 704.929 478.563 687.403 478.563ZM668.407 470.595C675.451 474.649 681.845 476.691 687.403 476.691C702.699 476.691 707.235 461.358 707.777 459.316C706.988 455.664 696.537 406.941 691.692 362.798C686.784 318.036 676.365 317.154 661.966 315.947H661.394C648.404 314.802 642.676 329.192 641.964 331.141L668.407 470.595Z" fill="#090126"/>
<path fill-rule="evenodd" clip-rule="evenodd" d="M599.203 235.119C611.252 235.122 623.029 238.694 633.047 245.385C643.065 252.076 650.873 261.585 655.484 272.71C660.096 283.834 661.304 296.075 658.956 307.886C656.608 319.697 650.809 330.547 642.293 339.065C633.776 347.583 622.924 353.386 611.108 355.742C599.292 358.097 587.042 356.899 575.907 352.299C564.773 347.699 555.252 339.902 548.55 329.896C541.847 319.89 538.263 308.122 538.251 296.08C538.247 288.078 539.82 280.152 542.881 272.757C545.943 265.362 550.431 258.642 556.092 252.981C561.752 247.32 568.472 242.829 575.869 239.764C583.267 236.699 591.195 235.121 599.203 235.119Z" fill="#4BE3F1"/>
<path d="M599.203 357.863C586.955 357.863 574.982 354.233 564.798 347.432C554.614 340.632 546.677 330.966 541.989 319.657C537.302 308.348 536.076 295.904 538.465 283.898C540.855 271.893 546.753 260.865 555.414 252.21C564.074 243.554 575.109 237.66 587.121 235.272C599.134 232.884 611.586 234.109 622.901 238.794C634.217 243.478 643.889 251.411 650.694 261.588C657.498 271.766 661.13 283.732 661.13 295.973C661.13 304.1 659.528 312.148 656.416 319.657C653.304 327.166 648.743 333.988 642.992 339.736C637.242 345.483 630.415 350.041 622.901 353.152C615.388 356.262 607.335 357.863 599.203 357.863ZM599.203 236.048C587.338 236.054 575.742 239.575 565.879 246.165C556.016 252.756 548.33 262.121 543.791 273.076C539.252 284.031 538.065 296.086 540.378 307.715C542.692 319.345 548.404 330.028 556.791 338.414C565.178 346.801 575.865 352.514 587.5 354.833C599.136 357.151 611.198 355.971 622.162 351.44C633.126 346.91 642.501 339.233 649.1 329.379C655.7 319.526 659.229 307.938 659.241 296.081C659.237 280.166 652.912 264.903 641.654 253.646C630.396 242.39 615.128 236.06 599.203 236.048Z" fill="#090126"/>
<path d="M706.29 461.172L671.409 316.659C671.131 316.659 661.764 315.003 661.485 314.972C646.669 313.735 641.003 331.079 641.003 331.079L667.57 471.183C677.199 476.784 684.677 478.223 690.452 477.372C703.224 467.825 706.29 461.172 706.29 461.172Z" fill="#090126"/>
<path d="M708.784 459.331C708.784 459.331 697.73 408.829 692.667 362.705C687.697 317.479 682.867 316.937 668.484 315.73L674.228 318.299C674.228 318.299 699.278 449.893 699.587 457.552C699.897 465.21 699.587 468.522 690.5 477.449C704.913 475.391 708.784 459.331 708.784 459.331Z" fill="#3665F3"/>
<path d="M626.605 628.972C622.952 644.227 611.433 661.928 611.433 661.928C611.433 661.928 613.972 678.948 612.362 683.28C610.752 687.612 607.067 698.536 607.067 698.536C607.067 698.536 612.749 700.981 612.362 703.41C611.975 705.839 622.952 735.345 622.952 735.345L618.06 746.331C618.06 746.331 627.008 757.316 620.908 761.385C620.908 761.385 626.605 771.953 620.908 774.398C620.908 774.398 627.829 786.203 621.311 789.453H615.613L607.067 863.922L609.111 884.268L607.067 894.867C607.067 894.867 609.916 902.185 610.334 903.408C610.566 904.135 610.659 914.718 610.706 923.135L623.679 922.532C623.679 922.532 622.363 908.792 622.255 903.965C621.832 899.705 620.912 895.509 619.515 891.463C619.515 891.463 622.023 880.632 621.466 877.708C620.908 874.783 619.112 869.213 619.112 869.213L634.47 789.004C634.47 789.004 642.428 782.985 637.427 776.285C637.427 776.285 643.775 770.359 637.288 764.217C637.288 764.217 650.262 752.643 634.873 747.197C634.873 747.197 639.363 739.879 638.217 734.525C637.071 729.172 626.218 700.099 625.677 691.078C625.135 682.058 627.411 671.165 628.092 666.09C628.773 661.015 638.929 641.334 641.7 630.627C644.1 621.344 647.398 590.94 648.218 583.065L632.102 565.519C632.102 565.519 630.275 613.716 626.605 628.972Z" fill="#3665F3"/>
<path d="M845.797 874.877V855.35C845.797 855.35 840.301 846.809 837.251 841.317C834.201 835.824 817.496 781.113 817.496 781.113L804.894 741.24C807.727 736.769 801.023 728.027 801.023 728.027L801.627 725.381C802.246 722.735 793.313 715.417 793.313 715.417C793.05 714.073 793.05 712.691 793.313 711.348C793.716 708.903 788.22 701.584 785.17 700.981C782.12 700.377 774.332 695.457 774.332 695.457C774.332 695.457 771.484 686.174 768.14 677.184C764.796 668.195 748.199 649.102 742.904 641.381C737.61 633.66 734.358 627.951 733.135 626.744C731.912 625.537 732.733 613.716 731.51 607.62C730.287 601.524 711.972 572.033 709.556 567.546C707.141 563.059 688.362 520.974 688.161 519.349C687.959 517.724 679.413 487.615 678.19 484.969C676.967 482.323 672.694 478.563 672.694 478.563L673.313 475.206L670.047 461.373L665.077 458.542C664.533 455.68 663.714 452.876 662.631 450.171L661.857 435.565V431.295C661.857 431.295 666.083 423.156 667.105 418.484C668.127 413.811 667.724 396.714 667.105 396.281C666.486 395.847 659.163 396.281 659.163 396.281C659.163 396.281 659.38 394.888 665.882 391.422C672.385 387.956 680.915 373.923 680.915 373.923L693.688 389.767C693.736 389.438 693.736 389.105 693.688 388.776L705.717 400.18L709.866 401.294C709.866 401.294 708.179 403.305 710.16 404.388C710.16 404.388 707.188 407.808 710.269 409.03C710.269 409.03 707.761 411.815 710.176 413.3C710.176 413.3 708.86 423.435 709.82 426.081C710.779 428.726 713.133 432.579 713.969 437.422C714.805 442.265 714.232 458.728 714.232 458.728L715.672 461.946C715.672 461.946 711.027 465.35 715.006 468.754C715.006 468.754 711.12 474.943 715.594 477.109L705.872 488.853L702.621 503.784L703.224 511.427L704.029 517.833C704.029 517.833 706.058 519.256 707.544 517.833C707.625 517.738 707.718 517.654 707.822 517.585C709.21 516.501 710.28 515.063 710.919 513.423C711.213 511.427 711.461 506.352 711.461 506.352C711.461 506.352 715.099 499.807 715.904 498.925V508.75L715.037 518.127L712.188 525.074L710.965 526.404L710.795 526.064C710.041 528.169 709.659 530.389 709.665 532.624C709.732 533.229 709.937 533.81 710.264 534.322C710.592 534.835 711.033 535.265 711.554 535.58L713.551 533.444C713.551 533.444 717.607 528.957 719.449 526.389C721.147 523.844 722.698 521.204 724.094 518.483L726.803 510.313L726.091 520.03C726.091 520.03 721.988 527.998 721.106 528.602C720.223 529.205 717.638 531.696 717.622 533.243C717.607 534.791 718.412 536.199 719.48 536.028C721.543 535.254 723.555 534.35 725.503 533.321C725.503 533.321 725.673 535.1 726.958 535.471L737.594 527.085L741.867 522.01L744.112 505.13L741.867 508.224L743.508 480.559C748.153 477.295 744.514 471.198 744.514 471.198C749.809 468.104 745.536 463.261 745.536 463.261C745.536 463.261 746.357 448.222 747.982 442.528C749.608 436.834 749.205 410.19 749.205 410.19C751.435 406.322 747.781 400.427 747.781 400.427C750.01 392.289 743.709 391.469 743.709 391.469C744.716 386.595 736.99 384.552 736.99 384.552C736.99 384.552 734.962 379.911 733.739 376.63C732.516 373.35 713.38 351.41 710.934 347.326C708.936 343.53 707.228 339.589 705.825 335.535C705.492 331.814 705.492 328.07 705.825 324.349C706.398 319.274 701.908 306.06 701.908 306.06L702.404 305.24C701.83 305.06 701.238 304.94 700.639 304.884C698.967 304.637 688.377 306.432 682.99 310.021C678.564 313.24 674.387 316.788 670.496 320.635L660.324 320.063C660.324 320.063 638.65 329.346 623.168 336.448C607.686 343.55 589.108 356.563 583.519 362.473L577.187 369.993C577.187 369.993 569.105 370.271 565.281 373.087C561.457 375.903 557.54 383.763 559.568 391.871C559.568 391.871 565.761 403.506 566.876 415.482C568.424 433.863 577.945 449.521 577.945 449.521C577.945 449.521 580.763 455.308 580.624 456.732C579.308 462.842 579.219 469.153 580.36 475.299C582.11 486.919 583.039 498.306 582.776 503.536C582.673 507.698 582.818 511.862 583.209 516.007L582.621 531.835L576.954 557.133C576.954 557.133 570.87 590.321 569.57 605.407C568.269 620.493 570.545 640.081 571.118 644.645C571.691 649.21 571.985 658.958 571.985 658.958C571.985 658.958 566.04 682.971 567.046 690.521C567.74 695.361 568.934 700.116 570.607 704.71C570.607 704.71 569.446 723.725 569.353 729.311C569.396 732.975 570.354 736.57 572.14 739.771C572.14 739.771 561.782 747.507 570.916 755.351C570.916 755.351 559.522 765.439 570.591 771.876C570.591 771.876 559.754 785.585 575.484 788.633C575.484 788.633 577.481 829.666 576.335 842.616C575.682 850.081 574.648 857.507 573.239 864.866C573.239 864.866 565.095 882.195 558.392 887.193C551.688 892.19 535.587 895.703 531.298 904.537C528.812 909.331 527.416 914.614 527.211 920.01L527.025 927.019L610.705 923.135C610.705 914.718 610.565 904.135 610.333 903.408C609.915 902.185 607.067 894.867 607.067 894.867L609.11 884.299L607.067 863.922L615.613 789.484H621.31C627.828 786.234 620.907 774.429 620.907 774.429C626.605 771.984 620.907 761.417 620.907 761.417C627.007 757.316 618.059 746.331 618.059 746.331L622.951 735.345C622.951 735.345 611.959 705.855 612.361 703.41C612.764 700.965 607.067 698.536 607.067 698.536C607.067 698.536 610.736 687.551 612.361 683.28C613.987 679.01 611.432 661.928 611.432 661.928C611.432 661.928 622.951 644.228 626.605 628.972C630.258 613.716 632.101 565.534 632.101 565.534L648.248 583.034C648.372 581.827 648.45 581.131 648.45 581.131C648.45 581.131 678.175 629.312 686.427 638.271C694.678 647.229 702.636 652.196 704.525 656.405C706.414 660.613 713.117 683.203 716.043 686.653C718.969 690.104 722.639 694.39 722.639 694.39C722.639 694.39 723.8 716.778 724.419 719.238C725.038 721.699 731.401 729.28 731.401 729.28C731.401 729.28 725.998 747.259 740.69 747.739C740.69 747.739 736.789 759.947 750.847 759.436C750.847 759.436 747.27 771.984 760.832 770.917C760.832 770.917 771.793 794.543 780.634 807.973C789.474 821.404 801.317 842.802 802.308 847.382C803.299 851.962 799.8 863.365 801.24 868.177C802.165 871.234 803.33 874.214 804.723 877.089C804.723 877.089 808.826 877.522 805.033 887.347C801.24 897.172 796.131 914.177 797.788 922.934C797.788 922.934 840.13 921.635 861.34 919.252C858.229 898.549 845.797 874.877 845.797 874.877Z" fill="#090126"/>
<path d="M868.71 899.803C865.815 892.268 856.2 876.888 855.628 870.915C855.055 864.943 855.457 851.018 855.457 851.018L844.403 836.071C844.403 836.071 832.436 807.633 829.974 797.019C827.512 786.405 810.962 740.606 810.962 740.606C810.962 740.606 817.372 729.404 807.773 726.031C807.773 726.031 809.321 715.943 800.032 714.658C800.032 714.658 803.129 699.464 791.626 699.031C791.626 699.031 794.799 687.257 788.529 679.984C782.259 672.712 774.983 662.965 770.137 657.224C765.291 651.484 750.583 630.519 750.583 630.519C750.583 630.519 746.868 607.047 744.019 601.508C741.17 595.969 716.972 536.523 713.489 533.429L711.491 535.564C710.971 535.249 710.53 534.819 710.202 534.307C709.874 533.794 709.669 533.213 709.603 532.609C709.597 530.373 709.979 528.153 710.733 526.048L707.079 518.405C707.079 518.405 707.404 518.142 707.869 517.724C707.765 517.793 707.671 517.877 707.59 517.972C706.042 519.395 704.076 517.972 704.076 517.972L703.271 511.566C703.271 511.566 699.013 502.283 697.728 498.678C696.443 495.072 689.709 479.182 686.659 476.01C686.659 476.01 687.402 475.144 686.225 472.328C685.048 469.512 684.135 466.99 683.593 465.288C683.041 463.868 682.351 462.505 681.534 461.219L679.196 460.816C679.195 458.717 678.707 456.646 677.772 454.767C676.309 451.991 675.599 448.881 675.713 445.746C675.899 443.038 676.379 434.25 676.719 432.378C678.178 427.807 680.016 423.367 682.215 419.102C684.29 415.002 692.758 395.337 693.656 389.813L680.915 373.923C680.915 373.923 672.369 387.956 665.851 391.407C659.333 394.857 659.24 396.265 659.24 396.265C659.24 396.265 666.579 395.847 667.182 396.265C667.786 396.683 668.204 413.78 667.182 418.468C666.161 423.156 661.934 431.279 661.934 431.279V435.55L662.708 450.156C663.766 452.868 664.559 455.677 665.077 458.542L670.155 461.389L673.422 475.221L672.802 478.579C672.802 478.579 677.075 482.339 678.298 484.984C679.521 487.63 688.067 517.74 688.269 519.364C688.47 520.989 707.234 563.09 709.665 567.561C712.095 572.033 730.395 601.601 731.618 607.635C732.841 613.669 732.02 625.537 733.243 626.759C734.467 627.981 737.733 633.675 743.013 641.396C748.292 649.117 764.997 668.241 768.248 677.199C771.499 686.158 774.441 695.473 774.441 695.473C774.441 695.473 782.182 700.377 785.278 700.996C788.374 701.615 793.824 708.918 793.421 711.363C793.158 712.706 793.158 714.088 793.421 715.432C793.421 715.432 802.354 722.751 801.735 725.396L801.131 728.042C801.131 728.042 807.835 736.784 805.002 741.256L817.604 781.128C817.604 781.128 834.185 835.824 837.282 841.316C840.378 846.809 845.828 855.35 845.828 855.35V874.876C845.828 874.876 858.213 898.549 861.309 919.205C864.951 918.938 868.557 918.3 872.069 917.302C871.749 911.344 870.619 905.456 868.71 899.803Z" fill="#3665F3"/>
<path d="M705.685 324.287C704.84 328.82 703.527 333.254 701.769 337.516C703.15 341.777 704.88 345.917 706.939 349.894C709.37 353.979 726.478 375.517 727.685 378.766C728.893 382.015 734.606 387.523 734.606 387.523C734.606 387.523 741.944 389.55 740.922 394.44C740.922 394.44 746.217 394.223 744.019 402.362C744.019 402.362 746.047 407.003 743.817 410.902C743.817 410.902 745.18 437.206 744.421 443.147C743.74 448.501 742.594 462.364 742.594 462.364C742.594 462.364 747.239 467.006 741.99 469.992C741.99 469.992 746.635 478.935 741.99 482.2L740.071 510.499L742.795 509.153L739.002 523.31L736.262 527.813L726.865 535.425C727.53 535.563 728.222 535.441 728.8 535.085L733.29 533.275L736.587 530.257C736.593 530.571 736.695 530.875 736.878 531.13C737.061 531.385 737.318 531.578 737.613 531.684C737.909 531.789 738.23 531.803 738.533 531.722C738.836 531.642 739.108 531.471 739.312 531.232C741.399 529.351 743.307 527.279 745.009 525.043C745.689 521.075 746.572 517.145 747.657 513.269C748.787 510.05 749.762 507.915 749.669 506.724C749.577 505.532 748.694 481.798 748.694 481.798C748.694 481.798 754.887 475.872 751.218 472.313C751.218 472.313 757.085 466.851 751.868 463.571C751.868 463.571 755.104 443.132 755.8 434.436C756.497 425.741 755.367 408.411 755.367 408.411C755.367 408.411 759.346 401.758 754.391 398.989C754.391 398.989 754.484 391.252 750.258 389.581C750.258 389.581 750.134 381.721 743.941 382.356C742.649 379.893 741.092 377.579 739.297 375.455C736.959 372.995 725.471 360.524 723.598 358.219C721.725 355.913 716.848 347.187 714.773 344.293C713.011 341.325 711.524 338.202 710.33 334.963C710.33 334.963 709.122 314.509 706.289 309.666C704.478 306.571 703.363 305.581 702.357 305.179L701.861 305.999C701.861 305.999 706.32 319.29 705.685 324.287Z" fill="#3665F3"/>
<path fill-rule="evenodd" clip-rule="evenodd" d="M563.61 390.571C563.61 390.571 556.442 410.469 569.23 423.945L582.606 449.258L590.347 465.365C590.347 465.365 588.365 468.197 587.793 476.274C587.22 484.35 587.483 495.645 587.498 501.246C587.514 506.847 585.331 523.944 585.331 523.944L571.521 553.806L577.869 570.346L597.5 568.614C597.5 568.614 612.145 539.432 611.433 533.414C610.721 527.395 603.29 389.983 563.641 390.509L563.61 390.571Z" fill="#090126"/>
<path d="M577.915 571.336C577.729 571.335 577.547 571.278 577.393 571.174C577.238 571.069 577.119 570.921 577.048 570.748L570.701 554.208C570.651 554.094 570.625 553.97 570.625 553.845C570.625 553.72 570.651 553.596 570.701 553.481L584.464 523.743C584.665 522.087 586.601 506.522 586.601 501.308C586.601 500.147 586.601 498.739 586.601 497.161C586.601 490.972 586.461 482.694 586.926 476.273C587.39 469.852 588.753 466.526 589.356 465.442L581.832 449.722L568.471 424.502C555.559 410.763 562.65 390.463 562.728 390.261C562.795 390.084 562.913 389.931 563.067 389.821C563.222 389.711 563.405 389.649 563.595 389.643H563.842C579.618 389.643 592.205 410.267 601.215 450.929C608.275 482.772 611.062 517.848 611.975 529.39C612.146 531.495 612.254 532.887 612.316 533.351C613.136 539.54 599.93 566.076 598.382 569.093C598.314 569.236 598.21 569.358 598.079 569.448C597.949 569.538 597.797 569.591 597.639 569.603L578.008 571.336H577.915ZM572.543 553.899L578.504 569.371L596.912 567.824C601.092 559.438 611.062 538.241 610.443 533.63C610.443 533.119 610.272 531.773 610.087 529.561C603.073 441.135 586.864 392.18 564.245 391.546C563.208 394.965 558.873 411.753 569.88 423.342C569.935 423.402 569.982 423.47 570.02 423.543L583.38 448.887L591.121 465.025C591.208 465.164 591.253 465.325 591.253 465.489C591.253 465.653 591.208 465.814 591.121 465.953C591.121 465.953 589.279 468.769 588.722 476.397C588.273 482.756 588.35 491.065 588.412 497.146C588.412 498.693 588.412 500.147 588.412 501.308C588.412 506.909 586.337 523.418 586.245 524.114C586.258 524.207 586.258 524.3 586.245 524.393L572.543 553.899Z" fill="#090126"/>
<path d="M600.534 348.192H600.41C600.258 348.168 600.114 348.107 599.99 348.016C599.866 347.924 599.766 347.804 599.698 347.666L596.602 340.842C595.549 337.748 593.304 332.441 591.663 331.373L584.031 326.468C583.925 326.401 583.835 326.311 583.768 326.205C582.583 324.402 581.616 322.465 580.888 320.434C579.339 316.923 577.479 313.557 575.33 310.377C574.67 309.399 574.1 308.363 573.627 307.283C573.271 306.524 572.868 305.735 572.373 304.745C571.134 302.44 569.54 299.778 569.524 299.763C569.432 299.603 569.384 299.421 569.385 299.237L569.571 293.698L567.558 289.86C567.483 289.701 567.451 289.525 567.465 289.35L568.286 279.896C567.547 279.921 566.815 279.757 566.157 279.422C565.499 279.086 564.937 278.589 564.524 277.978C563.827 276.601 564.322 274.79 566.072 272.454C570.203 266.913 575.238 262.106 580.965 258.235C584.263 255.945 588.52 255.635 591.803 255.635C593.351 255.635 595.069 255.635 596.679 255.79L599.218 255.898C603.682 256.263 607.905 258.071 611.248 261.051C614.56 262.36 617.684 264.103 620.537 266.234C623.457 269.069 626.053 272.219 628.278 275.626C628.572 276.214 634.471 287.772 633.696 294.348L631.235 306.911L640.663 323.931C640.713 324.043 640.738 324.164 640.738 324.287C640.738 324.409 640.713 324.531 640.663 324.643C640.632 324.762 640.576 324.874 640.499 324.97C640.422 325.066 640.325 325.144 640.214 325.2C630.26 330.507 603.817 344.912 601.123 347.867C600.977 348.049 600.766 348.165 600.534 348.192ZM585.161 324.983L592.67 329.795C595.394 331.559 598.042 339.264 598.336 340.146L600.906 345.747C607.099 340.966 633.418 326.793 638.651 324.086L629.439 307.499C629.331 307.306 629.298 307.08 629.346 306.865L631.963 294.054C632.597 288.112 626.838 276.678 626.776 276.57C624.646 273.344 622.17 270.361 619.391 267.673C616.597 265.642 613.553 263.978 610.334 262.722C610.218 262.685 610.112 262.621 610.025 262.536C610.025 262.536 605.071 257.894 599.187 257.693L596.617 257.585C595.069 257.507 593.397 257.446 591.834 257.446C588.737 257.446 584.867 257.693 582.003 259.705C576.447 263.461 571.559 268.121 567.543 273.491C566.366 275.115 565.87 276.415 566.211 277.08C566.552 277.745 567.759 277.993 568.905 277.993H569.246C569.38 277.982 569.515 278.001 569.641 278.049C569.767 278.098 569.881 278.173 569.973 278.272C570.07 278.365 570.144 278.479 570.192 278.605C570.241 278.73 570.261 278.865 570.252 278.999L569.354 289.195L571.289 292.986C571.358 293.13 571.39 293.29 571.382 293.45L571.212 298.974C571.63 299.686 572.93 301.867 573.967 303.817C574.478 304.761 574.896 305.642 575.268 306.432C575.702 307.423 576.22 308.375 576.816 309.278C579.081 312.599 581.025 316.127 582.622 319.815C583.272 321.632 584.124 323.371 585.161 324.999V324.983Z" fill="#090126"/>
<path d="M527.025 927.885C526.78 927.882 526.546 927.782 526.375 927.607C526.284 927.519 526.212 927.413 526.164 927.296C526.116 927.179 526.093 927.053 526.096 926.926L526.282 919.917C526.492 914.417 527.92 909.033 530.462 904.151C533.403 898.085 541.423 894.48 548.498 891.293C551.769 889.972 554.906 888.34 557.865 886.419C564.058 881.777 571.706 865.949 572.387 864.541C572.604 863.458 574.337 854.515 575.483 842.508C576.629 830.501 574.926 794.884 574.663 789.36C570.343 788.385 567.634 786.467 566.581 783.651C564.955 779.256 567.974 774.104 569.337 772.108C568.155 771.434 567.144 770.497 566.382 769.37C565.619 768.244 565.126 766.957 564.94 765.61C564.491 761.154 568.036 756.976 569.585 755.336C568.543 754.441 567.706 753.333 567.131 752.086C566.557 750.839 566.258 749.483 566.256 748.11C566.395 743.979 569.6 740.73 570.993 739.523C569.34 736.37 568.46 732.87 568.423 729.311C568.547 724.128 569.507 706.922 569.631 704.88C567.958 700.275 566.765 695.51 566.07 690.661C565.079 683.234 570.482 660.954 570.993 658.865C570.993 657.704 570.668 648.978 570.142 644.769C569.259 637.683 567.34 619.626 568.594 605.345C569.894 590.399 575.932 557.303 575.994 556.978L581.645 531.727L582.233 516.053C581.844 511.852 581.709 507.63 581.831 503.412C582.109 498.121 581.119 486.578 579.431 475.361C578.339 469.461 578.37 463.409 579.524 457.521C579.524 457.119 579.663 456.825 579.679 456.608C579.105 454.269 578.237 452.013 577.093 449.893C577.093 449.893 567.541 433.956 565.931 415.559C564.909 403.924 558.794 392.351 558.732 392.351C558.725 392.279 558.725 392.206 558.732 392.134C556.44 383.299 560.899 375.253 564.801 372.376C568.331 369.745 575.05 369.188 576.799 369.095L582.992 361.885C588.937 355.572 608.15 342.498 622.827 335.613C638.014 328.573 659.735 319.289 659.952 319.196C660.09 319.172 660.232 319.172 660.37 319.196L670.062 319.707C673.918 315.916 678.059 312.425 682.447 309.263C687.634 305.813 697.356 303.956 700.189 303.956H700.762H701.149C703.1 304.204 704.462 304.683 707.11 309.186C709.928 313.998 711.151 332.766 711.274 334.746C712.441 337.884 713.892 340.909 715.609 343.782C716.554 345.113 717.994 347.511 719.511 349.971C721.415 353.066 723.381 356.392 724.403 357.708C726.261 359.998 737.903 372.623 740.055 374.898C741.792 376.916 743.297 379.122 744.545 381.473C749.344 381.35 751.001 386.115 751.218 389.039C754.825 390.958 755.305 396.776 755.367 398.54C756.491 399.248 757.309 400.352 757.658 401.634C758.044 404.054 757.591 406.532 756.373 408.659C756.512 410.979 757.441 426.375 756.791 434.544C756.172 442.28 753.478 459.764 752.936 463.168C753.509 463.554 753.991 464.06 754.35 464.65C754.708 465.24 754.933 465.902 755.011 466.588C754.957 468.762 754.07 470.834 752.534 472.374C753.079 473.165 753.366 474.106 753.354 475.067C753.354 478.161 750.629 481.256 749.7 482.199C750.01 490.493 750.583 505.764 750.66 506.677C750.532 508.286 750.112 509.859 749.422 511.319C749.174 512 748.88 512.758 748.601 513.593C747.532 517.424 746.664 521.307 746 525.229C745.968 525.374 745.904 525.511 745.814 525.631C744.053 527.908 742.083 530.016 739.931 531.928C739.398 532.372 738.736 532.632 738.043 532.671C737.705 532.671 737.372 532.59 737.073 532.433C736.774 532.277 736.517 532.051 736.324 531.773L733.986 533.909C733.906 533.988 733.812 534.051 733.708 534.094L729.218 535.905C728.66 536.203 728.039 536.367 727.407 536.384C726.85 536.38 726.309 536.203 725.857 535.879C725.406 535.555 725.065 535.099 724.883 534.574C723.186 535.471 721.421 536.232 719.604 536.848C719.257 536.906 718.902 536.877 718.57 536.764C718.237 536.65 717.938 536.456 717.699 536.199C716.965 535.341 716.593 534.231 716.662 533.104C716.662 530.907 719.758 528.215 720.564 527.658C722.284 525.073 723.835 522.381 725.208 519.597L725.363 517.508L725.007 518.606C725.015 518.647 725.015 518.689 725.007 518.73C723.623 521.498 722.072 524.18 720.362 526.76C718.892 528.818 716.089 532.006 714.928 533.305C718.025 537.73 726.71 558.061 736.928 582.183C740.953 591.683 744.142 599.203 745.056 600.967C747.843 606.366 751.249 627.548 751.698 630.055C753.122 632.097 766.483 651.144 771.019 656.528C773.155 659.05 775.772 662.362 778.543 665.812C782.166 670.454 785.912 675.095 789.38 679.211C794.814 685.539 793.53 694.854 792.879 698.026C794.051 698.133 795.188 698.476 796.223 699.035C797.258 699.593 798.169 700.355 798.902 701.275C801.998 705.205 801.534 711.378 801.208 713.73C803.454 714.133 805.465 715.365 806.844 717.181C808.432 719.559 809.159 722.409 808.903 725.257C809.964 725.655 810.927 726.275 811.728 727.076C812.529 727.876 813.149 728.839 813.548 729.899C815.096 734.108 812.82 739.183 811.999 740.575C813.718 745.341 828.549 786.621 830.903 796.756C833.256 806.89 844.434 833.673 845.223 835.561L856.231 850.353C856.355 850.523 856.415 850.731 856.401 850.941C856.401 851.08 855.999 864.866 856.572 870.715C856.912 874.18 860.705 881.545 864.049 887.935C866.092 891.651 867.947 895.468 869.607 899.37C871.552 905.117 872.698 911.104 873.013 917.163C873.02 917.355 872.967 917.544 872.862 917.705C872.757 917.866 872.604 917.99 872.425 918.06C863.26 921.665 800.465 923.631 797.802 923.708C797.58 923.715 797.363 923.643 797.19 923.504C797.016 923.365 796.899 923.168 796.858 922.95C795.31 914.409 799.784 898.194 804.15 886.837C806.225 881.468 805.698 879.286 805.311 878.466C805.239 878.317 805.137 878.184 805.012 878.075C804.887 877.966 804.741 877.883 804.584 877.832C804.436 877.806 804.296 877.748 804.173 877.662C804.05 877.577 803.947 877.466 803.871 877.337C802.457 874.41 801.272 871.379 800.326 868.27C799.505 865.5 800.156 860.967 800.775 856.573C801.27 853.029 801.797 849.378 801.379 847.397C800.481 843.096 788.823 821.914 779.875 808.314C771.855 796.152 762.024 775.435 760.274 771.721C755.971 771.922 752.998 770.839 751.218 768.472C749.631 766.03 749.074 763.06 749.669 760.21C745.536 760.21 742.579 758.926 740.86 756.589C740.1 755.387 739.59 754.044 739.358 752.641C739.127 751.238 739.18 749.802 739.513 748.42C738.002 748.347 736.526 747.943 735.188 747.238C733.851 746.532 732.685 745.541 731.772 744.335C728.15 739.306 729.868 731.384 730.395 729.327C729.001 727.64 724.124 721.668 723.536 719.3C722.948 716.933 721.988 697.453 721.771 694.544C720.935 693.601 717.87 690.073 715.362 687.102C713.318 684.704 709.804 674.26 706.986 665.889C705.562 661.665 704.339 658.029 703.704 656.606C702.744 654.486 699.88 651.964 696.257 648.746C692.591 645.589 689.092 642.242 685.776 638.72C678.499 630.813 655.215 593.571 649.115 583.746C648.17 592.813 645.012 621.561 642.659 630.643C641.204 636.306 637.689 644.46 634.593 651.639C631.914 657.828 629.391 663.708 629.081 665.998C628.942 667.05 628.725 668.349 628.493 669.835C627.595 675.374 626.248 683.76 626.666 690.8C627.022 696.68 631.914 711.456 635.475 722.24C637.333 727.841 638.788 732.266 639.191 734.108C640.151 738.626 637.472 744.258 636.265 746.486C640.352 748.141 642.69 750.447 643.263 753.34C644.145 757.873 640.306 762.345 638.618 764.031C640.197 765.613 641.106 767.74 641.157 769.973C641.05 772.264 640.159 774.449 638.634 776.162C642.132 781.639 638.216 786.993 635.336 789.298L620.071 869.059C620.411 870.157 621.882 874.846 622.393 877.445C622.904 880.044 620.845 889.39 620.473 891.37C621.876 895.424 622.786 899.632 623.183 903.903C623.291 908.669 624.592 922.3 624.592 922.47C624.607 922.595 624.596 922.722 624.559 922.842C624.521 922.962 624.459 923.072 624.375 923.166C624.293 923.264 624.191 923.343 624.076 923.399C623.962 923.455 623.837 923.487 623.709 923.491L527.071 927.87L527.025 927.885ZM560.404 391.546C561.054 392.799 566.736 403.924 567.758 415.405C569.306 433.368 578.595 448.872 578.688 449.026C579.416 450.574 581.66 455.215 581.506 456.763C581.462 457.127 581.4 457.488 581.32 457.846C580.208 463.525 580.182 469.363 581.242 475.051C582.945 486.393 583.936 498.074 583.658 503.474C583.549 507.605 583.694 511.739 584.091 515.852V515.976L583.503 531.82C583.503 531.82 583.503 531.928 583.503 531.975L577.852 557.272C577.852 557.566 571.767 590.569 570.467 605.438C569.213 619.92 571.334 638.983 572.015 644.475C572.573 649.024 572.867 658.401 572.882 658.865C572.89 658.947 572.89 659.03 572.882 659.112C572.882 659.344 566.984 683.048 567.959 690.336C568.655 695.085 569.833 699.75 571.473 704.261C571.512 704.387 571.512 704.522 571.473 704.648C571.473 704.834 570.405 723.772 570.266 729.218C570.322 732.713 571.237 736.14 572.929 739.198C573.047 739.392 573.089 739.623 573.046 739.846C573.003 740.07 572.878 740.269 572.696 740.405C572.696 740.405 568.207 743.84 568.052 748.141C568.094 749.403 568.425 750.639 569.021 751.752C569.617 752.866 570.461 753.827 571.489 754.562C571.59 754.648 571.671 754.755 571.727 754.875C571.783 754.995 571.813 755.126 571.814 755.259C571.814 755.392 571.786 755.524 571.733 755.647C571.68 755.769 571.602 755.879 571.504 755.97C571.504 755.97 566.225 760.72 566.689 765.378C566.906 767.559 568.361 769.447 571.024 770.994C571.14 771.062 571.24 771.154 571.317 771.263C571.395 771.372 571.448 771.497 571.473 771.628C571.497 771.761 571.493 771.897 571.461 772.027C571.429 772.158 571.37 772.28 571.288 772.387C571.288 772.387 566.55 778.483 568.191 782.954C569.058 785.275 571.551 786.853 575.591 787.596C575.796 787.637 575.981 787.744 576.118 787.9C576.256 788.057 576.337 788.255 576.35 788.463C576.35 790.134 578.332 829.697 577.202 842.616C576.548 850.111 575.514 857.568 574.105 864.959C574.114 865.026 574.114 865.093 574.105 865.16C573.765 865.887 565.776 882.768 558.964 887.843C555.926 889.867 552.695 891.588 549.319 892.979C542.538 896.074 534.843 899.493 532.196 904.94C529.795 909.584 528.433 914.695 528.202 919.917L528.047 925.967L622.718 921.588C622.409 918.339 621.48 908.034 621.387 903.888C620.953 899.725 620.049 895.624 618.693 891.664C618.647 891.497 618.647 891.321 618.693 891.154C619.39 888.183 621.077 879.998 620.644 877.801C620.117 875.016 618.337 869.461 618.306 869.399C618.267 869.247 618.267 869.087 618.306 868.935L633.695 788.834C633.739 788.606 633.866 788.402 634.051 788.261C634.345 788.045 641.204 782.722 636.822 776.843C636.681 776.661 636.613 776.432 636.633 776.203C636.653 775.973 636.76 775.759 636.931 775.605C638.391 774.151 639.272 772.215 639.408 770.159C639.351 769.139 639.079 768.143 638.609 767.236C638.14 766.33 637.483 765.533 636.683 764.898C636.59 764.81 636.517 764.705 636.466 764.588C636.416 764.471 636.389 764.345 636.389 764.217C636.391 764.089 636.42 763.962 636.473 763.845C636.526 763.728 636.603 763.623 636.698 763.536C636.698 763.536 642.303 758.461 641.343 753.897C640.863 751.468 638.572 749.503 634.515 748.048C634.386 748.004 634.269 747.931 634.172 747.834C634.076 747.738 634.002 747.62 633.958 747.491C633.913 747.359 633.896 747.219 633.909 747.081C633.923 746.942 633.966 746.808 634.035 746.687C634.035 746.687 638.324 739.616 637.271 734.696C636.9 732.947 635.382 728.352 633.617 723.029C630.01 712.199 625.087 697.237 624.715 691.125C624.282 683.853 625.644 675.358 626.558 669.742C626.79 668.272 627.007 666.988 627.146 665.951C627.487 663.414 629.948 657.704 632.781 651.113C635.878 643.98 639.346 635.904 640.77 630.38C643.479 619.905 647.427 581.44 647.458 581.053C647.475 580.858 647.555 580.674 647.687 580.529C647.818 580.384 647.993 580.285 648.186 580.249C648.372 580.203 648.569 580.218 648.746 580.29C648.924 580.362 649.075 580.489 649.177 580.651C649.471 581.146 678.948 628.864 687.045 637.652C690.314 641.135 693.766 644.44 697.387 647.554C701.335 651.036 704.184 653.558 705.298 656.033C705.98 657.581 707.218 661.201 708.658 665.456C711.29 673.192 714.851 683.93 716.693 686.065C719.604 689.516 723.288 693.802 723.288 693.802C723.42 693.958 723.496 694.154 723.505 694.359C723.83 700.548 724.775 717.072 725.255 719.037C725.673 720.693 729.636 725.83 732.051 728.692C732.149 728.811 732.216 728.953 732.246 729.104C732.276 729.255 732.267 729.411 732.221 729.559C732.221 729.652 729.62 738.486 733.197 743.484C734.082 744.599 735.221 745.487 736.519 746.074C737.817 746.66 739.236 746.929 740.659 746.857C740.803 746.863 740.944 746.902 741.07 746.972C741.197 747.042 741.305 747.14 741.387 747.259C741.471 747.376 741.526 747.512 741.547 747.654C741.569 747.797 741.556 747.943 741.51 748.079C741.51 748.079 740.102 752.721 742.331 755.723C743.879 757.75 746.604 758.724 750.753 758.57C750.898 758.568 751.042 758.599 751.173 758.66C751.305 758.722 751.42 758.813 751.512 758.926C751.602 759.039 751.665 759.173 751.695 759.315C751.724 759.458 751.72 759.605 751.682 759.746C751.682 759.746 750.351 764.588 752.626 767.59C754.097 769.524 756.745 770.36 760.693 770.05C760.884 770.033 761.077 770.076 761.243 770.173C761.41 770.27 761.542 770.416 761.621 770.592C761.73 770.824 772.644 794.296 781.345 807.525C789.783 820.351 802.091 842.322 803.128 847.243C803.608 849.548 803.128 853.2 802.54 857.068C801.952 861.261 801.332 865.593 802.029 867.976C802.913 870.852 804.005 873.659 805.296 876.377C805.943 876.625 806.488 877.083 806.844 877.677C808.036 879.611 807.695 883 805.869 887.734C802.524 896.414 797.338 913.109 798.546 922.068C805.93 921.82 860.86 919.917 871.094 916.776C870.752 911.153 869.659 905.6 867.842 900.267C866.743 897.389 864.622 893.32 862.393 889.018C858.786 882.102 855.07 874.954 854.652 871.132C854.11 865.593 854.42 853.617 854.482 851.436L843.644 836.814L843.52 836.613C843.04 835.453 831.491 807.989 829.06 797.421C826.63 786.853 810.25 741.503 810.08 741.039C810.026 740.917 809.998 740.786 809.998 740.652C809.998 740.519 810.026 740.388 810.08 740.266C810.08 740.266 813.176 734.819 811.628 730.781C811.25 729.877 810.672 729.071 809.937 728.422C809.202 727.774 808.33 727.3 807.386 727.037C807.179 726.966 807.003 726.826 806.89 726.639C806.777 726.452 806.733 726.231 806.766 726.015C807.101 723.419 806.521 720.788 805.125 718.573C804.48 717.757 803.675 717.08 802.76 716.585C801.844 716.09 800.837 715.788 799.8 715.695C799.674 715.682 799.552 715.642 799.442 715.578C799.333 715.514 799.238 715.427 799.165 715.324C799.091 715.22 799.039 715.101 799.013 714.976C798.986 714.851 798.985 714.722 799.01 714.597C799.01 714.519 800.558 706.861 797.23 702.714C796.528 701.876 795.648 701.206 794.655 700.751C793.661 700.296 792.579 700.068 791.486 700.083C791.346 700.085 791.207 700.052 791.083 699.987C790.959 699.922 790.853 699.828 790.774 699.712C790.689 699.601 790.632 699.472 790.605 699.336C790.578 699.199 790.583 699.058 790.619 698.923C790.619 698.799 793.591 687.52 787.739 680.712C784.225 676.627 780.463 671.862 776.825 667.266C774.069 663.77 771.468 660.458 769.347 657.983C764.517 652.273 750.397 632.066 749.793 631.215C749.713 631.1 749.66 630.968 749.638 630.829C749.638 630.596 745.907 607.434 743.152 602.081C742.207 600.239 739.002 592.704 734.962 583.173C727.499 565.596 715.037 536.183 712.838 534.234C712.75 534.148 712.679 534.046 712.631 533.933C712.583 533.82 712.558 533.699 712.558 533.576C712.558 533.453 712.583 533.332 712.631 533.219C712.679 533.106 712.75 533.004 712.838 532.918C712.838 532.918 716.863 528.431 718.675 525.94C720.297 523.445 721.781 520.863 723.118 518.204L725.812 510.096C725.883 509.88 726.031 509.698 726.228 509.584C726.425 509.47 726.657 509.432 726.88 509.478C727.103 509.519 727.302 509.642 727.44 509.822C727.577 510.002 727.642 510.227 727.623 510.452L726.911 520.169C726.912 520.294 726.88 520.416 726.818 520.525C725.27 523.619 722.452 528.818 721.508 529.453C720.564 530.087 718.412 532.269 718.412 533.367C718.36 533.988 718.543 534.606 718.922 535.1C718.948 535.139 718.982 535.172 719.023 535.196C719.063 535.221 719.108 535.235 719.155 535.239C721.143 534.497 723.078 533.618 724.945 532.609C725.08 532.54 725.23 532.505 725.382 532.508C725.534 532.51 725.683 532.55 725.816 532.623C725.948 532.697 726.061 532.801 726.144 532.928C726.227 533.055 726.278 533.201 726.292 533.352C726.292 533.352 726.447 534.744 727.298 534.744C727.663 534.712 728.017 534.601 728.335 534.419L732.748 532.64L735.844 529.747C735.966 529.633 736.117 529.554 736.281 529.518C736.444 529.483 736.614 529.492 736.773 529.545C736.929 529.601 737.068 529.695 737.176 529.82C737.285 529.945 737.359 530.095 737.392 530.257C737.392 530.52 737.656 531.031 737.872 531.031C738.163 530.993 738.434 530.862 738.646 530.659C740.617 528.906 742.421 526.974 744.034 524.888C744.709 520.946 745.588 517.042 746.666 513.191C746.96 512.355 747.254 511.644 747.502 510.886C748.066 509.664 748.447 508.366 748.632 507.033C748.524 505.826 747.688 483.035 747.657 482.076C747.651 481.944 747.673 481.813 747.721 481.69C747.769 481.568 747.842 481.457 747.935 481.364C747.935 481.364 751.31 478.068 751.326 475.252C751.332 474.868 751.258 474.487 751.109 474.132C750.96 473.778 750.738 473.459 750.459 473.194C750.369 473.109 750.298 473.006 750.25 472.891C750.202 472.777 750.178 472.653 750.18 472.529C750.179 472.404 750.205 472.28 750.256 472.165C750.306 472.05 750.381 471.947 750.474 471.864C751.233 471.152 753.168 468.878 752.983 466.959C752.907 466.456 752.712 465.978 752.413 465.566C752.113 465.154 751.72 464.82 751.264 464.592C751.111 464.495 750.991 464.355 750.916 464.19C750.842 464.025 750.818 463.842 750.846 463.663C750.846 463.462 754.082 443.147 754.763 434.591C755.444 426.034 754.329 408.875 754.314 408.705C754.312 408.515 754.36 408.329 754.453 408.163C754.453 408.163 756.373 404.883 755.676 402.315C755.547 401.825 755.315 401.369 754.994 400.976C754.674 400.584 754.273 400.265 753.819 400.04C753.673 399.96 753.552 399.841 753.47 399.696C753.388 399.551 753.348 399.387 753.354 399.22C753.354 397.224 752.781 391.809 749.824 390.68C749.652 390.611 749.504 390.494 749.396 390.343C749.289 390.192 749.228 390.013 749.22 389.829C749.22 389.55 749.004 383.005 743.941 383.516C743.755 383.535 743.567 383.498 743.401 383.41C743.236 383.321 743.1 383.186 743.012 383.021C741.767 380.629 740.261 378.382 738.523 376.321C736.309 373.969 724.713 361.406 722.777 359.038C721.694 357.708 719.681 354.396 717.746 351.163C716.198 348.641 714.82 346.273 713.922 344.974C712.086 341.934 710.532 338.733 709.277 335.412C709.27 335.319 709.27 335.226 709.277 335.133C709.277 334.932 708.054 314.849 705.36 310.253C702.992 306.215 702.063 306.091 700.716 305.921H700.267H699.988C697.635 305.921 688.206 307.639 683.283 310.919C678.89 314.097 674.749 317.609 670.898 321.425C670.804 321.516 670.693 321.587 670.57 321.632C670.447 321.677 670.316 321.696 670.186 321.688L660.308 321.177C658.079 322.121 637.813 330.77 623.43 337.485C607.639 344.834 589.262 357.893 584.045 363.309L577.666 370.782C577.489 370.973 577.245 371.089 576.985 371.107C576.907 371.107 569.151 371.401 565.606 374.031C562.06 376.661 558.407 383.67 560.404 391.546ZM710.965 527.271H710.825C710.673 527.247 710.529 527.186 710.405 527.095C710.281 527.003 710.181 526.883 710.113 526.745L706.305 518.746C706.21 518.56 706.183 518.347 706.229 518.144C706.274 517.941 706.388 517.76 706.552 517.632C707.822 516.61 709.881 514.537 710.051 513.377C710.346 511.458 710.593 506.445 710.593 506.399C710.598 506.258 710.635 506.12 710.702 505.996C712.119 503.381 713.669 500.84 715.346 498.384C715.473 498.247 715.639 498.151 715.821 498.11C716.003 498.069 716.194 498.083 716.368 498.152C716.539 498.224 716.686 498.344 716.791 498.498C716.895 498.651 716.953 498.832 716.956 499.018V508.843L716.089 518.297C716.08 518.399 716.054 518.498 716.012 518.591L713.101 525.383C713.054 525.477 712.997 525.565 712.931 525.646L711.708 526.977C711.612 527.076 711.496 527.153 711.368 527.204C711.24 527.254 711.102 527.277 710.965 527.271ZM708.286 518.606L711.197 524.702L711.398 524.501L714.185 517.987L715.037 508.704V502.175C714.201 503.583 713.225 505.269 712.436 506.708C712.436 507.714 712.172 511.86 711.894 513.655C711.615 515.45 709.386 517.632 708.286 518.606ZM703.332 512.417C703.153 512.419 702.978 512.368 702.826 512.272C702.675 512.176 702.555 512.038 702.481 511.876C702.31 511.504 698.192 502.592 696.907 498.925C695.622 495.258 688.934 479.569 686.07 476.583C685.917 476.41 685.832 476.187 685.832 475.956C685.832 475.725 685.917 475.502 686.07 475.33C686.141 474.384 685.937 473.438 685.482 472.607C684.46 470.131 683.485 467.547 682.819 465.505C682.363 464.277 681.782 463.1 681.085 461.992L679.165 461.667C678.942 461.627 678.742 461.508 678.6 461.332C678.458 461.155 678.384 460.934 678.391 460.708C678.382 458.766 677.932 456.85 677.075 455.107C675.523 452.188 674.775 448.91 674.908 445.607C674.908 444.988 675.016 444.06 675.078 442.992C675.326 439.047 675.651 433.631 675.929 432.161C677.395 427.492 679.259 422.957 681.503 418.607C684.011 413.672 693.145 391.902 692.867 388.916C692.86 388.734 692.907 388.554 693 388.397C693.094 388.241 693.231 388.115 693.395 388.035C693.558 387.955 693.742 387.924 693.923 387.946C694.104 387.967 694.275 388.041 694.415 388.158L706.274 399.406L710.191 400.458C710.343 400.498 710.482 400.576 710.596 400.684C710.709 400.792 710.794 400.927 710.841 401.077C710.889 401.228 710.897 401.388 710.865 401.543C710.832 401.697 710.76 401.841 710.655 401.959C710.379 402.289 710.225 402.705 710.222 403.135C710.222 403.135 710.222 403.429 710.686 403.661C710.809 403.725 710.915 403.817 710.996 403.93C711.077 404.043 711.13 404.174 711.151 404.311C711.173 404.445 711.166 404.583 711.128 404.714C711.091 404.846 711.024 404.967 710.934 405.069C710.299 405.747 709.931 406.632 709.897 407.56C709.897 407.684 710.005 408.024 710.717 408.318C710.863 408.375 710.993 408.468 711.095 408.587C711.197 408.707 711.267 408.85 711.299 409.004C711.331 409.157 711.325 409.317 711.28 409.467C711.235 409.618 711.153 409.755 711.042 409.865C710.509 410.436 710.191 411.175 710.144 411.954C710.175 412.12 710.245 412.276 710.347 412.411C710.449 412.545 710.581 412.654 710.733 412.728C710.885 412.822 711.008 412.958 711.084 413.12C711.161 413.282 711.19 413.463 711.166 413.641C710.655 417.617 710.129 424.193 710.779 426.019C711.058 426.777 711.445 427.566 711.909 428.634C713.319 431.443 714.36 434.423 715.006 437.499C715.811 442.141 715.346 456.747 715.284 458.79L716.631 461.884C716.714 462.08 716.729 462.298 716.673 462.503C716.617 462.708 716.493 462.888 716.322 463.014C715.343 463.744 714.674 464.816 714.448 466.015C714.465 466.476 714.588 466.927 714.808 467.332C715.029 467.738 715.34 468.087 715.718 468.352C715.882 468.502 715.989 468.703 716.023 468.922C716.057 469.142 716.015 469.366 715.904 469.558C715.362 470.409 714.077 473.04 714.603 474.881C714.72 475.261 714.92 475.61 715.187 475.904C715.455 476.199 715.784 476.43 716.151 476.583C716.28 476.642 716.393 476.73 716.481 476.84C716.57 476.95 716.632 477.079 716.662 477.217C716.689 477.356 716.684 477.498 716.649 477.634C716.615 477.771 716.55 477.898 716.461 478.006L706.893 489.58L703.797 504.17L704.385 511.675C704.399 511.891 704.337 512.105 704.21 512.28C704.083 512.455 703.898 512.58 703.688 512.634C703.552 512.614 703.426 512.549 703.332 512.448V512.417ZM687.85 475.747C691.256 479.941 697.558 495.011 698.688 498.291C699.338 500.132 700.778 503.459 702.016 506.259L701.846 503.923C701.822 503.837 701.822 503.746 701.846 503.66L705.082 488.713C705.117 488.566 705.186 488.428 705.283 488.311L714.324 477.388C713.582 476.824 713.039 476.038 712.776 475.144C712.421 473.012 712.82 470.824 713.906 468.955C713.469 468.527 713.124 468.013 712.892 467.446C712.66 466.88 712.547 466.271 712.559 465.659C712.723 464.136 713.459 462.732 714.619 461.729L713.457 459.13C713.401 459.004 713.374 458.866 713.38 458.728C713.38 458.557 713.953 442.28 713.132 437.608C712.535 434.687 711.557 431.857 710.222 429.191C709.757 428.2 709.324 427.257 709.03 426.437C708.116 423.93 709.03 416.054 709.262 413.765C708.738 413.326 708.396 412.708 708.302 412.032C708.214 411.074 708.466 410.115 709.014 409.324C708.54 408.926 708.213 408.382 708.085 407.777C707.933 406.593 708.244 405.396 708.952 404.435C708.66 404.106 708.463 403.705 708.379 403.274C708.296 402.752 708.355 402.218 708.55 401.727L705.562 400.922C705.409 400.891 705.269 400.816 705.159 400.706L694.446 390.54C692.897 397.395 684.878 415.76 683.067 419.319C680.915 423.508 679.108 427.865 677.663 432.347C677.416 433.74 677.06 439.526 676.843 442.977C676.843 444.075 676.719 444.988 676.673 445.607C676.571 448.577 677.249 451.521 678.639 454.148C679.536 455.916 680.063 457.848 680.187 459.826L681.735 460.105C681.861 460.129 681.981 460.179 682.087 460.251C682.193 460.323 682.284 460.415 682.354 460.522C683.212 461.876 683.933 463.312 684.506 464.808C685.141 466.804 686.055 469.342 687.107 471.771C687.771 472.995 688.011 474.404 687.788 475.778L687.85 475.747Z" fill="#090126"/>
<path d="M736.899 529.406L740.243 524.177L744.439 512.51C744.439 512.51 742.891 523.418 742.302 524.888C740.878 527.309 739.328 529.654 737.658 531.913C737.658 531.913 736.11 530.629 736.899 529.406Z" fill="#090126"/>
<path d="M627.007 311.275L619.081 327.351L616.634 309.449L617.672 307.608L618.663 300.723C618.663 300.723 610.333 285.853 609.699 284.229C609.064 282.604 603.026 284.554 602.469 283.331C602.305 283.007 602.22 282.65 602.22 282.287C602.22 281.924 602.305 281.567 602.469 281.243L595.471 277.514C595.471 277.514 596.276 267.549 596.694 266.126C597.112 264.703 597.514 257.632 597.514 257.632L597.901 256.719C591.894 256.456 585.702 255.93 581.413 258.947C575.766 262.753 570.803 267.488 566.736 272.949C561.953 279.463 569.26 278.906 569.26 278.906L568.347 289.366L570.452 293.42L570.266 299.175C570.266 299.175 571.815 301.852 573.146 304.219C574.016 306.124 574.982 307.983 576.041 309.789C578.248 313.04 580.145 316.49 581.707 320.094C582.417 322.043 583.353 323.902 584.494 325.633L592.111 330.554C594.65 332.101 597.406 340.41 597.406 340.41L600.502 347.233C602.685 344.897 617.919 336.309 628.788 330.383C630.444 321.038 627.007 311.275 627.007 311.275Z" fill="#090126"/>
<path d="M630.258 307.05L632.921 294.239C633.603 287.864 627.657 276.152 627.657 276.152C625.463 272.815 622.903 269.732 620.025 266.961C617.166 264.859 614.043 263.142 610.736 261.855C610.736 261.855 605.611 256.981 599.233 256.765H597.979L597.592 257.678C597.592 257.678 597.174 264.748 596.771 266.172C596.369 267.595 595.471 277.513 595.471 277.513L601.369 281.242C601.369 281.242 600.889 285.574 600.564 286.874C600.097 288.259 600.097 289.759 600.564 291.145C601.168 292.692 606.463 299.283 606.463 299.283L611.324 313.982L616.634 309.449L619.081 327.35L625.583 315.73C627.824 320.283 628.924 325.311 628.788 330.383C634.98 326.963 639.873 324.395 639.873 324.395L630.258 307.05Z" fill="#3665F3"/>
<path d="M592.22 272.021C592.22 272.021 601.772 271.417 603.816 272.021C605.859 272.624 604.636 274.264 606.045 275.889C607.454 277.514 610.535 281.382 610.937 281.985C611.34 282.589 614.188 285.451 614.188 285.451L615.412 282.357C615.412 282.357 616.062 280.129 617.672 280.129C619.37 280.251 620.99 280.888 622.316 281.954C623.061 283.612 623.345 285.44 623.137 287.246C622.719 288.793 621.357 292.537 621.357 292.537V294.766L628.772 304.776C628.772 304.776 631.064 293.141 630.321 289.892C629.577 286.642 624.964 272.671 623.261 271.727C621.558 270.783 618.709 267.518 616.279 266.296C613.848 265.074 611.247 262.598 611.324 263.14C611.402 263.681 600.75 257.755 599.125 257.693C597.838 257.782 596.588 258.163 595.471 258.807L592.22 272.021Z" fill="#090126"/>
<path fill-rule="evenodd" clip-rule="evenodd" d="M582.853 362.907L581.831 357.383C581.831 357.383 617.254 322.167 657.073 316.659L660.928 320.837C660.928 320.837 624.809 332.101 582.853 362.907Z" fill="#090126"/>
<path d="M582.854 363.85C582.742 363.874 582.626 363.874 582.514 363.85C582.365 363.799 582.234 363.709 582.133 363.589C582.032 363.469 581.966 363.324 581.941 363.169L580.888 357.63C580.861 357.482 580.871 357.33 580.917 357.187C580.963 357.044 581.043 356.915 581.151 356.81C581.507 356.454 617.286 321.223 657.012 315.808C657.162 315.789 657.315 315.805 657.458 315.857C657.6 315.908 657.729 315.992 657.833 316.102L661.672 320.295C661.781 320.411 661.858 320.553 661.896 320.708C661.934 320.862 661.931 321.024 661.889 321.177C661.851 321.328 661.774 321.466 661.665 321.578C661.556 321.689 661.42 321.77 661.27 321.811C660.79 321.858 624.733 333.307 583.381 363.665C583.23 363.782 583.045 363.847 582.854 363.85ZM582.854 357.661L583.535 361.251C620.042 334.762 652.321 322.817 659.242 320.419L656.703 317.649C619.964 322.972 586.585 354.087 582.808 357.708L582.854 357.661Z" fill="#090126"/>
<path d="M616.434 285.141C616.434 285.141 617.099 280.639 618.524 281.242C619.558 281.746 620.517 282.392 621.372 283.161C621.916 284.249 622.199 285.449 622.199 286.665C622.199 287.882 621.916 289.082 621.372 290.17C620.712 291.03 619.942 291.8 619.081 292.46C619.081 292.46 619.793 289.133 619.375 290.139L618.973 291.145C618.973 291.145 618.678 288.344 618.57 287.88C618.462 287.416 618.57 286.874 617.672 286.781C616.774 286.689 616.434 285.141 616.434 285.141Z" fill="#090126"/>
<path d="M705.454 519.86C705.11 519.867 704.769 519.81 704.447 519.689C704.127 519.581 703.833 519.407 703.585 519.178C703.337 518.948 703.14 518.669 703.008 518.359V518.065L702.032 509.632L704.463 509.354L705.407 517.461C706.022 517.408 706.613 517.2 707.126 516.858L708.318 518.978C707.457 519.518 706.469 519.822 705.454 519.86Z" fill="#090126"/>
<path d="M711.554 537.313L710.656 536.353C709.822 535.556 709.164 534.594 708.724 533.528C708.285 532.463 708.072 531.317 708.101 530.164C708.316 527.978 709.343 525.952 710.981 524.486L712.529 526.343L711.739 525.414L712.545 526.343C711.397 527.378 710.67 528.799 710.501 530.334C710.472 531.544 710.854 532.727 711.585 533.692L712.637 532.562L714.418 534.234L711.554 537.313Z" fill="#090126"/>
<path d="M0 1100.51L17.0322 1076.39C20.4177 1070.28 74.4636 974.182 116.922 963.557C157.653 953.334 175.139 943.095 175.313 943.007L176.081 942.552L239.184 940.259L271.468 930.457L306.021 916.979L351.255 921.512H383.033L425.98 930.264L470.899 918.607L530.512 922.37L567.159 921.18L607.296 919.429L665.478 905.986L695.965 907.002H774.652L837.475 920.637L892.15 914.563L912.253 900H948.604L999.945 907.002V1100.51H0Z" fill="#3665F3"/>
<path d="M19.9813 1078.26C19.9813 1078.26 75.8247 977.455 117.707 966.952C159.59 956.45 177.041 945.948 177.041 945.948L239.76 943.76L272.603 933.8L306.51 920.55L351.08 925.031H382.684L426.067 933.782L471.178 922.107L530.511 925.871L567.403 924.663L607.837 922.913L665.897 909.487L695.86 910.502H774.285L837.336 924.19L893.493 917.959L913.387 903.501H948.377L999.945 910.502V1100.51H4.27539L19.9813 1078.26Z" fill="#090126"/>
<path d="M19.9813 1078.26C19.9813 1078.26 75.8247 977.455 117.707 966.952C159.59 956.45 177.041 945.948 177.041 945.948L239.76 943.76L272.603 933.8L306.51 920.55L351.08 925.031H382.684L426.067 933.782L471.178 922.107L530.511 925.871L567.403 924.663L607.837 922.913L665.897 909.487L695.86 910.502H774.285L837.336 924.19L893.493 917.959L913.387 903.501H948.377L999.945 910.502V1100.51H4.27539L19.9813 1078.26Z" fill="#090126"/>
</g>
</svg>
