<svg width="1000" height="1000" viewBox="0 0 1000 1000" fill="none" xmlns="http://www.w3.org/2000/svg">
<mask id="mask0" mask-type="alpha" maskUnits="userSpaceOnUse" x="0" y="0" width="1000" height="1000">
<rect width="1000" height="1000" fill="#C4C4C4"/>
</mask>
<g mask="url(#mask0)">
<path d="M716.777 513.782C696.971 520.255 681.055 591.554 681.055 591.554V894.602H697.002L693.361 666.174L716.777 513.782Z" fill="#020BA6"/>
<path d="M736.699 521.274V520.008C733.055 521.368 729.277 520.688 725.403 517.268C721.53 513.848 720.268 512.686 716.777 513.782L692.967 666.841L687.434 716.082L692.967 954.563H748.624C750.17 920.836 747.995 728.552 748.624 724.131C749.54 717.329 736.699 521.274 736.699 521.274Z" fill="#3665F3"/>
<path d="M853.216 588.793L874.974 623.271L855.335 339.593C836.832 333.929 801.944 369.898 788.303 401.808C773.962 435.399 756.783 512.398 735.914 520.272V521.631C735.914 521.631 748.647 717.453 747.739 724.193C747.115 728.612 744.769 920.86 743.236 954.564H862.43L853.216 588.793Z" fill="#020BA6"/>
<path d="M635.171 685.9L644.053 521.7C631.351 518.579 618.278 517.233 605.206 517.699L572.111 643.812C572.111 643.812 550.518 678.539 522.948 660.024C495.378 641.509 468 955.201 468 955.201H602.514L625.535 643.812L635.171 685.9Z" fill="#020BA6"/>
<path d="M681.168 591.881L677.883 552.793C676.374 534.698 660.578 525.8 644.036 521.437L635.04 685.085L625.559 638.17L601.957 953.926H693.813L681.168 591.881Z" fill="#3665F3"/>
<path d="M735.914 808.448L760.188 636.257L777.662 734.318C777.662 734.318 785.696 714.102 789.324 722.381C792.951 730.659 811.185 812.314 811.185 812.314L735.914 808.448Z" fill="#3665F3"/>
<path d="M520.307 955.839L555.775 706.425L564.959 955.839H520.307Z" fill="#3665F3"/>
<path d="M811.035 432.132L815.012 543.057V706.424L804.806 580.573L811.035 432.132Z" fill="#3665F3"/>
<path d="M853.471 588.533C863.105 585.961 869.87 603.086 869.87 603.086L855.199 339.638C859.535 340.961 863.35 343.954 865.386 350.495C876.076 384.83 913.707 511.431 913.707 511.431C913.707 511.431 944.533 508.859 967.232 573.445C980.989 612.696 991.273 653.086 997.963 694.146C997.963 694.146 997.002 698.381 1000 698.174V954.564H862.728C862.728 954.564 843.837 591.085 853.471 588.533Z" fill="#3665F3"/>
<path d="M399.948 1007C399.948 1007 405.248 815.746 392.056 806.605C378.865 797.465 358.936 779.807 358.936 779.807L323.64 707.01C323.64 707.01 303.312 707.854 295.909 717.794C288.506 727.735 281.029 740.312 281.029 740.312L260.79 751.452L252.351 765.659L239.737 802.013L203.152 758.77C203.152 758.77 175.48 783.214 169.099 802.013C162.718 820.812 158.883 833.745 158.883 833.745L150 1007.8L399.948 1007Z" fill="#3665F3"/>
<path d="M172 716.01L139 522.01C115.08 504.513 80 607.01 80 607.01L105 695.01C105 695.01 96.7635 761.866 92 779.51C88.7901 791.332 87.4447 974.571 88.5 1005.5H122.959C122.959 1005.5 117.263 793.445 125.5 788.51C133.737 783.574 155.797 824.108 161 822.01C166.203 819.911 130.874 672.143 135.872 677.004L172 716.01Z" fill="#020BA6"/>
<path d="M58.975 676.815C58.2756 705.342 45.5 753.01 45.5 753.01L23.5 723.51L0 800.01V665.967C13.9736 623.36 25.4607 553.504 45 560.01C45 560.01 59.6745 648.302 58.975 676.815Z" fill="#020BA6"/>
<path d="M22.5751 718.244L45.1207 746.641C45.1207 746.641 57.8561 705.478 58.5505 677.037C59.2449 648.595 45 560.01 45 560.01C49.0777 569.436 80 607.01 80 607.01L108 694.412C108 694.412 97.8796 767.222 93.078 784.864C89.8424 796.684 90.9357 972.076 91.9995 1003H0V799.86L22.5751 718.244Z" fill="#3665F3"/>
<path d="M356.607 846.062L362 763.01C354.701 757.773 336.883 748.982 313.982 765.946C283.796 788.398 255 1010.5 255 1010.5H343.65L347.225 814.036L356.607 846.062Z" fill="#020BA6"/>
<path d="M395.365 813.999H369.697L365.838 765.96C364.716 764.882 363.279 763.896 362 763.01L354.5 838.01L347.519 813.999L342.5 1005.5H402.5L395.365 813.999Z" fill="#3665F3"/>
<path d="M293 872.01L319 792.01V872.01H293Z" fill="#3665F3"/>
<path d="M180.977 583.987C180.977 583.987 163.086 539.507 139 522.01L168.433 708.386C168.433 708.386 138.661 669.825 133 671.51C127.34 673.194 163.819 813.958 158.572 816.071C153.324 818.185 134.884 778.639 123.195 780.93C111.506 783.221 120 1007 120 1007H235C231.463 937.102 197 645.01 197 645.01L180.977 583.987Z" fill="#3665F3"/>
<path d="M222.43 647.184C214.517 646.589 204.564 642.609 197 645.01C197 645.01 223.163 938.631 226.707 1008.5H271.5C262.169 903.622 222.504 647.953 222.504 647.953L222.43 647.184Z" fill="#020BA6"/>
<path d="M250.237 658.526C242.349 651.71 232.427 647.664 222 647.01V647.778C222 647.778 246.652 902.087 256 1007H313.648C313.648 1007 280.748 685.223 250.237 658.526Z" fill="#3665F3"/>
</g>
</svg>
