<svg width="1000" height="1000" viewBox="0 0 1000 1000" fill="none" xmlns="http://www.w3.org/2000/svg">
<mask id="mask0" mask-type="alpha" maskUnits="userSpaceOnUse" x="0" y="0" width="1000" height="1000">
<rect width="1000" height="1000" fill="#C4C4C4"/>
</mask>
<g mask="url(#mask0)">
<mask id="mask1" mask-type="alpha" maskUnits="userSpaceOnUse" x="345" y="129" width="105" height="105">
<circle cx="397.5" cy="181.5" r="52.5" fill="white"/>
</mask>
<g mask="url(#mask1)">
<circle cx="397.5" cy="181.5" r="52.5" fill="#A6089B"/>
<circle opacity="0.6" cx="371.25" cy="193.934" r="52.5" fill="#55038C"/>
<circle cx="397.5" cy="181.5" r="51.5" stroke="white" stroke-width="2"/>
</g>
</g>
<g clip-path="url(#clip0)">
<path d="M249.51 419C252.343 419 255.259 419 258.155 418.792H259.3H259.946C262.029 418.667 264.403 418.5 266.757 418.25H267.736H268.236C270.986 417.959 273.214 417.646 275.256 417.334L276.255 417.167C278.942 416.73 281.379 416.271 283.671 415.792H284.066C286.795 415.209 289.42 414.584 291.919 413.918H292.086C300.039 411.799 307.823 409.091 315.373 405.815H315.54L315.81 405.669C318.581 404.461 321.476 403.086 324.559 401.503L326.142 400.691C327.517 399.983 328.87 399.233 330.308 398.483L331.474 397.816C334.057 396.338 336.64 394.775 339.16 393.151L340.243 392.463C341.576 391.568 342.889 390.693 344.18 389.776L345.367 388.943C369.533 371.633 388.61 348.154 400.607 320.956L400.961 320.206C409.789 300.182 414.541 278.599 414.938 256.718V255.468C414.938 254.823 414.938 254.156 414.938 253.51C414.951 238.512 412.933 223.58 408.939 209.123L408.772 208.477C408.48 207.457 408.21 206.394 407.897 205.436C407.481 204.061 407.022 202.687 406.564 201.27C406.564 201.27 405.898 199.333 405.71 198.75C405.106 197.042 404.481 195.355 403.815 193.668L403.377 192.543C400.475 185.234 397.057 178.142 393.15 171.318L392.796 170.734C388.997 164.161 384.752 157.856 380.09 151.863L379.382 150.988C376.049 146.822 372.466 142.656 368.738 138.782L367.988 137.991C366.842 136.824 365.718 135.699 364.551 134.575L363.176 133.262C362.01 132.179 360.864 131.179 359.677 130.034L359.448 129.846C357.178 127.763 354.741 125.68 352.033 123.597L349.95 122.035C348.867 121.202 347.867 120.39 346.659 119.577L344.368 117.911L343.847 117.557L341.16 115.703C339.473 114.578 337.765 113.474 336.036 112.412L333.807 111.1L333.12 110.683L329.891 108.829L326.912 107.226C325.704 106.58 324.475 105.955 323.267 105.351L322.497 104.955L320.643 104.039C318.56 103.101 316.644 102.185 314.623 101.331L312.915 100.623L312.144 100.31C310.707 99.727 309.27 99.1437 307.833 98.6022L305.208 97.644C303.542 97.04 301.876 96.4776 300.188 95.936L298.355 95.3319C296.272 94.6862 294.002 94.0405 291.565 93.4156L289.357 92.8532C287.649 92.4367 285.941 92.0409 284.212 91.666L281.879 91.1869C279.796 90.7703 277.713 90.3746 275.63 90.0413L274.547 89.8955C272.277 89.5414 269.861 89.2289 267.174 88.9582L265.091 88.7499C263.133 88.5624 261.279 88.4374 259.384 88.3124L257.155 88.1875C254.26 88 251.822 88 249.51 88C247.198 88 244.636 88 241.783 88.1875L240.075 88.2916H239.366C237.596 88.2916 235.846 88.5416 234.097 88.6874L231.368 88.9998C229.618 89.2081 227.89 89.4164 226.161 89.6664H225.348L223.765 90.0829C221.412 90.4579 219.079 90.8745 216.808 91.3327L214.725 91.791L213.809 91.9992L209.83 92.9157L206.164 93.8739L202.978 94.7904C201.665 95.1653 200.332 95.5611 199.02 95.9777L197.52 96.3318L196.833 96.5609C193.521 97.6857 190.313 98.8729 187.272 100.102L186.71 100.331C185.043 101.018 183.377 101.727 181.752 102.414L180.523 102.956C178.836 103.747 177.149 104.539 175.483 105.372L175.212 105.518C163.249 111.525 152.059 118.96 141.885 127.659L140.385 128.971C137.136 131.804 134.011 134.762 131.095 137.761L130.824 138.032C128.929 140.073 127.096 142.156 125.326 144.239L125.138 144.448C123.284 146.531 121.493 148.718 119.743 150.926C116.217 155.377 112.921 160.008 109.87 164.798C109.87 164.798 109.058 166.027 108.808 166.464C108.245 167.36 107.704 168.235 107.183 169.131C106.204 170.755 105.246 172.422 104.329 174.088L103.892 174.838C102.934 176.65 101.809 178.629 100.809 180.878C100.476 181.545 100.164 182.232 99.8512 182.961L99.7262 183.211C99.0874 184.6 98.4625 185.988 97.8516 187.377L97.6433 187.877C97.2892 188.668 96.9559 189.46 96.6226 190.252C95.9144 191.96 95.227 193.668 94.5397 195.396C94.0189 196.792 93.5399 198.208 93.04 199.562L92.4776 201.249C89.8822 209.067 87.8701 217.067 86.4579 225.182V225.703C85.6039 230.265 84.9998 235.035 84.6041 239.805L84.4582 241.638C84.1458 246.158 84 249.969 84 253.51C84 255.468 84 257.551 84.1666 260.051C84.1666 261.571 84.3124 263.113 84.4166 264.654V264.8V265.196C84.5832 267.841 84.8748 270.715 85.2081 273.527C85.5414 276.339 85.9788 279.235 86.4579 282.005V282.192C86.9369 284.879 87.4993 287.629 88.1034 290.337C88.7074 293.045 89.3948 295.69 90.1863 298.252V298.606C90.8529 301.001 91.6444 303.522 92.4776 306C93.3107 308.479 94.4147 311.083 95.2479 313.457V313.728V313.874L95.3729 314.228C98.323 321.635 101.804 328.818 105.788 335.724L105.913 335.953C109.926 342.861 114.437 349.468 119.41 355.72L119.931 356.366C121.056 357.803 122.243 359.24 123.451 360.657L123.888 361.178C127.492 365.343 131.366 369.509 135.386 373.3L136.553 374.404C137.74 375.508 138.927 376.591 140.114 377.633L141.677 378.987C142.885 380.028 144.072 381.07 145.301 382.049L145.988 382.59C148.3 384.444 150.8 386.339 153.383 388.172L153.945 388.589L155.653 389.797C156.736 390.547 157.736 391.276 158.965 392.005L161.652 393.734C162.714 394.4 163.735 395.067 164.86 395.713L168.109 397.587L168.297 397.691C169.713 398.483 171.15 399.275 172.587 400.024C174.025 400.774 175.379 401.503 176.753 402.107L179.19 403.274L179.628 403.461C180.878 404.065 182.148 404.628 183.419 405.19L186.272 406.398C187.772 407.023 189.272 407.606 190.772 408.19L191.584 408.502L193 409.044C195.083 409.814 197.374 410.564 199.645 411.293L201.165 411.731L201.915 411.96C203.54 412.46 205.185 412.918 206.831 413.355L209.435 414.022C211.122 414.438 212.83 414.834 214.538 415.209L216.621 415.667C219.12 416.167 221.578 416.605 223.911 416.98L225.369 417.167C227.452 417.459 229.41 417.729 231.43 417.938L233.701 418.167C235.784 418.354 237.513 418.479 239.346 418.604H239.991H241.679C244.636 418.937 247.157 419 249.51 419Z" fill="white"/>
<path d="M249.511 412.772C337.468 412.772 408.772 341.468 408.772 253.511C408.772 165.553 337.468 94.249 249.511 94.249C161.553 94.249 90.249 165.553 90.249 253.511C90.249 341.468 161.553 412.772 249.511 412.772Z" fill="#55038C"/>
<path d="M171.879 192.438C173.735 192.989 175.732 192.81 177.461 191.939C182.294 188.627 189.167 184.044 193.75 184.044C214.35 190.918 234.971 197.792 254.801 196.313C257.592 197.583 260.362 198.979 263.132 200.479C271.426 205.165 279.313 210.537 286.711 216.538C289.232 218.621 291.731 220.704 294.252 222.787C317.372 227.557 360.906 225.266 356.302 257.322C355.094 265.654 348.804 269.82 340.784 271.299C341.501 270.03 341.854 268.589 341.805 267.133C341.805 251.115 323.496 248.824 312.04 246.532H289.128C279.983 248.824 273.11 251.115 267.173 255.635C262.653 257.947 260.071 257.01 257.758 255.635C248.489 249.698 239.137 243.575 229.597 237.472C218.162 229.848 201.957 231.723 186.168 234.951C183.064 235.597 180.648 236.472 180.731 237.888C177.971 238.285 175.188 238.494 172.4 238.513C164.839 233.889 156.028 233.222 146.863 234.597L143.843 233.806C141.885 232.868 140.01 231.723 138.156 230.744C132.595 227.557 127.012 224.37 119.056 224.37C112.015 224.37 103.121 221.266 94.2686 218.121C97.4438 204.029 102.539 190.439 109.412 177.733C126.554 180.857 146.904 182.649 163.568 189.814C166.249 190.949 169.032 191.827 171.879 192.438Z" fill="#55038C"/>
<path d="M390.463 311.687C371.404 310.937 348.179 318.352 332.786 307.646C330.703 306.917 328.454 306.126 325.329 305.292C309.77 301.606 284.587 299.314 282.296 278.693C282.296 274.111 284.587 267.237 289.149 264.946C298.314 260.384 309.77 258.093 318.935 260.384C322.601 262.217 324.809 268.466 327.912 272.07C324.35 271.903 320.768 271.549 317.498 271.07C312.915 268.778 312.915 264.196 308.353 261.905C307.456 261.531 306.488 261.355 305.517 261.388C304.545 261.421 303.592 261.664 302.722 262.099C301.853 262.534 301.087 263.151 300.477 263.908C299.867 264.665 299.428 265.545 299.189 266.487C306.062 296.252 345.013 287.088 366.405 278.735C369.509 277.985 371.779 277.464 373.633 276.985C381.027 275.069 389.026 266.279 394.65 261.28C397.503 260.426 400.315 259.53 403.106 258.551C405.044 257.885 406.918 257.156 408.793 256.468C408.465 275.506 404.719 294.329 397.732 312.041H396.753C394.629 311.874 392.588 311.729 390.463 311.687Z" fill="#55038C"/>
<path d="M367.279 176.4C338.118 174.88 315.206 149.697 284.566 145.219C278.984 145.219 273.985 145.01 269.319 144.615C264.653 144.219 260.258 143.615 255.884 142.823L249.635 141.657C241.782 140.532 234.909 135.95 227.139 135.658C223.432 134.603 219.884 133.7 216.495 132.95C199.54 129.201 186.272 128.784 173.004 126.097C169.192 125.347 163.735 124.389 157.652 123.41C176.933 109.782 199.003 100.614 222.264 96.5699C245.526 92.5256 269.395 93.7066 292.144 100.027C314.892 106.348 335.95 117.65 353.791 133.115C371.631 148.579 385.809 167.819 395.295 189.44C392.566 187.961 389.754 186.503 386.963 185.086C380.558 181.849 373.988 178.95 367.279 176.4V176.4Z" fill="#150140"/>
<path d="M115.744 243.929C109.224 246.387 103.017 248.72 97.4762 250.178C95.185 249.261 92.8104 248.095 90.415 247.116C90.5608 243.137 90.8733 239.201 91.3107 235.306C96.9346 237.597 103.538 240.117 110.536 242.783C112.206 243.421 113.961 243.807 115.744 243.929V243.929Z" fill="#55038C"/>
<path d="M302.709 333.787C299.959 332.87 297.21 331.829 295.543 332.475C294.46 335.266 292.169 337.557 292.169 339.848C287.586 326.101 276.151 316.936 262.716 311.333C260.808 310.125 258.749 309.172 256.592 308.5C252.697 306.625 250.052 305.001 247.386 303.418C237.236 297.008 226.364 291.82 214.996 287.962C212.275 287.585 209.511 287.648 206.81 288.15C204.317 288.895 201.777 289.472 199.207 289.879C196.622 290.293 194.013 290.55 191.396 290.649H190.271C202.727 286.046 213.142 274.881 215.725 263.071C217.669 260.717 219.901 258.618 222.37 256.822C227.373 257.954 232.148 259.926 236.492 262.654C243.366 267.008 250.094 271.528 256.78 276.006C257.533 276.671 258.417 277.171 259.374 277.476C260.332 277.781 261.342 277.883 262.341 277.777C268.59 278.672 266.257 269.445 273.131 269.445C270.84 290.066 293.731 301.522 310.103 306.938C311.819 307.646 313.431 308.585 314.894 309.729C323.83 316.748 332.89 323.497 343.722 327.392C345.587 327.694 347.478 327.806 349.366 327.726C355.178 327.517 361.677 325.955 367.78 325.143C370.404 325.143 373.07 325.143 375.736 325.143C381.237 324.984 386.721 324.455 392.15 323.56L392.483 323.685C390.234 328.267 387.776 332.725 385.11 337.057C382.298 337.057 379.257 337.057 376.111 337.057C352.116 341.556 327.475 341.994 302.709 333.787Z" fill="#55038C"/>
<path d="M163.506 365.031C173.067 371.405 204.915 374.571 224.016 380.944C243.116 387.318 265.424 403.253 303.646 400.066C306.542 399.816 309.708 399.67 313.04 399.587C293.383 408.129 272.204 412.617 250.771 412.781C229.338 412.945 208.092 408.783 188.306 400.543C168.52 392.302 150.6 380.154 135.62 364.826C120.639 349.497 108.906 331.303 101.122 311.333C106.258 315.076 111.129 319.168 115.703 323.58C128.471 336.307 153.945 358.615 163.506 365.031Z" fill="#150140"/>
<path d="M380.027 243.429C378.588 243.316 377.155 243.704 375.971 244.528C374.786 245.352 373.923 246.561 373.528 247.949C374.716 257.322 365.551 261.904 361.031 268.778C377.069 238.992 340.43 227.557 319.726 216.475C316.976 214.392 314.164 212.31 311.394 210.227C301.136 202.687 290.243 196.052 278.838 190.397C276.005 189.022 273.151 187.731 270.235 186.544C241.845 193.209 216.641 181.732 193.75 163.444C184.585 156.57 170.837 161.153 161.797 167.985C158.423 169.484 154.778 168.922 151.008 168.214C137.802 165.735 123.138 162.173 119.764 161.319C126.113 152.359 133.365 144.074 141.405 136.595C144.926 137.428 148.175 138.199 150.758 138.844C153.945 139.636 159.09 140.636 165.338 141.74C168.463 142.281 171.837 142.844 175.378 143.406C200.623 140.531 225.806 147.405 248.698 163.444C255.571 165.735 262.445 161.153 268.236 159.278C270.018 158.498 272.023 158.387 273.88 158.965C276.192 159.59 278.484 160.299 280.754 161.048C317.393 177.066 349.491 204.561 391.65 207.227C396.045 209.539 399.982 211.83 403.835 213.976C406.437 224.159 408.014 234.577 408.542 245.074H408.397C398.981 243.967 389.508 243.417 380.027 243.429V243.429Z" fill="#1C0259"/>
<path d="M309.666 374.238C300.694 373.983 291.747 373.155 282.88 371.759C280.869 371.473 278.829 371.473 276.818 371.759C250.99 376.383 221.225 380.966 205.207 355.783C200.624 346.618 209.769 337.453 212.06 328.288C198.333 328.288 189.147 337.453 184.336 350.2C181.857 349.201 179.441 348.118 177.046 347.034C168.035 342.882 159.259 338.237 150.759 333.12C134.845 323.581 125.284 310.875 109.371 304.459C104.785 302.351 100.406 299.819 96.29 296.898C93.2973 286.326 91.4125 275.471 90.666 264.508C93.9571 266.945 97.2273 269.216 100.393 271.299C102.789 272.861 105.101 274.34 107.309 275.652C120.473 284.775 134.199 289.358 148.384 295.69L158.362 300.002L169.089 304.626C175.8 307.416 182.779 309.51 189.918 310.875C192.563 311.229 195.125 311.645 197.667 312.145C200.208 312.645 202.687 313.207 205.853 313.582C208.741 313.125 211.657 312.853 214.58 312.77C237.18 312.353 280.672 310.062 278.401 342.119C275.926 346.367 272.838 350.228 269.236 353.575C262.073 356.962 254.248 358.719 246.324 358.719C238.4 358.719 230.575 356.962 223.412 353.575C239.45 378.758 280.651 367.301 295.961 352.2C297.222 350.851 298.859 349.912 300.66 349.503C302.461 349.095 304.343 349.236 306.063 349.909C317.805 353.02 329.934 354.423 342.077 354.075C346.243 353.596 354.929 352.575 364.219 351.721C367.801 351.513 371.613 351.242 375.466 350.93C367.826 360.777 359.068 369.703 349.367 377.529C343.264 376.841 336.12 376.216 328.538 375.633C322.414 375.154 316.019 374.696 309.666 374.238Z" fill="#1C0259"/>
<path d="M188.397 269.528C188.397 283.276 170.088 280.985 163.214 287.858C164.11 288.441 165.027 288.962 165.943 289.441C147.092 287.962 129.033 283.005 122.764 264.196C122.764 259.614 122.764 255.031 125.055 252.74C141.864 235.889 158.694 244.221 177.295 247.428C184.648 251.678 189.189 258.614 188.397 269.528Z" fill="#55038C"/>
<path d="M280.755 161.153C278.485 160.382 276.193 159.674 273.881 159.07C272.023 158.491 270.019 158.602 268.236 159.383C262.446 161.174 255.572 165.756 248.699 163.548C225.786 147.51 200.624 140.636 175.379 143.511C171.838 142.948 168.464 142.386 165.339 141.844C159.09 140.74 153.946 139.761 150.759 138.949C148.176 138.303 144.926 137.532 141.406 136.699C146.545 131.917 151.994 127.477 157.716 123.41C163.798 124.389 169.255 125.347 173.067 126.097C186.335 128.763 199.604 129.201 216.559 132.95C219.947 133.7 223.495 134.602 227.203 135.658C234.972 135.949 241.783 140.532 249.698 141.657L255.947 142.823C260.321 143.615 264.695 144.219 269.382 144.614C274.069 145.01 279.047 145.219 284.629 145.219C315.207 149.697 338.119 174.88 367.28 176.4C373.968 178.952 380.517 181.851 386.902 185.086C389.714 186.502 392.526 187.96 395.233 189.439C398.758 197.402 401.614 205.644 403.773 214.081C399.941 211.998 395.983 209.644 391.588 207.332C349.471 204.645 317.394 177.171 280.755 161.153Z" fill="#A6089B"/>
<path d="M394.546 261.28C388.922 266.279 380.924 275.069 373.529 276.985C371.675 277.464 369.363 277.985 366.301 278.735C344.889 287.066 305.896 296.252 299.085 266.487C299.324 265.545 299.764 264.665 300.374 263.908C300.983 263.15 301.749 262.533 302.619 262.099C303.488 261.664 304.442 261.421 305.413 261.388C306.385 261.354 307.352 261.531 308.25 261.905C312.812 264.196 312.812 268.778 317.394 271.07C320.768 271.549 324.351 271.903 327.809 272.069C328.598 273.06 329.613 273.847 330.77 274.362C331.927 274.878 333.191 275.108 334.456 275.032C335.72 274.957 336.947 274.578 338.035 273.928C339.122 273.278 340.037 272.376 340.702 271.299C348.721 269.736 355.012 265.758 356.22 257.322C360.907 225.266 317.394 227.557 294.377 222.787C291.857 220.704 289.358 218.621 286.837 216.538C279.399 210.531 271.47 205.159 263.133 200.479C260.405 198.958 257.634 197.563 254.802 196.313C234.91 197.729 214.288 190.855 193.688 183.982C189.106 183.982 182.232 188.564 177.4 191.876C175.67 192.748 173.674 192.926 171.817 192.376C168.963 191.766 166.174 190.887 163.486 189.752C146.822 182.586 126.534 180.795 109.329 177.67C112.414 171.995 115.843 166.513 119.598 161.257C123.056 162.111 137.72 165.673 150.842 168.151C154.612 168.86 158.257 169.422 161.632 167.922C170.672 161.09 184.419 156.508 193.584 163.381C216.496 181.691 241.679 193.147 269.903 186.398C272.819 187.585 275.673 188.877 278.505 190.251C289.911 195.907 300.804 202.541 311.062 210.081C313.874 212.164 316.686 214.247 319.394 216.33C340.098 227.411 376.737 238.846 360.698 268.632C365.281 261.759 374.446 257.176 373.196 247.803C373.593 246.404 374.465 245.187 375.663 244.362C376.86 243.537 378.308 243.155 379.757 243.283C389.239 243.293 398.712 243.863 408.127 244.991H408.273C408.418 247.761 408.481 250.532 408.481 253.323C408.481 254.302 408.481 255.26 408.481 256.239C406.606 256.968 404.732 257.697 402.795 258.322C400.212 259.53 397.4 260.426 394.546 261.28Z" fill="#A6089B"/>
<path d="M138.156 230.681C140.01 231.744 141.884 232.764 143.842 233.743L146.779 234.597C136.49 236.118 125.742 240.159 115.743 243.929C113.961 243.806 112.206 243.42 110.536 242.783C103.537 240.055 96.9345 237.597 91.3105 235.305C91.9731 229.492 92.9606 223.72 94.2683 218.017C103.121 221.204 112.015 224.266 119.055 224.266C127.012 224.308 132.594 227.557 138.156 230.681Z" fill="#A6089B"/>
<path d="M375.736 325.101C373.07 325.101 370.404 325.101 367.779 325.101C361.676 325.913 355.177 327.475 349.366 327.684C347.478 327.764 345.587 327.652 343.721 327.35C332.89 323.455 323.829 316.707 314.893 309.687C313.431 308.543 311.819 307.604 310.103 306.896C293.731 301.564 270.839 290.107 273.13 269.403C266.257 269.403 268.548 278.568 262.341 277.735C261.363 277.835 260.375 277.735 259.436 277.442C258.498 277.148 257.63 276.667 256.883 276.027C250.197 271.548 243.469 267.028 236.596 262.675C232.252 259.946 227.477 257.974 222.473 256.843C220.005 258.639 217.772 260.738 215.829 263.092C213.142 274.881 202.727 286.046 190.229 290.545C182.606 290.212 174.17 290.149 165.901 289.441C164.984 288.962 164.068 288.441 163.172 287.858C170.046 280.984 188.355 283.275 188.355 269.528C189.146 258.613 184.605 251.677 177.253 247.428C178.919 247.72 180.564 247.97 182.252 248.157C179.639 244.278 176.24 240.992 172.274 238.513C175.063 238.493 177.846 238.285 180.606 237.888C180.606 236.472 182.939 235.597 186.043 234.951C201.956 231.723 218.162 229.848 229.618 237.472C239.158 243.575 248.51 249.698 257.779 255.635C260.091 257.114 262.674 258.051 267.194 255.635C273.13 251.115 280.004 248.824 289.148 246.532H312.06C323.517 248.824 341.826 251.115 341.826 267.133C341.874 268.589 341.521 270.03 340.805 271.298C336.551 272.046 332.225 272.304 327.912 272.069C324.808 268.466 322.6 262.217 318.934 260.384C309.769 258.093 298.313 260.384 289.148 264.945C284.586 267.237 282.295 274.11 282.295 278.693C284.586 299.314 309.769 301.605 325.329 305.292C328.453 306.125 330.703 306.917 332.786 307.646C348.179 318.352 371.403 310.937 390.462 311.687C392.545 311.687 394.628 311.874 396.711 311.957H397.69C396.128 315.915 394.42 319.81 392.545 323.601L392.212 323.476C386.763 324.388 381.258 324.931 375.736 325.101V325.101Z" fill="#A6089B"/>
<path d="M330.37 274.11C329.418 273.591 328.581 272.882 327.912 272.028C332.225 272.263 336.551 272.004 340.805 271.257C339.736 272.949 338.072 274.18 336.141 274.708C334.21 275.236 332.152 275.023 330.37 274.11Z" fill="#A6089B"/>
<path d="M146.78 234.597C155.945 233.223 164.756 233.889 172.317 238.513C163.66 238.458 155.057 237.139 146.78 234.597V234.597Z" fill="#A6089B"/>
<path d="M342.285 353.908C330.142 354.257 318.013 352.854 306.271 349.742C304.551 349.069 302.669 348.928 300.868 349.337C299.067 349.745 297.43 350.685 296.169 352.034C280.859 367.135 239.658 378.591 223.62 353.408C230.783 356.796 238.608 358.553 246.532 358.553C254.456 358.553 262.281 356.796 269.444 353.408C273.046 350.061 276.134 346.201 278.609 341.952C280.88 309.896 237.388 312.187 214.788 312.603C211.864 312.687 208.949 312.958 206.061 313.416C202.894 313.041 200.395 312.478 197.875 311.979C195.354 311.479 192.771 311.062 190.126 310.708C182.987 309.343 176.008 307.249 169.297 304.459L158.569 299.918L148.592 295.607C134.407 289.358 120.681 284.692 107.517 275.569C105.1 274.361 102.747 272.882 100.393 271.299C97.2269 269.216 93.9567 266.925 90.6656 264.488C90.4157 260.884 90.249 257.197 90.249 253.51C90.249 251.428 90.249 249.345 90.4157 247.116C92.811 248.199 95.1856 249.199 97.4768 250.178C103.017 248.72 109.225 246.387 115.744 243.929C117.666 244.033 119.594 243.928 121.493 243.616C138.427 241.075 163.152 239.221 177.295 247.428C158.694 244.221 141.864 235.889 125.055 252.74C122.764 255.031 122.764 259.613 122.764 264.196C129.013 282.942 147.092 287.858 165.943 289.441C169.685 291.325 173.783 292.398 177.969 292.588C182.154 292.778 186.332 292.082 190.23 290.545H191.355C193.972 290.446 196.58 290.189 199.166 289.774C201.777 289.388 204.359 288.824 206.894 288.087C209.571 287.616 212.306 287.573 214.996 287.962C226.377 291.811 237.264 296.991 247.428 303.397C250.094 304.98 252.739 306.605 256.634 308.479C258.791 309.151 260.85 310.104 262.758 311.312C276.193 316.936 287.628 326.08 292.211 339.828C292.211 337.536 294.502 335.245 295.585 332.454C297.252 331.808 300.001 332.85 302.751 333.766C327.475 342.098 352.116 341.619 376.112 337.182C379.257 337.182 382.361 337.182 385.11 337.182C382.17 341.926 378.986 346.515 375.57 350.93C371.717 351.242 367.905 351.513 364.322 351.721C355.032 352.408 346.326 353.429 342.285 353.908Z" fill="#A6089B"/>
<path d="M165.942 289.441C174.274 290.149 182.606 290.212 190.271 290.545C186.368 292.088 182.182 292.787 177.989 292.597C173.795 292.407 169.69 291.331 165.942 289.441V289.441Z" fill="#A6089B"/>
<path d="M172.317 238.513C176.282 240.992 179.682 244.278 182.294 248.157C180.607 247.97 178.961 247.72 177.295 247.428C163.152 239.221 138.427 241.075 121.493 243.616C119.594 243.928 117.666 244.032 115.744 243.929C125.742 240.159 136.574 236.118 146.78 234.597C155.056 237.139 163.659 238.458 172.317 238.513V238.513Z" fill="#A6089B"/>
<path d="M109.371 304.459C125.284 310.833 134.845 323.58 150.759 333.141C159.259 338.258 168.034 342.903 177.045 347.055C179.441 348.159 181.857 349.138 184.336 350.221C189.168 337.474 198.333 328.309 212.06 328.309C209.768 337.474 200.624 346.639 205.207 355.804C221.224 380.986 251.031 376.404 276.818 371.78C278.828 371.494 280.869 371.494 282.879 371.78C291.746 373.176 300.694 374.004 309.666 374.258C315.915 374.717 322.414 375.175 328.538 375.654C336.119 376.237 343.264 376.862 349.367 377.549C338.325 386.47 326.135 393.868 313.124 399.545C309.791 399.545 306.625 399.774 303.73 400.024C265.508 403.211 243.324 387.277 224.099 380.903C204.873 374.529 173.067 371.28 163.506 365.031C153.945 358.782 128.471 336.307 115.724 323.58C111.15 319.168 106.279 315.076 101.143 311.333C99.31 306.625 97.6853 301.814 96.3105 296.898C100.42 299.818 104.792 302.349 109.371 304.459V304.459Z" fill="#A6089B"/>
<g opacity="0.8">
<path opacity="0.5" d="M257.843 412.543C255.072 412.689 252.302 412.751 249.511 412.751C246.72 412.751 244.554 412.751 242.096 412.585L239.846 412.439C238.076 412.439 236.326 412.21 234.597 412.043L232.223 411.814C230.285 411.606 228.327 411.356 226.411 411.064C225.932 411.064 225.453 411.064 224.974 410.877C222.641 410.523 220.308 410.085 217.975 409.627L215.892 409.169C214.247 408.815 212.601 408.44 210.977 408.044L208.477 407.398C206.894 406.982 205.332 406.523 203.77 406.065L201.687 405.399C199.604 404.732 197.396 404.003 195.292 403.316L193.209 402.482C191.751 401.941 190.314 401.378 188.877 400.774L186.065 399.545L182.399 397.9L179.649 396.588C178.274 395.921 176.921 395.213 175.587 394.505C174.254 393.797 172.817 393.026 171.422 392.255C170.026 391.484 169.214 391.005 168.131 390.36C167.047 389.714 166.048 389.089 165.048 388.443L162.444 386.777C161.382 386.069 160.361 385.381 159.257 384.694C158.528 384.194 157.799 383.653 157.174 383.132C154.744 381.41 152.37 379.619 150.051 377.758L149.384 377.237C148.218 376.279 147.051 375.3 145.906 374.3L144.385 372.988C143.239 371.967 142.094 370.905 140.969 369.884L139.844 368.822C135.97 365.114 132.262 361.219 128.784 357.158L128.346 356.658C127.201 355.304 126.055 353.908 124.951 352.492L124.472 351.888C119.73 345.859 115.428 339.497 111.6 332.85L111.475 332.641C107.563 325.815 104.165 318.706 101.31 311.375V311.375C100.414 309.042 99.5601 306.688 98.7686 304.313C97.9771 301.939 97.2273 299.523 96.5399 297.106C95.8109 294.544 95.1443 291.941 94.5611 289.316C93.957 286.692 93.4155 284.026 92.9572 281.339C92.4781 278.652 92.0824 275.944 91.7491 273.215C91.4159 270.486 91.1451 267.737 90.9576 264.883V264.758C90.8535 263.217 90.7701 261.655 90.7077 260.093C90.6035 258.01 90.541 255.927 90.541 253.844C90.541 249.99 90.7285 246.199 90.9993 242.429L91.1242 240.659C91.4992 236.055 92.0824 231.515 92.8322 227.016C92.8322 226.87 92.8322 226.724 92.8322 226.578C94.1116 218.618 95.9845 210.764 98.4354 203.083L98.9978 201.479C99.456 200.104 99.9351 198.75 100.435 197.313C100.935 195.876 101.706 194.022 102.393 192.397C102.768 191.46 103.184 190.543 103.58 189.627C104.163 188.294 104.767 186.961 105.372 185.648C105.726 184.919 106.059 184.19 106.434 183.461C107.392 181.503 108.371 179.545 109.412 177.65C109.537 177.4 109.683 177.171 109.808 176.942C110.683 175.317 111.6 173.734 112.558 172.151C113.058 171.297 113.578 170.443 114.099 169.61C114.62 168.777 114.786 168.527 115.141 167.985C118.074 163.38 121.245 158.931 124.639 154.654V154.654C126.305 152.571 128.013 150.488 129.763 148.405L130.013 148.114C131.721 146.177 133.47 144.302 135.262 142.448L135.616 142.073C138.49 139.115 141.49 136.303 144.572 133.596L146.01 132.346C155.779 124.046 166.515 116.954 177.983 111.225L178.295 111.058C179.899 110.267 181.503 109.496 183.128 108.746L184.315 108.225L186.398 107.33C187.544 107.33 188.668 107.142 189.814 107.08L192.168 106.934C194.563 106.747 197.021 106.747 199.52 106.747C202.02 106.747 204.436 106.747 206.873 106.934C207.602 106.934 208.31 106.934 208.956 107.059C210.768 107.059 212.58 107.309 214.372 107.476C215.059 107.476 215.767 107.58 216.455 107.663C218.829 107.913 221.204 108.205 223.537 108.559L224.453 108.725C226.536 109.038 228.619 109.413 230.556 109.809L232.847 110.288C234.493 110.642 236.139 111.017 237.784 111.433L239.867 111.954C241.95 112.516 244.241 113.141 246.387 113.808L248.157 114.391C249.782 114.912 251.386 115.453 252.989 116.016C253.823 116.328 254.677 116.62 255.51 116.953C256.905 117.474 258.301 118.015 259.676 118.578L262.05 119.557C264.008 120.39 265.925 121.265 267.841 122.181L270.361 123.431C271.528 124.014 272.715 124.618 273.881 125.243L276.735 126.784L279.839 128.576C280.776 129.138 281.734 129.659 282.651 130.242C284.317 131.263 285.962 132.325 287.587 133.387L290.67 135.47L292.982 137.116L296.148 139.47L298.043 140.969C300.501 142.906 302.918 144.906 305.25 146.989L305.417 147.135L308.958 150.301L310.291 151.571C311.395 152.655 312.499 153.654 313.582 154.842L314.311 155.612C317.915 159.362 321.352 163.278 324.559 167.36C324.788 167.652 325.018 167.923 325.226 168.214C329.718 173.975 333.81 180.037 337.474 186.357L337.807 186.94C341.562 193.503 344.847 200.325 347.638 207.353L348.076 208.457C348.701 210.06 349.305 211.706 349.888 213.331L350.638 215.539C351.096 216.955 351.575 218.35 351.992 219.704C352.408 221.058 352.679 222.058 352.991 223.225C356.875 237.133 358.845 251.505 358.844 265.946C358.844 266.925 358.844 267.883 358.844 268.862C358.49 289.972 353.922 310.799 345.41 330.121L345.097 330.829C338.678 345.198 330.164 358.535 319.831 370.405L319.706 370.551C311.398 380.064 301.986 388.552 291.67 395.838L290.545 396.65C289.295 397.525 288.045 398.379 286.754 399.212L285.712 399.9C283.275 401.462 280.818 402.961 278.297 404.399L277.193 405.024C275.888 405.76 274.576 406.454 273.257 407.107L271.715 407.898C268.938 409.287 266.105 410.634 263.217 411.939H263.05L262.779 412.064L259.572 412.314C258.968 412.439 258.426 412.522 257.843 412.543Z" fill="black"/>
</g>
</g>
<defs>
<clipPath id="clip0">
<rect width="331" height="331" fill="white" transform="translate(84 88)"/>
</clipPath>
</defs>
</svg>
