<svg width="1000" height="1500" viewBox="0 0 1000 1500" fill="none" xmlns="http://www.w3.org/2000/svg">
<mask id="mask0" mask-type="alpha" maskUnits="userSpaceOnUse" x="0" y="0" width="1000" height="1500">
<rect width="1000" height="1500" fill="#C4C4C4"/>
</mask>
<g mask="url(#mask0)">
<path d="M71.4233 68.4386C71.582 67.3427 71.3068 66.2282 70.6561 65.3317C70.0055 64.4353 69.0306 63.8276 67.9386 63.6377C66.8495 63.7745 65.8539 64.3219 65.1554 65.1677C64.4568 66.0136 64.1081 67.0941 64.1806 68.1883C64.0219 69.2842 64.2971 70.3987 64.9478 71.2951C65.5985 72.1915 66.5733 72.7992 67.6653 72.9891C68.7544 72.8523 69.75 72.305 70.4486 71.4591C71.1471 70.6133 71.4958 69.5327 71.4233 68.4386V68.4386Z" fill="white"/>
<path d="M423.629 0.839265C423.716 0.173613 423.6 -0.502789 423.294 -1.10083C422.989 -1.69888 422.51 -2.19047 421.919 -2.51085C421.328 -2.83123 420.655 -2.96537 419.986 -2.89556C419.318 -2.82576 418.686 -2.5553 418.175 -2.11982C417.664 -1.68434 417.296 -1.10427 417.121 -0.456078C416.947 0.192118 416.972 0.878029 417.195 1.51127C417.419 2.14452 417.828 2.69536 418.371 3.09124C418.914 3.48712 419.564 3.70944 420.236 3.72891C420.649 3.76312 421.064 3.71539 421.459 3.58847C421.853 3.46156 422.219 3.25794 422.534 2.98937C422.85 2.72081 423.109 2.39258 423.297 2.02358C423.485 1.65457 423.598 1.25208 423.629 0.839265V0.839265Z" fill="white"/>
<path d="M288.181 78.04C288.258 77.3258 288.05 76.61 287.603 76.0478C287.155 75.4856 286.504 75.1223 285.79 75.0366C285.073 75.0948 284.406 75.4284 283.931 75.9673C283.455 76.5062 283.207 77.2084 283.239 77.9262C283.171 78.2831 283.182 78.6504 283.271 79.0026C283.36 79.3548 283.525 79.6834 283.753 79.9657C283.982 80.248 284.27 80.4772 284.596 80.6373C284.922 80.7975 285.279 80.8848 285.643 80.8931C286.006 80.9015 286.367 80.8307 286.701 80.6858C287.034 80.5408 287.332 80.3251 287.573 80.0536C287.815 79.7822 287.994 79.4614 288.099 79.1137C288.204 78.766 288.232 78.3996 288.181 78.04V78.04Z" fill="white"/>
<path d="M665.394 9.28044C665.32 8.81096 665.114 8.37215 664.8 8.01533C664.485 7.6585 664.076 7.39842 663.619 7.26547C663.163 7.13252 662.677 7.1322 662.221 7.26457C661.764 7.39693 661.354 7.65651 661.039 8.01293C660.725 8.36935 660.518 8.8079 660.444 9.27728C660.37 9.74666 660.431 10.2275 660.62 10.6635C660.809 11.0996 661.118 11.4728 661.512 11.7396C661.906 12.0064 662.367 12.1557 662.843 12.1701C663.562 12.1175 664.231 11.7855 664.708 11.2453C665.185 10.7051 665.431 9.99972 665.394 9.28044Z" fill="white"/>
<path d="M590.143 58.4267C590.184 58.0725 590.155 57.7137 590.057 57.3708C589.959 57.0279 589.794 56.7077 589.572 56.4287C589.35 56.1496 589.074 55.9171 588.762 55.7446C588.45 55.5721 588.106 55.4629 587.751 55.4233C587.032 55.4759 586.363 55.8079 585.886 56.3481C585.409 56.8883 585.163 57.5937 585.201 58.313C585.115 59.0111 585.306 59.7148 585.731 60.2754C586.156 60.8359 586.782 61.2092 587.478 61.3163C587.843 61.3017 588.202 61.2153 588.533 61.0621C588.865 60.9089 589.163 60.6919 589.41 60.4235C589.658 60.1551 589.85 59.8406 589.976 59.498C590.101 59.1554 590.158 58.7914 590.143 58.4267V58.4267Z" fill="white"/>
<path d="M749.985 88.6886C749.912 88.2191 749.705 87.7803 749.391 87.4235C749.077 87.0667 748.668 86.8066 748.211 86.6737C747.754 86.5407 747.269 86.5404 746.812 86.6728C746.356 86.8051 745.946 87.0647 745.631 87.4211C745.317 87.7775 745.11 88.216 745.036 88.6854C744.961 89.1548 745.022 89.6356 745.211 90.0717C745.401 90.5077 745.71 90.8809 746.104 91.1477C746.497 91.4145 746.959 91.5638 747.434 91.5782C748.153 91.5256 748.823 91.1936 749.3 90.6534C749.777 90.1132 750.023 89.4078 749.985 88.6886V88.6886Z" fill="white"/>
<path d="M112.967 556.057C112.893 555.587 112.687 555.148 112.373 554.792C112.059 554.435 111.649 554.175 111.193 554.042C110.736 553.909 110.251 553.909 109.794 554.041C109.337 554.173 108.927 554.433 108.613 554.789C108.298 555.146 108.091 555.584 108.017 556.054C107.943 556.523 108.004 557.004 108.193 557.44C108.382 557.876 108.692 558.249 109.085 558.516C109.479 558.783 109.94 558.932 110.416 558.946C111.133 558.888 111.799 558.554 112.275 558.016C112.751 557.477 112.999 556.774 112.967 556.057V556.057Z" fill="white"/>
<path d="M917.863 81.4525C917.785 80.9859 917.577 80.5509 917.262 80.1979C916.946 79.8449 916.537 79.5884 916.082 79.4581C915.627 79.3278 915.144 79.3291 914.689 79.4618C914.235 79.5944 913.827 79.8531 913.514 80.2078C913.2 80.5624 912.994 80.9985 912.919 81.4656C912.843 81.9326 912.902 82.4114 913.088 82.8465C913.274 83.2816 913.579 83.6552 913.969 83.924C914.359 84.1927 914.817 84.3456 915.29 84.3649C916.013 84.3067 916.685 83.9707 917.165 83.4275C917.645 82.8844 917.895 82.1764 917.863 81.4525V81.4525Z" fill="white"/>
<path d="M151.094 294.102C151.173 293.405 150.981 292.704 150.557 292.145C150.133 291.585 149.51 291.211 148.816 291.098C148.095 291.151 147.423 291.482 146.943 292.021C146.462 292.561 146.211 293.266 146.243 293.988C146.175 294.345 146.186 294.712 146.275 295.064C146.364 295.416 146.529 295.745 146.757 296.027C146.986 296.31 147.274 296.539 147.6 296.699C147.926 296.859 148.283 296.946 148.647 296.955C149.01 296.963 149.371 296.892 149.705 296.747C150.038 296.602 150.336 296.387 150.577 296.115C150.819 295.844 150.998 295.523 151.103 295.175C151.208 294.828 151.236 294.461 151.185 294.102H151.094Z" fill="white"/>
<path d="M50.8802 441.222C50.9595 440.525 50.7672 439.824 50.3431 439.265C49.9191 438.706 49.2958 438.331 48.6026 438.219C47.8857 438.277 47.2194 438.611 46.7436 439.149C46.2679 439.688 46.0199 440.391 46.0517 441.108C45.9919 441.467 46.0109 441.834 46.1075 442.185C46.2041 442.535 46.376 442.861 46.6111 443.138C46.8463 443.415 47.1392 443.638 47.4693 443.791C47.7995 443.944 48.159 444.023 48.5229 444.023C48.8868 444.023 49.2463 443.944 49.5765 443.791C49.9066 443.638 50.1995 443.415 50.4347 443.138C50.6699 442.861 50.8418 442.535 50.9384 442.185C51.035 441.834 51.054 441.467 50.9941 441.108L50.8802 441.222Z" fill="white"/>
<path d="M813.688 246.662C813.688 244.045 814.439 241.907 815.51 241.884C816.58 241.861 817.559 243.954 817.628 246.571C817.696 249.188 816.876 251.304 815.783 251.326C814.69 251.349 813.756 249.256 813.688 246.662Z" fill="white"/>
<path d="M321.548 26.5951C321.685 23.9785 320.887 21.817 319.794 21.7487C318.701 21.6805 317.722 23.751 317.517 26.2993C317.312 28.8476 318.177 31.0546 319.27 31.1229C320.364 31.1911 321.411 29.1889 321.548 26.5951Z" fill="white"/>
<path d="M843.365 29.553C843.365 26.9365 842.158 24.7977 840.518 24.7522C838.878 24.7067 837.489 26.7999 837.421 29.3027C837.352 31.8056 838.628 34.0353 840.245 34.0808C841.862 34.1263 843.274 32.1468 843.365 29.553Z" fill="white"/>
<path d="M163.074 349.323C163.074 346.707 162.345 344.568 161.252 344.545C160.159 344.522 159.202 346.616 159.134 349.232C159.066 351.849 159.885 353.965 160.979 353.988C162.072 354.01 163.006 351.917 163.074 349.323Z" fill="white"/>
<path d="M933.807 107.232C933.807 104.615 932.464 102.476 930.641 102.431C928.819 102.385 927.293 104.456 927.225 106.981C927.157 109.507 928.569 111.737 930.368 111.782C932.167 111.828 933.807 109.826 933.807 107.232Z" fill="white"/>
<path d="M41.5429 321.405C41.4692 321.875 41.2632 322.314 40.949 322.67C40.6348 323.027 40.2254 323.287 39.7687 323.42C39.312 323.553 38.8269 323.554 38.37 323.421C37.9131 323.289 37.5034 323.029 37.1888 322.673C36.8742 322.316 36.6676 321.878 36.5933 321.408C36.5189 320.939 36.5799 320.458 36.769 320.022C36.9582 319.586 37.2677 319.213 37.6613 318.946C38.055 318.679 38.5165 318.53 38.992 318.516C39.7089 318.574 40.3753 318.907 40.851 319.446C41.3267 319.985 41.5747 320.687 41.5429 321.405V321.405Z" fill="white"/>
<path d="M862.313 19.3372C862.235 19.8048 862.025 20.2408 861.709 20.5943C861.393 20.9477 860.983 21.2042 860.526 21.3338C860.07 21.4635 859.586 21.4609 859.131 21.3265C858.676 21.1921 858.268 20.9313 857.956 20.5745C857.643 20.2178 857.439 19.7796 857.366 19.3112C857.293 18.8428 857.355 18.3633 857.544 17.9285C857.733 17.4937 858.042 17.1216 858.435 16.8554C858.827 16.5892 859.287 16.4399 859.762 16.4248C860.483 16.483 861.153 16.8199 861.629 17.3637C862.105 17.9076 862.35 18.6155 862.313 19.3372V19.3372Z" fill="white"/>
<path d="M79.7141 583.36C79.8052 584.059 79.6174 584.766 79.1913 585.328C78.7651 585.89 78.1349 586.262 77.4365 586.364C76.7156 586.311 76.0435 585.98 75.563 585.44C75.0825 584.901 74.8314 584.195 74.8629 583.474C74.7954 583.117 74.8064 582.75 74.8953 582.398C74.9841 582.045 75.1486 581.717 75.3774 581.434C75.6061 581.152 75.8936 580.923 76.2199 580.763C76.5462 580.603 76.9035 580.515 77.2669 580.507C77.6304 580.499 77.9913 580.569 78.3247 580.714C78.658 580.859 78.9558 581.075 79.1973 581.347C79.4388 581.618 79.6183 581.939 79.7232 582.286C79.8282 582.634 79.8562 583.001 79.8052 583.36H79.7141Z" fill="white"/>
<path d="M128.455 286.343C128.523 286.7 128.512 287.067 128.423 287.419C128.334 287.771 128.17 288.1 127.941 288.382C127.712 288.664 127.425 288.894 127.098 289.054C126.772 289.214 126.415 289.301 126.051 289.31C125.688 289.318 125.327 289.247 124.994 289.102C124.66 288.957 124.362 288.742 124.121 288.47C123.879 288.199 123.7 287.878 123.595 287.53C123.49 287.182 123.462 286.816 123.513 286.457C123.428 285.758 123.618 285.055 124.043 284.494C124.468 283.934 125.095 283.56 125.791 283.453C126.157 283.465 126.517 283.549 126.85 283.701C127.182 283.853 127.482 284.07 127.73 284.339C127.978 284.608 128.17 284.924 128.294 285.268C128.419 285.612 128.474 285.977 128.455 286.343V286.343Z" fill="white"/>
<path d="M485.874 138.563C485.874 141.179 485.122 143.318 484.029 143.341C482.936 143.363 482.002 141.27 481.911 138.653C481.82 136.037 482.663 133.921 483.756 133.898C484.849 133.875 485.806 135.969 485.874 138.563Z" fill="white"/>
<path d="M91.6711 528.047C91.6711 530.664 90.9195 532.803 89.8262 532.826C88.733 532.848 87.7764 530.755 87.7081 528.161C87.6398 525.567 88.4597 523.406 89.5529 523.383C90.6462 523.36 91.58 525.545 91.6711 528.047Z" fill="white"/>
<path d="M90.2383 765.656C90.2383 763.04 91.5821 760.878 93.4041 760.856C95.2262 760.833 96.7522 762.881 96.8205 765.406C96.8888 767.932 95.4767 770.162 93.6774 770.207C91.8781 770.253 90.3066 768.25 90.2383 765.656Z" fill="white"/>
<path d="M877.711 210.962C877.711 208.346 878.964 206.207 880.695 206.161C882.425 206.116 883.883 208.209 883.974 210.712C884.065 213.215 882.699 215.445 880.968 215.49C879.237 215.536 877.779 213.556 877.711 210.962Z" fill="white"/>
<path d="M695.982 116.061C695.982 114.422 696.529 113.103 697.326 113.08C698.123 113.057 698.806 114.354 698.852 115.992C698.898 117.63 698.305 118.95 697.508 118.973C696.711 118.996 696.028 117.676 695.982 116.061Z" fill="white"/>
<path d="M557.209 180.678C557.209 179.04 558.052 177.697 559.19 177.675C560.329 177.652 561.286 178.949 561.331 180.587C561.377 182.225 560.489 183.545 559.35 183.568C558.211 183.59 557.255 182.203 557.209 180.678Z" fill="white"/>
<path d="M775.082 99.9277C775.082 98.2895 775.56 96.9698 776.244 96.9471C776.927 96.9243 777.496 98.244 777.565 99.8594C777.633 101.475 777.086 102.84 776.403 102.84C775.72 102.84 775.128 101.566 775.082 99.9277Z" fill="white"/>
<path d="M896.613 286.115C896.625 285.706 896.717 285.303 896.885 284.929C897.053 284.555 897.293 284.218 897.591 283.937C897.889 283.656 898.24 283.437 898.623 283.291C899.007 283.146 899.415 283.077 899.825 283.089C900.656 283.032 901.477 283.303 902.111 283.843C902.745 284.383 903.143 285.149 903.218 285.979C903.206 286.388 903.114 286.791 902.946 287.165C902.778 287.538 902.538 287.876 902.24 288.157C901.942 288.438 901.591 288.657 901.208 288.803C900.825 288.948 900.417 289.017 900.007 289.005C899.174 289.068 898.35 288.799 897.714 288.258C897.079 287.717 896.683 286.947 896.613 286.115V286.115Z" fill="white"/>
<path d="M40.0634 667.569C39.9841 666.872 40.1764 666.171 40.6005 665.612C41.0245 665.053 41.6478 664.678 42.341 664.565C43.0639 664.624 43.7361 664.96 44.2161 665.503C44.6961 666.046 44.9465 666.754 44.9147 667.478C44.9917 668.192 44.7839 668.908 44.3362 669.47C43.8886 670.032 43.2372 670.395 42.5232 670.481C41.8186 670.401 41.1714 670.055 40.7141 669.513C40.2567 668.972 40.024 668.276 40.0634 667.569V667.569Z" fill="white"/>
<path d="M519.493 257.06C519.416 256.343 519.623 255.625 520.07 255.059C520.517 254.493 521.169 254.125 521.885 254.034C522.603 254.097 523.27 254.436 523.745 254.978C524.22 255.521 524.468 256.226 524.436 256.946C524.495 257.305 524.476 257.672 524.38 258.022C524.283 258.373 524.111 258.698 523.876 258.976C523.641 259.253 523.348 259.476 523.018 259.629C522.688 259.782 522.328 259.861 521.964 259.861C521.6 259.861 521.241 259.782 520.911 259.629C520.581 259.476 520.288 259.253 520.053 258.976C519.817 258.698 519.645 258.373 519.549 258.022C519.452 257.672 519.433 257.305 519.493 256.946V257.06Z" fill="white"/>
<path d="M660.498 294.648C660.456 294.294 660.486 293.935 660.584 293.592C660.682 293.249 660.847 292.929 661.069 292.65C661.291 292.371 661.566 292.138 661.878 291.966C662.191 291.793 662.534 291.684 662.889 291.644C663.494 291.518 664.124 291.582 664.692 291.826C665.26 292.07 665.738 292.483 666.063 293.009C666.387 293.535 666.541 294.147 666.504 294.764C666.467 295.381 666.241 295.971 665.856 296.454C665.471 296.937 664.947 297.291 664.353 297.465C663.76 297.64 663.128 297.628 662.542 297.43C661.956 297.233 661.446 296.86 661.08 296.362C660.714 295.864 660.511 295.265 660.498 294.648V294.648Z" fill="white"/>
<path d="M766.337 222.976C766.41 222.506 766.616 222.067 766.93 221.711C767.245 221.354 767.654 221.094 768.111 220.961C768.567 220.828 769.053 220.828 769.509 220.96C769.966 221.092 770.376 221.352 770.691 221.708C771.005 222.065 771.212 222.503 771.286 222.973C771.361 223.442 771.3 223.923 771.11 224.359C770.921 224.795 770.612 225.168 770.218 225.435C769.824 225.702 769.363 225.851 768.887 225.865C768.529 225.845 768.179 225.754 767.856 225.597C767.533 225.441 767.245 225.222 767.008 224.953C766.77 224.684 766.589 224.371 766.474 224.032C766.358 223.692 766.312 223.333 766.337 222.976V222.976Z" fill="white"/>
<path d="M420.896 298.539C420.896 295.945 422.08 293.783 423.72 293.76C425.36 293.738 426.749 295.785 426.84 298.311C426.931 300.837 425.633 303.066 423.993 303.112C422.353 303.157 420.987 301.155 420.896 298.539Z" fill="white"/>
<path d="M326.924 284.75C327.001 284.284 327.21 283.849 327.525 283.496C327.841 283.143 328.25 282.886 328.705 282.756C329.16 282.626 329.643 282.627 330.097 282.76C330.552 282.892 330.96 283.151 331.273 283.506C331.586 283.86 331.793 284.296 331.868 284.763C331.944 285.23 331.885 285.709 331.699 286.144C331.513 286.579 331.208 286.953 330.818 287.222C330.428 287.491 329.97 287.643 329.497 287.663C328.774 287.605 328.102 287.269 327.622 286.725C327.142 286.182 326.892 285.474 326.924 284.75V284.75Z" fill="white"/>
<path d="M217.736 246.526C217.736 243.909 219.08 241.77 220.925 241.725C222.77 241.679 224.296 243.773 224.364 246.275C224.432 248.778 223.02 251.031 221.175 251.076C219.331 251.122 217.805 249.119 217.736 246.526Z" fill="white"/>
<path d="M300.344 290.529C300.344 287.935 301.528 285.774 303.168 285.751C304.808 285.728 306.197 287.799 306.266 290.302C306.334 292.805 305.081 295.057 303.441 295.103C301.801 295.148 300.412 293.146 300.344 290.529Z" fill="white"/>
<path d="M337.355 152.624C337.355 150.008 338.699 147.869 340.521 147.823C342.343 147.778 343.892 149.848 343.961 152.374C344.029 154.9 342.617 157.129 340.795 157.175C338.973 157.22 337.447 155.264 337.355 152.624Z" fill="white"/>
<path d="M161.708 682.358C161.708 684.975 163.052 687.136 164.874 687.159C166.696 687.182 168.222 685.134 168.29 682.608C168.359 680.083 166.969 677.853 165.147 677.807C163.325 677.762 161.708 679.764 161.708 682.358Z" fill="white"/>
<path d="M949.137 152.442C949.137 155.059 950.389 157.197 952.12 157.243C953.851 157.288 955.309 155.195 955.377 152.692C955.445 150.189 954.124 147.937 952.394 147.891C950.663 147.846 949.205 149.848 949.137 152.442Z" fill="white"/>
<path d="M767.407 247.367C767.407 248.982 767.954 250.325 768.751 250.348C769.548 250.37 770.231 249.051 770.277 247.413C770.323 245.774 769.73 244.455 768.933 244.432C768.136 244.409 767.544 245.729 767.407 247.367Z" fill="white"/>
<path d="M621.482 278.835C621.434 279.181 621.455 279.534 621.543 279.873C621.632 280.211 621.786 280.529 621.998 280.808C622.209 281.087 622.474 281.322 622.776 281.498C623.079 281.675 623.413 281.791 623.76 281.838C625.013 281.838 626.038 280.564 626.038 278.948C626.038 277.333 625.126 275.968 623.76 275.945C622.393 275.922 621.551 277.219 621.482 278.835Z" fill="white"/>
<path d="M628.61 182.726C628.61 184.365 629.453 185.707 630.592 185.73C631.731 185.752 632.687 184.456 632.733 182.84C632.778 181.225 631.913 179.928 630.888 179.928C629.863 179.928 628.61 181.111 628.61 182.726Z" fill="white"/>
<path d="M846.508 263.476C846.508 265.114 846.986 266.434 847.647 266.457C848.307 266.48 848.922 265.16 848.968 263.545C849.013 261.929 848.512 260.564 847.829 260.564C847.145 260.564 846.553 261.838 846.508 263.476Z" fill="white"/>
<path d="M111.6 780.446C111.52 781.143 111.713 781.844 112.137 782.403C112.561 782.962 113.184 783.337 113.877 783.449C114.6 783.391 115.272 783.055 115.752 782.512C116.232 781.969 116.483 781.261 116.451 780.537C116.528 779.823 116.32 779.107 115.872 778.545C115.425 777.983 114.773 777.619 114.059 777.534C113.355 777.614 112.707 777.96 112.25 778.502C111.793 779.043 111.56 779.739 111.6 780.446V780.446Z" fill="white"/>
<path d="M594.766 106.367C594.681 107.065 594.871 107.769 595.296 108.329C595.721 108.89 596.348 109.263 597.044 109.37C597.765 109.318 598.437 108.987 598.917 108.447C599.398 107.908 599.649 107.202 599.617 106.481C599.685 106.124 599.674 105.757 599.585 105.404C599.496 105.052 599.332 104.724 599.103 104.441C598.874 104.159 598.587 103.93 598.26 103.77C597.934 103.609 597.577 103.522 597.213 103.514C596.85 103.505 596.489 103.576 596.156 103.721C595.822 103.866 595.525 104.082 595.283 104.353C595.042 104.625 594.862 104.946 594.757 105.293C594.652 105.641 594.624 106.007 594.675 106.367H594.766Z" fill="white"/>
<path d="M837.762 140.428C837.835 140.898 838.041 141.337 838.356 141.693C838.67 142.05 839.079 142.31 839.536 142.443C839.993 142.576 840.478 142.576 840.935 142.444C841.391 142.312 841.801 142.052 842.116 141.696C842.43 141.339 842.637 140.901 842.711 140.431C842.786 139.962 842.725 139.481 842.536 139.045C842.346 138.609 842.037 138.236 841.643 137.969C841.25 137.702 840.788 137.553 840.313 137.539C839.594 137.591 838.924 137.923 838.447 138.463C837.97 139.004 837.724 139.709 837.762 140.428V140.428Z" fill="white"/>
<path d="M65.1848 179.199C65.105 179.899 65.2966 180.603 65.7203 181.166C66.1439 181.729 66.7674 182.108 67.4624 182.226C68.1854 182.167 68.8575 181.831 69.3375 181.288C69.8175 180.745 70.0679 180.037 70.0361 179.313C70.096 178.955 70.077 178.587 69.9804 178.237C69.8838 177.886 69.7119 177.561 69.4767 177.284C69.2415 177.006 68.9487 176.783 68.6185 176.63C68.2883 176.478 67.9288 176.398 67.5649 176.398C67.201 176.398 66.8415 176.478 66.5113 176.63C66.1812 176.783 65.8883 177.006 65.6531 177.284C65.418 177.561 65.2461 177.886 65.1495 178.237C65.0529 178.587 65.0338 178.955 65.0937 179.313L65.1848 179.199Z" fill="white"/>
<path d="M408.779 210.758C408.779 213.352 410.123 215.513 411.945 215.536C413.767 215.559 415.293 213.511 415.384 210.985C415.475 208.46 414.041 206.23 412.218 206.184C410.396 206.139 408.87 208.141 408.779 210.758Z" fill="white"/>
<path d="M154.26 299.38C154.26 301.997 155.444 304.135 157.084 304.181C158.724 304.226 160.113 302.133 160.182 299.517C160.25 296.9 158.997 294.761 157.357 294.738C155.717 294.716 154.328 296.764 154.26 299.38Z" fill="white"/>
<path d="M727.346 6.84635C727.157 5.05706 727.516 3.25265 728.375 1.67118C729.233 0.0897174 730.552 -1.19444 732.157 -2.01183C733.761 -2.82921 735.576 -3.14142 737.361 -2.90721C739.147 -2.673 740.82 -1.90342 742.159 -0.7C743.498 0.503416 744.44 2.0841 744.861 3.83343C745.282 5.58277 745.162 7.41857 744.517 9.09852C743.872 10.7785 742.733 12.2236 741.249 13.2433C739.765 14.2629 738.007 14.8092 736.206 14.8099C733.975 14.9215 731.791 14.1466 730.131 12.6543C728.471 11.1621 727.47 9.07395 727.346 6.84635V6.84635Z" fill="white"/>
<path d="M113.879 337.97C113.685 336.18 114.04 334.374 114.895 332.79C115.751 331.205 117.067 329.918 118.671 329.097C120.275 328.276 122.09 327.96 123.877 328.191C125.664 328.423 127.338 329.19 128.679 330.392C130.021 331.594 130.965 333.174 131.389 334.924C131.812 336.674 131.694 338.511 131.05 340.192C130.407 341.873 129.268 343.32 127.783 344.341C126.299 345.362 124.54 345.909 122.738 345.911C120.512 346.022 118.331 345.25 116.671 343.763C115.012 342.276 114.008 340.193 113.879 337.97V337.97Z" fill="white"/>
<path d="M768.137 589.23C768.301 588.133 768.028 587.016 767.377 586.118C766.725 585.22 765.747 584.614 764.652 584.429C763.565 584.571 762.573 585.12 761.875 585.965C761.178 586.809 760.827 587.887 760.894 588.98C760.735 590.078 761.009 591.196 761.659 592.096C762.31 592.996 763.285 593.608 764.378 593.803C765.469 593.661 766.465 593.109 767.163 592.26C767.861 591.41 768.209 590.327 768.137 589.23Z" fill="white"/>
<path d="M785.059 514.146C785.059 511.529 783.851 509.39 782.212 509.367C780.572 509.345 779.205 511.392 779.114 513.918C779.023 516.444 780.321 518.673 781.961 518.719C783.601 518.764 784.967 516.671 785.059 514.146Z" fill="white"/>
<path d="M629.59 557.626C629.725 556.483 629.4 555.333 628.687 554.429C627.974 553.524 626.93 552.939 625.786 552.803C624.646 552.884 623.583 553.404 622.818 554.253C622.054 555.101 621.648 556.212 621.686 557.353C621.575 557.925 621.589 558.513 621.729 559.079C621.868 559.644 622.129 560.172 622.494 560.626C622.859 561.08 623.318 561.449 623.84 561.708C624.362 561.966 624.934 562.108 625.517 562.123C626.099 562.138 626.678 562.027 627.213 561.795C627.748 561.564 628.226 561.219 628.613 560.785C629.001 560.35 629.289 559.836 629.458 559.279C629.626 558.722 629.671 558.134 629.59 557.558V557.626Z" fill="white"/>
<path d="M651.113 458.969C651.113 456.353 649.769 454.191 647.97 454.146C646.171 454.1 644.599 456.194 644.531 458.81C644.462 461.427 645.875 463.565 647.674 463.611C649.473 463.656 651.045 461.563 651.113 458.969Z" fill="white"/>
<path d="M879.009 500.357C879.094 499.659 878.904 498.955 878.479 498.395C878.054 497.834 877.428 497.461 876.732 497.354C876.013 497.406 875.343 497.738 874.866 498.278C874.389 498.818 874.143 499.524 874.181 500.243C874.089 500.945 874.277 501.654 874.702 502.22C875.128 502.786 875.758 503.162 876.458 503.269C877.18 503.211 877.849 502.874 878.326 502.33C878.802 501.787 879.047 501.078 879.009 500.357Z" fill="white"/>
<path d="M701.29 360.881C701.369 360.184 701.177 359.483 700.753 358.924C700.329 358.365 699.705 357.99 699.012 357.878C698.291 357.931 697.619 358.262 697.139 358.801C696.658 359.341 696.407 360.046 696.438 360.768C696.379 361.126 696.398 361.493 696.494 361.844C696.591 362.194 696.763 362.52 696.998 362.797C697.233 363.075 697.526 363.297 697.856 363.45C698.186 363.603 698.546 363.682 698.91 363.682C699.273 363.682 699.633 363.603 699.963 363.45C700.293 363.297 700.586 363.075 700.821 362.797C701.057 362.52 701.228 362.194 701.325 361.844C701.422 361.493 701.441 361.126 701.381 360.768L701.29 360.881Z" fill="white"/>
<path d="M979.223 598.946C979.149 598.478 978.943 598.04 978.63 597.683C978.317 597.327 977.909 597.067 977.453 596.933C976.998 596.8 976.514 596.798 976.058 596.929C975.601 597.059 975.191 597.317 974.876 597.671C974.56 598.025 974.352 598.462 974.275 598.93C974.198 599.398 974.256 599.878 974.442 600.314C974.628 600.751 974.934 601.126 975.325 601.395C975.715 601.664 976.174 601.817 976.649 601.836C977.368 601.778 978.036 601.445 978.516 600.907C978.995 600.368 979.248 599.666 979.223 598.946Z" fill="white"/>
<path d="M988.22 462.064C988.22 459.447 986.876 457.308 985.031 457.263C983.186 457.217 981.661 459.288 981.592 461.814C981.524 464.339 982.936 466.569 984.781 466.614C986.626 466.66 988.152 464.726 988.22 462.064Z" fill="white"/>
<path d="M696.733 245.41C696.583 246.098 696.243 246.73 695.751 247.234C695.26 247.737 694.636 248.093 693.952 248.26C693.267 248.427 692.55 248.398 691.881 248.177C691.212 247.956 690.619 247.552 690.169 247.01C689.719 246.469 689.431 245.812 689.336 245.115C689.242 244.417 689.346 243.707 689.636 243.066C689.927 242.425 690.391 241.878 690.978 241.488C691.564 241.098 692.248 240.88 692.952 240.86C694.041 241.002 695.036 241.55 695.737 242.394C696.438 243.238 696.794 244.315 696.733 245.41V245.41Z" fill="white"/>
<path d="M719.326 320.496C719.326 323.112 718.119 325.251 716.479 325.274C714.839 325.296 713.473 323.226 713.381 320.723C713.29 318.22 714.589 315.968 716.229 315.922C717.869 315.877 719.235 317.879 719.326 320.496Z" fill="white"/>
<path d="M589.892 279.677C590.027 280.82 589.703 281.97 588.989 282.874C588.276 283.779 587.233 284.364 586.089 284.5C584.961 284.387 583.917 283.858 583.159 283.017C582.401 282.175 581.984 281.082 581.989 279.95C581.879 279.378 581.895 278.789 582.036 278.224C582.177 277.659 582.439 277.132 582.805 276.678C583.171 276.225 583.632 275.857 584.155 275.6C584.678 275.343 585.25 275.202 585.833 275.189C586.416 275.176 586.994 275.289 587.529 275.522C588.063 275.755 588.54 276.101 588.926 276.537C589.313 276.973 589.599 277.488 589.766 278.046C589.933 278.604 589.976 279.191 589.892 279.768V279.677Z" fill="white"/>
<path d="M579.689 375.603C579.689 378.219 578.345 380.358 576.523 380.404C574.701 380.449 573.175 378.379 573.107 375.853C573.039 373.328 574.451 371.052 576.227 371.052C578.004 371.052 579.621 373.077 579.689 375.603Z" fill="white"/>
<path d="M807.607 334.284C807.529 334.75 807.321 335.185 807.005 335.538C806.69 335.891 806.281 336.148 805.826 336.278C805.371 336.408 804.888 336.407 804.433 336.274C803.979 336.142 803.571 335.883 803.258 335.528C802.945 335.174 802.738 334.738 802.663 334.271C802.587 333.804 802.646 333.325 802.832 332.89C803.018 332.454 803.323 332.081 803.713 331.812C804.103 331.543 804.561 331.39 805.034 331.371C805.757 331.429 806.429 331.765 806.909 332.309C807.389 332.852 807.639 333.56 807.607 334.284V334.284Z" fill="white"/>
<path d="M629.864 473.737C629.955 474.438 629.768 475.148 629.342 475.713C628.917 476.279 628.286 476.656 627.586 476.763C626.863 476.705 626.191 476.369 625.711 475.825C625.231 475.282 624.981 474.574 625.012 473.85C624.945 473.493 624.956 473.126 625.045 472.774C625.134 472.422 625.298 472.093 625.527 471.811C625.756 471.529 626.043 471.299 626.369 471.139C626.696 470.979 627.053 470.892 627.416 470.883C627.78 470.875 628.141 470.946 628.474 471.091C628.807 471.236 629.105 471.451 629.347 471.723C629.588 471.994 629.768 472.315 629.873 472.663C629.978 473.011 630.006 473.377 629.955 473.737H629.864Z" fill="white"/>
<path d="M907.798 235.695C907.725 236.163 907.519 236.601 907.206 236.957C906.893 237.314 906.485 237.574 906.029 237.708C905.574 237.841 905.09 237.843 904.634 237.712C904.177 237.582 903.768 237.324 903.452 236.97C903.136 236.616 902.928 236.179 902.851 235.711C902.775 235.243 902.832 234.763 903.018 234.327C903.204 233.89 903.51 233.516 903.901 233.246C904.291 232.977 904.751 232.824 905.225 232.805C905.946 232.858 906.618 233.189 907.098 233.728C907.579 234.268 907.83 234.973 907.798 235.695V235.695Z" fill="white"/>
<path d="M916.794 372.508C916.794 375.125 915.45 377.264 913.628 377.309C911.806 377.355 910.235 375.284 910.166 372.759C910.098 370.233 911.51 368.003 913.355 367.958C915.2 367.912 916.726 369.915 916.794 372.508Z" fill="white"/>
<path d="M941.14 287.162C941.276 289.756 940.479 291.918 939.409 291.986C938.338 292.054 937.313 290.006 937.131 287.435C936.949 284.864 937.769 282.657 938.862 282.612C939.955 282.566 941.003 284.591 941.14 287.162Z" fill="white"/>
<path d="M690.47 705.088C690.544 704.619 690.75 704.18 691.064 703.823C691.378 703.466 691.787 703.206 692.244 703.073C692.701 702.94 693.186 702.94 693.643 703.072C694.099 703.205 694.509 703.464 694.824 703.82C695.138 704.177 695.345 704.615 695.419 705.085C695.494 705.554 695.433 706.035 695.244 706.471C695.054 706.907 694.745 707.28 694.351 707.547C693.958 707.814 693.496 707.963 693.021 707.978C692.299 707.931 691.626 707.6 691.148 707.059C690.67 706.517 690.426 705.809 690.47 705.088V705.088Z" fill="white"/>
<path d="M578.255 613.189C578.255 610.573 579.006 608.434 580.1 608.411C581.193 608.389 582.149 610.482 582.218 613.076C582.286 615.669 581.466 617.831 580.373 617.854C579.28 617.877 578.346 615.783 578.255 613.189Z" fill="white"/>
<path d="M761.895 700.105C761.818 700.819 762.026 701.535 762.473 702.097C762.921 702.66 763.572 703.023 764.286 703.109C765.003 703.05 765.67 702.717 766.145 702.178C766.621 701.639 766.869 700.937 766.837 700.219C766.905 699.862 766.894 699.495 766.805 699.143C766.716 698.791 766.551 698.462 766.323 698.18C766.094 697.897 765.806 697.668 765.48 697.508C765.154 697.348 764.797 697.26 764.433 697.252C764.07 697.244 763.709 697.315 763.375 697.46C763.042 697.605 762.744 697.82 762.503 698.092C762.261 698.363 762.082 698.684 761.977 699.032C761.872 699.379 761.844 699.746 761.895 700.105V700.105Z" fill="white"/>
<path d="M292.463 771.56C292.657 769.77 292.302 767.964 291.447 766.38C290.591 764.796 289.274 763.508 287.671 762.687C286.067 761.866 284.252 761.55 282.465 761.782C280.678 762.013 279.004 762.78 277.662 763.982C276.321 765.185 275.376 766.765 274.953 768.515C274.53 770.264 274.648 772.101 275.292 773.782C275.935 775.464 277.074 776.91 278.558 777.931C280.042 778.952 281.801 779.5 283.603 779.501C285.832 779.619 288.016 778.849 289.677 777.36C291.337 775.872 292.34 773.786 292.463 771.56V771.56Z" fill="white"/>
<path d="M366.281 634.008C366.281 631.392 364.8 629.23 362.796 629.207C361.815 628.913 360.766 628.933 359.797 629.265C358.827 629.597 357.987 630.224 357.393 631.058C356.8 631.893 356.483 632.892 356.488 633.915C356.493 634.939 356.819 635.935 357.421 636.764C358.022 637.592 358.869 638.212 359.841 638.534C360.813 638.857 361.862 638.867 362.841 638.563C363.819 638.259 364.677 637.655 365.294 636.838C365.911 636.021 366.256 635.032 366.281 634.008V634.008Z" fill="white"/>
<path d="M388.875 558.923C388.875 556.307 387.69 554.168 386.05 554.145C384.411 554.122 383.021 556.17 382.953 558.696C382.885 561.221 384.137 563.451 385.777 563.497C387.417 563.542 388.806 561.54 388.875 558.923Z" fill="white"/>
<path d="M227.758 602.473C227.653 601.717 227.335 601.006 226.839 600.425C226.344 599.844 225.693 599.416 224.963 599.192C224.233 598.968 223.453 598.958 222.717 599.161C221.981 599.365 221.318 599.775 220.807 600.342C220.296 600.909 219.958 601.61 219.833 602.363C219.707 603.116 219.8 603.889 220.099 604.591C220.399 605.293 220.893 605.895 221.523 606.326C222.154 606.757 222.894 606.999 223.658 607.023C224.798 606.941 225.861 606.422 226.626 605.573C227.39 604.725 227.796 603.613 227.758 602.473V602.473Z" fill="white"/>
<path d="M249.258 503.725C249.258 501.131 247.914 498.97 246.092 498.924C244.27 498.879 242.744 500.972 242.653 503.588C242.561 506.205 243.996 508.344 245.818 508.389C247.64 508.435 249.166 506.341 249.258 503.725Z" fill="white"/>
<path d="M299.434 405.659C299.356 405.192 299.147 404.756 298.83 404.402C298.514 404.049 298.104 403.792 297.647 403.663C297.191 403.533 296.707 403.536 296.252 403.67C295.797 403.805 295.389 404.065 295.077 404.422C294.764 404.779 294.56 405.217 294.487 405.685C294.414 406.154 294.476 406.633 294.665 407.068C294.854 407.503 295.163 407.875 295.556 408.141C295.948 408.407 296.409 408.557 296.883 408.572C297.604 408.514 298.274 408.177 298.75 407.633C299.226 407.089 299.472 406.381 299.434 405.659Z" fill="white"/>
<path d="M294.855 290.188C295.013 291.284 294.738 292.399 294.088 293.295C293.437 294.191 292.462 294.799 291.37 294.989C290.389 295.284 289.34 295.264 288.371 294.932C287.402 294.6 286.561 293.973 285.968 293.138C285.374 292.304 285.058 291.305 285.063 290.281C285.067 289.258 285.394 288.261 285.995 287.433C286.596 286.604 287.443 285.985 288.415 285.662C289.387 285.339 290.437 285.329 291.415 285.634C292.393 285.938 293.251 286.541 293.868 287.358C294.485 288.175 294.83 289.165 294.855 290.188V290.188Z" fill="white"/>
<path d="M317.45 365.273C317.45 367.867 316.265 370.028 314.626 370.051C312.986 370.074 311.596 368.003 311.528 365.5C311.46 362.998 312.712 360.745 314.352 360.699C315.992 360.654 317.381 362.656 317.45 365.273Z" fill="white"/>
<path d="M188.058 324.454C187.954 325.21 187.635 325.92 187.14 326.501C186.645 327.083 185.994 327.51 185.264 327.734C184.533 327.958 183.754 327.969 183.018 327.765C182.282 327.562 181.619 327.152 181.108 326.585C180.597 326.018 180.259 325.316 180.134 324.563C180.008 323.811 180.101 323.038 180.4 322.336C180.7 321.634 181.194 321.032 181.824 320.601C182.455 320.17 183.195 319.928 183.959 319.903C185.099 319.985 186.162 320.505 186.927 321.353C187.691 322.202 188.097 323.313 188.058 324.454Z" fill="white"/>
<path d="M177.833 420.449C177.833 423.065 176.489 425.204 174.667 425.25C172.845 425.295 171.319 423.225 171.228 420.699C171.137 418.174 172.572 415.944 174.394 415.898C176.216 415.853 177.651 417.855 177.833 420.449Z" fill="white"/>
<path d="M411.421 379.061C411.501 379.758 411.308 380.459 410.884 381.018C410.46 381.578 409.837 381.952 409.144 382.065C408.423 382.007 407.753 381.67 407.277 381.126C406.8 380.582 406.555 379.874 406.593 379.152C406.516 378.438 406.724 377.722 407.171 377.16C407.619 376.598 408.27 376.235 408.984 376.149C409.685 376.234 410.326 376.583 410.779 377.124C411.232 377.665 411.461 378.357 411.421 379.061V379.061Z" fill="white"/>
<path d="M228.008 518.514C228.076 518.871 228.065 519.238 227.976 519.59C227.887 519.943 227.723 520.271 227.494 520.553C227.265 520.836 226.978 521.065 226.651 521.225C226.325 521.385 225.968 521.473 225.604 521.481C225.241 521.489 224.88 521.419 224.547 521.274C224.213 521.129 223.915 520.913 223.674 520.641C223.432 520.37 223.253 520.049 223.148 519.702C223.043 519.354 223.015 518.987 223.066 518.628C222.999 518.271 223.01 517.904 223.098 517.551C223.187 517.199 223.352 516.871 223.58 516.588C223.809 516.306 224.097 516.077 224.423 515.917C224.749 515.756 225.107 515.669 225.47 515.661C225.834 515.652 226.194 515.723 226.528 515.868C226.861 516.013 227.159 516.229 227.4 516.5C227.642 516.772 227.821 517.093 227.926 517.44C228.031 517.788 228.059 518.154 228.008 518.514Z" fill="white"/>
<path d="M176.398 657.967C176.398 655.35 177.15 653.211 178.243 653.189C179.337 653.166 180.27 655.259 180.361 657.853C180.453 660.447 179.61 662.608 178.517 662.631C177.423 662.654 176.467 660.561 176.398 657.967Z" fill="white"/>
<path d="M407.867 527.752C407.679 525.962 408.038 524.156 408.897 522.574C409.757 520.992 411.077 519.708 412.683 518.891C414.289 518.075 416.105 517.764 417.891 518C419.678 518.236 421.351 519.008 422.689 520.213C424.027 521.419 424.967 523.002 425.386 524.753C425.804 526.504 425.681 528.341 425.033 530.02C424.384 531.7 423.241 533.143 421.754 534.16C420.267 535.177 418.506 535.72 416.704 535.716C414.476 535.827 412.295 535.051 410.638 533.559C408.982 532.066 407.985 529.978 407.867 527.752V527.752Z" fill="white"/>
<path d="M237.974 915.439C238.133 914.343 237.858 913.228 237.207 912.332C236.556 911.435 235.581 910.828 234.489 910.638C233.4 910.775 232.405 911.322 231.706 912.168C231.008 913.014 230.659 914.094 230.731 915.188C230.573 916.284 230.848 917.399 231.499 918.295C232.149 919.192 233.124 919.799 234.216 919.989C235.305 919.852 236.301 919.305 236.999 918.459C237.698 917.613 238.047 916.533 237.974 915.439V915.439Z" fill="white"/>
<path d="M260.569 840.353C260.569 837.737 259.385 835.598 257.745 835.552C256.105 835.507 254.716 837.6 254.647 840.217C254.579 842.833 255.832 844.972 257.471 844.995C259.111 845.018 260.501 842.856 260.569 840.353Z" fill="white"/>
<path d="M99.4287 883.789C99.5444 882.656 99.2108 881.524 98.4995 880.635C97.7883 879.745 96.7562 879.17 95.6252 879.033C94.4854 879.115 93.4217 879.635 92.6573 880.483C91.8929 881.332 91.4872 882.443 91.5255 883.584C91.3968 884.726 91.7239 885.873 92.4359 886.776C93.1478 887.679 94.1874 888.265 95.3291 888.407C96.4685 888.293 97.523 887.755 98.2827 886.899C99.0425 886.043 99.4516 884.932 99.4287 883.789Z" fill="white"/>
<path d="M120.999 785.064C120.999 782.47 119.655 780.308 117.833 780.263C116.011 780.217 114.485 782.311 114.416 784.814C114.348 787.316 115.737 789.569 117.56 789.592C119.382 789.614 120.999 787.68 120.999 785.064Z" fill="white"/>
<path d="M609.063 772.686C609.063 770.069 607.81 767.931 606.079 767.885C604.348 767.839 602.89 769.933 602.799 772.436C602.708 774.938 604.075 777.191 605.806 777.214C607.537 777.236 608.994 775.28 609.063 772.686Z" fill="white"/>
<path d="M796.484 677.783C796.484 676.145 795.915 674.825 795.141 674.803C794.366 674.78 793.66 676.077 793.615 677.715C793.569 679.353 794.161 680.673 794.958 680.696C795.756 680.718 796.439 679.421 796.484 677.783Z" fill="white"/>
<path d="M942.385 646.293C942.484 645.61 942.314 644.915 941.911 644.355C941.507 643.794 940.901 643.413 940.221 643.29C939.545 643.402 938.936 643.763 938.514 644.303C938.092 644.842 937.888 645.52 937.943 646.202C937.943 646.806 938.183 647.385 938.61 647.811C939.038 648.238 939.617 648.478 940.221 648.478C940.825 648.478 941.404 648.238 941.831 647.811C942.259 647.385 942.499 646.806 942.499 646.202L942.385 646.293Z" fill="white"/>
<path d="M935.258 742.516C935.258 740.878 934.415 739.535 933.276 739.513C932.138 739.49 931.181 740.787 931.135 742.425C931.09 744.063 931.978 745.383 933.117 745.405C934.256 745.428 935.212 744.018 935.258 742.516Z" fill="white"/>
<path d="M711.689 661.652C711.689 660.036 711.211 658.694 710.528 658.671C709.845 658.648 709.252 659.968 709.207 661.606C709.161 663.245 709.685 664.564 710.368 664.587C711.052 664.61 711.644 663.29 711.689 661.652Z" fill="white"/>
<path d="M590.181 847.839C590.268 847.174 590.151 846.497 589.846 845.899C589.541 845.301 589.061 844.81 588.471 844.489C587.88 844.169 587.206 844.035 586.538 844.104C585.87 844.174 585.238 844.445 584.727 844.88C584.215 845.316 583.848 845.896 583.673 846.544C583.498 847.192 583.524 847.878 583.747 848.511C583.97 849.145 584.38 849.695 584.923 850.091C585.466 850.487 586.116 850.709 586.787 850.729C587.2 850.763 587.616 850.715 588.011 850.588C588.405 850.462 588.771 850.258 589.086 849.989C589.401 849.721 589.66 849.393 589.848 849.024C590.036 848.655 590.149 848.252 590.181 847.839V847.839Z" fill="white"/>
<path d="M354.541 826.474C354.626 825.776 354.436 825.072 354.011 824.511C353.586 823.951 352.959 823.577 352.264 823.47C351.543 823.523 350.871 823.854 350.39 824.394C349.91 824.933 349.659 825.638 349.69 826.36C349.623 826.717 349.634 827.084 349.722 827.436C349.811 827.788 349.976 828.117 350.205 828.399C350.433 828.682 350.721 828.911 351.047 829.071C351.373 829.231 351.731 829.318 352.094 829.327C352.458 829.335 352.819 829.264 353.152 829.119C353.485 828.974 353.783 828.759 354.024 828.487C354.266 828.216 354.445 827.895 354.55 827.547C354.655 827.2 354.683 826.833 354.632 826.474H354.541Z" fill="white"/>
<path d="M171.105 686.998C171.184 686.301 170.992 685.601 170.568 685.041C170.144 684.482 169.52 684.108 168.827 683.995C168.11 684.053 167.444 684.387 166.968 684.926C166.493 685.465 166.245 686.167 166.276 686.885C166.216 687.243 166.235 687.611 166.332 687.961C166.429 688.312 166.601 688.637 166.836 688.914C167.071 689.192 167.364 689.414 167.694 689.567C168.024 689.72 168.384 689.799 168.748 689.799C169.111 689.799 169.471 689.72 169.801 689.567C170.131 689.414 170.424 689.192 170.659 688.914C170.894 688.637 171.066 688.312 171.163 687.961C171.26 687.611 171.279 687.243 171.219 686.885L171.105 686.998Z" fill="white"/>
<path d="M454.732 925.04C454.809 924.325 454.601 923.609 454.153 923.047C453.706 922.485 453.054 922.122 452.34 922.036C451.624 922.094 450.957 922.428 450.482 922.967C450.006 923.506 449.758 924.208 449.79 924.926C449.722 925.283 449.733 925.65 449.822 926.002C449.911 926.354 450.075 926.683 450.304 926.965C450.533 927.247 450.82 927.477 451.147 927.637C451.473 927.797 451.83 927.884 452.194 927.893C452.557 927.901 452.918 927.83 453.251 927.685C453.585 927.54 453.882 927.325 454.124 927.053C454.365 926.782 454.545 926.461 454.65 926.113C454.755 925.765 454.783 925.399 454.732 925.04V925.04Z" fill="white"/>
<path d="M963.431 818.783C963.509 818.067 963.301 817.348 962.854 816.782C962.407 816.217 961.756 815.848 961.04 815.757C960.321 815.821 959.654 816.16 959.179 816.702C958.704 817.245 958.457 817.949 958.489 818.67C958.421 819.027 958.432 819.394 958.521 819.746C958.61 820.098 958.775 820.427 959.003 820.709C959.232 820.991 959.52 821.221 959.846 821.381C960.172 821.541 960.529 821.628 960.893 821.637C961.256 821.645 961.617 821.574 961.951 821.429C962.284 821.284 962.582 821.069 962.823 820.797C963.065 820.526 963.244 820.205 963.349 819.857C963.454 819.509 963.482 819.143 963.431 818.783V818.783Z" fill="white"/>
<path d="M831.945 856.28C831.872 855.81 831.666 855.372 831.351 855.015C831.037 854.658 830.628 854.398 830.171 854.265C829.714 854.132 829.229 854.132 828.772 854.264C828.315 854.396 827.906 854.656 827.591 855.012C827.277 855.369 827.07 855.807 826.996 856.277C826.921 856.746 826.982 857.227 827.171 857.663C827.361 858.099 827.67 858.472 828.064 858.739C828.457 859.006 828.919 859.155 829.394 859.17C830.113 859.117 830.783 858.785 831.26 858.245C831.737 857.705 831.983 856.999 831.945 856.28Z" fill="white"/>
<path d="M720.435 784.7C720.362 784.23 720.156 783.792 719.842 783.435C719.527 783.078 719.118 782.818 718.661 782.685C718.205 782.552 717.719 782.552 717.263 782.684C716.806 782.816 716.396 783.076 716.081 783.432C715.767 783.789 715.56 784.227 715.486 784.697C715.412 785.166 715.472 785.647 715.662 786.083C715.851 786.519 716.16 786.892 716.554 787.159C716.948 787.426 717.409 787.575 717.885 787.589C718.243 787.569 718.593 787.478 718.916 787.322C719.239 787.165 719.527 786.946 719.764 786.677C720.002 786.408 720.183 786.095 720.298 785.756C720.414 785.416 720.46 785.057 720.435 784.7V784.7Z" fill="white"/>
<path d="M756.695 905.426C756.736 905.072 756.707 904.713 756.609 904.37C756.511 904.027 756.346 903.707 756.124 903.428C755.901 903.149 755.626 902.917 755.314 902.744C755.001 902.572 754.658 902.462 754.303 902.423C753.584 902.475 752.914 902.807 752.438 903.348C751.961 903.888 751.715 904.593 751.752 905.312C751.667 906.011 751.857 906.714 752.282 907.275C752.707 907.835 753.334 908.209 754.03 908.316C754.395 908.301 754.753 908.215 755.085 908.062C755.416 907.908 755.714 907.691 755.962 907.423C756.21 907.155 756.402 906.84 756.527 906.498C756.653 906.155 756.71 905.791 756.695 905.426V905.426Z" fill="white"/>
<path d="M916.537 935.688C916.463 935.219 916.257 934.78 915.943 934.423C915.629 934.066 915.219 933.806 914.763 933.673C914.306 933.54 913.821 933.54 913.364 933.672C912.907 933.805 912.498 934.064 912.183 934.421C911.868 934.777 911.662 935.216 911.587 935.685C911.513 936.154 911.574 936.635 911.763 937.071C911.952 937.507 912.262 937.88 912.655 938.147C913.049 938.414 913.511 938.563 913.986 938.578C914.705 938.525 915.375 938.193 915.852 937.653C916.329 937.113 916.575 936.407 916.537 935.688V935.688Z" fill="white"/>
<path d="M279.518 1403.06C279.444 1402.59 279.238 1402.15 278.924 1401.79C278.609 1401.43 278.2 1401.17 277.743 1401.04C277.287 1400.91 276.801 1400.91 276.345 1401.04C275.888 1401.17 275.478 1401.43 275.163 1401.79C274.849 1402.15 274.642 1402.58 274.568 1403.05C274.494 1403.52 274.555 1404 274.744 1404.44C274.933 1404.88 275.242 1405.25 275.636 1405.52C276.03 1405.78 276.491 1405.93 276.967 1405.95C277.684 1405.89 278.35 1405.55 278.826 1405.02C279.301 1404.48 279.549 1403.77 279.518 1403.06V1403.06Z" fill="white"/>
<path d="M165.456 1481.33C165.536 1480.63 165.343 1479.93 164.919 1479.37C164.495 1478.81 163.872 1478.44 163.179 1478.32C162.458 1478.38 161.788 1478.72 161.312 1479.26C160.835 1479.81 160.59 1480.51 160.628 1481.24C160.549 1481.93 160.741 1482.63 161.165 1483.19C161.589 1483.75 162.212 1484.13 162.905 1484.24C163.626 1484.18 164.296 1483.84 164.773 1483.3C165.249 1482.76 165.494 1482.05 165.456 1481.33V1481.33Z" fill="white"/>
<path d="M317.645 1141.1C317.724 1140.4 317.532 1139.7 317.108 1139.14C316.684 1138.58 316.06 1138.21 315.367 1138.1C314.646 1138.15 313.974 1138.48 313.494 1139.02C313.013 1139.56 312.762 1140.27 312.794 1140.99C312.726 1141.34 312.737 1141.71 312.826 1142.06C312.915 1142.42 313.079 1142.74 313.308 1143.03C313.537 1143.31 313.824 1143.54 314.151 1143.7C314.477 1143.86 314.834 1143.95 315.198 1143.95C315.561 1143.96 315.922 1143.89 316.255 1143.75C316.589 1143.6 316.886 1143.39 317.128 1143.11C317.369 1142.84 317.549 1142.52 317.654 1142.17C317.759 1141.83 317.787 1141.46 317.736 1141.1H317.645Z" fill="white"/>
<path d="M217.431 1288.22C217.51 1287.53 217.318 1286.82 216.894 1286.27C216.47 1285.71 215.847 1285.33 215.153 1285.22C214.437 1285.28 213.77 1285.61 213.294 1286.15C212.819 1286.69 212.571 1287.39 212.603 1288.11C212.543 1288.47 212.562 1288.83 212.658 1289.18C212.755 1289.54 212.927 1289.86 213.162 1290.14C213.397 1290.42 213.69 1290.64 214.02 1290.79C214.35 1290.94 214.71 1291.02 215.074 1291.02C215.438 1291.02 215.797 1290.94 216.127 1290.79C216.457 1290.64 216.75 1290.42 216.985 1290.14C217.221 1289.86 217.393 1289.54 217.489 1289.18C217.586 1288.83 217.605 1288.47 217.545 1288.11L217.431 1288.22Z" fill="white"/>
<path d="M980.239 1093.66C980.239 1091.05 980.991 1088.91 982.061 1088.88C983.132 1088.86 984.111 1090.95 984.179 1093.57C984.248 1096.19 983.428 1098.3 982.335 1098.33C981.241 1098.35 980.308 1096.26 980.239 1093.66Z" fill="white"/>
<path d="M463.752 788.249C463.752 785.632 462.408 783.471 460.564 783.448C458.719 783.425 457.193 785.473 457.124 787.999C457.056 790.524 458.468 792.754 460.29 792.799C462.112 792.845 463.684 790.843 463.752 788.249Z" fill="white"/>
<path d="M488.099 873.595C488.235 870.978 487.438 868.817 486.345 868.749C485.252 868.68 484.272 870.751 484.067 873.299C483.862 875.848 484.728 878.055 485.821 878.123C486.914 878.191 487.962 876.189 488.099 873.595Z" fill="white"/>
<path d="M329.625 1196.32C329.625 1193.71 328.896 1191.57 327.803 1191.55C326.71 1191.52 325.753 1193.62 325.685 1196.23C325.616 1198.85 326.436 1200.96 327.529 1200.99C328.623 1201.01 329.557 1198.92 329.625 1196.32Z" fill="white"/>
<path d="M128.354 1168C128.354 1165.4 127.17 1163.26 125.53 1163.22C123.89 1163.17 122.501 1165.27 122.432 1167.88C122.364 1170.5 123.617 1172.61 125.257 1172.66C126.896 1172.71 128.286 1170.66 128.354 1168Z" fill="white"/>
<path d="M166.551 571.527C166.646 572.077 166.631 572.641 166.506 573.185C166.382 573.729 166.151 574.243 165.828 574.698C165.504 575.152 165.093 575.538 164.619 575.834C164.145 576.129 163.618 576.328 163.067 576.419C161.977 576.282 160.982 575.735 160.283 574.889C159.585 574.043 159.236 572.963 159.309 571.869C159.15 570.773 159.425 569.658 160.076 568.762C160.726 567.865 161.701 567.258 162.793 567.068C163.866 567.204 164.848 567.738 165.544 568.564C166.24 569.391 166.6 570.448 166.551 571.527Z" fill="white"/>
<path d="M189.166 646.611C189.166 649.205 187.959 651.344 186.319 651.389C184.679 651.435 183.29 649.342 183.221 646.839C183.153 644.336 184.406 642.083 186.046 642.038C187.685 641.992 189.075 643.995 189.166 646.611Z" fill="white"/>
<path d="M146.134 605.793C146.237 606.926 145.896 608.056 145.182 608.943C144.469 609.83 143.438 610.406 142.308 610.548C141.184 610.43 140.145 609.899 139.392 609.058C138.638 608.217 138.225 607.126 138.231 605.998C138.109 604.856 138.442 603.712 139.158 602.813C139.874 601.914 140.916 601.334 142.057 601.197C143.201 601.284 144.266 601.813 145.027 602.67C145.788 603.528 146.185 604.648 146.134 605.793V605.793Z" fill="white"/>
<path d="M135.909 701.787C135.909 704.404 134.565 706.543 132.743 706.588C130.921 706.634 129.395 704.54 129.327 702.037C129.258 699.535 130.648 697.282 132.47 697.237C134.292 697.191 135.841 699.284 135.909 701.787Z" fill="white"/>
<path d="M537.638 714.166C537.638 716.782 536.385 718.921 534.654 718.966C532.923 719.012 531.465 716.919 531.397 714.416C531.329 711.913 532.65 709.661 534.381 709.615C536.112 709.57 537.569 711.572 537.638 714.166Z" fill="white"/>
<path d="M725.06 809.091C725.06 810.706 724.513 812.049 723.716 812.071C722.919 812.094 722.236 810.774 722.19 809.136C722.144 807.498 722.737 806.178 723.534 806.156C724.331 806.133 725.014 807.452 725.06 809.091Z" fill="white"/>
<path d="M870.961 840.558C871.06 841.241 870.89 841.936 870.487 842.497C870.083 843.057 869.477 843.439 868.797 843.561C867.544 843.561 866.52 842.31 866.52 840.672C866.52 839.034 867.453 837.691 868.797 837.668C869.453 837.795 870.037 838.162 870.437 838.696C870.837 839.23 871.024 839.894 870.961 840.558V840.558Z" fill="white"/>
<path d="M863.832 744.472C863.832 746.088 862.989 747.43 861.851 747.453C860.712 747.476 859.755 746.179 859.71 744.563C859.664 742.948 860.552 741.583 861.691 741.56C862.83 741.537 863.787 742.834 863.832 744.472Z" fill="white"/>
<path d="M640.288 825.2C640.288 826.838 639.81 828.181 639.126 828.181C638.443 828.181 637.851 826.906 637.805 825.268C637.76 823.63 638.284 822.288 638.967 822.288C639.65 822.288 640.288 823.585 640.288 825.2Z" fill="white"/>
<path d="M518.732 639.012C518.72 639.421 518.628 639.824 518.46 640.198C518.292 640.572 518.052 640.909 517.754 641.19C517.456 641.471 517.105 641.69 516.722 641.836C516.339 641.981 515.93 642.05 515.521 642.038C514.691 642.101 513.871 641.836 513.236 641.299C512.601 640.763 512.202 639.998 512.127 639.171C512.136 638.761 512.226 638.356 512.393 637.981C512.56 637.606 512.799 637.268 513.098 636.986C513.397 636.705 513.749 636.485 514.134 636.341C514.518 636.196 514.928 636.13 515.338 636.145C516.168 636.082 516.988 636.347 517.623 636.883C518.258 637.42 518.657 638.184 518.732 639.012Z" fill="white"/>
<path d="M283.115 660.377C283.207 661.079 283.02 661.789 282.594 662.354C282.168 662.92 281.538 663.297 280.838 663.404C280.115 663.374 279.431 663.066 278.93 662.545C278.429 662.023 278.15 661.328 278.15 660.605C278.071 659.908 278.263 659.207 278.687 658.648C279.111 658.089 279.735 657.714 280.428 657.602C281.149 657.625 281.832 657.928 282.334 658.446C282.836 658.964 283.116 659.657 283.115 660.377V660.377Z" fill="white"/>
<path d="M99.7024 799.853C99.7875 800.551 99.5974 801.255 99.1723 801.815C98.7472 802.376 98.1205 802.749 97.4248 802.856C96.7017 802.81 96.0261 802.48 95.5444 801.939C95.0627 801.398 94.8137 800.69 94.8511 799.967C94.8099 799.613 94.8392 799.254 94.9372 798.911C95.0352 798.568 95.2 798.248 95.4222 797.969C95.6444 797.69 95.9196 797.457 96.232 797.285C96.5444 797.112 96.8878 797.003 97.2426 796.963C97.9453 797.038 98.5923 797.38 99.0501 797.918C99.5079 798.455 99.7414 799.148 99.7024 799.853V799.853Z" fill="white"/>
<path d="M383.308 561.812C383.393 562.51 383.203 563.214 382.778 563.774C382.353 564.335 381.726 564.708 381.031 564.815C380.666 564.801 380.307 564.714 379.976 564.561C379.644 564.408 379.346 564.191 379.098 563.922C378.851 563.654 378.659 563.339 378.533 562.997C378.407 562.654 378.351 562.29 378.366 561.926C378.298 561.569 378.309 561.201 378.398 560.849C378.487 560.497 378.652 560.168 378.88 559.886C379.109 559.604 379.397 559.375 379.723 559.214C380.049 559.054 380.406 558.967 380.77 558.959C381.133 558.95 381.494 559.021 381.828 559.166C382.161 559.311 382.459 559.527 382.7 559.798C382.942 560.07 383.121 560.39 383.226 560.738C383.331 561.086 383.359 561.452 383.308 561.812V561.812Z" fill="white"/>
<path d="M897.653 668.091C897.732 668.788 897.54 669.489 897.116 670.048C896.692 670.607 896.069 670.982 895.375 671.094C894.654 671.042 893.982 670.711 893.502 670.171C893.021 669.632 892.77 668.926 892.802 668.205C892.742 667.846 892.761 667.479 892.857 667.128C892.954 666.778 893.126 666.453 893.361 666.175C893.596 665.898 893.889 665.675 894.219 665.522C894.549 665.369 894.909 665.29 895.273 665.29C895.637 665.29 895.996 665.369 896.326 665.522C896.657 665.675 896.949 665.898 897.185 666.175C897.42 666.453 897.592 666.778 897.688 667.128C897.785 667.479 897.804 667.846 897.744 668.205L897.653 668.091Z" fill="white"/>
<path d="M760.521 630.503C760.598 631.217 760.39 631.933 759.942 632.495C759.495 633.058 758.843 633.421 758.129 633.507C757.408 633.448 756.738 633.112 756.262 632.568C755.786 632.024 755.54 631.316 755.578 630.594C755.501 629.88 755.709 629.164 756.157 628.602C756.604 628.04 757.256 627.676 757.97 627.591C758.691 627.649 759.361 627.986 759.837 628.53C760.313 629.074 760.559 629.782 760.521 630.503V630.503Z" fill="white"/>
<path d="M649.01 702.152C648.941 702.623 648.738 703.064 648.426 703.425C648.114 703.785 647.705 704.048 647.248 704.185C646.792 704.321 646.305 704.324 645.847 704.194C645.388 704.064 644.976 703.805 644.659 703.449C644.342 703.093 644.134 702.654 644.058 702.184C643.982 701.714 644.043 701.232 644.232 700.794C644.421 700.357 644.731 699.983 645.125 699.715C645.52 699.448 645.983 699.298 646.459 699.285C647.174 699.337 647.841 699.666 648.317 700.201C648.793 700.737 649.042 701.436 649.01 702.152V702.152Z" fill="white"/>
<path d="M685.269 581.425C685.196 581.893 684.99 582.331 684.677 582.687C684.364 583.044 683.956 583.304 683.5 583.437C683.045 583.571 682.561 583.573 682.104 583.442C681.648 583.311 681.238 583.054 680.923 582.7C680.607 582.345 680.399 581.909 680.322 581.441C680.245 580.973 680.303 580.493 680.489 580.057C680.675 579.62 680.981 579.245 681.371 578.976C681.762 578.707 682.221 578.554 682.696 578.535C683.417 578.588 684.089 578.919 684.569 579.458C685.05 579.998 685.301 580.703 685.269 581.425Z" fill="white"/>
<path d="M845.111 551.164C845.188 551.88 844.981 552.599 844.534 553.165C844.087 553.731 843.435 554.099 842.719 554.19C842.019 554.132 841.366 553.812 840.892 553.292C840.419 552.773 840.16 552.094 840.168 551.391C840.1 551.035 840.109 550.668 840.197 550.315C840.284 549.963 840.447 549.634 840.674 549.35C840.902 549.067 841.188 548.837 841.514 548.675C841.839 548.514 842.196 548.425 842.559 548.415C842.922 548.405 843.284 548.474 843.617 548.617C843.951 548.761 844.25 548.975 844.493 549.245C844.735 549.515 844.917 549.835 845.023 550.182C845.13 550.529 845.16 550.895 845.111 551.255V551.164Z" fill="white"/>
<path d="M208.094 1168.41C208.02 1168.87 207.814 1169.31 207.5 1169.67C207.186 1170.03 206.776 1170.29 206.32 1170.42C205.863 1170.55 205.378 1170.55 204.921 1170.42C204.464 1170.29 204.054 1170.03 203.74 1169.67C203.425 1169.32 203.218 1168.88 203.144 1168.41C203.07 1167.94 203.131 1167.46 203.32 1167.02C203.509 1166.59 203.818 1166.21 204.212 1165.95C204.606 1165.68 205.067 1165.53 205.543 1165.52C206.26 1165.57 206.926 1165.91 207.402 1166.45C207.878 1166.99 208.126 1167.69 208.094 1168.41V1168.41Z" fill="white"/>
<path d="M94.0334 1090.11C93.9595 1090.58 93.7556 1091.01 93.4452 1091.37C93.1348 1091.72 92.7304 1091.98 92.2787 1092.12C91.827 1092.25 91.3462 1092.26 90.8917 1092.13C90.4371 1092.01 90.0273 1091.76 89.7092 1091.41C89.3912 1091.06 89.1779 1090.63 89.0938 1090.17C89.0098 1089.7 89.0584 1089.22 89.2341 1088.79C89.4099 1088.35 89.7055 1087.97 90.0872 1087.69C90.4688 1087.42 90.9209 1087.25 91.3914 1087.22C91.7554 1087.24 92.1129 1087.32 92.4433 1087.48C92.7736 1087.63 93.0702 1087.85 93.3159 1088.12C93.5616 1088.39 93.7515 1088.7 93.8746 1089.04C93.9978 1089.39 94.0518 1089.75 94.0334 1090.11V1090.11Z" fill="white"/>
<path d="M246.265 1430.36C246.356 1431.06 246.168 1431.77 245.742 1432.33C245.316 1432.89 244.686 1433.26 243.987 1433.36C243.266 1433.31 242.594 1432.98 242.114 1432.44C241.633 1431.9 241.382 1431.19 241.414 1430.47C241.346 1430.12 241.357 1429.75 241.446 1429.4C241.535 1429.04 241.699 1428.72 241.928 1428.43C242.157 1428.15 242.444 1427.92 242.771 1427.76C243.097 1427.6 243.454 1427.51 243.818 1427.51C244.181 1427.5 244.542 1427.57 244.875 1427.71C245.209 1427.86 245.507 1428.07 245.748 1428.35C245.99 1428.62 246.169 1428.94 246.274 1429.29C246.379 1429.63 246.407 1430 246.356 1430.36H246.265Z" fill="white"/>
<path d="M146.051 1283.24C145.977 1283.71 145.771 1284.15 145.457 1284.5C145.143 1284.86 144.733 1285.12 144.277 1285.25C143.82 1285.39 143.335 1285.39 142.878 1285.26C142.421 1285.12 142.011 1284.86 141.697 1284.51C141.382 1284.15 141.175 1283.71 141.101 1283.24C141.027 1282.77 141.088 1282.29 141.277 1281.86C141.466 1281.42 141.775 1281.05 142.169 1280.78C142.563 1280.51 143.024 1280.36 143.5 1280.35C144.221 1280.4 144.894 1280.73 145.372 1281.27C145.851 1281.81 146.094 1282.52 146.051 1283.24V1283.24Z" fill="white"/>
<path d="M295.006 1133.34C295.074 1133.7 295.063 1134.07 294.974 1134.42C294.885 1134.77 294.72 1135.1 294.492 1135.38C294.263 1135.66 293.975 1135.89 293.649 1136.05C293.323 1136.21 292.966 1136.3 292.602 1136.31C292.239 1136.32 291.878 1136.25 291.544 1136.1C291.211 1135.96 290.913 1135.74 290.672 1135.47C290.43 1135.2 290.251 1134.88 290.146 1134.53C290.041 1134.18 290.013 1133.82 290.064 1133.46C289.979 1132.76 290.169 1132.05 290.594 1131.49C291.019 1130.93 291.646 1130.56 292.341 1130.45C292.707 1130.46 293.067 1130.55 293.4 1130.7C293.733 1130.85 294.033 1131.07 294.281 1131.34C294.529 1131.61 294.721 1131.92 294.845 1132.27C294.97 1132.61 295.024 1132.98 295.006 1133.34V1133.34Z" fill="white"/>
<path d="M652.426 985.562C652.426 988.179 651.674 990.317 650.581 990.34C649.488 990.363 648.554 988.27 648.463 985.653C648.372 983.036 649.214 980.92 650.308 980.898C651.401 980.875 652.357 982.968 652.426 985.562Z" fill="white"/>
<path d="M392.326 698.625C392.326 701.241 390.983 703.38 389.138 703.426C387.293 703.471 385.767 701.378 385.699 698.875C385.63 696.372 387.042 694.12 388.865 694.074C390.687 694.029 392.258 696.008 392.326 698.625Z" fill="white"/>
<path d="M416.674 613.256C416.788 615.872 416.013 618.034 414.92 618.102C413.827 618.171 412.848 616.1 412.643 613.552C412.438 611.003 413.303 608.774 414.396 608.705C415.49 608.637 416.537 610.662 416.674 613.256Z" fill="white"/>
<path d="M938.469 610.321C938.469 612.915 937.308 615.077 935.645 615.099C933.982 615.122 932.639 613.052 932.547 610.549C932.456 608.046 933.755 605.793 935.394 605.748C937.034 605.702 938.424 607.705 938.469 610.321Z" fill="white"/>
<path d="M258.222 1375.05C258.222 1377.66 257.47 1379.8 256.377 1379.83C255.284 1379.85 254.327 1377.76 254.259 1375.16C254.191 1372.57 255.01 1370.41 256.104 1370.38C257.197 1370.36 258.131 1372.54 258.222 1375.05Z" fill="white"/>
<path d="M862.534 963.06C862.534 961.422 863.081 960.102 863.878 960.079C864.675 960.057 865.358 961.354 865.404 962.992C865.449 964.63 864.857 965.95 864.06 965.972C863.263 965.995 862.58 964.675 862.534 963.06Z" fill="white"/>
<path d="M723.761 1027.68C723.761 1026.04 724.603 1024.7 725.742 1024.67C726.881 1024.65 727.838 1025.95 727.883 1027.59C727.929 1029.22 727.04 1030.54 725.902 1030.57C724.763 1030.59 723.806 1029.2 723.761 1027.68Z" fill="white"/>
<path d="M941.634 946.927C941.634 945.289 942.112 943.969 942.795 943.947C943.479 943.924 944.048 945.243 944.116 946.859C944.185 948.474 943.638 949.84 942.955 949.84C942.272 949.84 941.679 948.565 941.634 946.927Z" fill="white"/>
<path d="M686.045 1104.06C685.968 1103.34 686.175 1102.62 686.622 1102.06C687.069 1101.49 687.72 1101.12 688.436 1101.03C689.155 1101.1 689.822 1101.44 690.297 1101.98C690.772 1102.52 691.019 1103.23 690.987 1103.95C691.047 1104.3 691.028 1104.67 690.932 1105.02C690.835 1105.37 690.663 1105.7 690.428 1105.98C690.193 1106.25 689.9 1106.48 689.57 1106.63C689.239 1106.78 688.88 1106.86 688.516 1106.86C688.152 1106.86 687.793 1106.78 687.462 1106.63C687.132 1106.48 686.839 1106.25 686.604 1105.98C686.369 1105.7 686.197 1105.37 686.101 1105.02C686.004 1104.67 685.985 1104.3 686.045 1103.95V1104.06Z" fill="white"/>
<path d="M827.049 1141.65C827.008 1141.29 827.037 1140.93 827.135 1140.59C827.233 1140.25 827.398 1139.93 827.62 1139.65C827.843 1139.37 828.118 1139.14 828.43 1138.97C828.743 1138.79 829.086 1138.68 829.441 1138.64C830.046 1138.52 830.675 1138.58 831.243 1138.83C831.811 1139.07 832.29 1139.48 832.614 1140.01C832.939 1140.53 833.093 1141.15 833.056 1141.76C833.019 1142.38 832.793 1142.97 832.408 1143.45C832.023 1143.94 831.498 1144.29 830.905 1144.47C830.312 1144.64 829.68 1144.63 829.094 1144.43C828.508 1144.23 827.997 1143.86 827.632 1143.36C827.266 1142.86 827.062 1142.27 827.049 1141.65V1141.65Z" fill="white"/>
<path d="M932.888 1069.98C932.962 1069.51 933.168 1069.07 933.482 1068.71C933.796 1068.35 934.206 1068.09 934.662 1067.96C935.119 1067.83 935.604 1067.83 936.061 1067.96C936.518 1068.09 936.928 1068.35 937.242 1068.71C937.557 1069.06 937.764 1069.5 937.838 1069.97C937.912 1070.44 937.851 1070.92 937.662 1071.36C937.473 1071.79 937.164 1072.17 936.77 1072.43C936.376 1072.7 935.915 1072.85 935.439 1072.86C935.081 1072.84 934.73 1072.75 934.408 1072.6C934.085 1072.44 933.797 1072.22 933.559 1071.95C933.322 1071.68 933.141 1071.37 933.025 1071.03C932.91 1070.69 932.864 1070.33 932.888 1069.98V1069.98Z" fill="white"/>
<path d="M98.2231 1146.02C98.1312 1145.31 98.3177 1144.6 98.7429 1144.03C99.1681 1143.46 99.7987 1143.08 100.501 1142.97C101.226 1143.02 101.901 1143.35 102.383 1143.9C102.864 1144.44 103.112 1145.15 103.074 1145.88C103.151 1146.59 102.944 1147.31 102.496 1147.87C102.048 1148.43 101.397 1148.8 100.683 1148.88C99.9866 1148.8 99.3461 1148.46 98.8899 1147.93C98.4338 1147.4 98.1956 1146.72 98.2231 1146.02V1146.02Z" fill="white"/>
<path d="M160.309 1031.2C160.268 1030.85 160.297 1030.49 160.395 1030.15C160.493 1029.81 160.658 1029.49 160.88 1029.21C161.102 1028.93 161.378 1028.69 161.69 1028.52C162.002 1028.35 162.346 1028.24 162.701 1028.2C163.306 1028.07 163.935 1028.14 164.503 1028.38C165.071 1028.63 165.55 1029.04 165.874 1029.57C166.199 1030.09 166.353 1030.7 166.316 1031.32C166.279 1031.94 166.053 1032.53 165.668 1033.01C165.283 1033.49 164.758 1033.85 164.165 1034.02C163.572 1034.2 162.939 1034.18 162.354 1033.99C161.768 1033.79 161.257 1033.42 160.891 1032.92C160.525 1032.42 160.322 1031.82 160.309 1031.2Z" fill="white"/>
<path d="M587.447 1145.54C587.447 1142.94 588.632 1140.78 590.271 1140.76C591.911 1140.74 593.301 1142.78 593.392 1145.31C593.483 1147.84 592.185 1150.07 590.545 1150.11C588.905 1150.16 587.538 1148.15 587.447 1145.54Z" fill="white"/>
<path d="M493.474 1131.75C493.552 1131.28 493.761 1130.85 494.076 1130.5C494.391 1130.14 494.8 1129.89 495.256 1129.76C495.711 1129.63 496.194 1129.63 496.648 1129.76C497.103 1129.89 497.51 1130.15 497.824 1130.51C498.137 1130.86 498.343 1131.3 498.419 1131.76C498.494 1132.23 498.436 1132.71 498.25 1133.14C498.064 1133.58 497.759 1133.95 497.369 1134.22C496.979 1134.49 496.521 1134.64 496.048 1134.66C495.325 1134.6 494.653 1134.27 494.173 1133.73C493.693 1133.18 493.443 1132.47 493.474 1131.75V1131.75Z" fill="white"/>
<path d="M384.287 1093.53C384.287 1090.91 385.631 1088.77 387.476 1088.72C389.321 1088.68 390.847 1090.77 390.915 1093.27C390.983 1095.78 389.571 1098.03 387.726 1098.08C385.881 1098.12 384.355 1096.12 384.287 1093.53Z" fill="white"/>
<path d="M466.895 1137.53C466.895 1134.94 468.079 1132.77 469.719 1132.75C471.359 1132.73 472.748 1134.8 472.816 1137.3C472.885 1139.8 471.632 1142.06 469.992 1142.1C468.352 1142.15 466.963 1140.15 466.895 1137.53Z" fill="white"/>
<path d="M134.498 939.283C134.498 936.689 135.25 934.55 136.343 934.528C137.436 934.505 138.393 936.598 138.461 939.192C138.529 941.786 137.709 943.947 136.616 943.97C135.523 943.993 134.498 941.899 134.498 939.283Z" fill="white"/>
<path d="M503.906 999.624C503.906 997.007 505.25 994.869 507.072 994.823C508.894 994.777 510.443 996.848 510.511 999.374C510.58 1001.9 509.168 1004.13 507.345 1004.17C505.523 1004.22 503.997 1002.26 503.906 999.624Z" fill="white"/>
<path d="M933.959 1094.37C933.959 1095.98 934.506 1097.32 935.303 1097.35C936.1 1097.37 936.783 1096.05 936.829 1094.41C936.874 1092.77 936.282 1091.45 935.485 1091.43C934.688 1091.41 934.096 1092.73 933.959 1094.37Z" fill="white"/>
<path d="M788.034 1125.83C787.986 1126.18 788.007 1126.53 788.095 1126.87C788.184 1127.21 788.338 1127.53 788.549 1127.81C788.761 1128.09 789.026 1128.32 789.328 1128.5C789.63 1128.67 789.965 1128.79 790.312 1128.84C791.564 1128.84 792.589 1127.56 792.589 1125.95C792.589 1124.33 791.678 1122.97 790.312 1122.94C788.945 1122.92 788.102 1124.22 788.034 1125.83Z" fill="white"/>
<path d="M795.162 1029.73C795.162 1031.36 796.005 1032.71 797.144 1032.73C798.282 1032.75 799.239 1031.46 799.284 1029.84C799.33 1028.22 798.465 1026.93 797.44 1026.93C796.415 1026.93 795.162 1028.11 795.162 1029.73Z" fill="white"/>
<path d="M94.6015 1487.97C94.5471 1488.33 94.5663 1488.7 94.658 1489.06C94.7497 1489.41 94.912 1489.75 95.1351 1490.04C95.3583 1490.33 95.6378 1490.57 95.957 1490.75C96.2761 1490.93 96.6285 1491.05 96.9929 1491.09C97.7139 1491.03 98.386 1490.7 98.8665 1490.16C99.347 1489.62 99.5981 1488.92 99.5666 1488.2C99.644 1487.48 99.4368 1486.76 98.9896 1486.2C98.5425 1485.63 97.891 1485.26 97.1751 1485.17C96.4723 1485.23 95.8169 1485.55 95.3399 1486.07C94.8628 1486.59 94.5991 1487.27 94.6015 1487.97V1487.97Z" fill="white"/>
<path d="M761.318 953.367C761.233 954.065 761.423 954.768 761.848 955.329C762.273 955.889 762.9 956.263 763.596 956.37C764.316 956.317 764.989 955.986 765.469 955.447C765.95 954.907 766.201 954.202 766.169 953.48C766.237 953.123 766.226 952.756 766.137 952.404C766.048 952.052 765.883 951.723 765.655 951.441C765.426 951.159 765.138 950.929 764.812 950.769C764.486 950.609 764.129 950.522 763.765 950.513C763.402 950.505 763.041 950.576 762.707 950.721C762.374 950.866 762.076 951.081 761.835 951.353C761.593 951.624 761.414 951.945 761.309 952.293C761.204 952.641 761.176 953.007 761.227 953.367H761.318Z" fill="white"/>
<path d="M231.736 1026.2C231.656 1026.9 231.847 1027.6 232.271 1028.17C232.695 1028.73 233.318 1029.11 234.013 1029.23C234.736 1029.17 235.408 1028.83 235.888 1028.29C236.368 1027.75 236.619 1027.04 236.587 1026.31C236.647 1025.95 236.628 1025.59 236.531 1025.24C236.435 1024.89 236.263 1024.56 236.027 1024.28C235.792 1024.01 235.499 1023.78 235.169 1023.63C234.839 1023.48 234.48 1023.4 234.116 1023.4C233.752 1023.4 233.392 1023.48 233.062 1023.63C232.732 1023.78 232.439 1024.01 232.204 1024.28C231.969 1024.56 231.797 1024.89 231.7 1025.24C231.604 1025.59 231.585 1025.95 231.645 1026.31L231.736 1026.2Z" fill="white"/>
<path d="M119.518 1118.12C119.518 1120.74 120.269 1122.85 121.362 1122.9C122.456 1122.94 123.412 1120.83 123.481 1118.21C123.549 1115.59 122.729 1113.48 121.636 1113.43C120.542 1113.39 119.586 1115.5 119.518 1118.12Z" fill="white"/>
<path d="M575.331 1057.76C575.331 1060.35 576.675 1062.51 578.497 1062.54C580.319 1062.56 581.845 1060.51 581.936 1057.99C582.027 1055.46 580.592 1053.23 578.77 1053.18C576.948 1053.14 575.422 1055.14 575.331 1057.76Z" fill="white"/>
<path d="M320.811 1146.38C320.811 1149 321.995 1151.14 323.635 1151.18C325.275 1151.23 326.664 1149.13 326.732 1146.52C326.801 1143.9 325.548 1141.76 323.908 1141.74C322.268 1141.72 320.879 1143.76 320.811 1146.38Z" fill="white"/>
<path d="M934.688 1436.23C934.853 1435.13 934.58 1434.02 933.928 1433.12C933.277 1432.22 932.298 1431.61 931.204 1431.43C930.117 1431.57 929.124 1432.12 928.427 1432.96C927.729 1433.81 927.379 1434.89 927.446 1435.98C927.286 1437.08 927.561 1438.2 928.211 1439.1C928.861 1440 929.836 1440.61 930.93 1440.8C932.021 1440.66 933.017 1440.11 933.715 1439.26C934.413 1438.41 934.761 1437.33 934.688 1436.23Z" fill="white"/>
<path d="M951.61 1361.15C951.61 1358.53 950.403 1356.39 948.763 1356.37C947.123 1356.34 945.757 1358.39 945.666 1360.92C945.575 1363.44 946.873 1365.67 948.513 1365.72C950.153 1365.76 951.519 1363.67 951.61 1361.15Z" fill="white"/>
<path d="M796.141 1404.63C796.276 1403.48 795.951 1402.33 795.238 1401.43C794.525 1400.52 793.482 1399.94 792.338 1399.8C791.198 1399.88 790.134 1400.4 789.37 1401.25C788.606 1402.1 788.2 1403.21 788.238 1404.35C788.127 1404.92 788.141 1405.51 788.281 1406.08C788.42 1406.64 788.681 1407.17 789.046 1407.63C789.41 1408.08 789.87 1408.45 790.392 1408.71C790.914 1408.97 791.486 1409.11 792.069 1409.12C792.651 1409.14 793.23 1409.03 793.765 1408.8C794.3 1408.56 794.777 1408.22 795.165 1407.78C795.553 1407.35 795.841 1406.84 796.01 1406.28C796.178 1405.72 796.223 1405.13 796.141 1404.56V1404.63Z" fill="white"/>
<path d="M817.665 1305.97C817.665 1303.35 816.321 1301.19 814.522 1301.15C812.722 1301.1 811.151 1303.19 811.082 1305.81C811.014 1308.43 812.426 1310.56 814.226 1310.61C816.025 1310.66 817.596 1308.56 817.665 1305.97Z" fill="white"/>
<path d="M867.841 1207.88C867.921 1207.18 867.728 1206.48 867.304 1205.92C866.88 1205.37 866.257 1204.99 865.564 1204.88C864.843 1204.93 864.171 1205.26 863.69 1205.8C863.21 1206.34 862.959 1207.05 862.99 1207.77C862.93 1208.13 862.949 1208.49 863.046 1208.84C863.143 1209.19 863.314 1209.52 863.55 1209.8C863.785 1210.07 864.078 1210.3 864.408 1210.45C864.738 1210.6 865.097 1210.68 865.461 1210.68C865.825 1210.68 866.185 1210.6 866.515 1210.45C866.845 1210.3 867.138 1210.07 867.373 1209.8C867.608 1209.52 867.78 1209.19 867.877 1208.84C867.973 1208.49 867.992 1208.13 867.933 1207.77L867.841 1207.88Z" fill="white"/>
<path d="M863.285 1092.41C863.135 1093.1 862.795 1093.73 862.303 1094.23C861.811 1094.74 861.188 1095.09 860.503 1095.26C859.819 1095.43 859.101 1095.4 858.433 1095.18C857.764 1094.96 857.171 1094.55 856.721 1094.01C856.271 1093.47 855.982 1092.81 855.888 1092.11C855.794 1091.42 855.898 1090.71 856.188 1090.07C856.478 1089.42 856.943 1088.88 857.529 1088.49C858.116 1088.1 858.8 1087.88 859.504 1087.86C860.593 1088 861.587 1088.55 862.289 1089.39C862.99 1090.24 863.346 1091.31 863.285 1092.41V1092.41Z" fill="white"/>
<path d="M885.878 1167.5C885.878 1170.11 884.671 1172.25 883.031 1172.27C881.391 1172.3 880.024 1170.23 879.933 1167.72C879.842 1165.22 881.14 1162.97 882.78 1162.92C884.42 1162.88 885.787 1164.88 885.878 1167.5Z" fill="white"/>
<path d="M756.444 1126.68C756.579 1127.82 756.254 1128.97 755.541 1129.87C754.828 1130.78 753.785 1131.36 752.641 1131.5C751.513 1131.39 750.468 1130.86 749.71 1130.02C748.952 1129.17 748.535 1128.08 748.541 1126.95C748.431 1126.38 748.447 1125.79 748.588 1125.22C748.729 1124.66 748.991 1124.13 749.357 1123.68C749.723 1123.22 750.184 1122.86 750.707 1122.6C751.229 1122.34 751.802 1122.2 752.385 1122.19C752.968 1122.18 753.546 1122.29 754.08 1122.52C754.615 1122.75 755.092 1123.1 755.478 1123.54C755.864 1123.97 756.151 1124.49 756.318 1125.05C756.485 1125.6 756.528 1126.19 756.444 1126.77V1126.68Z" fill="white"/>
<path d="M746.241 1222.6C746.241 1225.22 744.897 1227.36 743.075 1227.4C741.253 1227.45 739.727 1225.38 739.659 1222.85C739.59 1220.33 741.002 1218.05 742.779 1218.05C744.555 1218.05 746.172 1220.08 746.241 1222.6Z" fill="white"/>
<path d="M974.159 1181.28C974.081 1181.75 973.873 1182.19 973.557 1182.54C973.242 1182.89 972.833 1183.15 972.378 1183.28C971.923 1183.41 971.44 1183.41 970.985 1183.27C970.531 1183.14 970.123 1182.88 969.81 1182.53C969.496 1182.17 969.29 1181.74 969.215 1181.27C969.139 1180.8 969.198 1180.32 969.384 1179.89C969.569 1179.45 969.875 1179.08 970.265 1178.81C970.654 1178.54 971.112 1178.39 971.585 1178.37C972.308 1178.43 972.98 1178.77 973.46 1179.31C973.94 1179.85 974.191 1180.56 974.159 1181.28V1181.28Z" fill="white"/>
<path d="M796.415 1320.74C796.507 1321.44 796.32 1322.15 795.894 1322.71C795.468 1323.28 794.838 1323.65 794.138 1323.76C793.415 1323.7 792.743 1323.37 792.263 1322.82C791.783 1322.28 791.532 1321.57 791.564 1320.85C791.497 1320.49 791.508 1320.13 791.596 1319.77C791.685 1319.42 791.85 1319.09 792.079 1318.81C792.307 1318.53 792.595 1318.3 792.921 1318.14C793.247 1317.98 793.605 1317.89 793.968 1317.88C794.332 1317.87 794.693 1317.94 795.026 1318.09C795.359 1318.23 795.657 1318.45 795.898 1318.72C796.14 1318.99 796.319 1319.31 796.424 1319.66C796.529 1320.01 796.557 1320.38 796.506 1320.74H796.415Z" fill="white"/>
<path d="M744.807 1460.19C744.807 1457.57 745.558 1455.43 746.651 1455.41C747.745 1455.39 748.701 1457.48 748.77 1460.08C748.838 1462.67 748.018 1464.83 746.925 1464.85C745.832 1464.88 744.898 1462.78 744.807 1460.19Z" fill="white"/>
<path d="M532.831 1481.01C532.831 1478.39 531.351 1476.23 529.347 1476.21C528.365 1475.91 527.317 1475.93 526.347 1476.26C525.378 1476.6 524.538 1477.22 523.944 1478.06C523.351 1478.89 523.034 1479.89 523.039 1480.92C523.044 1481.94 523.37 1482.94 523.972 1483.76C524.573 1484.59 525.419 1485.21 526.392 1485.53C527.364 1485.86 528.413 1485.87 529.391 1485.56C530.37 1485.26 531.228 1484.66 531.845 1483.84C532.462 1483.02 532.807 1482.03 532.831 1481.01V1481.01Z" fill="white"/>
<path d="M555.425 1405.92C555.425 1403.31 554.241 1401.17 552.601 1401.14C550.961 1401.12 549.572 1403.17 549.504 1405.7C549.435 1408.22 550.688 1410.45 552.328 1410.5C553.968 1410.54 555.357 1408.54 555.425 1405.92Z" fill="white"/>
<path d="M394.308 1449.47C394.204 1448.72 393.885 1448.01 393.39 1447.42C392.895 1446.84 392.244 1446.42 391.514 1446.19C390.783 1445.97 390.004 1445.96 389.268 1446.16C388.532 1446.36 387.869 1446.77 387.358 1447.34C386.847 1447.91 386.509 1448.61 386.384 1449.36C386.258 1450.12 386.351 1450.89 386.65 1451.59C386.95 1452.29 387.444 1452.89 388.074 1453.33C388.705 1453.76 389.445 1454 390.209 1454.02C391.349 1453.94 392.412 1453.42 393.177 1452.57C393.941 1451.72 394.347 1450.61 394.308 1449.47V1449.47Z" fill="white"/>
<path d="M415.808 1350.72C415.808 1348.13 414.465 1345.97 412.642 1345.92C410.82 1345.88 409.294 1347.97 409.203 1350.59C409.112 1353.2 410.547 1355.34 412.369 1355.39C414.191 1355.43 415.717 1353.34 415.808 1350.72Z" fill="white"/>
<path d="M465.984 1252.66C465.907 1252.19 465.697 1251.76 465.381 1251.4C465.065 1251.05 464.655 1250.79 464.198 1250.66C463.742 1250.53 463.258 1250.54 462.803 1250.67C462.348 1250.8 461.94 1251.07 461.628 1251.42C461.315 1251.78 461.111 1252.22 461.038 1252.69C460.965 1253.15 461.026 1253.63 461.216 1254.07C461.405 1254.5 461.714 1254.88 462.106 1255.14C462.499 1255.41 462.959 1255.56 463.434 1255.57C464.155 1255.51 464.824 1255.18 465.301 1254.63C465.777 1254.09 466.022 1253.38 465.984 1252.66Z" fill="white"/>
<path d="M461.406 1137.19C461.564 1138.28 461.289 1139.4 460.638 1140.29C459.988 1141.19 459.013 1141.8 457.921 1141.99C456.94 1142.28 455.891 1142.26 454.922 1141.93C453.952 1141.6 453.112 1140.97 452.518 1140.14C451.925 1139.3 451.608 1138.3 451.613 1137.28C451.618 1136.26 451.944 1135.26 452.546 1134.43C453.147 1133.6 453.994 1132.98 454.966 1132.66C455.938 1132.34 456.987 1132.33 457.966 1132.63C458.944 1132.94 459.802 1133.54 460.419 1134.36C461.036 1135.17 461.381 1136.16 461.406 1137.19V1137.19Z" fill="white"/>
<path d="M484 1212.27C484 1214.87 482.816 1217.03 481.176 1217.05C479.536 1217.07 478.147 1215 478.079 1212.5C478.011 1210 479.263 1207.74 480.903 1207.7C482.543 1207.65 483.932 1209.66 484 1212.27Z" fill="white"/>
<path d="M354.609 1171.45C354.505 1172.21 354.186 1172.92 353.691 1173.5C353.196 1174.08 352.545 1174.51 351.814 1174.73C351.084 1174.96 350.305 1174.97 349.569 1174.77C348.833 1174.56 348.17 1174.15 347.659 1173.58C347.148 1173.02 346.81 1172.32 346.684 1171.56C346.559 1170.81 346.651 1170.04 346.951 1169.34C347.25 1168.63 347.745 1168.03 348.375 1167.6C349.005 1167.17 349.746 1166.93 350.51 1166.9C351.649 1166.99 352.713 1167.5 353.477 1168.35C354.242 1169.2 354.648 1170.31 354.609 1171.45Z" fill="white"/>
<path d="M344.384 1267.45C344.384 1270.07 343.04 1272.2 341.218 1272.25C339.396 1272.3 337.87 1270.22 337.779 1267.7C337.687 1265.17 339.122 1262.94 340.944 1262.9C342.766 1262.85 344.201 1264.85 344.384 1267.45Z" fill="white"/>
<path d="M577.973 1226.06C578.052 1226.76 577.86 1227.46 577.436 1228.02C577.012 1228.58 576.389 1228.95 575.696 1229.06C574.975 1229.01 574.305 1228.67 573.828 1228.13C573.352 1227.58 573.107 1226.87 573.145 1226.15C573.068 1225.44 573.275 1224.72 573.723 1224.16C574.171 1223.6 574.822 1223.23 575.536 1223.15C576.237 1223.23 576.878 1223.58 577.331 1224.12C577.783 1224.66 578.013 1225.36 577.973 1226.06V1226.06Z" fill="white"/>
<path d="M394.559 1365.51C394.627 1365.87 394.616 1366.24 394.527 1366.59C394.438 1366.94 394.273 1367.27 394.045 1367.55C393.816 1367.84 393.528 1368.06 393.202 1368.23C392.876 1368.39 392.519 1368.47 392.155 1368.48C391.792 1368.49 391.431 1368.42 391.097 1368.27C390.764 1368.13 390.466 1367.91 390.225 1367.64C389.983 1367.37 389.804 1367.05 389.699 1366.7C389.594 1366.35 389.566 1365.99 389.617 1365.63C389.549 1365.27 389.56 1364.9 389.649 1364.55C389.738 1364.2 389.903 1363.87 390.131 1363.59C390.36 1363.31 390.648 1363.08 390.974 1362.92C391.3 1362.76 391.657 1362.67 392.021 1362.66C392.384 1362.65 392.745 1362.72 393.079 1362.87C393.412 1363.01 393.71 1363.23 393.951 1363.5C394.193 1363.77 394.372 1364.09 394.477 1364.44C394.582 1364.79 394.61 1365.15 394.559 1365.51Z" fill="white"/>
<path d="M1047.26 210.446C1047.26 210.446 1047.26 210.448 1047.26 210.451C1047.26 210.448 1047.26 210.446 1047.26 210.446ZM1045.4 210.348C1045.99 210.45 1046.45 210.553 1046.77 210.654C1046.45 210.755 1045.99 210.858 1045.4 210.96C1044 211.202 1041.97 211.421 1039.44 211.607C1034.38 211.977 1027.38 212.206 1019.64 212.206C1011.9 212.206 1004.9 211.977 999.845 211.607C997.313 211.421 995.278 211.202 993.883 210.96C993.294 210.858 992.834 210.755 992.505 210.654C992.834 210.553 993.294 210.45 993.883 210.348C995.278 210.107 997.313 209.887 999.845 209.702C1004.9 209.332 1011.9 209.102 1019.64 209.102C1027.38 209.102 1034.38 209.332 1039.44 209.702C1041.97 209.887 1044 210.107 1045.4 210.348ZM992.016 210.446C992.016 210.446 992.018 210.448 992.022 210.451C992.017 210.448 992.016 210.446 992.016 210.446ZM992.016 210.862C992.016 210.862 992.017 210.86 992.022 210.857C992.018 210.86 992.016 210.862 992.016 210.862ZM1047.26 210.857C1047.26 210.86 1047.26 210.862 1047.26 210.862C1047.26 210.862 1047.26 210.86 1047.26 210.857Z" stroke="#F6E7F1"/>
<path d="M427.949 1163.87C427.908 1163.52 427.937 1163.16 428.035 1162.82C428.133 1162.48 428.298 1162.16 428.52 1161.88C428.742 1161.6 429.017 1161.36 429.33 1161.19C429.642 1161.02 429.985 1160.91 430.34 1160.87C430.945 1160.74 431.575 1160.81 432.143 1161.05C432.711 1161.3 433.19 1161.71 433.514 1162.24C433.838 1162.76 433.992 1163.37 433.955 1163.99C433.918 1164.61 433.692 1165.2 433.307 1165.68C432.922 1166.16 432.398 1166.52 431.805 1166.69C431.212 1166.87 430.579 1166.85 429.993 1166.66C429.407 1166.46 428.897 1166.09 428.531 1165.59C428.165 1165.09 427.962 1164.49 427.949 1163.87V1163.87Z" fill="white"/>
<path d="M578.423 1155.78C578.423 1158.4 579.675 1160.54 581.406 1160.58C583.137 1160.63 584.595 1158.54 584.663 1156.03C584.732 1153.53 583.411 1151.28 581.68 1151.23C579.949 1151.19 578.491 1153.19 578.423 1155.78Z" fill="white"/>
</g>
</svg>
